<svg xmlns="http://www.w3.org/2000/svg" viewBox="0 0 57.74 140.11"><defs><style>.cls-1{fill:#ffc20e;}</style></defs><title>arrow</title><g id="Layer_2" data-name="Layer 2"><g id="Layer_1-2" data-name="Layer 1"><path class="cls-1" d="M57.74,70.13A3.63,3.63,0,0,1,56.57,72c-.57.66-1.14,1.33-1.74,2a6.08,6.08,0,0,0-1.56,2.83c-.44,1.9-1.75,3.34-2.77,4.93q-2,3.13-4,6.27a1.13,1.13,0,0,0-.16.4c-.48,2.88-2.55,4.86-4,7.17a7.61,7.61,0,0,0-.86,1.51c-.73,2.06-1.38,4.14-2.1,6.21-.4,1.17-.8,2.35-1.32,3.47-1.19,2.58-2.47,5.12-3.66,7.7a3.6,3.6,0,0,0-.34,1.68,5.78,5.78,0,0,1-.82,3.34,8.91,8.91,0,0,0-1.35,4.34,3,3,0,0,1-.69,1.55,7.24,7.24,0,0,0-1.23,3,34,34,0,0,1-.84,3.39,7,7,0,0,0-.31,3.86,7.12,7.12,0,0,1-.31,3.88c-.06.18-.24.32-.49.63a6.17,6.17,0,0,1-.49-.7c-.1-.19-.08-.44-.19-.63a5.38,5.38,0,0,1-.33-5c0-2.4.5-4.79,0-7.2a4.94,4.94,0,0,1-.13-1.95,9.77,9.77,0,0,0-.16-3.91,13,13,0,0,1-.37-3.68c.1-.87-.4-1.34-1.35-1.34-1.38,0-2.76.11-4.14.16a14.51,14.51,0,0,1-3.26,0,26.71,26.71,0,0,0-5.67-.22c-2,0-3.93.29-5.87-.34a3.38,3.38,0,0,0-1.5.13c-.65.11-1.28.32-1.93.41a1.47,1.47,0,0,1-1.81-1.42,15,15,0,0,1,0-2.41,29.26,29.26,0,0,0-.22-7.2,3.87,3.87,0,0,1-.06-1.09,28.05,28.05,0,0,1,.54-3.89,12,12,0,0,0-.47-6.25,11.37,11.37,0,0,1-.13-5.18c.2-1.07.47-2.14.65-3.21a5.41,5.41,0,0,0,.06-1.52C.89,81,.51,78.21.2,75.47a11.65,11.65,0,0,1,0-1.95A26.38,26.38,0,0,0,.46,69.6a13.3,13.3,0,0,1,.45-4.76A5.34,5.34,0,0,0,1,62.27a10.88,10.88,0,0,1-.17-3A38.62,38.62,0,0,0,.64,51.8a14.57,14.57,0,0,1,.57-5.39,5.41,5.41,0,0,0-.06-3.61,24.64,24.64,0,0,1-.9-3.15,5.24,5.24,0,0,1,.89-5c.19-.22.35-.47.52-.71a1.8,1.8,0,0,0,.11-2A8.74,8.74,0,0,1,1,26a11.45,11.45,0,0,1,4.76-.75c1.53.11,3.06.16,4.59.22a7.09,7.09,0,0,1,1.31,0,10.28,10.28,0,0,0,4.74-.29,22.67,22.67,0,0,1,3.9-.21,7.89,7.89,0,0,0,1.74-.1,4.16,4.16,0,0,1,3,.18,1.36,1.36,0,0,0,1.73-.52,2.52,2.52,0,0,0,.51-2.81,6.32,6.32,0,0,1-.39-3.21A11.51,11.51,0,0,0,26.55,14a8,8,0,0,1,.08-4.31,15.23,15.23,0,0,0,.42-5C27,3.45,27,2.21,27,1a1.34,1.34,0,0,1,.11-.64A.66.66,0,0,1,27.57,0,.61.61,0,0,1,28,.36a9.62,9.62,0,0,1,.24,1.93,3.8,3.8,0,0,0,1,3A1.83,1.83,0,0,1,29.65,7c-.34,2.55.73,4.86,1.21,7.28a3.79,3.79,0,0,0,.46,1.22,18.45,18.45,0,0,1,2,6.42,7.05,7.05,0,0,0,.45,1.69,14.88,14.88,0,0,1,1.09,3.77,2.69,2.69,0,0,0,.33,1c1.31,1.92,1.58,4.22,2.33,6.34a7.39,7.39,0,0,0,1.37,2.7,5.19,5.19,0,0,1,1.31,3.18,4.7,4.7,0,0,0,.33,1.48,43.39,43.39,0,0,0,3.5,6.79c1.39,2,2.52,4.27,3.84,6.37,1.55,2.47,3.19,4.88,4.79,7.32.36.55.8,1.05,1.1,1.63a20.05,20.05,0,0,0,3.68,5.4A1.74,1.74,0,0,1,57.74,70.13ZM38.9,89.24a4.85,4.85,0,0,0-1.07.7c-.29.33-.08,1,.37,1.35a2.75,2.75,0,0,0,2,.77,1.14,1.14,0,0,0,.6-2.15C40.2,89.64,39.57,89.47,38.9,89.24Zm5.75-24.48a.82.82,0,0,0-.78-.85,1,1,0,1,0,0,2A1,1,0,0,0,44.65,64.76Zm-5.49-1.18c-.15.22-.5.51-.56.85a.93.93,0,0,0,1.06,1,1,1,0,0,0,.82-.85A1.16,1.16,0,0,0,39.16,63.59ZM26.15,55a2.61,2.61,0,0,0-.25.47s.27.21.31.18a2.17,2.17,0,0,0,.35-.41Z"/></g></g></svg>