<?xml version="1.0" encoding="UTF-8" standalone="no"?>
<svg width="59px" height="141px" viewBox="0 0 59 141" version="1.1" xmlns="http://www.w3.org/2000/svg" xmlns:xlink="http://www.w3.org/1999/xlink">
    <!-- Generator: Sketch 40.1 (33804) - http://www.bohemiancoding.com/sketch -->
    <title>arrow-back</title>
    <desc>Created with Sketch.</desc>
    <defs></defs>
    <g id="Page-1" stroke="none" stroke-width="1" fill="none" fill-rule="evenodd">
        <g id="Desktop-Index" transform="translate(-52.000000, -241.000000)" fill="#FFC20E">
            <g id="arrow-back" transform="translate(81.500000, 311.500000) scale(-1, 1) translate(-81.500000, -311.500000) translate(52.000000, 241.000000)">
                <path d="M58.19,71 C57.9923457,71.7212736 57.5767376,72.3638944 57,72.84 C56.43,73.5 55.86,74.17 55.26,74.84 C54.4942423,75.6253445 53.9552022,76.6032185 53.7,77.67 C53.26,79.57 51.95,81.01 50.93,82.6 C49.5966667,84.6866667 48.2633333,86.7766667 46.93,88.87 C46.8515083,88.9918388 46.7971879,89.1276397 46.77,89.27 C46.29,92.15 44.22,94.13 42.77,96.44 C42.4266176,96.908845 42.1380702,97.4154805 41.91,97.95 C41.18,100.01 40.53,102.09 39.81,104.16 C39.41,105.33 39.01,106.51 38.49,107.63 C37.3,110.21 36.02,112.75 34.83,115.33 C34.5830595,115.854458 34.4664202,116.430793 34.49,117.01 C34.561896,118.180746 34.2758993,119.345659 33.67,120.35 C32.8523796,121.655635 32.3872461,123.150953 32.32,124.69 C32.2439347,125.262296 32.0043521,125.800489 31.63,126.24 C30.998473,127.134153 30.5779282,128.159872 30.4,129.24 C30.1782607,130.383644 29.8978909,131.515137 29.56,132.63 C29.0957472,133.861916 28.988302,135.199782 29.25,136.49 C29.5090546,137.787022 29.4017097,139.130565 28.94,140.37 C28.88,140.55 28.7,140.69 28.45,141 C28.2706868,140.77827 28.106961,140.544376 27.96,140.3 C27.86,140.11 27.88,139.86 27.77,139.67 C26.8431802,138.159418 26.7197517,136.289289 27.44,134.67 C27.44,132.27 27.94,129.88 27.44,127.47 C27.2672419,126.835143 27.2230438,126.172171 27.31,125.52 C27.5209018,124.219214 27.466477,122.889206 27.15,121.61 C26.8519093,120.407237 26.7273153,119.168032 26.78,117.93 C26.88,117.06 26.38,116.59 25.43,116.59 C24.05,116.59 22.67,116.7 21.29,116.75 C20.2067834,116.87246 19.1132166,116.87246 18.03,116.75 C16.1531729,116.47555 14.2524502,116.4018 12.36,116.53 C10.36,116.53 8.43,116.82 6.49,116.19 C5.98658537,116.120003 5.47386626,116.164439 4.99,116.32 C4.34,116.43 3.71,116.64 3.06,116.73 C2.62423938,116.833609 2.16501551,116.732891 1.81261424,116.456421 C1.46021298,116.179952 1.25308708,115.757898 1.25,115.31 C1.1853611,114.507967 1.1853611,113.702033 1.25,112.9 C1.47349564,110.500099 1.3996025,108.081778 1.03,105.7 C0.970484133,105.346445 0.960387577,104.986334 1,104.63 C1.08889379,103.322309 1.26933594,102.022458 1.54,100.74 C1.93977314,98.6518169 1.77757378,96.4949106 1.07,94.49 C0.628554622,92.7963535 0.584066121,91.0236579 0.94,89.31 C1.14,88.24 1.41,87.17 1.59,86.1 C1.68148796,85.5986879 1.70168759,85.0869638 1.65,84.58 C1.33,81.83 0.96,79.09 0.65,76.35 C0.595505268,75.7011422 0.595505268,75.0488578 0.65,74.4 C0.817260642,73.1003624 0.887454945,71.7900688 0.86,70.48 C0.721231129,68.8791771 0.873694208,67.2664566 1.31,65.72 C1.54559241,64.8826361 1.57305515,64.0003957 1.39,63.15 C1.19485261,62.1626758 1.13764046,61.1530496 1.22,60.15 C1.39900329,57.6733059 1.33872424,55.1851206 1.04,52.72 C0.891205225,50.9034964 1.08454998,49.0752013 1.61,47.33 C2.00397416,46.1552987 1.98279401,44.88096 1.55,43.72 C1.18045271,42.6911282 0.879788332,41.6388029 0.65,40.57 C0.065214996,38.8613241 0.401526106,36.9719358 1.54,35.57 C1.73,35.35 1.89,35.1 2.06,34.86 C2.49846547,34.2771841 2.54190435,33.4873863 2.17,32.86 C1.2208411,31.0104653 0.962020175,28.88317 1.44,26.86 C2.95550115,26.2751767 4.57809536,26.0195158 6.2,26.11 C7.73,26.22 9.26,26.27 10.79,26.33 C11.225731,26.2895727 11.664269,26.2895727 12.1,26.33 C13.6809789,26.6046017 15.3042885,26.5052853 16.84,26.04 C18.1315383,25.857938 19.4363795,25.7876774 20.74,25.83 C21.3219132,25.8610254 21.9054726,25.8274875 22.48,25.73 C23.4674905,25.4140569 24.5373711,25.4782497 25.48,25.91 C26.1051268,26.1999985 26.8483592,25.9765992 27.21,25.39 C27.9455792,24.6493635 28.1483944,23.5318915 27.72,22.58 C27.3138373,21.5619238 27.1794382,20.4557156 27.33,19.37 C27.5181772,17.8451746 27.3991719,16.2981063 26.98,14.82 C26.6118044,13.403076 26.6394757,11.9122841 27.06,10.51 C27.4754717,8.87801624 27.6173974,7.18842476 27.48,5.51 C27.48,4.27 27.48,3.03 27.43,1.79 C27.4136379,1.57087447 27.4514138,1.35108753 27.54,1.15 C27.6337037,0.972656454 27.8029688,0.847547484 28,0.81 C28.2045557,0.844013161 28.3778232,0.979613784 28.46,1.17 C28.6049926,1.80357396 28.6854034,2.450211 28.7,3.1 C28.5816532,4.197792 28.9466473,5.29277451 29.7,6.1 C30.0996438,6.54515638 30.256475,7.15754488 30.12,7.74 C29.78,10.29 30.85,12.6 31.33,15.02 C31.4117058,15.4501862 31.5673418,15.8629597 31.79,16.24 C32.8443044,18.2394196 33.5222281,20.4155547 33.79,22.66 C33.869275,23.2398271 34.0204378,23.8075274 34.24,24.35 C34.7681816,25.5530331 35.1347018,26.8207221 35.33,28.12 C35.3730443,28.4718189 35.4851928,28.8116628 35.66,29.12 C36.97,31.04 37.24,33.34 37.99,35.46 C38.2554314,36.4449056 38.7218862,37.3641962 39.36,38.16 C40.1453983,39.0403037 40.6074478,40.16192 40.67,41.34 C40.6991692,41.8479429 40.8106193,42.3477799 41,42.82 C41.9647758,45.1818297 43.1359802,47.4539662 44.5,49.61 C45.89,51.61 47.02,53.88 48.34,55.98 C49.89,58.45 51.53,60.86 53.13,63.3 C53.49,63.85 53.93,64.35 54.23,64.93 C55.1531106,66.9191314 56.3962849,68.7433546 57.91,70.33 C58.0494151,70.5311557 58.1448258,70.75946 58.19,71 L58.19,71 Z M39.35,90.12 C38.964004,90.3050898 38.6042114,90.5404681 38.28,90.82 C37.99,91.15 38.2,91.82 38.65,92.17 C39.1851096,92.6865647 39.9066372,92.9643528 40.65,92.94 C41.1888518,92.9761107 41.6791013,92.6291662 41.824269,92.108982 C41.9694367,91.5887979 41.7296831,91.0381316 41.25,90.79 C40.65,90.52 40,90.35 39.35,90.12 L39.35,90.12 Z M45.1,65.64 C45.1169672,65.1907533 44.7690474,64.8116098 44.32,64.79 C43.7677153,64.79 43.32,65.2377153 43.32,65.79 C43.32,66.3422847 43.7677153,66.79 44.32,66.79 C44.8433178,66.6748714 45.1828892,66.1677193 45.09,65.64 L45.1,65.64 Z M39.61,64.46 C39.46,64.68 39.11,64.97 39.05,65.31 C39.0256963,65.5928393 39.1319069,65.8712901 39.3384005,66.0660954 C39.5448942,66.2609007 39.8290547,66.3507246 40.11,66.31 C40.5393277,66.2355754 40.8710434,65.8917238 40.93,65.46 C40.8905286,65.1490362 40.7268892,64.8672833 40.4763483,64.6789067 C40.2258074,64.4905301 39.9096945,64.411567 39.6,64.46 L39.61,64.46 Z M26.61,55.89 C26.5108653,56.0377363 26.4270964,56.195222 26.36,56.36 C26.36,56.36 26.63,56.57 26.67,56.54 C26.8032546,56.4184121 26.9208282,56.280683 27.02,56.13 L26.61,55.89 Z" id="Shape"></path>
            </g>
        </g>
    </g>
</svg>