<?xml version="1.0" encoding="UTF-8" standalone="no"?>
<svg width="513px" height="2px" viewBox="0 0 513 2" version="1.1" xmlns="http://www.w3.org/2000/svg" xmlns:xlink="http://www.w3.org/1999/xlink">
    <!-- Generator: Sketch 40.1 (33804) - http://www.bohemiancoding.com/sketch -->
    <title>border</title>
    <desc>Created with Sketch.</desc>
    <defs></defs>
    <g id="Page-1" stroke="none" stroke-width="1" fill="none" fill-rule="evenodd">
        <g id="logo" transform="translate(-1.000000, -597.000000)" fill="#FFC20E">
            <g id="Layer_2">
                <g id="Layer_1-2">
                    <path d="M512.77,711.14 C512,711.91 511.77,711.39 510.65,711.39 L508.48,711.39 C507.4,711.39 507.39,711.01 506.31,711.01 C505.23,711.01 505.22,711.46 504.14,711.46 C503.06,711.46 503.05,711.36 501.97,711.36 C500.89,711.36 500.88,711.03 499.8,711.03 C498.72,711.03 498.71,711.47 497.63,711.47 C496.55,711.47 496.54,711.38 495.46,711.38 C494.38,711.38 494.37,711.13 493.29,711.13 C492.21,711.13 492.2,711 491.11,711 C490.02,711 490.02,711.28 488.93,711.28 C487.84,711.28 487.84,711.5 486.75,711.5 C485.66,711.5 485.66,711.36 484.57,711.36 C483.48,711.36 483.48,711.13 482.39,711.13 C481.3,711.13 481.3,711.05 480.22,711.05 L478,711.05 L475.83,711.05 C474.75,711.05 474.74,711.38 473.66,711.38 L471.49,711.38 C470.41,711.38 470.4,711.13 469.32,711.13 C468.24,711.13 468.23,711.34 467.15,711.34 C466.07,711.34 466.06,711.51 464.98,711.51 C463.9,711.51 463.89,711.18 462.81,711.18 C461.73,711.18 461.72,711.11 460.64,711.11 C459.56,711.11 459.55,711.05 458.47,711.05 C457.39,711.05 457.38,711.32 456.3,711.32 C455.22,711.32 455.21,711.17 454.13,711.17 C453.05,711.17 453,711 452,711 C451,711 450.91,711.35 449.83,711.35 C448.75,711.35 448.74,711.22 447.66,711.22 C446.58,711.22 446.57,711.04 445.49,711.04 L441.1,711.04 C440.01,711.04 440.01,711.42 438.93,711.42 C437.85,711.42 437.84,711.31 436.76,711.31 C435.68,711.31 435.67,711.26 434.59,711.26 C433.51,711.26 433.5,711.4 432.42,711.4 L430.25,711.4 C429.17,711.4 429.16,711.22 428.08,711.22 L425.91,711.22 C424.82,711.22 424.82,711.51 423.74,711.51 C422.66,711.51 422.65,711.06 421.57,711.06 L419.4,711.06 C418.32,711.06 418.31,711.48 417.23,711.48 C416.15,711.48 416.14,711.32 415.06,711.32 C413.98,711.32 413.97,711.23 412.89,711.23 C411.81,711.23 411.8,711.11 410.71,711.11 L408.5,711.11 C407.41,711.11 407.41,711.16 406.32,711.16 C405.23,711.16 405.23,711.47 404.14,711.47 C403.05,711.47 403.06,711 402,711 L399.82,711 C398.73,711 398.73,711.23 397.64,711.23 C396.55,711.23 396.55,711.05 395.46,711.05 L393.29,711.05 C392.2,711.05 392.2,711.15 391.12,711.15 C390.04,711.15 390.03,711.35 388.95,711.35 C387.87,711.35 387.86,711.03 386.78,711.03 C385.7,711.03 385.69,711.2 384.61,711.2 C383.53,711.2 383.52,710.94 382.44,710.94 L380.27,710.94 C379.19,710.94 379.18,711.33 378.1,711.33 C377.02,711.33 377.01,711.13 375.93,711.13 L373.76,711.13 L371.59,711.13 C370.51,711.13 370.5,711.39 369.42,711.39 C368.34,711.39 368.33,711.44 367.25,711.44 C366.17,711.44 366.16,711.06 365.08,711.06 C364,711.06 363.99,711.38 362.91,711.38 C361.83,711.38 361.82,711.33 360.74,711.33 C359.66,711.33 359.65,710.96 358.57,710.96 C357.49,710.96 357.48,711.13 356.4,711.13 C355.32,711.13 355.31,711.21 354.23,711.21 L352.06,711.21 L349.88,711.21 C348.79,711.21 348.79,711.37 347.7,711.37 L345.52,711.37 C344.43,711.37 344.43,711.46 343.34,711.46 C342.25,711.46 342.25,711.36 341.16,711.36 L338.98,711.36 C337.89,711.36 337.89,711.27 336.8,711.27 C335.71,711.27 335.71,711.42 334.62,711.42 C333.53,711.42 333.53,711.52 332.44,711.52 C331.35,711.52 331.35,711.19 330.26,711.19 C329.17,711.19 329.17,711.48 328.09,711.48 C327.01,711.48 327,711.16 325.92,711.16 C324.84,711.16 324.83,711.3 323.75,711.3 L321.58,711.3 C320.5,711.3 320.49,711.37 319.41,711.37 C318.33,711.37 318.32,711.23 317.24,711.23 C316.16,711.23 316.15,711.29 315.07,711.29 C313.99,711.29 313.98,711.47 312.9,711.47 C311.82,711.47 311.81,711.53 310.73,711.53 C309.65,711.53 309.64,711.44 308.56,711.44 C307.48,711.44 307.47,711.31 306.39,711.31 C305.31,711.31 305.3,711.15 304.22,711.15 C303.14,711.15 303.13,711.31 302.04,711.31 C300.95,711.31 300.95,711.2 299.86,711.2 C298.77,711.2 298.77,711.28 297.68,711.28 C296.59,711.28 296.59,711.52 295.5,711.52 C294.41,711.52 294.41,711.31 293.32,711.31 C292.23,711.31 292.23,711.16 291.14,711.16 C290.05,711.16 290.05,711.36 288.96,711.36 C287.87,711.36 287.87,711.14 286.78,711.14 C285.69,711.14 285.69,711.42 284.6,711.42 C283.51,711.42 283.51,711.08 282.42,711.08 C281.33,711.08 281.33,711.31 280.24,711.31 C279.15,711.31 279.09,711 278,711 L275.82,711 L273.65,711 C272.57,711 272.56,711.08 271.48,711.08 C270.4,711.08 270.39,711.2 269.31,711.2 C268.23,711.2 268.22,711.03 267.13,711.03 C266.04,711.03 266.04,711.17 264.95,711.17 C263.86,711.17 263.86,711.35 262.77,711.35 C261.68,711.35 261.68,711.04 260.59,711.04 C259.5,711.04 259.5,711.11 258.41,711.11 C257.32,711.11 257.32,711.05 256.23,711.05 L254.05,711.05 C252.96,711.05 252.96,711.22 251.87,711.22 L249.69,711.22 C248.6,711.22 248.6,711.02 247.51,711.02 C246.42,711.02 246.42,711.18 245.33,711.18 C244.24,711.18 244.24,710.94 243.15,710.94 C242.06,710.94 242.06,711.16 240.97,711.16 C239.88,711.16 239.88,711.32 238.79,711.32 C237.7,711.32 237.7,711.05 236.61,711.05 C235.52,711.05 235.52,710.93 234.43,710.93 C233.34,710.93 233.34,711.12 232.25,711.12 L230.07,711.12 C228.98,711.12 228.98,711.27 227.89,711.27 L225.71,711.27 C224.62,711.27 224.62,710.87 223.53,710.87 C222.44,710.87 222.44,711.24 221.35,711.24 L219.17,711.24 C218.08,711.24 218.08,710.93 216.99,710.93 C215.9,710.93 215.9,711.11 214.81,711.11 C213.72,711.11 213.72,711.2 212.63,711.2 C211.54,711.2 211.54,711.1 210.45,711.1 C209.36,711.1 209.36,710.82 208.27,710.82 L206.09,710.82 C205,710.82 205,711.19 203.91,711.19 C202.82,711.19 202.82,710.91 201.73,710.91 C200.64,710.91 200.64,711.06 199.55,711.06 C198.46,711.06 198.46,710.86 197.37,710.86 L195.19,710.86 C194.1,710.86 194.1,710.94 193.01,710.94 L190.83,710.94 L188.65,710.94 C187.56,710.94 187.56,711.17 186.47,711.17 C185.38,711.17 185.38,710.84 184.29,710.84 C183.2,710.84 183.2,711.08 182.11,711.08 C181.02,711.08 181.02,710.83 179.94,710.83 C178.86,710.83 178.85,711.28 177.77,711.28 C176.69,711.28 176.68,711.03 175.6,711.03 C174.52,711.03 174.51,711.1 173.43,711.1 C172.35,711.1 172.34,710.86 171.26,710.86 C170.18,710.86 170.17,711.1 169.09,711.1 C168.01,711.1 168.12,711 167,711 C165.88,711 165.91,711.07 164.83,711.07 C163.75,711.07 163.74,710.96 162.66,710.96 C161.58,710.96 161.57,711.31 160.49,711.31 C159.41,711.31 159.4,710.92 158.31,710.92 C157.22,710.92 157.22,711.03 156.13,711.03 L154,711.03 C152.91,711.03 152.91,711.1 151.82,711.1 C150.73,711.1 150.73,711.36 149.64,711.36 C148.55,711.36 148.55,711.03 147.46,711.03 C146.37,711.03 146.37,711.34 145.28,711.34 C144.19,711.34 144.19,710.99 143.11,710.99 C142.03,710.99 142.02,710.93 140.94,710.93 C139.86,710.93 139.85,711.08 138.77,711.08 L136.6,711.08 C135.51,711.08 135.51,711.28 134.43,711.28 C133.35,711.28 133.34,711.1 132.25,711.1 C131.16,711.1 131.16,711.3 130.07,711.3 L127.89,711.3 C126.8,711.3 126.8,711.08 125.71,711.08 C124.62,711.08 124.62,711.34 123.53,711.34 L121.35,711.34 C120.26,711.34 120.26,710.89 119.17,710.89 C118.08,710.89 118.08,711.01 116.99,711.01 L114.81,711.01 C113.72,711.01 113.72,711.2 112.63,711.2 C111.54,711.2 111.54,711.27 110.45,711.27 C109.36,711.27 109.36,710.91 108.27,710.91 C107.18,710.91 107.18,711.29 106.09,711.29 C105,711.29 105,711.34 103.91,711.34 C102.82,711.34 102.82,711.02 101.73,711.02 C100.64,711.02 100.64,711.24 99.55,711.24 C98.46,711.24 98.46,711.36 97.37,711.36 C96.28,711.36 96.28,711.1 95.19,711.1 C94.1,711.1 94.1,711.41 93.01,711.41 C91.92,711.41 91.92,711.35 90.83,711.35 L88.65,711.35 C87.56,711.35 87.59,711 86.5,711 C85.41,711 85.41,711.36 84.32,711.36 L82.14,711.36 C81.05,711.36 81.05,711.18 79.96,711.18 C78.87,711.18 78.87,711.12 77.78,711.12 C76.69,711.12 76.69,711 75.6,711 C74.51,711 74.51,711.22 73.42,711.22 C72.33,711.22 72.33,711.15 71.24,711.15 C70.15,711.15 70.15,711.45 69.06,711.45 C67.97,711.45 67.97,711.34 66.88,711.34 C65.79,711.34 65.79,711.4 64.7,711.4 C63.61,711.4 63.61,711.47 62.52,711.47 C61.43,711.47 61.43,711.3 60.34,711.3 C59.25,711.3 59.25,711.1 58.16,711.1 C57.07,711.1 57.07,711.28 55.98,711.28 C54.89,711.28 54.89,711.12 53.8,711.12 L51.62,711.12 C50.53,711.12 50.53,711.22 49.44,711.22 C48.35,711.22 48.35,711.34 47.26,711.34 C46.17,711.34 46.17,711.17 45.08,711.17 C43.99,711.17 43.99,711.09 42.9,711.09 L40.72,711.09 C39.63,711.09 39.63,711.35 38.54,711.35 C37.45,711.35 37.45,711.02 36.36,711.02 C35.27,711.02 35.27,711.17 34.18,711.17 C33.09,711.17 33.09,711.33 32,711.33 C30.91,711.33 30.91,711.41 29.82,711.41 L27.64,711.41 C26.55,711.41 26.55,711.12 25.46,711.12 C24.37,711.12 24.37,711.24 23.28,711.24 C22.19,711.24 22.19,711.11 21.1,711.11 C20.01,711.11 20.01,711.24 18.92,711.24 L16.74,711.24 C15.65,711.24 15.65,711.04 14.56,711.04 C13.47,711.04 13.47,711.23 12.38,711.23 C11.29,711.23 11.28,711 10.19,711 C9.1,711 9.1,711.13 8,711.13 C6.9,711.13 6.91,711.25 5.81,711.25 C4.71,711.25 4.72,711.3 3.62,711.3 C2.52,711.3 2.36,711.77 1.62,711 C0.88,710.23 1.37,710.07 1.37,709 C1.37,707.93 1.7,707.91 1.7,706.83 C1.7,705.75 1.28,705.74 1.28,704.66 C1.28,703.58 1.49,703.57 1.49,702.49 C1.49,701.41 1.42,701.4 1.42,700.31 C1.42,699.22 1.7,699.22 1.7,698.13 C1.7,697.04 1.51,697.06 1.51,696 C1.51,694.94 1.34,694.91 1.34,693.83 C1.34,692.75 1.58,692.74 1.58,691.66 L1.58,689.49 C1.58,688.41 1.39,688.4 1.39,687.32 C1.39,686.24 1.44,686.23 1.44,685.14 C1.44,684.05 1.6,684 1.6,682.92 C1.6,681.84 1.28,681.83 1.28,680.75 L1.28,678.58 C1.28,677.5 1.22,677.49 1.22,676.41 C1.22,675.33 1.52,675.32 1.52,674.23 C1.52,673.14 1.46,673.14 1.46,672 C1.46,670.86 1.7,670.91 1.7,669.82 C1.7,668.73 1.35,668.73 1.35,667.64 C1.35,666.55 1.66,666.55 1.66,665.46 C1.66,664.37 1.44,664.37 1.44,663.28 C1.44,662.19 1.3,662.19 1.3,661.1 C1.3,660.01 1.49,660.01 1.49,658.92 C1.49,657.83 1.61,657.83 1.61,656.74 C1.61,655.65 1.49,655.65 1.49,654.56 L1.49,652.38 C1.49,651.29 1.61,651.29 1.61,650.2 C1.61,649.11 1.27,649.11 1.27,648.02 C1.27,646.93 1.5,647 1.5,645.93 C1.5,644.86 1.61,644.84 1.61,643.76 C1.61,642.68 1.54,642.67 1.54,641.59 C1.54,640.51 1.29,640.5 1.29,639.42 C1.29,638.34 1.21,638.33 1.21,637.24 C1.21,636.15 1.56,636.15 1.56,635.06 C1.56,633.97 1.48,634 1.48,632.89 C1.48,631.78 1.64,631.8 1.64,630.71 L1.64,628.53 C1.64,627.44 1.45,627.44 1.45,626.35 C1.45,625.26 1.71,625.26 1.71,624.17 C1.71,623.08 1.25,623.09 1.25,622 L1.25,619.82 C1.25,618.73 1.56,618.73 1.56,617.64 C1.56,616.55 1.4,616.55 1.4,615.46 C1.4,614.37 1.19,614.37 1.19,613.28 C1.19,612.19 1.33,612.19 1.33,611.1 C1.33,610.01 1.23,610.01 1.23,608.92 C1.23,607.83 1.17,607.83 1.17,606.74 C1.17,605.65 1.65,605.65 1.65,604.56 C1.65,603.47 1.2,603.47 1.2,602.38 C1.2,601.29 1.56,601.29 1.56,600.19 C1.56,599.09 0.49,598.62 1.26,597.84 C2.03,597.06 2.51,597.92 3.59,597.92 C4.67,597.92 4.68,598.24 5.76,598.24 C6.84,598.24 6.85,598.09 7.93,598.09 C9.01,598.09 9.02,597.88 10.1,597.88 L12.27,597.88 C13.35,597.88 13.36,598.09 14.44,598.09 C15.52,598.09 15.53,598.29 16.61,598.29 C17.69,598.29 17.7,598.21 18.78,598.21 C19.86,598.21 19.87,598.14 20.95,598.14 L23.13,598.14 C24.22,598.14 24.22,598.26 25.31,598.26 C26.4,598.26 26.4,597.92 27.49,597.92 C28.58,597.92 28.58,598.29 29.67,598.29 L31.85,598.29 C32.94,598.29 32.94,598.16 34.02,598.16 C35.1,598.16 35.11,598 36.19,598 L38.36,598 C39.44,598 39.45,597.88 40.53,597.88 C41.61,597.88 41.62,598.24 42.7,598.24 C43.78,598.24 43.79,597.97 44.87,597.97 C45.95,597.97 45.96,598.32 47.04,598.32 C48.12,598.32 48.13,598.02 49.21,598.02 L53.55,598.02 C54.64,598.02 54.64,598.23 55.72,598.23 C56.8,598.23 56.81,597.96 57.89,597.96 C58.97,597.96 58.98,598.32 60.06,598.32 C61.14,598.32 61.15,597.88 62.23,597.88 C63.31,597.88 63.32,598.03 64.4,598.03 L66.57,598.03 L68.74,598.03 C69.82,598.03 69.9,598 71,598 C72.1,598 72.09,598.21 73.17,598.21 C74.25,598.21 74.26,597.9 75.34,597.9 C76.42,597.9 76.43,598.13 77.51,598.13 C78.59,598.13 78.6,598.04 79.68,598.04 C80.76,598.04 80.77,598.19 81.85,598.19 L84,598.19 C85.09,598.19 85.09,597.79 86.17,597.79 L88.34,597.79 C89.43,597.79 89.43,598 90.51,598 C91.59,598 91.6,597.73 92.68,597.73 C93.76,597.73 93.77,598.1 94.85,598.1 C95.93,598.1 95.94,597.79 97.02,597.79 C98.1,597.79 98.11,597.86 99.19,597.86 L101.36,597.86 C102.44,597.86 102.45,597.75 103.54,597.75 L105.72,597.75 L107.9,597.75 C108.99,597.75 108.99,598.14 110.08,598.14 C111.17,598.14 111.17,597.75 112.26,597.75 C113.35,597.75 113.35,598.13 114.44,598.13 L116.62,598.13 C117.71,598.13 117.71,597.67 118.8,597.67 C119.89,597.67 119.89,597.86 120.97,597.86 C122.05,597.86 122.06,597.67 123.14,597.67 C124.22,597.67 124.23,597.91 125.31,597.91 C126.39,597.91 126.4,598.11 127.48,598.11 C128.56,598.11 128.57,597.87 129.65,597.87 C130.73,597.87 130.74,597.75 131.82,597.75 C132.9,597.75 132.91,597.91 133.99,597.91 C135.07,597.91 135.08,598.1 136.16,598.1 C137.24,598.1 137.25,597.93 138.33,597.93 C139.41,597.93 139.42,598.08 140.5,598.08 L142.67,598.08 L144.84,598.08 C145.93,598.08 145.93,597.76 147.01,597.76 C148.09,597.76 148.1,597.81 149.18,597.81 C150.26,597.81 150.27,598.21 151.35,598.21 C152.43,598.21 152.44,598.16 153.52,598.16 L155.69,598.16 C156.78,598.16 156.78,597.71 157.86,597.71 C158.94,597.71 158.95,597.79 160.03,597.79 C161.11,597.79 161.12,598.11 162.2,598.11 C163.28,598.11 163.29,597.92 164.38,597.92 L166.56,597.92 L168.74,597.92 C169.83,597.92 169.83,597.99 170.92,597.99 C172.01,597.99 172.01,598.19 173.1,598.19 C174.19,598.19 174.19,598.11 175.28,598.11 C176.37,598.11 176.37,598.21 177.46,598.21 C178.55,598.21 178.55,597.88 179.64,597.88 C180.73,597.88 180.73,598.23 181.82,598.23 C182.91,598.23 182.91,597.81 184,597.81 L186.17,597.81 C187.25,597.81 187.26,598.14 188.34,598.14 C189.42,598.14 189.43,597.76 190.51,597.76 C191.59,597.76 191.6,598.13 192.68,598.13 C193.76,598.13 193.77,597.88 194.85,597.88 C195.93,597.88 195.94,597.93 197.02,597.93 C198.1,597.93 198.11,598.07 199.19,598.07 C200.27,598.07 200.28,597.84 201.36,597.84 C202.44,597.84 202.45,597.72 203.53,597.72 C204.61,597.72 204.62,597.88 205.7,597.88 C206.78,597.88 206.79,598.17 207.87,598.17 C208.95,598.17 208.96,598.11 210.04,598.11 C211.12,598.11 211.13,598.02 212.22,598.02 L214.4,598.02 L216.58,598.02 L218.76,598.02 L221,598.02 L223.18,598.02 C224.27,598.02 224.27,597.72 225.36,597.72 C226.45,597.72 226.45,597.79 227.54,597.79 C228.63,597.79 228.63,598.02 229.72,598.02 C230.81,598.02 230.81,597.93 231.9,597.93 L234.08,597.93 C235.17,597.93 235.17,597.82 236.26,597.82 C237.35,597.82 237.35,598.08 238.44,598.08 C239.53,598.08 239.53,597.9 240.61,597.9 C241.69,597.9 241.7,598.02 242.78,598.02 C243.86,598.02 243.87,597.67 244.95,597.67 L247.13,597.67 C248.22,597.67 248.22,597.96 249.31,597.96 C250.4,597.96 250.4,597.77 251.49,597.77 C252.58,597.77 252.58,597.91 253.67,597.91 L255.85,597.91 C256.94,597.91 256.94,598.08 258.03,598.08 C259.12,598.08 259.12,597.77 260.21,597.77 L262.39,597.77 C263.48,597.77 263.48,597.98 264.57,597.98 C265.66,597.98 265.66,597.62 266.75,597.62 L268.93,597.62 C270.02,597.62 270.02,598.04 271.11,598.04 C272.2,598.04 272.2,597.82 273.29,597.82 L275.47,597.82 C276.56,597.82 276.56,597.99 277.65,597.99 C278.74,597.99 278.74,597.61 279.83,597.61 C280.92,597.61 280.92,597.78 282.01,597.78 L284.19,597.78 L286.37,597.78 L288.55,597.78 C289.64,597.78 289.64,597.55 290.73,597.55 C291.82,597.55 291.82,597.92 292.91,597.92 C294,597.92 294,597.54 295.09,597.54 C296.18,597.54 296.18,597.9 297.27,597.9 C298.36,597.9 298.36,597.77 299.45,597.77 L301.63,597.77 L303.81,597.77 C304.9,597.77 304.9,597.69 305.99,597.69 C307.08,597.69 307.08,597.85 308.17,597.85 C309.26,597.85 309.26,597.94 310.35,597.94 C311.44,597.94 311.44,597.52 312.53,597.52 C313.62,597.52 313.62,597.8 314.71,597.8 L316.89,597.8 L319.07,597.8 C320.16,597.8 320.16,597.7 321.25,597.7 L323.43,597.7 C324.52,597.7 324.52,597.77 325.61,597.77 L327.79,597.77 C328.88,597.77 328.88,597.59 329.97,597.59 C331.06,597.59 331.06,597.66 332.15,597.66 C333.24,597.66 333.24,597.77 334.32,597.77 C335.4,597.77 335.41,597.39 336.49,597.39 C337.57,597.39 337.58,597.48 338.66,597.48 C339.74,597.48 339.75,597.8 340.83,597.8 C341.91,597.8 341.92,597.67 343,597.67 C344.08,597.67 344.09,597.51 345.17,597.51 L347.34,597.51 C348.42,597.51 348.43,597.64 349.51,597.64 C350.59,597.64 350.6,597.5 351.68,597.5 C352.76,597.5 352.77,597.44 353.85,597.44 L356.03,597.44 L358.21,597.44 C359.3,597.44 359.3,597.59 360.39,597.59 C361.48,597.59 361.48,597.79 362.57,597.79 C363.66,597.79 363.66,597.49 364.75,597.49 L366.93,597.49 C368.02,597.49 368.02,597.8 369.11,597.8 L371.28,597.8 L373.45,597.8 L375.62,597.8 L377.79,597.8 L379.96,597.8 C381.05,597.8 381.05,597.86 382.14,597.86 C383.23,597.86 383.23,597.44 384.32,597.44 C385.41,597.44 385.41,597.61 386.5,597.61 C387.59,597.61 387.59,597.66 388.68,597.66 L390.86,597.66 C391.95,597.66 391.95,597.35 393.04,597.35 C394.13,597.35 394.13,597.75 395.22,597.75 C396.31,597.75 396.31,597.8 397.4,597.8 L399.58,597.8 L401.76,597.8 L403.94,597.8 L406.12,597.8 L408.3,597.8 C409.39,597.8 409.39,597.59 410.48,597.59 C411.57,597.59 411.57,597.83 412.66,597.83 C413.75,597.83 413.75,597.72 414.84,597.72 C415.93,597.72 415.93,597.85 417.02,597.85 C418.11,597.85 418.11,597.51 419.2,597.51 C420.29,597.51 420.29,597.73 421.38,597.73 C422.47,597.73 422.47,597.79 423.56,597.79 C424.65,597.79 424.65,597.86 425.74,597.86 C426.83,597.86 426.83,597.46 427.92,597.46 C429.01,597.46 429.01,597.55 430.1,597.55 C431.19,597.55 431.19,597.41 432.28,597.41 L434.46,597.41 L436.64,597.41 C437.73,597.41 437.73,597.79 438.82,597.79 C439.91,597.79 439.91,597.71 441,597.71 C442.09,597.71 442.09,597.41 443.18,597.41 C444.27,597.41 444.27,597.84 445.36,597.84 L447.54,597.84 C448.63,597.84 448.63,597.43 449.72,597.43 C450.81,597.43 450.81,597.51 451.9,597.51 C452.99,597.51 452.99,597.75 454.08,597.75 C455.17,597.75 455.17,597.66 456.26,597.66 C457.35,597.66 457.35,597.45 458.44,597.45 C459.53,597.45 459.53,597.59 460.62,597.59 C461.71,597.59 461.71,597.85 462.8,597.85 C463.89,597.85 463.89,597.56 464.98,597.56 C466.07,597.56 466.07,597.45 467.16,597.45 C468.25,597.45 468.25,597.73 469.34,597.73 C470.43,597.73 470.43,597.82 471.52,597.82 C472.61,597.82 472.61,597.42 473.7,597.42 L475.88,597.42 C476.97,597.42 476.97,597.85 478.06,597.85 L480.24,597.85 L482.42,597.85 C483.51,597.85 483.51,597.67 484.6,597.67 C485.69,597.67 485.69,597.44 486.78,597.44 C487.87,597.44 487.87,597.73 488.96,597.73 L493.33,597.73 C494.42,597.73 494.42,597.88 495.51,597.88 C496.6,597.88 496.6,597.44 497.69,597.44 C498.78,597.44 498.78,597.57 499.87,597.57 C500.96,597.57 500.96,597.66 502.05,597.66 L504.23,597.66 L506.42,597.66 L508.61,597.66 C509.7,597.66 509.7,597.4 510.8,597.4 C511.9,597.4 512.1,596.97 512.88,597.74 C513.66,598.51 513.22,598.74 513.22,599.8 C513.22,600.86 512.9,600.89 512.9,601.97 C512.9,603.05 512.79,603.06 512.79,604.14 C512.79,605.22 513.05,605.23 513.05,606.31 C513.05,607.39 512.88,607.4 512.88,608.49 C512.88,609.58 513.08,609.58 513.08,610.67 L513.08,612.84 C513.08,613.92 513.28,613.93 513.28,615.01 C513.28,616.09 513.08,616.1 513.08,617.18 C513.08,618.26 513.22,618.27 513.22,619.35 C513.22,620.43 512.83,620.44 512.83,621.52 C512.83,622.6 513.09,622.61 513.09,623.7 C513.09,624.79 513.02,624.79 513.02,625.88 L513.02,628.05 C513.02,629.13 512.84,629.14 512.84,630.22 C512.84,631.3 513.09,631.31 513.09,632.39 C513.09,633.47 513.29,633.48 513.29,634.57 C513.29,635.66 512.88,635.66 512.88,636.75 C512.88,637.84 513.32,637.84 513.32,638.93 L513.32,641.11 C513.32,642.2 512.98,642.2 512.98,643.29 L512.98,645.47 C512.98,646.56 513.31,646.56 513.31,647.65 C513.31,648.74 512.98,648.74 512.98,649.83 C512.98,650.92 513.27,650.92 513.27,652.01 C513.27,653.1 512.9,653.1 512.9,654.19 C512.9,655.28 513.02,655.28 513.02,656.37 L513.02,658.55 C513.02,659.64 513.34,659.64 513.34,660.73 C513.34,661.82 513.18,661.82 513.18,662.91 C513.18,664 512.97,664 512.97,665.08 C512.97,666.16 513.12,666.17 513.12,667.25 L513.12,669.42 C513.12,670.5 513.36,670.51 513.36,671.6 C513.36,672.69 513.2,672.69 513.2,673.78 C513.2,674.87 512.97,674.87 512.97,675.95 C512.97,677.03 513.35,677.04 513.35,678.13 L513.35,680.31 C513.35,681.4 513,681.4 513,682.49 C513,683.58 512.86,683.58 512.86,684.67 C512.86,685.76 513.02,685.76 513.02,686.85 C513.02,687.94 513.31,687.94 513.31,689.03 C513.31,690.12 513.11,690.12 513.11,691.21 C513.11,692.3 512.99,692.3 512.99,693.39 C512.99,694.48 513.12,694.48 513.12,695.57 C513.12,696.66 513.06,696.66 513.06,697.75 L513.06,699.93 C513.06,701.02 513.21,701.02 513.21,702.11 L513.21,704.29 C513.21,705.38 513.03,705.38 513.03,706.47 C512.95781,707.198088 512.994886,707.932877 513.14,708.65 C513,710.12 513.54,710.37 512.77,711.14 L512.77,711.14 Z" id="Shape"></path>
                </g>
            </g>
        </g>
    </g>
</svg>