<svg xmlns="http://www.w3.org/2000/svg" viewBox="0 0 244.97 219.62"><defs><style>.cls-1{fill:#00344d;}.cls-2{fill:#fff;}.cls-3{fill:#003049;}.cls-4{fill:#ffc40c;}</style></defs><title>eagle</title><g id="Layer_2" data-name="Layer 2"><g id="Layer_1-2" data-name="Layer 1"><path class="cls-1" d="M84.31,101.82c0-.09,0-.23-.05-.3a7,7,0,0,0-3.09-2.35c-1.39-.39-2.68-1.13-4.07-1.5a5.12,5.12,0,0,1-3.26-2c-.15-.22-.58-.23-.85-.39a6.9,6.9,0,0,1-1.49-1,6.69,6.69,0,0,1-2-4.06c-.06-.62-.47-.9-1-1.14a12.9,12.9,0,0,1-1.55-.91c-.24-.15-.43-.46-.67-.49a13,13,0,0,1-3.14-1.34c-.72-.3-1.39-.72-2.08-1.08-1-.52-2-1-2.94-1.54a5.53,5.53,0,0,0-.71-.23,6.33,6.33,0,0,1-1.5-.56,35.88,35.88,0,0,0-3.42-1.69,3.62,3.62,0,0,1-1.82-3.45,2.65,2.65,0,0,0-1.71-3A13.8,13.8,0,0,1,45.34,73a1.69,1.69,0,0,0-.7-.22,2.72,2.72,0,0,1-2.22-3.33A11.67,11.67,0,0,1,43,67.6a1,1,0,0,0-.18-1.18,5.38,5.38,0,0,0-2.94-2c-1.28-.34-2.2-1.31-3.31-2a7.22,7.22,0,0,0-1.5-.81,6.12,6.12,0,0,1-3.27-2.79,27.21,27.21,0,0,1-1.44-2.64,1.13,1.13,0,0,1-.18-.61c.13-.95.3-1.89.47-2.83.1-.56.2-1.13.35-1.68A1.47,1.47,0,0,1,33.13,50a27.43,27.43,0,0,1,3.74,1.92,6.94,6.94,0,0,0,1,.34c.57.18,1.2.23,1.55.85a.44.44,0,0,0,.72.13c.1-.11,0-.48-.06-.65a14,14,0,0,0-1.35-1.93A2.89,2.89,0,0,0,37.56,50a2.79,2.79,0,0,1-1.73-1.33,1.3,1.3,0,0,0-.43-.46A11.9,11.9,0,0,1,33,46a16.55,16.55,0,0,0-3.7-3A9.39,9.39,0,0,1,26,39.87a3.07,3.07,0,0,0-1-1c-.71-.46-1.49-.83-2.22-1.26a2.07,2.07,0,0,1-.64-.54A14,14,0,0,0,19,33.76l-.08-.08a6.49,6.49,0,0,0-2.59-2c-.45-.23-1-.49-1.07-1.13a.55.55,0,0,0-.32-.38,3.85,3.85,0,0,1-2.13-2c-.65-1.07-1.19-2.21-1.73-3.34A1.83,1.83,0,0,1,11,23.9c.12-1.5.2-3,.46-4.48.17-.94.18-2,1.24-2.6s1.49-.45,2.07.47a7.58,7.58,0,0,0,2.54,2.43,14,14,0,0,1,4.58,4.5,1.27,1.27,0,0,0,.67.46,9.12,9.12,0,0,1,4.07,3,9.83,9.83,0,0,0,2.07,1.86c1.39.83,2.38,2.14,3.76,3S35,34.15,36.25,35a2.41,2.41,0,0,1,.79.7,7.64,7.64,0,0,0,2.45,2.17c.4.29.88.47,1.31.73a1.88,1.88,0,0,1,.74.6c.63,1.29,1.9,1.53,3.05,1.92A5.4,5.4,0,0,1,47,42.69a3.83,3.83,0,0,0,1.47,1c.49.2.93.51,1.42.73a2.92,2.92,0,0,0,1,.3c.18,0,.43-.22.53-.4s-.14-.43-.29-.49a4.19,4.19,0,0,1-2.29-2c-.11-.2-.39-.31-.58-.48s-.48-.31-.53-.51c-.4-1.52-1.74-2.32-2.69-3.37a35.56,35.56,0,0,0-3.58-3,8.4,8.4,0,0,1-1.16-1.11c-.74-.92-1.4-1.89-2.14-2.8a15,15,0,0,0-1.31-1.26,2.65,2.65,0,0,1-.58-.6A8.18,8.18,0,0,0,33.82,26a5.53,5.53,0,0,1-.9-.92c-.81-1-1.55-2-2.4-3A10.71,10.71,0,0,1,29,19.72a2.17,2.17,0,0,0-.95-.84,4.91,4.91,0,0,1-1.69-1.59,17.88,17.88,0,0,0-3.08-3.47,10.2,10.2,0,0,1-1.62-2.21c-.14-.2-.2-.48-.37-.63-1.13-1-1.34-2.49-1.86-3.8a4.73,4.73,0,0,1-.22-2.85c.27-1.13,0-2.33.62-3.42S20.33-.14,21.54.2a6.82,6.82,0,0,1,3.67,2.29C26.33,3.95,27.87,5,29,6.43A8.5,8.5,0,0,0,31,8.59c.43.29.6,1,.94,1.41.6.79,1.24,1.55,1.86,2.33a2.51,2.51,0,0,1,.43.61A3.68,3.68,0,0,0,36,14.65a11,11,0,0,1,1.37,1.16c.34.31.68.63,1,1,1.07,1.15,2.16,2.28,3.2,3.46a6.68,6.68,0,0,0,3,2.26,5,5,0,0,1,1.36.82,19.81,19.81,0,0,1,1.85,1.46A17.79,17.79,0,0,1,49,26.23c.16.19.31.45.52.53a5,5,0,0,1,2.1,1.68A8.65,8.65,0,0,0,54,29.92a9,9,0,0,1,1.17.73,22.71,22.71,0,0,0,2.36,2A8.83,8.83,0,0,0,60.17,34a2.69,2.69,0,0,1,1,.63c.67.53,1.32,1.09,2,1.64a1.32,1.32,0,0,0,1.19.31.77.77,0,0,1,.67.33c.15.45.47.58.84.74a9.75,9.75,0,0,1,1,.6,5.82,5.82,0,0,0,.94.51c.27.1.6.08.7-.29s0-.72-.4-.74a1.85,1.85,0,0,1-1.53-1A3.78,3.78,0,0,0,65.8,36c-.19-.16-.49-.29-.56-.49-.51-1.5-2-2.2-2.76-3.5a16.21,16.21,0,0,0-3-3.44,9.79,9.79,0,0,1-1-1.27A6.73,6.73,0,0,0,55.93,25a2.15,2.15,0,0,1-.76-.54c-.54-.66-1-1.36-1.55-2.06a9.31,9.31,0,0,0-1.77-2.09,6.42,6.42,0,0,1-1.92-3.42,1.27,1.27,0,0,1,0-.62c.13-.52.28-1,.42-1.55a1.65,1.65,0,0,1,1.44-1.24A2.67,2.67,0,0,1,54,14a2.16,2.16,0,0,0,.69.29.53.53,0,0,0,.21,0c.7,0,.86.71,1.36.95s1.1.11,1.49.71a7.16,7.16,0,0,0,1.36,1.2,10.55,10.55,0,0,1,2.63,2.48.93.93,0,0,0,.4.34,5,5,0,0,1,2.73,2.24,2.56,2.56,0,0,0,1.05,1c1,.53,1.61,1.49,2.76,1.79.48.13.86.71,1.26,1.11s.77.95,1.22,1.36a5.22,5.22,0,0,0,1.15.78,13.69,13.69,0,0,1,1.82.88c.72.53,1.68.54,2.33,1.24a8.66,8.66,0,0,0,2,1.58,20.8,20.8,0,0,1,3.73,3c.63.59,1.45.53,2.17.8a2.22,2.22,0,0,1,.75.34c.6.56,1.17,1.14,1.71,1.75s1.57.83,2.32,1.3A13,13,0,0,1,91,40.44a2.92,2.92,0,0,0,1.82,1,1.22,1.22,0,0,1,.8.29,14.76,14.76,0,0,0,2.49,2,6.88,6.88,0,0,0,2.58,1.47,2.79,2.79,0,0,1,1.36,1,6.44,6.44,0,0,0,3.34,2,4,4,0,0,1,1.81,1.22,2.71,2.71,0,0,0,1.48,1A5.16,5.16,0,0,1,109,51.74a5.56,5.56,0,0,0,1.37,1c.92.47,1.91.81,2.82,1.29a3.33,3.33,0,0,1,1.07,1,2.9,2.9,0,0,0,1.42,1.09,10.64,10.64,0,0,1,4.14,2.78,1.28,1.28,0,0,0,.61.42c1.49.25,2.68,1.26,4.15,1.6a4.7,4.7,0,0,0,2.8.1,2.55,2.55,0,0,1,2.37.35,1.43,1.43,0,0,0,1.47.32,4.62,4.62,0,0,1,2.43.12,24,24,0,0,1,5,1.38c.16.07.42.08.48.19.44.83,1.44.91,2,1.46.75.73,1.68,1.19,2.4,1.93.2.21.49.39.56.64.45,1.61,1.88,2,3.16,2.42a5.5,5.5,0,0,1,3.07,2.18,1.3,1.3,0,0,0,.52.52,1.63,1.63,0,0,1,1,1.18,1.61,1.61,0,0,0,1.44,1.12c.35.06.71.06,1.06.12s.49.09.56.23c.33.66,1.08,1,1.19,1.88a1.13,1.13,0,0,0,1.18,1A2.35,2.35,0,0,1,159,79c.13.16.3.38.48.4.8.11,1.19.73,1.68,1.25a6.45,6.45,0,0,0,3.41,2.1,1.86,1.86,0,0,1,1,.53,6.45,6.45,0,0,0,2.73,1.75,14,14,0,0,1,2.84,1.69,1.07,1.07,0,0,0,1.17.19c.55-.24,1.09-.53,1.66-.72a30,30,0,0,1,4.6-1.4A18.1,18.1,0,0,0,184,83.08c1.05-.54,2.08-1.13,3.14-1.64a1.85,1.85,0,0,1,1-.06,3.52,3.52,0,0,1,1,.38,2.09,2.09,0,0,0,2.91-1.16,9.72,9.72,0,0,1,1.49-2.2A9.62,9.62,0,0,0,195,76.65a2.74,2.74,0,0,1,1.17-.88,2.18,2.18,0,0,0,1.2-1.26c.18-.51.79-.87,1.22-1.28s.91-.78,1.35-1.19a3.28,3.28,0,0,1,1.91-.9c.67-.07,1.35-.1,2-.11s.94.29.79,1c-.36,1.57-.71,3.15-2,4.28a8.07,8.07,0,0,0-1.08,1.3c-.39.51-.4,1-.06,1.26s.72.21,1.24-.2.95-.63,1.39-1a1.73,1.73,0,0,0,.51-.64,3.85,3.85,0,0,1,2.23-2.3A2.47,2.47,0,0,0,208,73.64a8.15,8.15,0,0,1,1.79-2.09A16.7,16.7,0,0,0,211.89,69a4,4,0,0,1,1.69-1.44,1.07,1.07,0,0,0,.29-.14l3-2.43q.88-.71,1.77-1.4c.11-.08.28-.19.38-.16.78.25,1.38-.24,2-.48a1.88,1.88,0,0,1,.72-.09c.42,0,.84.12,1.27.15.66,0,.84.15.89.81,0,.42-.12.85-.11,1.27,0,.26.05.64.22.75a.79.79,0,0,0,.75-.14,5.82,5.82,0,0,1,2.61-1.37,1,1,0,0,0,.51-.33,4.07,4.07,0,0,1,2.39-1.55,4.84,4.84,0,0,0,2.83-2.12,2.24,2.24,0,0,1,1.17-.86,17.33,17.33,0,0,1,2.6-.63,3.56,3.56,0,0,1,1,.12,1.28,1.28,0,0,0,1.35-.4,1.73,1.73,0,0,1,1.57-.54.9.9,0,0,1,.9,1.18,6.17,6.17,0,0,1-1.57,2.4.45.45,0,0,1-.27.17,5.39,5.39,0,0,0-2.17.69c-1,.37-1.44,1.21-2.14,1.83-.09.08,0,.33,0,.51.94-.14,1.8-.26,2.67-.4a.65.65,0,0,0,.38-.19,3.81,3.81,0,0,1,2.61-1.1,4.54,4.54,0,0,1,3.26.73,1.29,1.29,0,0,1,.42,1.36A3,3,0,0,1,242.67,68a5.9,5.9,0,0,0-2,1.14,4.23,4.23,0,0,1-1.29.72,3.33,3.33,0,0,0-1.61,1,7.45,7.45,0,0,1-1.38,1c-1.12.83-2.22,1.67-3.33,2.51a1.27,1.27,0,0,0-.32.28c-.73,1.15-1.94,1.79-2.9,2.69a9.51,9.51,0,0,0-1.5,1.81A8.23,8.23,0,0,1,226,81.76a1.31,1.31,0,0,0-.4.36,20.28,20.28,0,0,0-1.45,2.46,5.8,5.8,0,0,1-1.48,2.07,9.3,9.3,0,0,0-2.06,2.58c-.51.94-1.11,1.83-1.68,2.73a1,1,0,0,1-.21.25c-1.2.95-2.37,1.95-3.62,2.82-.66.46-1.51.64-2.22,1a10.29,10.29,0,0,0-1.45,1.09c-.44.36-.85.76-1.3,1.11a1.13,1.13,0,0,0,0,1.83,12.76,12.76,0,0,1,2.87,2.84c.34.43,1.05.56,1.6.81a4.91,4.91,0,0,1,1.24.58,17.47,17.47,0,0,0,3.6,2.12,7,7,0,0,1,2.54,1.87c.52.71,1.27,1.23,1.5,2.16a.87.87,0,0,0,1,.55,2.41,2.41,0,0,1,2.19,1.16,42.19,42.19,0,0,1,2.89,4,6.28,6.28,0,0,1,.78,1.61,13.94,13.94,0,0,0,2.11,4.5c.77,1,1.43,2.07,2.27,3a13.34,13.34,0,0,1,2,2.88,16.11,16.11,0,0,0,1.24,1.87,2.79,2.79,0,0,1,.51,1.92,11.41,11.41,0,0,1-2.62,6.44c-.07.08-.18.14-.22.23-.66,1.64-2.41,2-3.61,3a3.54,3.54,0,0,1-1.61.53c-.64.11-1.08-.54-1.12-1.4a23.22,23.22,0,0,0-.35-3.18,1.94,1.94,0,0,0-.8-1.2,9.63,9.63,0,0,1-2.1-1.83,1.44,1.44,0,0,0-1.21-.58c-.24,0-.5-.19-.73-.33a6.26,6.26,0,0,0-.9-.57c-.23-.08-.65-.08-.76.06a1,1,0,0,0-.15.86,4.27,4.27,0,0,0,.89,1.34,6.57,6.57,0,0,1,1.83,3.22,2,2,0,0,1-1.54,2.5,3.93,3.93,0,0,1-1.58-.1,8.76,8.76,0,0,1-4.59-3.48,2.65,2.65,0,0,1-.19-.26,7.59,7.59,0,0,0-3.17-2.93c-1.09-.56-2-1.42-3.06-2.09a5.86,5.86,0,0,0-1.3-.47,6.27,6.27,0,0,0-4.28-.06,11.2,11.2,0,0,1-2.32.33,1.89,1.89,0,0,0-1.49.73c-.17.24-.55.32-.81.51-.72.52-1.42,1.08-2.15,1.59-.4.28-.84.52-1.27.76s-.74.27-.88.52a3.31,3.31,0,0,1-1.55,1.26,46,46,0,0,0-4.55,2.61,7.68,7.68,0,0,0-2.66,2.72,3.21,3.21,0,0,1-.81,1c-1.15.95-2.34,1.85-3.5,2.79-.16.13-.26.34-.42.49a16,16,0,0,1-1.43,1.27,6.14,6.14,0,0,0-2,2,3,3,0,0,1-1.06,1.18,13.89,13.89,0,0,0-2,1.56,9.15,9.15,0,0,1-1.69,1.1c-1.2.63-2.44,1.18-3.63,1.83a21.36,21.36,0,0,1-5.86,2.25,2,2,0,0,0-.69.3,25.54,25.54,0,0,1-4.08,2.09A4.19,4.19,0,0,0,159,161.6a5.94,5.94,0,0,0-1.69,2.93,2.25,2.25,0,0,1-.5.93,8.32,8.32,0,0,0-1.55,3.27,2.65,2.65,0,0,1-.44.82c-.32.47-.73.88-1,1.38-.51.94-1,1.91-1.42,2.89a3.68,3.68,0,0,0-.34,1.12,3.31,3.31,0,0,1-.71,1.88.79.79,0,0,0-.22.48,10.5,10.5,0,0,1-.48,2.07,7,7,0,0,1-1.16,2.8,6.22,6.22,0,0,0-1,2.61.62.62,0,0,1,0,.21,38.66,38.66,0,0,1-3.12,5.82,6.5,6.5,0,0,0-.76,2.62,1,1,0,0,0,.36.83,3.77,3.77,0,0,0,2,1c.32,0,.64.08,1,.11a2.32,2.32,0,0,1,1.94,1.15c.57.95,1.27,1.81,1.87,2.74a2.22,2.22,0,0,1,.44,1.92,1.06,1.06,0,0,0,0,.42c.08.67-.06,1.53.31,2s1.23.42,1.87.62c1.36.42,2.71.88,4.07,1.28a5.41,5.41,0,0,0,1.26.19,2.74,2.74,0,0,1,2,.66,1.1,1.1,0,0,0,.57.29c.38.06.53.31.66.62.22.53.49,1,.71,1.57a9.55,9.55,0,0,0,1.24,2c.72,1,1.44,2.1.76,3.36a9.7,9.7,0,0,1-1.66,2.08,23.77,23.77,0,0,0-2.28,2.21,2.87,2.87,0,0,1-2.43,1.18c-1.15,0-1.58-.79-1.07-1.82s.44-1.57-.22-2.12a2.35,2.35,0,0,0-1-.37,6,6,0,0,0-1-.08c-1.17-.08-1.59-1-2-1.87a2.4,2.4,0,0,0-1.89-1.4c-.4-.08-.77,0-.89.39-.5,1.62-1.79,2.64-2.87,3.83a6.49,6.49,0,0,1-3.12,1.8,1.06,1.06,0,0,1-1.53-.86,2.92,2.92,0,0,1,0-1.36,3.19,3.19,0,0,0-.82-3c-.62-.74-1.28-1.44-2-2.12a3.57,3.57,0,0,0-1.15-.76,6.44,6.44,0,0,0-5-.09,2.92,2.92,0,0,0-1.71,2.06c-.18.62-.29,1.26-.46,1.88a1.31,1.31,0,0,1-1.9.94,4.84,4.84,0,0,1-1.24-.81,16.48,16.48,0,0,1-1.57-1.61c-.61-.72-1-3.83-.47-4.55a11.41,11.41,0,0,1,1.84-2.2,2.61,2.61,0,0,0,.83-2.8l-2.31-.22a1.38,1.38,0,0,1-.42-.07c-1.43-.64-2.62-.06-3.81.68a8.84,8.84,0,0,1-1.34.64l-6.75,2.74c-.43.18-.84.39-1.26.59a2.44,2.44,0,0,0-1.43,1.63c-.22.82-.58,1.61-.88,2.41a1,1,0,0,1-1.37.62,4,4,0,0,1-2.68-2.84,3.45,3.45,0,0,0-.3-.91,2,2,0,0,1,.26-2.76c1.26-1.35,2-3,3.16-4.45a6.85,6.85,0,0,1,2.14-1.74,23.73,23.73,0,0,0,4.41-2.61c.29-.25.69-.39,1-.65A1.13,1.13,0,0,0,119,195c0-.23-.37-.51-.63-.59a5.22,5.22,0,0,0-1.26-.14c-.32,0-.65,0-1,0a1.79,1.79,0,0,1-1.41-2.22,13.33,13.33,0,0,0,.36-1.67.88.88,0,0,0-1.15-1c-.93.26-1.83.61-2.75.91-.4.13-.81.25-1.22.36-.72.2-1.46.35-2.16.59a4.74,4.74,0,0,1-3.06-.09c-.68-.23-.84-1-.87-1.6a14.94,14.94,0,0,1,.17-1.7,5.5,5.5,0,0,0,0-1.59,11.35,11.35,0,0,1-.5-3.07,2.83,2.83,0,0,0-.2-.73,3,3,0,0,1-2.63-1c0-.56,0-1.09.06-1.63a2.19,2.19,0,0,0-2.06-2.35c-1.14,0-2.28.17-3.42.27-.14,0-.28.11-.42.09-1.86-.2-3.15.83-4.41,2s-2.47,2.57-3.68,3.88-2.25,3.11-3.6,4.49S80.37,191.32,79,193a28.28,28.28,0,0,1-2.27,2.85c-1.53,1.4-2.91,3-5.17,3.44a12,12,0,0,1-2.83.42c-2.28-.14-4.53-.42-6.33-2.1a2.06,2.06,0,0,0-1.84-.7,1.23,1.23,0,0,1-.71-.16,2.81,2.81,0,0,0-2.06-.34.7.7,0,0,1-.51-.09,10.32,10.32,0,0,1-1.91-1.35,3.7,3.7,0,0,0-3.74-1,14,14,0,0,0-1.46.39,10.92,10.92,0,0,1-5.17.47c-1.3.47-2.52-.23-3.77-.36A11.87,11.87,0,0,1,38,193.15a1.55,1.55,0,0,1-.43-.32,2.09,2.09,0,0,0-2.74-.55.52.52,0,0,1-.31.1c-1.74-.29-3.51.55-5.24-.09-1.8.22-3.2-.76-4.67-1.53a2.59,2.59,0,0,0-.69-.28,5,5,0,0,1-3.66-3c0-.1-.09-.2-.13-.3a4,4,0,0,0-3.53-2.7,2.07,2.07,0,0,1-1.62-.87c-.51-.74-1.42-.77-2.18-1a15.3,15.3,0,0,1-3-1.58c-1.45-.79-2.35-2.17-3.64-3.12a3.33,3.33,0,0,1-1.37-2.12,8.05,8.05,0,0,0-.53-1.64c-.14-.32-.34-.75-.61-.83a1.83,1.83,0,0,1-1.08-1.11,2.44,2.44,0,0,0-.65-.85c-1.21-.9-1.46-2.26-1.75-3.58a2.21,2.21,0,0,1,.16-1,3.23,3.23,0,0,0-.19-2.5,1.23,1.23,0,0,1,0-1,3.3,3.3,0,0,1,2.3-2.33,26.75,26.75,0,0,1,2.88-1.13,8.54,8.54,0,0,0,3.78-1.63c.31-.26.81-.26,1.21-.42.76-.3,1.51-.64,2.26-1a10,10,0,0,1,1.89-.74,1.51,1.51,0,0,0,1-.64,3.1,3.1,0,0,1,1.88-1.13,21.22,21.22,0,0,0,3.31-1.2c1.27-.58,2.6-1,3.86-1.63a10.16,10.16,0,0,1,3.36-1.29,5.79,5.79,0,0,0,2.06-.88A14.31,14.31,0,0,1,33.6,148c1.44-.38,2.83-1,4.23-1.47a15.13,15.13,0,0,0,1.75-.8,2.89,2.89,0,0,0,.63-.55,2.56,2.56,0,0,1,1.89-.87,12.76,12.76,0,0,0,4.24-1l2.53-.91a17,17,0,0,0,1.81-.68,1.87,1.87,0,0,1,1.43-.21,2.12,2.12,0,0,0,1.77-.55,3.85,3.85,0,0,1,2.42-.73,1.92,1.92,0,0,0,1.29-.38,3.88,3.88,0,0,1,1.38-.56c1-.22,2-.36,3.06-.55a3.3,3.3,0,0,0,1.25-.29,7.43,7.43,0,0,1,3.28-.91,3.17,3.17,0,0,0,.94-.21,2,2,0,0,1,2.14.12c.51.35.91.16,1.37-.13,1-.69,2.15-1.29,3.19-2,.74-.5,1.39-1.12,2.11-1.64a14,14,0,0,1,2-1.26A5.62,5.62,0,0,0,80.07,131a3.23,3.23,0,0,1,1.28-.92,15.94,15.94,0,0,0,4-2.26c.4-.28.88-.46,1.31-.71a11,11,0,0,0,1.27-.81c.47-.37.48-.64.09-1.09-1.33-1.55-.72-2.22,0-3.44.26-.42.58-.8.86-1.21a5.56,5.56,0,0,1,1.16-1.38c.82-.64.76-1.16-.12-1.73-.53-.35-1.12-.61-1.66-.94a3,3,0,0,1-.63-.54c-.28-.31-.53-.65-.81-1-.71-.79-1.4-1.61-2.17-2.35-.53-.52-1.22-.87-1.74-1.4a4.9,4.9,0,0,1-1.44-5.08,5,5,0,0,1,.82-2.28C83,103.21,83.63,102.52,84.31,101.82ZM42.54,166.73a3.6,3.6,0,0,1-.41.8,4.13,4.13,0,0,1-2.66,1.26,8.32,8.32,0,0,0-3.25,1,6.17,6.17,0,0,1-1.88.69,10.08,10.08,0,0,0-2.39.86.94.94,0,0,0-.37.36,2.4,2.4,0,0,1-1.52.9c-2.74.78-5.54,1.29-8.11,2.68a62.2,62.2,0,0,1-6.33,2.7,2.07,2.07,0,0,0-1.12,1,.87.87,0,0,0,.3,1.3,8.16,8.16,0,0,0,4.87,1.34,2.47,2.47,0,0,1,.85,0,6.92,6.92,0,0,0,5.24-1,12.49,12.49,0,0,1,3-1.08,9.94,9.94,0,0,0,1.3-.37,14.06,14.06,0,0,0,3.87-2,.29.29,0,0,1,.1,0c1.11-.4,2.22-.81,3.34-1.19A37,37,0,0,0,41,174.69a9,9,0,0,1,2.37-.88,10.3,10.3,0,0,0,3.19-1.23,5.94,5.94,0,0,1,1.3-.51,1,1,0,0,1,1,.57c.06.43-.28.53-.57.66s-.86.37-1.27.57-1.07.54-1.6.83c-1.22.67-2.42,1.38-3.64,2-1.48.79-3.15,1.21-4.47,2.32a4.59,4.59,0,0,1-2.28,1.14,1.18,1.18,0,0,0-.58.27,7.45,7.45,0,0,1-2.81,1.28,3.86,3.86,0,0,0-.5.19,32.54,32.54,0,0,1-4.7,2.06,9.1,9.1,0,0,0-2.13,1.22.72.72,0,0,0-.24,1,4.36,4.36,0,0,0,1.75,1.67c.8.33,1.88.15,2.42,1.09.05.09.26.13.4.14a7.85,7.85,0,0,0,1.5,0,2,2,0,0,1,1.54.23,1.27,1.27,0,0,0,1,.11c1-.39,2.2-.37,3.11-1.1a.8.8,0,0,1,.3-.1,17.59,17.59,0,0,0,4.49-2.21,7.7,7.7,0,0,1,1.84-.83,10.25,10.25,0,0,0,3.85-1.48,2.45,2.45,0,0,1,.64-.39.57.57,0,0,1,.49.06.53.53,0,0,1,.11.48,2.5,2.5,0,0,1-.52.8,12.58,12.58,0,0,1-3.82,2.9,3.8,3.8,0,0,0-2.39,2.48,4.28,4.28,0,0,0,1.09.88,7.28,7.28,0,0,0,4.07.67c1.43-.31,2.92,0,4.31-.53.19-.08.49.11.73.1a2.56,2.56,0,0,0,1.23-.2,5,5,0,0,1,2.54-.76c1.29-.12,2.2-1,3.34-1.42.09,0,.13-.16.21-.23a6.78,6.78,0,0,1,1-.79,19.59,19.59,0,0,0,4.85-3.11,2.36,2.36,0,0,1,.91-.56,4.72,4.72,0,0,0,2-1.7,1.28,1.28,0,0,0,.3-1.28c-.36-1.35,0-2,1.26-2.33.86-.24,1.7-.51,2.56-.76a2.65,2.65,0,0,1,.73-.17c.62,0,1.06.63.74,1.1a17.36,17.36,0,0,1-1.52,1.92,11.66,11.66,0,0,1-1.34,1.22,15,15,0,0,1-1.37,1,12.61,12.61,0,0,0-2.5,1.6,25.22,25.22,0,0,1-2.52,2.31q-1.91,1.55-3.85,3.06a2.89,2.89,0,0,0-1.14,2.11c-.06.71.66.75,1,1.07l.09.06a2.52,2.52,0,0,0,2.31.53c.66-.16,1.33-.29,2-.41.41-.07.86-.24,1.2.18a1.07,1.07,0,0,1,.09,1.21,1.89,1.89,0,0,0-.19.5,1,1,0,0,0,.86,1.26,18.22,18.22,0,0,0,2.87.05A11.33,11.33,0,0,0,72,196a3.35,3.35,0,0,0,1.14-.7c.2-.21.4-.42.6-.61.52-.49,1.1-.93,1.15-1.74a.58.58,0,0,1,.3-.42c1.06-.41,1.52-1.38,2.12-2.21s1.2-1.59,1.79-2.39l1.7-2.31c.12-.17.24-.34.35-.52a.77.77,0,0,0-.16-1.05c-1-1-.9-1.68.29-2.35,1-.56,2-1,3.07-1.53.45-.22.89-.46,1.32-.71a12.18,12.18,0,0,0,3-2.54A9.49,9.49,0,0,0,90,174.76a5.36,5.36,0,0,0-1.18.26c-1.33.69-2.68,1.36-3.94,2.17s-2.42,1.76-3.61,2.67a2.69,2.69,0,0,0-.77.74,2.32,2.32,0,0,1-1.42,1.08,4,4,0,0,0-2.39,2.16,3.22,3.22,0,0,1-2.13,1.83,1.2,1.2,0,0,1-1.25-.42.79.79,0,0,1,0-1.09c.48-.67,1-1.31,1.47-2,.15-.2.44-.35.49-.56.16-.79.77-1.08,1.34-1.52a37.33,37.33,0,0,0,2.84-2.73,1.2,1.2,0,0,0,.31-1.46c-.36-.12-.71-.21-1-.35s-.63-.34-.95-.49a.68.68,0,0,1-.37-.9,1.29,1.29,0,0,1,1.64-.91,1.77,1.77,0,0,0,1.54,0,1.94,1.94,0,0,1,1-.09,4.37,4.37,0,0,0,3.23-.92,2.06,2.06,0,0,0,.89-1.54,1,1,0,0,0-.66-1.08,4.79,4.79,0,0,0-3.55-.1c-.77.26-1.15-.12-1-.91.07-.42.23-.83.29-1.26a1.07,1.07,0,0,0-1.48-1.21c-.46.18-.89.45-1.35.66a16.19,16.19,0,0,1-1.77.77c-1.3.42-2.68.45-4,.93a11.12,11.12,0,0,1-4.68.33,1.13,1.13,0,0,1-1-1.19,1.05,1.05,0,0,1,1-.9l4-.39a6.19,6.19,0,0,0,2.36-.65c.56-.29.74-.59.52-1.11a3.74,3.74,0,0,1,.12-2.91,7,7,0,0,0,.23-1,1,1,0,0,0-1.35.36,4.34,4.34,0,0,1-2.1,1.24c-.79.2-1.24,0-1.27-.88S69.65,160,68.68,160a9.81,9.81,0,0,1-2.61-.44A2.11,2.11,0,0,1,64.46,157a2.9,2.9,0,0,1,1.67-2.09c1.59-.82,3.19-1.62,4.79-2.43,1-.48,1.94-.94,2.88-1.46.62-.34,1.15-1,1.8-1.11a7,7,0,0,0,2.17-1.07,4.31,4.31,0,0,1,2.29-.82,1.59,1.59,0,0,0,.59-.24c.81-.36,1.62-.74,2.44-1.09,1-.43,2-.84,3.08-1.24.39-.15.8-.27,1.2-.39.58-.17,1.17-.28,1.74-.49a9.53,9.53,0,0,0,1.85-.85,13.1,13.1,0,0,0,2.46-1.87,9,9,0,0,1,1.64-1.5c1.06-.68,2-1.43,2-2.92a18.47,18.47,0,0,1,.38-3,1.38,1.38,0,0,0-.88-1.61,4.6,4.6,0,0,0-2.75,0A8,8,0,0,1,93,133c-.6,0-1.2,0-1.79.08a3.17,3.17,0,0,1-2-.16c-.66-.38-.75-.47-.53-1.17a4.59,4.59,0,0,1,.55-1c.28-.44.63-.86.31-1.48-.41.15-.79.27-1.14.43-1.23.56-2.48,1.1-3.67,1.73-1,.55-2,1.2-3,1.83-1.56,1-3.12,2-4.65,3-1.12.76-1.94,1.89-3.16,2.56a2.75,2.75,0,0,1-1.73.39,2.68,2.68,0,0,0-1,.08c-1.37.4-2.72.87-4.1,1.24s-2.93.65-4.37,1.07c-1.06.31-2.06.79-3.1,1.18a7.69,7.69,0,0,1-1,.31,11.09,11.09,0,0,0-2.09.46,14.4,14.4,0,0,1-2.45.76,21.65,21.65,0,0,0-2.11.74c-1,.37-2,.78-3,1.1-2.13.67-4.45.78-6.39,2.05a1.8,1.8,0,0,1-.42.1l-2.33.78c-.74.24-1.49.49-2.24.7s-1.25.27-1.87.45c-.44.13-.83.42-1.27.53a25.48,25.48,0,0,0-4.83,1.76c-1.59.76-3.28,1.22-4.91,1.85-1.36.52-2.75,1-4.05,1.64a20.05,20.05,0,0,1-2.89,1.31c-1.76.55-3.37,1.56-5.1,2.2a46.71,46.71,0,0,0-4.86,2.2A6.65,6.65,0,0,0,4.28,165c-.6,1.35-1,2.6-.16,4a3.06,3.06,0,0,1,.16.4,2.91,2.91,0,0,0,4,1.62,10.74,10.74,0,0,0,2.81-1.2,1.84,1.84,0,0,1,.71-.23c.69-.17,1.4-.27,2.07-.48,1.81-.57,3.61-1.17,5.4-1.8a12.83,12.83,0,0,0,2.55-1.11,5.51,5.51,0,0,1,2.62-.78,10.66,10.66,0,0,0,4.06-1.21c1-.49,2.23-.37,3.24-.94.05,0,.14,0,.21,0,.72,0,1.43,0,2.15,0a1.72,1.72,0,0,1,.58.28c-.07.18-.08.28-.13.3a11.68,11.68,0,0,0-3,1.3c-1.28-.16-2.35.52-3.49.9a10.26,10.26,0,0,0-1.15.54c-.37.18-.74.38-1.11.54-.69.29-1.39.55-2.07.85-.36.16-.67.43-1,.55-1.32.43-2.67.8-4,1.24-.91.3-1.8.67-2.7,1-.53.21-1,.44-1.57.65s-.87.31-1.27.53c-.69.37-1.37.76-2,1.17a9.27,9.27,0,0,0-1.13.81c-.29.24-.51.62-.21.94a1.46,1.46,0,0,0,1,.53c.92-.07,1.82-.3,2.73-.46a9.38,9.38,0,0,0,3.76-1.09,2.46,2.46,0,0,1,.73-.18l1.14-.3a21.43,21.43,0,0,1,2.17-.55,7.39,7.39,0,0,0,3.37-1,1,1,0,0,1,.61-.17,3.88,3.88,0,0,0,2-.63,2.83,2.83,0,0,1,.78-.34c1.38-.2,2.73-.5,4.09-.8a25.63,25.63,0,0,0,4.68-1.82,24.76,24.76,0,0,1,3.63-1.2A11.49,11.49,0,0,1,42.54,166.73Zm77.25,24.75c.79-.15,1.45-.31,2.11-.41,1.74-.27,2.39,1,2.22,2.45a5.48,5.48,0,0,1-2.3,4.07,10.82,10.82,0,0,0-1.12,1.14,1.88,1.88,0,0,1-.76.56c-1.34.27-2.33,1.24-3.55,1.73-1.05.42-2,1-3.06,1.5A2.19,2.19,0,0,0,112,204.1c-.09.48.11.7.57.64a23.6,23.6,0,0,0,5.36-1.77.64.64,0,0,0,.27-.17,9.09,9.09,0,0,1,2.18-1.66,5,5,0,0,1,3.08-1,17.21,17.21,0,0,0,1.72-.07c1.47-.16,2.84-1.17,4.42-.52a.82.82,0,0,0,.52-.1,1.76,1.76,0,0,1,1.63.24,5.15,5.15,0,0,1,1.26.81,3.4,3.4,0,0,0,2.16.81,1,1,0,0,0,1.12-.8c.15-.65-.47-2.27-1.07-2.45a5.45,5.45,0,0,0-2.41-.37,9.92,9.92,0,0,1-3.17-.21.57.57,0,0,1-.53-.77,1.81,1.81,0,0,1,.63-1.05,1.74,1.74,0,0,0,1-1.54,12.11,12.11,0,0,1,2.09-5.35,5.58,5.58,0,0,0,1-2.45,13.73,13.73,0,0,1,.77-2.78,10.43,10.43,0,0,0,1-3.92,2.26,2.26,0,0,1,.18-.95,15.82,15.82,0,0,0,.84-4.4c.19-1.31.23-2.63.43-3.94a21.12,21.12,0,0,0,.58-5.28,6.11,6.11,0,0,1,.08-1c0-.53.06-1.06.08-1.59a4,4,0,0,1,0-.64c.2-1,.4-2,.66-2.92a8.59,8.59,0,0,0,.23-3.3,3.58,3.58,0,0,1,.13-1.89c.88-1.77,1.13-3.74,2-5.52.74-1.5,1.16-3.14,1.76-4.71a11.09,11.09,0,0,1,1.32-2.91,1.41,1.41,0,0,0-.08-1.79A3.93,3.93,0,0,1,143,135a2.08,2.08,0,0,0-1.12-2.31c-.9-.43-1.78-.91-2.66-1.38a1.05,1.05,0,0,0-1.41.24c-.41.62-.82,1.25-1.2,1.9a12.29,12.29,0,0,1-3.12,3.61c-.49.37-1.43.48-1.69.1a2.77,2.77,0,0,1-.7-2.48,9.72,9.72,0,0,0,.18-2c-2.32-.56-3.92,1-3.56,3.1a9.83,9.83,0,0,1,0,2.56,6.16,6.16,0,0,1-1.55,3c-.78,1-1.87,1.9-2.08,3.32,0,.22-.27.41-.4.62-.77,1.35-2.43,2-2.76,3.73,0,.06-.09.11-.14.16a10.92,10.92,0,0,0-3,4.3c-.29.82-.88,1.58-.5,2.58.89.06,1.33-.58,1.85-1.09s.72-.8,1.13-1.14,1-.47,1.36-.14a1,1,0,0,1,.21,1.28,13.09,13.09,0,0,0-.55,1.74c-.39,1.74-1.27,3.34-1.51,5.13a3.12,3.12,0,0,1-.25.58c-.24.67-.49,1.33-.71,2s-.36,1.22-.55,1.83c-.36,1.12-.76,2.23-1.07,3.37-.23.83.11,1.29.9,1.56a8.83,8.83,0,0,1,1.54.71c.65.38.83.78.47,1.43a4,4,0,0,0-.34,1.87,1.13,1.13,0,0,0,.73,1.27,2.23,2.23,0,0,1,1.28,1.74c.2,1,.37,1.11,1.35.63a2.27,2.27,0,0,1,.29-.14.73.73,0,0,1,1,.72,7.66,7.66,0,0,1-.58,2.26,20.53,20.53,0,0,1-2.4,4c-.34.41-.38,1.06-.64,1.55a15.51,15.51,0,0,0-.89,1.36,5.81,5.81,0,0,0-.33,1.79A3.5,3.5,0,0,0,119.79,191.48Zm97.51-61.92a1.33,1.33,0,0,0,.37-1.52,11.84,11.84,0,0,0-1-3.29c-.47-.81.1-1.56,1.06-1.59.25,0,.5,0,.75,0a1.21,1.21,0,0,1,1.29.75A2,2,0,0,0,221,125c.29.09.52.37.81.53a12.09,12.09,0,0,0,1.52.73,1.77,1.77,0,0,1,1.14.9,8,8,0,0,0,.37.78c.48.82,1,1.56,2.16,1.44a1.37,1.37,0,0,1,1.31.61,13.74,13.74,0,0,0,2.12,2.27c.85.8,1.7,1.71,1.18,3.1-.07.2.08.48.13.73.21.94.69,1.13,1.42.48a8.68,8.68,0,0,0,.81-1.1,2.92,2.92,0,0,0-.14-4,4.64,4.64,0,0,1-.6-.87c-.21-.37-.36-.79-.58-1.15-.86-1.43-2-2.65-2.78-4.16a1.63,1.63,0,0,0-.32-.43,4.94,4.94,0,0,1-1.43-3.71,2.76,2.76,0,0,0-.18-1.36,9.26,9.26,0,0,0-2.37-2.87,8.76,8.76,0,0,1-2.88-2.82.94.94,0,0,0-.28-.32l-2.31-1.56a10,10,0,0,1-1.13-.81c-.76-.69-1.49-1.43-2.24-2.13a2.13,2.13,0,0,0-.64-.37,10,10,0,0,1-3.79-2.55,2.13,2.13,0,0,0-1-.66,6.93,6.93,0,0,1-2-1,19.17,19.17,0,0,0-1.83-1.22,25.7,25.7,0,0,1-4.56-2.93,1.21,1.21,0,0,0-.86-.38,21.8,21.8,0,0,1-3.27-.43c-.93-.1-1.87,0-2.79-.19-2.08-.31-4.15-.7-6.23-1a3,3,0,0,0-.64,0,11.42,11.42,0,0,1-5-.66,3.31,3.31,0,0,0-1.59-.13,1,1,0,0,0-.81,1.5c.57,1.39.56,1.38-.52,2.51a1.84,1.84,0,0,0-.61,1,11,11,0,0,1-1.32,4.27,3,3,0,0,0-.09,1.45c0,.48.49.54.87.66.67.21.82.83,1.05,1.4a1.08,1.08,0,0,1-.26,1.26,2.22,2.22,0,0,0-.45.85,3.75,3.75,0,0,1-1.28,1.81,2.31,2.31,0,0,0-1,2.12,2.32,2.32,0,0,1-.12.74,5.64,5.64,0,0,0-.28,2.43,1.15,1.15,0,0,1-.26.89,8.44,8.44,0,0,1-1.9,1.68,6.1,6.1,0,0,0-2.15,2.18c-.08.11,0,.31,0,.48,1-.14,2-.29,2.92-.4a5,5,0,0,1,1,0,13.6,13.6,0,0,0,1.69.14,1.86,1.86,0,0,1,2,1.07,2.26,2.26,0,0,0,1.45,1.18,9.2,9.2,0,0,1,.91.32,3.62,3.62,0,0,1,2.3,3.44,4.09,4.09,0,0,0,0,.64c.12.74.88,1.39,1.54,1.12a4.08,4.08,0,0,1,2.5.11,2.82,2.82,0,0,0,1.67-.15,26.79,26.79,0,0,0,2.38-1.61,8,8,0,0,1,2.3-1.33c.75-.17,1.39-.53,2.1-.71a2.55,2.55,0,0,0,1.9-2.21,1.35,1.35,0,0,0-.84-1.74c-1.09-.42-2.18-.83-3.3-1.19a2.77,2.77,0,0,1-1.71-1.52,1.3,1.3,0,0,1,.22-1.48c.94-1.22,2.42-1.29,3.69-1.81a.5.5,0,0,1,.41,0,1.68,1.68,0,0,0,1.74,0,1.47,1.47,0,0,1,.84-.11,9.39,9.39,0,0,0,2.85-.05,3.59,3.59,0,0,1,1.55.24,4.14,4.14,0,0,0,2.6.33,3.8,3.8,0,0,1,2,.21,5.52,5.52,0,0,1,3.09,3.85,3.14,3.14,0,0,0,.8,1.6,5.79,5.79,0,0,1,.55.79,2.93,2.93,0,0,0,.67.81,2,2,0,0,1,1,1.87A1.05,1.05,0,0,0,217.3,129.56Zm19.78-62.37-.06-.26a6.85,6.85,0,0,0-3.19.82,15.32,15.32,0,0,1-2.63,1.83c-1.88.69-3.19,2.16-4.83,3.17A50.81,50.81,0,0,0,222.24,76a4.68,4.68,0,0,1-1.26.59.64.64,0,0,1-.88-.4,1.83,1.83,0,0,1,0-1.11,17.22,17.22,0,0,1,2.62-4.38,6.72,6.72,0,0,1,.77-.74.65.65,0,0,0,0-1s-.09,0-.12,0c-1.33.88-3.06,1.24-3.77,2.93-.06.15-.24.26-.37.38-.95.87-1.88,1.75-2.85,2.6a.93.93,0,0,1-1.62-.55,2.91,2.91,0,0,1,.19-2.09c.1-.18.09-.59,0-.67a1.2,1.2,0,0,0-.79-.11,1,1,0,0,0-.52.34c-1.22,1.45-2.87,2.45-4,4a23.09,23.09,0,0,1-1.85,2.1c-.58.63-1.18,1.24-1.8,1.83a18.88,18.88,0,0,0-1.69,1.47,5.16,5.16,0,0,1-2.34,1.63c-1.15.4-2.28.84-3.42,1.24a4.06,4.06,0,0,1-1.05.18A1.3,1.3,0,0,1,196,82.94a2.46,2.46,0,0,1,.49-2,7.27,7.27,0,0,0,.84-1.37c.22-.38.42-.77.67-1.24a2,2,0,0,0-2,1.51,1.5,1.5,0,0,1-.41.8c-1.11.84-2.24,1.66-3.4,2.43a5.84,5.84,0,0,1-1.66.73c-1,.28-2,.63-3,.95a18.28,18.28,0,0,0-3.94,2.16,6.15,6.15,0,0,1-2.67,1.31,14.5,14.5,0,0,0-2.92,1,.79.79,0,0,0-.16,1.43c.48.36.93.75,1.38,1.15a2.87,2.87,0,0,0,2.63.9,3.43,3.43,0,0,1,1.06,0,7.1,7.1,0,0,0,1.27.18,2.85,2.85,0,0,1,2.92,1.31,6,6,0,0,1,3.22-.15c.79.15,1.61.21,2.41.39a2.17,2.17,0,0,0,.82.07,2.57,2.57,0,0,1,1.87.27c.18.11.44.25.6.19a4.26,4.26,0,0,1,2.88.27,4.33,4.33,0,0,0,1.21.3,20.1,20.1,0,0,1,3.61.68,1.91,1.91,0,0,0,1.64-.19c1.56-1.11,3.37-1.86,4.75-3.24.1-.1.23-.26.34-.25,1,0,1.57-.7,2.18-1.35a2.92,2.92,0,0,1,.63-.4c1.19-.74,2.37-1.47,3.55-2.22a1.89,1.89,0,0,0,.61-.59,27.92,27.92,0,0,0,1.82-3.27,8,8,0,0,1,1.54-2.29c.62-.68,1.21-1.4,1.78-2.12s1.07-1.6,1.73-2.28c1.11-1.16,2.31-2.24,3.49-3.33a4.21,4.21,0,0,1,1.29-.93,9,9,0,0,0,3.1-2.42c.86-.84,1.67-1.75,2.59-2.53A24.87,24.87,0,0,1,237.08,67.19ZM129.67,68.73l.07.27a7.56,7.56,0,0,1,.92,0c1.71.27,3.53.31,4.67,2,.07.1.23.14.35.22a6.94,6.94,0,0,1,2.58,2.5,1.86,1.86,0,0,0,.68.78,9.07,9.07,0,0,1,3.17,3.14,5.54,5.54,0,0,0,2.26,2,1.18,1.18,0,0,1,.47.53,4.25,4.25,0,0,0,2.07,1.94,2.35,2.35,0,0,1,1,.91,8,8,0,0,0,2.64,2.47,9.15,9.15,0,0,1,1.53,1.3,29.72,29.72,0,0,0,3.27,3.52,1.22,1.22,0,0,1,.35.4,17.49,17.49,0,0,0,2.81,3.92c1.12,1.25,2.15,2.58,3.21,3.89a4.19,4.19,0,0,1,.35.54,51.1,51.1,0,0,0,3.46,4.46,3.56,3.56,0,0,0,.65-.67,11.24,11.24,0,0,0,.77-1.76,4.31,4.31,0,0,0,0-3.55,5.49,5.49,0,0,1-.52-1.52A14.7,14.7,0,0,0,165,92.57c-.41-.85-1-1.69-.5-2.74s.37-1.31-.79-2a8.5,8.5,0,0,1-1.64-1.36c-.59-.58-1.08-1.25-1.66-1.82-.84-.82-1.71-1.61-2.6-2.38-.65-.56-1.32-1.09-2-1.59-1.18-.84-2.52-1.47-3.35-2.77a3,3,0,0,0-1.35-1.18,5.17,5.17,0,0,1-2-1.54,5,5,0,0,0-.54-.53c-1-.8-2.07-1.63-3.15-2.37s-2-1.85-3.42-2.12c-.13,0-.23-.16-.35-.24-1.43-.93-2.84-1.89-4.3-2.78a3.57,3.57,0,0,0-4.31.44,3.49,3.49,0,0,1-2.71.9C130.09,68.49,129.88,68.65,129.67,68.73Zm27.07,90.17a2,2,0,0,0-.27-.58,3.17,3.17,0,0,0-1.46-1,4.59,4.59,0,0,0-3.9.57c-2.23,1.4-4.51,2.73-6.6,4.35a2.81,2.81,0,0,0-1.09,2.07,7.48,7.48,0,0,1-1.85,4.47,2.45,2.45,0,0,0-.63,3.09q.36.66.68,1.34c.14.29.38.61.34.88a5.63,5.63,0,0,1-1,3,3.58,3.58,0,0,0-.74,2,7,7,0,0,1-.81,2.85,7.4,7.4,0,0,0-1,2.33,2.45,2.45,0,0,0,.69,2.74,1.94,1.94,0,0,1,.57,1.31,3.3,3.3,0,0,1-1,2.38c-.77.74-1.52,1.51-2.29,2.26s-.55,1,.24,1.47a3.37,3.37,0,0,0,2.91.2,3.09,3.09,0,0,0,2-1.81,10.83,10.83,0,0,1,1.45-3.5,1.79,1.79,0,0,0,.17-.39,10.57,10.57,0,0,1,.62-1.33c.38-.61.86-1.15,1.25-1.75a3,3,0,0,0,.63-1.33,5.59,5.59,0,0,1,1-2.69,5.08,5.08,0,0,0,1-2.65c0-.29.24-.59.38-.88s.38-.77.55-1.16c.51-1.21,1-2.42,1.52-3.63.27-.66.54-1.32.81-2a1.12,1.12,0,0,1,.21-.36,4,4,0,0,0,1-2.12,4.48,4.48,0,0,1,1.19-2.25,2.77,2.77,0,0,0,.62-1.1,12.34,12.34,0,0,1,1.9-3.81C156.49,160.93,156.39,159.93,156.74,158.9Zm13-63.22a2.12,2.12,0,0,0,0,2.15,4.82,4.82,0,0,1,.19,3.26,19.22,19.22,0,0,0-.61,3,8.32,8.32,0,0,1-.69,2.11,13.66,13.66,0,0,0-1,2.59,15.88,15.88,0,0,1-1.24,3.85,4.81,4.81,0,0,1-2.49,2.63,5.87,5.87,0,0,0-3,2.43,3.22,3.22,0,0,1-.55.65.86.86,0,0,0-.16,1.24c.2.3.39.6.6.88a1.85,1.85,0,0,1,.2,1.92c-.2.52-.64.64-1,.87-1,.58-1.12,1.08-.53,2.08a1.31,1.31,0,0,0,1.55-1.1,6.53,6.53,0,0,1,1.13-1.93c.47-.65,1.14-.56,1.54.15.14.25.24.52.36.78a.56.56,0,0,0,.88.29,8.84,8.84,0,0,0,2.24-1.45,4.45,4.45,0,0,1,1.42-.88,4.05,4.05,0,0,0,2.3-1.65,4.5,4.5,0,0,1,.64-.72,8.84,8.84,0,0,0,1.23-1.46c.38-.71.55-1.54.89-2.27a6.29,6.29,0,0,0,.66-3.53c-.18-1.26.41-2.35.5-3.54.74-.56.29-1.3.3-2s0-1.13,0-1.69c0-.39-.06-.78-.11-1.17a7.77,7.77,0,0,1-.16-.94,6.48,6.48,0,0,0-1.4-3.53,17,17,0,0,0-2.9-2.82A2.28,2.28,0,0,0,169.74,95.68ZM146.69,211.79l.22-1a3.2,3.2,0,0,1,3.41-2.63c1,0,2,.13,3,.16a2.64,2.64,0,0,1,1.78.53,1.5,1.5,0,0,0,1,.35,2.33,2.33,0,0,1,2,1c.75.81,1.56,1.57,2.38,2.31.54.49,1.17.32,1.16-.31a12.45,12.45,0,0,0-.35-2.53c-.05-.23-.45-.41-.72-.54s-.63-.17-.9-.32a6.44,6.44,0,0,0-2.87-1c-1.41-.07-2.7-.91-4.16-.95a.85.85,0,0,1-.39-.16,2.1,2.1,0,0,0-1.67-.25,3.54,3.54,0,0,1-3-.48l-.1,0a9.18,9.18,0,0,1-4.1-3.13,2.31,2.31,0,0,0-2.75-.86,9.79,9.79,0,0,1-1.23.39,2.43,2.43,0,0,0-1.68,2.16,1.56,1.56,0,0,0,1.15,1.9c.7.24,1.33.73,2.14.56a.56.56,0,0,1,.46.2,1.15,1.15,0,0,0,1.12.48.58.58,0,0,1,.46.2c.37.78,1.18,1.17,1.54,2A3.4,3.4,0,0,0,146.69,211.79Zm-23-144.25a7.76,7.76,0,0,1-2.8-3.09,4,4,0,0,0-1.31-1.22c-1.42-.95-2.75-2-4.25-2.84a15.29,15.29,0,0,1-1.43-.93,22.15,22.15,0,0,1-2.78-1.7,12,12,0,0,0-2.55-1.55A16,16,0,0,1,106.25,55c-.82-.65-1.83-.7-2.73-1.29-.06.26-.19.49-.13.57.49.58.54,1.64,1.66,1.57a.5.5,0,0,1,.38.16A11,11,0,0,0,108,58.07a9.65,9.65,0,0,0,1.85,1.43,5.9,5.9,0,0,1,1.86,1.41,9.82,9.82,0,0,0,3.68,2.68,7.31,7.31,0,0,1,2.78,2.08,18.28,18.28,0,0,0,2.62,2.13c.08.06.21.05.31.08l2,.51Zm23,130.77c-.73-.15-1.27-.27-1.82-.36a10.36,10.36,0,0,0-2.7-.36,2.79,2.79,0,0,1-1.92-.13c-.17-.1-.6.12-.82.3a.63.63,0,0,0,0,.88,2.1,2.1,0,0,0,2,.51,19.77,19.77,0,0,1,2.06-.44c.7.62,1.58.25,2.37.39.3.05.65-.19,1-.32Zm-15.32,9.55c.77-.36,1.52-.68,2.24-1.06.39-.21.36-.6.16-.94a.65.65,0,0,0-1-.15,9.2,9.2,0,0,0-.84.65A1.28,1.28,0,0,0,131.46,207.86ZM225.8,67.38c-.44.31-.68.5-.57.94C225.76,68.25,225.81,67.94,225.8,67.38Z"/><path class="cls-2" d="M42.54,166.73a11.49,11.49,0,0,0-2.13.13,24.76,24.76,0,0,0-3.63,1.2,25.63,25.63,0,0,1-4.68,1.82c-1.36.3-2.71.6-4.09.8a2.83,2.83,0,0,0-.78.34,3.88,3.88,0,0,1-2,.63,1,1,0,0,0-.61.17,7.39,7.39,0,0,1-3.37,1,21.43,21.43,0,0,0-2.17.55l-1.14.3a2.46,2.46,0,0,0-.73.18A9.38,9.38,0,0,1,13.43,175c-.91.16-1.82.39-2.73.46a1.46,1.46,0,0,1-1-.53c-.3-.32-.08-.69.21-.94a9.27,9.27,0,0,1,1.13-.81c.67-.41,1.35-.81,2-1.17.4-.21.85-.35,1.27-.53s1-.45,1.57-.65c.9-.35,1.79-.72,2.7-1,1.32-.44,2.67-.81,4-1.24.37-.12.68-.39,1-.55.68-.3,1.38-.56,2.07-.85.38-.16.74-.36,1.11-.54A10.26,10.26,0,0,1,28,166c1.14-.38,2.21-1.06,3.49-.9a11.68,11.68,0,0,1,3-1.3s.06-.12.13-.3a1.72,1.72,0,0,0-.58-.28c-.71,0-1.43,0-2.15,0-.07,0-.16,0-.21,0-1,.57-2.23.44-3.24.94a10.66,10.66,0,0,1-4.06,1.21,5.51,5.51,0,0,0-2.62.78,12.83,12.83,0,0,1-2.55,1.11c-1.79.63-3.59,1.22-5.4,1.8-.67.21-1.38.32-2.07.48a1.84,1.84,0,0,0-.71.23A10.74,10.74,0,0,1,8.25,171a2.91,2.91,0,0,1-4-1.62,3.06,3.06,0,0,0-.16-.4c-.84-1.36-.44-2.6.16-4a6.65,6.65,0,0,1,3.44-3.27,46.71,46.71,0,0,1,4.86-2.2c1.73-.65,3.34-1.66,5.1-2.2A20.05,20.05,0,0,0,20.57,156c1.31-.64,2.69-1.12,4.05-1.64,1.63-.62,3.32-1.09,4.91-1.85a25.48,25.48,0,0,1,4.83-1.76c.44-.11.84-.39,1.27-.53.61-.18,1.25-.28,1.87-.45s1.49-.46,2.24-.7l2.33-.78a1.8,1.8,0,0,0,.42-.1c1.94-1.28,4.26-1.38,6.39-2.05,1-.32,2-.73,3-1.1a21.65,21.65,0,0,1,2.11-.74,14.4,14.4,0,0,0,2.45-.76,11.09,11.09,0,0,1,2.09-.46,7.69,7.69,0,0,0,1-.31c1-.39,2-.87,3.1-1.18,1.44-.42,2.92-.68,4.37-1.07s2.73-.84,4.1-1.24a2.68,2.68,0,0,1,1-.08,2.75,2.75,0,0,0,1.73-.39c1.22-.66,2-1.8,3.16-2.56,1.53-1,3.09-2,4.65-3,1-.63,2-1.29,3-1.83,1.19-.63,2.44-1.17,3.67-1.73.35-.16.73-.27,1.14-.43.31.62,0,1-.31,1.48a4.59,4.59,0,0,0-.55,1c-.23.7-.14.79.53,1.17a3.17,3.17,0,0,0,2,.16c.6-.05,1.2,0,1.79-.08a8,8,0,0,0,.83-.13,4.6,4.6,0,0,1,2.75,0,1.38,1.38,0,0,1,.88,1.61,18.47,18.47,0,0,0-.38,3c0,1.49-.94,2.24-2,2.92a9,9,0,0,0-1.64,1.5A13.1,13.1,0,0,1,91,143.75a9.53,9.53,0,0,1-1.85.85c-.56.21-1.16.32-1.74.49-.4.12-.81.24-1.2.39-1,.4-2.06.81-3.08,1.24-.82.35-1.63.72-2.44,1.09a1.59,1.59,0,0,1-.59.24,4.31,4.31,0,0,0-2.29.82,7,7,0,0,1-2.17,1.07c-.65.13-1.18.76-1.8,1.11-.94.52-1.92,1-2.88,1.46-1.6.81-3.2,1.61-4.79,2.43A2.9,2.9,0,0,0,64.46,157a2.11,2.11,0,0,0,1.61,2.57,9.81,9.81,0,0,0,2.61.44c1,0,1.36.42,1.39,1.39s.48,1.08,1.27.88a4.34,4.34,0,0,0,2.1-1.24,1,1,0,0,1,1.35-.36,7,7,0,0,1-.23,1,3.74,3.74,0,0,0-.12,2.91c.22.53,0,.82-.52,1.11a6.19,6.19,0,0,1-2.36.65l-4,.39a1.05,1.05,0,0,0-1,.9,1.13,1.13,0,0,0,1,1.19,11.12,11.12,0,0,0,4.68-.33c1.33-.48,2.7-.51,4-.93a16.19,16.19,0,0,0,1.77-.77c.45-.21.88-.48,1.35-.66a1.07,1.07,0,0,1,1.48,1.21c-.06.42-.22.83-.29,1.26-.12.79.26,1.17,1,.91a4.79,4.79,0,0,1,3.55.1,1,1,0,0,1,.66,1.08,2.06,2.06,0,0,1-.89,1.54,4.37,4.37,0,0,1-3.23.92,1.94,1.94,0,0,0-1,.09,1.77,1.77,0,0,1-1.54,0,1.29,1.29,0,0,0-1.64.91.68.68,0,0,0,.37.9c.32.15.62.35.95.49s.67.23,1,.35a1.2,1.2,0,0,1-.31,1.46,37.33,37.33,0,0,1-2.84,2.73c-.56.44-1.18.73-1.34,1.52,0,.21-.33.36-.49.56-.5.65-1,1.3-1.47,2a.79.79,0,0,0,0,1.09,1.2,1.2,0,0,0,1.25.42,3.22,3.22,0,0,0,2.13-1.83,4,4,0,0,1,2.39-2.16,2.32,2.32,0,0,0,1.42-1.08,2.69,2.69,0,0,1,.77-.74c1.19-.91,2.35-1.86,3.61-2.67s2.61-1.48,3.94-2.17a5.36,5.36,0,0,1,1.18-.26,9.49,9.49,0,0,1-1.31,2.16,12.18,12.18,0,0,1-3,2.54c-.43.26-.87.49-1.32.71-1,.51-2.07,1-3.07,1.53-1.19.67-1.26,1.35-.29,2.35a.77.77,0,0,1,.16,1.05c-.11.18-.23.35-.35.52l-1.7,2.31c-.59.8-1.21,1.59-1.79,2.39s-1.06,1.81-2.12,2.21a.58.58,0,0,0-.3.42c-.05.81-.63,1.25-1.15,1.74-.21.2-.41.41-.6.61A3.35,3.35,0,0,1,72,196a11.33,11.33,0,0,1-3.29.66,18.22,18.22,0,0,1-2.87-.05,1,1,0,0,1-.86-1.26,1.89,1.89,0,0,1,.19-.5,1.07,1.07,0,0,0-.09-1.21c-.34-.43-.78-.26-1.2-.18-.67.12-1.33.25-2,.41a2.52,2.52,0,0,1-2.31-.53l-.09-.06c-.39-.32-1.11-.37-1-1.07a2.89,2.89,0,0,1,1.14-2.11q1.94-1.52,3.85-3.06a25.22,25.22,0,0,0,2.52-2.31,12.61,12.61,0,0,1,2.5-1.6,15,15,0,0,0,1.37-1,11.66,11.66,0,0,0,1.34-1.22A17.36,17.36,0,0,0,72.68,179c.32-.47-.12-1.09-.74-1.1a2.65,2.65,0,0,0-.73.17c-.85.25-1.7.51-2.56.76-1.28.36-1.62,1-1.26,2.33a1.28,1.28,0,0,1-.3,1.28,4.72,4.72,0,0,1-2,1.7,2.36,2.36,0,0,0-.91.56,19.59,19.59,0,0,1-4.85,3.11,6.78,6.78,0,0,0-1,.79c-.08.07-.13.2-.21.23-1.15.4-2.05,1.31-3.34,1.42a5,5,0,0,0-2.54.76,2.56,2.56,0,0,1-1.23.2c-.24,0-.53-.18-.73-.1-1.39.57-2.88.22-4.31.53A7.28,7.28,0,0,1,41.9,191a4.28,4.28,0,0,1-1.09-.88,3.8,3.8,0,0,1,2.39-2.48,12.58,12.58,0,0,0,3.82-2.9,2.5,2.5,0,0,0,.52-.8.53.53,0,0,0-.11-.48.57.57,0,0,0-.49-.06,2.45,2.45,0,0,0-.64.39,10.25,10.25,0,0,1-3.85,1.48,7.7,7.7,0,0,0-1.84.83,17.59,17.59,0,0,1-4.49,2.21.8.8,0,0,0-.3.1c-.9.74-2.08.71-3.11,1.1a1.27,1.27,0,0,1-1-.11,2,2,0,0,0-1.54-.23,7.85,7.85,0,0,1-1.5,0c-.14,0-.34,0-.4-.14-.54-.94-1.61-.75-2.42-1.09a4.36,4.36,0,0,1-1.75-1.67.72.72,0,0,1,.24-1A9.1,9.1,0,0,1,26.49,184a32.54,32.54,0,0,0,4.7-2.06,3.86,3.86,0,0,1,.5-.19,7.45,7.45,0,0,0,2.81-1.28,1.18,1.18,0,0,1,.58-.27,4.59,4.59,0,0,0,2.28-1.14c1.32-1.11,3-1.53,4.47-2.32,1.23-.66,2.43-1.36,3.64-2q.79-.44,1.6-.83c.42-.21.85-.38,1.27-.57s.64-.23.57-.66a1,1,0,0,0-1-.57,5.94,5.94,0,0,0-1.3.51,10.3,10.3,0,0,1-3.19,1.23,9,9,0,0,0-2.37.88A37,37,0,0,1,37.4,176c-1.12.39-2.23.8-3.34,1.19a.29.29,0,0,0-.1,0,14.06,14.06,0,0,1-3.87,2,9.94,9.94,0,0,1-1.3.37,12.49,12.49,0,0,0-3,1.08,6.92,6.92,0,0,1-5.24,1,2.47,2.47,0,0,0-.85,0,8.16,8.16,0,0,1-4.87-1.34.87.87,0,0,1-.3-1.3,2.07,2.07,0,0,1,1.12-1,62.2,62.2,0,0,0,6.33-2.7c2.57-1.39,5.37-1.89,8.11-2.68a2.4,2.4,0,0,0,1.52-.9.94.94,0,0,1,.37-.36,10.08,10.08,0,0,1,2.39-.86,6.17,6.17,0,0,0,1.88-.69,8.32,8.32,0,0,1,3.25-1,4.13,4.13,0,0,0,2.66-1.26A3.6,3.6,0,0,0,42.54,166.73Zm23.12-2.11c.49-.24,1.14-.53,1.75-.88.37-.21.79-.45.59-1-.12-.34-.63-.43-1.26-.24l-.2.08a4.11,4.11,0,0,1-2.51.25,2.93,2.93,0,0,0-1.36.12,7.87,7.87,0,0,1-4,.2,3.21,3.21,0,0,0-1.56-.08,2,2,0,0,1-1.72-.18c-.42-.22-.95-.47-1.37,0-.24.28,0,1,.5,1.42a1.25,1.25,0,0,0,.27.17,8.94,8.94,0,0,0,4.92.67,7.84,7.84,0,0,1,2.9-.13.7.7,0,0,0,.4-.09A3.58,3.58,0,0,1,65.66,164.62Zm-.5,8c-.81-.37-1.5-.71-2.22-1a.72.72,0,0,0-.42,0,3.25,3.25,0,0,1-2.07-.24c-.43-.17-.9-.19-1.35-.32a1.65,1.65,0,0,0-1.5.38c-.62.45-.57,1.05.1,1.43a5.39,5.39,0,0,0,4.11.66,4.52,4.52,0,0,1,1.35,0A1.89,1.89,0,0,0,65.16,172.59Zm-9.88,6.13a5.09,5.09,0,0,0-.72.22c-1.85.91-3.41,2.31-5.37,3a1.12,1.12,0,0,0-.52.5c-.22.4,0,.73.47.68a1.28,1.28,0,0,0,.5-.17l5.24-3.11A.87.87,0,0,0,55.29,178.73Zm.94-23.45c-1.09-.31-2-1.07-3.16-.41.33,1.08.45,1.18,1.6,1.28S55.73,156.21,56.22,155.28Zm20.46,15.28c-.66,0-1,.36-1,.82a.6.6,0,0,0,.61.62.8.8,0,0,0,.71-.91C77,170.86,76.77,170.67,76.69,170.55Zm-2.44.47c-.55.19-1,.32-.9.88,0,.15.3.39.42.37.28,0,.72-.18.77-.36S74.37,171.34,74.25,171ZM56.81,155.19c.35.29.53.56.74.58a.64.64,0,0,0,.68-.66c0-.16-.3-.49-.4-.47A5.14,5.14,0,0,0,56.81,155.19ZM69,171.82c-.22.32-.41.49-.43.68s.24.35.38.35.44-.2.43-.31S69.17,172.16,69,171.82Zm-3.1,8c-.23-.17-.39-.37-.52-.36s-.3.23-.45.35a2,2,0,0,0,.49.45C65.46,180.29,65.65,180,65.87,179.82Z"/><path class="cls-2" d="M119.79,191.48a3.5,3.5,0,0,1-.26-1,5.81,5.81,0,0,1,.33-1.79,15.51,15.51,0,0,1,.89-1.36c.26-.5.3-1.14.64-1.55a20.53,20.53,0,0,0,2.4-4,7.66,7.66,0,0,0,.58-2.26.73.73,0,0,0-1-.72,2.27,2.27,0,0,0-.29.14c-1,.48-1.15.4-1.35-.63a2.23,2.23,0,0,0-1.28-1.74,1.13,1.13,0,0,1-.73-1.27,4,4,0,0,1,.34-1.87c.36-.65.18-1.06-.47-1.43a8.83,8.83,0,0,0-1.54-.71c-.78-.27-1.13-.73-.9-1.56.31-1.13.72-2.24,1.07-3.37.19-.61.35-1.23.55-1.83s.47-1.34.71-2a3.12,3.12,0,0,0,.25-.58c.24-1.79,1.12-3.39,1.51-5.13a13.09,13.09,0,0,1,.55-1.74,1,1,0,0,0-.21-1.28c-.38-.33-.84-.3-1.36.14s-.75.76-1.13,1.14-1,1.15-1.85,1.09c-.38-1,.21-1.77.5-2.58a10.92,10.92,0,0,1,3-4.3c.05,0,.13-.1.14-.16.32-1.68,2-2.38,2.76-3.73.12-.22.37-.4.4-.62.21-1.42,1.3-2.27,2.08-3.32a6.16,6.16,0,0,0,1.55-3,9.83,9.83,0,0,0,0-2.56c-.36-2.15,1.24-3.66,3.56-3.1a9.72,9.72,0,0,1-.18,2,2.77,2.77,0,0,0,.7,2.48c.26.38,1.2.27,1.69-.1a12.29,12.29,0,0,0,3.12-3.61c.38-.64.79-1.27,1.2-1.9a1.05,1.05,0,0,1,1.41-.24c.88.48,1.76.95,2.66,1.38A2.08,2.08,0,0,1,143,135a3.93,3.93,0,0,0,.71,3.83,1.41,1.41,0,0,1,.08,1.79,11.09,11.09,0,0,0-1.32,2.91c-.6,1.57-1,3.22-1.76,4.71-.87,1.78-1.12,3.75-2,5.52a3.58,3.58,0,0,0-.13,1.89,8.59,8.59,0,0,1-.23,3.3c-.26,1-.45,1.94-.66,2.92a4,4,0,0,0,0,.64c0,.53,0,1.06-.08,1.59a6.11,6.11,0,0,0-.08,1,21.12,21.12,0,0,1-.58,5.28c-.2,1.3-.24,2.63-.43,3.94a15.82,15.82,0,0,1-.84,4.4,2.26,2.26,0,0,0-.18.95,10.43,10.43,0,0,1-1,3.92,13.73,13.73,0,0,0-.77,2.78,5.58,5.58,0,0,1-1,2.45,12.11,12.11,0,0,0-2.09,5.35,1.74,1.74,0,0,1-1,1.54,1.81,1.81,0,0,0-.63,1.05.57.57,0,0,0,.53.77,9.92,9.92,0,0,0,3.17.21,5.45,5.45,0,0,1,2.41.37c.6.19,1.22,1.8,1.07,2.45a1,1,0,0,1-1.12.8,3.4,3.4,0,0,1-2.16-.81,5.15,5.15,0,0,0-1.26-.81,1.76,1.76,0,0,0-1.63-.24.82.82,0,0,1-.52.1c-1.58-.65-2.95.37-4.42.52a17.21,17.21,0,0,1-1.72.07,5,5,0,0,0-3.08,1,9.09,9.09,0,0,0-2.18,1.66.64.64,0,0,1-.27.17,23.6,23.6,0,0,1-5.36,1.77c-.46.07-.66-.15-.57-.64a2.19,2.19,0,0,1,1.33-1.58c1-.51,2-1.08,3.06-1.5,1.23-.49,2.21-1.46,3.55-1.73a1.88,1.88,0,0,0,.76-.56,10.82,10.82,0,0,1,1.12-1.14,5.48,5.48,0,0,0,2.3-4.07c.17-1.45-.48-2.72-2.22-2.45C121.24,191.17,120.58,191.33,119.79,191.48Z"/><path class="cls-2" d="M217.3,129.56a1.05,1.05,0,0,1-1-1.23,2,2,0,0,0-1-1.87,2.93,2.93,0,0,1-.67-.81,5.79,5.79,0,0,0-.55-.79,3.14,3.14,0,0,1-.8-1.6,5.52,5.52,0,0,0-3.09-3.85,3.8,3.8,0,0,0-2-.21,4.14,4.14,0,0,1-2.6-.33,3.59,3.59,0,0,0-1.55-.24,9.39,9.39,0,0,1-2.85.05,1.47,1.47,0,0,0-.84.11,1.68,1.68,0,0,1-1.74,0,.5.5,0,0,0-.41,0c-1.27.52-2.75.59-3.69,1.81a1.3,1.3,0,0,0-.22,1.48,2.77,2.77,0,0,0,1.71,1.52c1.11.36,2.21.77,3.3,1.19a1.35,1.35,0,0,1,.84,1.74,2.55,2.55,0,0,1-1.9,2.21c-.7.18-1.35.54-2.1.71a8,8,0,0,0-2.3,1.33,26.79,26.79,0,0,1-2.38,1.61,2.82,2.82,0,0,1-1.67.15,4.08,4.08,0,0,0-2.5-.11c-.66.27-1.42-.38-1.54-1.12a4.09,4.09,0,0,1,0-.64,3.62,3.62,0,0,0-2.3-3.44,9.2,9.2,0,0,0-.91-.32,2.26,2.26,0,0,1-1.45-1.18,1.86,1.86,0,0,0-2-1.07,13.6,13.6,0,0,1-1.69-.14,5,5,0,0,0-1,0c-.95.11-1.89.25-2.92.4,0-.17,0-.37,0-.48a6.1,6.1,0,0,1,2.15-2.18,8.44,8.44,0,0,0,1.9-1.68,1.15,1.15,0,0,0,.26-.89,5.64,5.64,0,0,1,.28-2.43,2.32,2.32,0,0,0,.12-.74,2.31,2.31,0,0,1,1-2.12,3.75,3.75,0,0,0,1.28-1.81,2.22,2.22,0,0,1,.45-.85,1.08,1.08,0,0,0,.26-1.26c-.23-.57-.39-1.19-1.05-1.4-.38-.12-.83-.18-.87-.66a3,3,0,0,1,.09-1.45,11,11,0,0,0,1.32-4.27,1.84,1.84,0,0,1,.61-1c1.08-1.13,1.09-1.12.52-2.51a1,1,0,0,1,.81-1.5,3.31,3.31,0,0,1,1.59.13,11.42,11.42,0,0,0,5,.66,3,3,0,0,1,.64,0c2.08.35,4.15.74,6.23,1,.92.14,1.86.08,2.79.19a21.8,21.8,0,0,0,3.27.43,1.21,1.21,0,0,1,.86.38,25.7,25.7,0,0,0,4.56,2.93,19.17,19.17,0,0,1,1.83,1.22,6.93,6.93,0,0,0,2,1,2.13,2.13,0,0,1,1,.66,10,10,0,0,0,3.79,2.55,2.13,2.13,0,0,1,.64.37c.76.7,1.48,1.43,2.24,2.13a10,10,0,0,0,1.13.81l2.31,1.56a.94.94,0,0,1,.28.32,8.76,8.76,0,0,0,2.88,2.82,9.26,9.26,0,0,1,2.37,2.87,2.76,2.76,0,0,1,.18,1.36,4.94,4.94,0,0,0,1.43,3.71,1.63,1.63,0,0,1,.32.43c.74,1.51,1.92,2.73,2.78,4.16.22.37.37.78.58,1.15a4.64,4.64,0,0,0,.6.87,2.92,2.92,0,0,1,.14,4,8.68,8.68,0,0,1-.81,1.1c-.73.65-1.21.47-1.42-.48-.05-.24-.21-.53-.13-.73.52-1.39-.33-2.3-1.18-3.1a13.74,13.74,0,0,1-2.12-2.27,1.37,1.37,0,0,0-1.31-.61c-1.15.12-1.67-.62-2.16-1.44a8,8,0,0,1-.37-.78,1.77,1.77,0,0,0-1.14-.9,12.09,12.09,0,0,1-1.52-.73c-.28-.15-.51-.44-.81-.53a2,2,0,0,1-1.22-1.14,1.21,1.21,0,0,0-1.29-.75c-.25,0-.5,0-.75,0-1,0-1.52.78-1.06,1.59a11.84,11.84,0,0,1,1,3.29A1.33,1.33,0,0,1,217.3,129.56Zm-.17-13.17a4,4,0,0,0,2,3.92,3.71,3.71,0,0,0,4.25-.53,2.2,2.2,0,0,0-.2-3.12,8,8,0,0,1-.92-1c-.77-1-1.62-1.79-3-1.59a.82.82,0,0,1-.41-.11.83.83,0,0,0-1.21.54A18.25,18.25,0,0,0,217.13,116.38Z"/><path class="cls-2" d="M237.08,67.19a24.87,24.87,0,0,0-2.36,1.6c-.92.78-1.73,1.69-2.59,2.53a9,9,0,0,1-3.1,2.42,4.21,4.21,0,0,0-1.29.93c-1.18,1.09-2.38,2.17-3.49,3.33-.66.69-1.14,1.53-1.73,2.28s-1.16,1.44-1.78,2.12a8,8,0,0,0-1.54,2.29A27.92,27.92,0,0,1,217.38,88a1.89,1.89,0,0,1-.61.59c-1.18.75-2.37,1.48-3.55,2.22a2.92,2.92,0,0,0-.63.4c-.6.66-1.15,1.38-2.18,1.35-.11,0-.23.15-.34.25-1.38,1.37-3.19,2.12-4.75,3.24a1.91,1.91,0,0,1-1.64.19,20.1,20.1,0,0,0-3.61-.68,4.33,4.33,0,0,1-1.21-.3A4.26,4.26,0,0,0,196,95c-.16.06-.42-.08-.6-.19a2.57,2.57,0,0,0-1.87-.27,2.17,2.17,0,0,1-.82-.07c-.8-.17-1.62-.24-2.41-.39a6,6,0,0,0-3.22.15,2.85,2.85,0,0,0-2.92-1.31,7.1,7.1,0,0,1-1.27-.18,3.43,3.43,0,0,0-1.06,0,2.87,2.87,0,0,1-2.63-.9c-.44-.4-.9-.79-1.38-1.15a.79.79,0,0,1,.16-1.43,14.5,14.5,0,0,1,2.92-1,6.15,6.15,0,0,0,2.67-1.31,18.28,18.28,0,0,1,3.94-2.16c1-.32,2-.67,3-.95a5.84,5.84,0,0,0,1.66-.73c1.16-.76,2.29-1.58,3.4-2.43a1.5,1.5,0,0,0,.41-.8,2,2,0,0,1,2-1.51c-.25.47-.45.86-.67,1.24a7.27,7.27,0,0,1-.84,1.37,2.46,2.46,0,0,0-.49,2,1.3,1.3,0,0,0,1.46,1.23A4.06,4.06,0,0,0,198.5,84c1.15-.4,2.28-.84,3.42-1.24a5.16,5.16,0,0,0,2.34-1.63,18.88,18.88,0,0,1,1.69-1.47c.62-.58,1.22-1.2,1.8-1.83a23.09,23.09,0,0,0,1.85-2.1c1.13-1.55,2.78-2.55,4-4a1,1,0,0,1,.52-.34,1.2,1.2,0,0,1,.79.11c.12.08.12.49,0,.67a2.91,2.91,0,0,0-.19,2.09.93.93,0,0,0,1.62.55c1-.85,1.9-1.73,2.85-2.6.13-.12.31-.23.37-.38.71-1.69,2.44-2,3.77-2.93,0,0,.07,0,.12,0a.65.65,0,0,1,0,1,6.72,6.72,0,0,0-.77.74A17.22,17.22,0,0,0,220.06,75a1.83,1.83,0,0,0,0,1.11.64.64,0,0,0,.88.4,4.68,4.68,0,0,0,1.26-.59,50.81,50.81,0,0,1,4.12-3.23c1.64-1,3-2.48,4.83-3.17a15.32,15.32,0,0,0,2.63-1.83,6.85,6.85,0,0,1,3.19-.82Z"/><path class="cls-2" d="M129.67,68.73c.21-.08.42-.24.62-.22a3.49,3.49,0,0,0,2.71-.9,3.57,3.57,0,0,1,4.31-.44c1.46.88,2.87,1.85,4.3,2.78.12.08.23.21.35.24,1.41.27,2.31,1.37,3.42,2.12s2.11,1.57,3.15,2.37a5,5,0,0,1,.54.53,5.17,5.17,0,0,0,2,1.54,3,3,0,0,1,1.35,1.18c.83,1.3,2.17,1.93,3.35,2.77.7.5,1.37,1,2,1.59.89.77,1.76,1.56,2.6,2.38.59.57,1.08,1.25,1.66,1.82a8.5,8.5,0,0,0,1.64,1.36c1.16.66,1.3.84.79,2s.08,1.89.5,2.74A14.7,14.7,0,0,1,166.43,96a5.49,5.49,0,0,0,.52,1.52,4.31,4.31,0,0,1,0,3.55,11.24,11.24,0,0,1-.77,1.76,3.56,3.56,0,0,1-.65.67,51.1,51.1,0,0,1-3.46-4.46,4.19,4.19,0,0,0-.35-.54c-1.06-1.3-2.09-2.63-3.21-3.89a17.49,17.49,0,0,1-2.81-3.92,1.22,1.22,0,0,0-.35-.4,29.72,29.72,0,0,1-3.27-3.52,9.15,9.15,0,0,0-1.53-1.3A8,8,0,0,1,147.91,83a2.35,2.35,0,0,0-1-.91,4.25,4.25,0,0,1-2.07-1.94,1.18,1.18,0,0,0-.47-.53,5.54,5.54,0,0,1-2.26-2,9.07,9.07,0,0,0-3.17-3.14,1.86,1.86,0,0,1-.68-.78,6.94,6.94,0,0,0-2.58-2.5c-.12-.07-.28-.11-.35-.22-1.14-1.66-3-1.69-4.67-2a7.56,7.56,0,0,0-.92,0Z"/><path class="cls-2" d="M156.74,158.9c-.35,1-.24,2-.91,2.92a12.34,12.34,0,0,0-1.9,3.81,2.77,2.77,0,0,1-.62,1.1,4.48,4.48,0,0,0-1.19,2.25,4,4,0,0,1-1,2.12,1.12,1.12,0,0,0-.21.36c-.27.66-.54,1.32-.81,2-.5,1.21-1,2.43-1.52,3.63-.17.39-.37.77-.55,1.16s-.38.59-.38.88a5.08,5.08,0,0,1-1,2.65,5.59,5.59,0,0,0-1,2.69,3,3,0,0,1-.63,1.33c-.39.6-.87,1.14-1.25,1.75a10.57,10.57,0,0,0-.62,1.33,1.79,1.79,0,0,1-.17.39,10.83,10.83,0,0,0-1.45,3.5,3.09,3.09,0,0,1-2,1.81,3.37,3.37,0,0,1-2.91-.2c-.79-.46-.87-.85-.24-1.47s1.52-1.52,2.29-2.26a3.3,3.3,0,0,0,1-2.38,1.94,1.94,0,0,0-.57-1.31,2.45,2.45,0,0,1-.69-2.74,7.4,7.4,0,0,1,1-2.33,7,7,0,0,0,.81-2.85,3.58,3.58,0,0,1,.74-2,5.63,5.63,0,0,0,1-3c0-.27-.2-.59-.34-.88q-.32-.68-.68-1.34a2.45,2.45,0,0,1,.63-3.09,7.48,7.48,0,0,0,1.85-4.47,2.81,2.81,0,0,1,1.09-2.07c2.09-1.63,4.37-2.95,6.6-4.35a4.59,4.59,0,0,1,3.9-.57,3.17,3.17,0,0,1,1.46,1A2,2,0,0,1,156.74,158.9Z"/><path class="cls-2" d="M169.74,95.68a2.28,2.28,0,0,1,.75.26,17,17,0,0,1,2.9,2.82,6.48,6.48,0,0,1,1.4,3.53,7.77,7.77,0,0,0,.16.94c0,.39.09.78.11,1.17,0,.56,0,1.13,0,1.69s.44,1.41-.3,2c-.09,1.19-.68,2.28-.5,3.54a6.29,6.29,0,0,1-.66,3.53c-.34.74-.51,1.56-.89,2.27a8.84,8.84,0,0,1-1.23,1.46,4.5,4.5,0,0,0-.64.72,4.05,4.05,0,0,1-2.3,1.65,4.45,4.45,0,0,0-1.42.88,8.84,8.84,0,0,1-2.24,1.45.56.56,0,0,1-.88-.29c-.12-.26-.22-.53-.36-.78-.4-.71-1.07-.8-1.54-.15a6.53,6.53,0,0,0-1.13,1.93,1.31,1.31,0,0,1-1.55,1.1c-.59-1-.47-1.5.53-2.08.39-.23.83-.35,1-.87a1.85,1.85,0,0,0-.2-1.92c-.21-.28-.41-.59-.6-.88a.86.86,0,0,1,.16-1.24,3.22,3.22,0,0,0,.55-.65,5.87,5.87,0,0,1,3-2.43,4.81,4.81,0,0,0,2.49-2.63,15.88,15.88,0,0,0,1.24-3.85,13.66,13.66,0,0,1,1-2.59,8.32,8.32,0,0,0,.69-2.11,19.22,19.22,0,0,1,.61-3,4.82,4.82,0,0,0-.19-3.26A2.12,2.12,0,0,1,169.74,95.68Z"/><path class="cls-2" d="M146.69,211.79a3.4,3.4,0,0,1-2.17-1.94c-.36-.82-1.17-1.22-1.54-2a.58.58,0,0,0-.46-.2,1.15,1.15,0,0,1-1.12-.48.56.56,0,0,0-.46-.2c-.81.17-1.45-.32-2.14-.56a1.56,1.56,0,0,1-1.15-1.9,2.43,2.43,0,0,1,1.68-2.16,9.79,9.79,0,0,0,1.23-.39,2.31,2.31,0,0,1,2.75.86,9.18,9.18,0,0,0,4.1,3.13l.1,0a3.54,3.54,0,0,0,3,.48,2.1,2.1,0,0,1,1.67.25.85.85,0,0,0,.39.16c1.46,0,2.75.87,4.16.95a6.44,6.44,0,0,1,2.87,1c.28.15.62.18.9.32s.67.32.72.54a12.45,12.45,0,0,1,.35,2.53c0,.64-.62.8-1.16.31-.82-.74-1.64-1.49-2.38-2.31a2.33,2.33,0,0,0-2-1,1.5,1.5,0,0,1-1-.35,2.64,2.64,0,0,0-1.78-.53c-1,0-2-.12-3-.16a3.2,3.2,0,0,0-3.41,2.63Z"/><path class="cls-2" d="M123.74,67.54l-.71.86-2-.51c-.1,0-.23,0-.31-.08a18.28,18.28,0,0,1-2.62-2.13,7.31,7.31,0,0,0-2.78-2.08,9.82,9.82,0,0,1-3.68-2.68,5.9,5.9,0,0,0-1.86-1.41A9.65,9.65,0,0,1,108,58.07,11,11,0,0,1,105.44,56a.5.5,0,0,0-.38-.16c-1.12.07-1.17-1-1.66-1.57-.06-.07.06-.31.13-.57.9.58,1.91.64,2.73,1.29a16,16,0,0,0,2.37,1.22,12,12,0,0,1,2.55,1.55,22.15,22.15,0,0,0,2.78,1.7,15.29,15.29,0,0,0,1.43.93c1.5.83,2.83,1.9,4.25,2.84a4,4,0,0,1,1.31,1.22A7.76,7.76,0,0,0,123.74,67.54Z"/><path class="cls-2" d="M146.78,198.31l.16.47c-.37.13-.72.37-1,.32-.79-.14-1.67.23-2.37-.39a19.77,19.77,0,0,0-2.06.44,2.1,2.1,0,0,1-2-.51.63.63,0,0,1,0-.88c.22-.18.66-.4.82-.3a2.79,2.79,0,0,0,1.92.13,10.36,10.36,0,0,1,2.7.36C145.51,198,146.05,198.17,146.78,198.31Z"/><path class="cls-2" d="M131.46,207.86a1.28,1.28,0,0,1,.54-1.5,9.2,9.2,0,0,1,.84-.65.65.65,0,0,1,1,.15c.2.34.23.73-.16.94C133,207.18,132.23,207.5,131.46,207.86Z"/><path class="cls-2" d="M225.8,67.38c0,.56,0,.87-.57.94C225.12,67.89,225.36,67.69,225.8,67.38Z"/><path class="cls-3" d="M65.66,164.62a3.58,3.58,0,0,0-2.64.31.7.7,0,0,1-.4.09,7.84,7.84,0,0,0-2.9.13,8.94,8.94,0,0,1-4.92-.67,1.25,1.25,0,0,1-.27-.17c-.46-.4-.74-1.14-.5-1.42.43-.49,1-.24,1.37,0a2,2,0,0,0,1.72.18,3.21,3.21,0,0,1,1.56.08,7.87,7.87,0,0,0,4-.2,2.93,2.93,0,0,1,1.36-.12,4.11,4.11,0,0,0,2.51-.25l.2-.08c.63-.19,1.13-.1,1.26.24.2.55-.22.79-.59,1C66.8,164.08,66.16,164.37,65.66,164.62Z"/><path class="cls-3" d="M65.16,172.59a1.89,1.89,0,0,1-2,.9,4.52,4.52,0,0,0-1.35,0,5.39,5.39,0,0,1-4.11-.66c-.67-.38-.72-1-.1-1.43a1.65,1.65,0,0,1,1.5-.38c.44.13.92.15,1.35.32a3.25,3.25,0,0,0,2.07.24.72.72,0,0,1,.42,0C63.66,171.89,64.36,172.22,65.16,172.59Z"/><path class="cls-3" d="M55.29,178.73a.87.87,0,0,1-.4,1.16L49.65,183a1.28,1.28,0,0,1-.5.17c-.45,0-.68-.28-.47-.68a1.12,1.12,0,0,1,.52-.5c2-.73,3.52-2.13,5.37-3A5.09,5.09,0,0,1,55.29,178.73Z"/><path class="cls-3" d="M56.22,155.28c-.49.93-.56,1-1.56.87s-1.27-.2-1.6-1.28C54.2,154.21,55.14,155,56.22,155.28Z"/><path class="cls-3" d="M76.69,170.55c.08.11.3.3.34.52a.8.8,0,0,1-.71.91.6.6,0,0,1-.61-.62C75.66,170.91,76,170.55,76.69,170.55Z"/><path class="cls-3" d="M74.25,171c.12.31.36.64.29.89s-.48.32-.77.36c-.13,0-.4-.22-.42-.37C73.27,171.35,73.7,171.22,74.25,171Z"/><path class="cls-3" d="M56.81,155.19a5.14,5.14,0,0,1,1-.54c.09,0,.41.31.4.47a.64.64,0,0,1-.68.66C57.34,155.75,57.16,155.48,56.81,155.19Z"/><path class="cls-3" d="M69,171.82c.2.34.37.53.38.72s-.28.31-.43.31-.4-.24-.38-.35S68.76,172.14,69,171.82Z"/><path class="cls-3" d="M65.87,179.82c-.21.2-.41.47-.48.44a2,2,0,0,1-.49-.45c.15-.13.29-.33.45-.35S65.64,179.65,65.87,179.82Z"/><path class="cls-3" d="M216.48,116.36a18.25,18.25,0,0,1,.54-1.93.83.83,0,0,1,1.21-.54.82.82,0,0,0,.41.11c1.4-.2,2.25.61,3,1.59a8,8,0,0,0,.92,1,2.2,2.2,0,0,1,.2,3.12,3.71,3.71,0,0,1-4.25.53A4,4,0,0,1,216.48,116.36Z"/><path class="cls-3" d="M234.42,113.53a1.7,1.7,0,0,1,0,.26,2.26,2.26,0,0,0-.09.66.84.84,0,0,1-.07.34c-.05.11-.1.23-.16.34s-.16.28-.25.43a2.91,2.91,0,0,0-.19.32.61.61,0,0,1-.31.33,2.28,2.28,0,0,0-.57.4l-.17.15a.67.67,0,0,0-.23.29.81.81,0,0,1-.32.32,4.46,4.46,0,0,1-.42.28.44.44,0,0,1-.2.06,1.47,1.47,0,0,0-.55.12.64.64,0,0,1-.33.05,1.23,1.23,0,0,0-.4,0,.76.76,0,0,1-.43,0l-.57-.22-.24-.08-.36-.14a1.05,1.05,0,0,0-.21-.08,1.64,1.64,0,0,1-.71-.33,1.94,1.94,0,0,0-.45-.26,1.16,1.16,0,0,1-.39-.26l-.24-.22a1.3,1.3,0,0,1-.2-.21,3.57,3.57,0,0,0-.58-.64,2.31,2.31,0,0,1-.34-.36,1.61,1.61,0,0,0-.47-.41l-.37-.27a2.77,2.77,0,0,0-.24-.17l-.86-.48a2.32,2.32,0,0,0-.72-.26.4.4,0,0,1-.26-.13,2.61,2.61,0,0,0-.94-.63c-.44-.22-.9-.42-1.35-.61a2.36,2.36,0,0,1-.49-.27.68.68,0,0,0-.4-.12.64.64,0,0,1-.46-.18.42.42,0,0,0-.28-.12,1.56,1.56,0,0,1-.53-.16,2.15,2.15,0,0,0-.71-.16l-.95-.06-.2,0a2,2,0,0,0-.59,0,1.35,1.35,0,0,1-.31,0l-.32,0a2.21,2.21,0,0,0-.72,0,3.15,3.15,0,0,0-.55.17,3.71,3.71,0,0,0-.94.51c-.18.14-.33.3-.5.45a2.14,2.14,0,0,1-.28.22,1.65,1.65,0,0,0-.54.5,1,1,0,0,1-.29.29,2.86,2.86,0,0,0-.5.42,2.91,2.91,0,0,1-.52.41,1.75,1.75,0,0,0-.36.32,3,3,0,0,1-.8.72c-.12.06-.22.15-.34.21l-.39.2a2,2,0,0,0-.29.2.66.66,0,0,1-.33.16.59.59,0,0,0-.3.14,1.77,1.77,0,0,1-.59.27l-.79.26a1.24,1.24,0,0,1-.58,0,3.69,3.69,0,0,0-.56,0,1.21,1.21,0,0,1-.52-.08c-.1,0-.21-.07-.31-.11l-.29-.13c-.17-.07-.33-.16-.5-.22a2.93,2.93,0,0,1-.71-.34l-.31-.18a.92.92,0,0,1-.21-.16,1.08,1.08,0,0,0-.36-.29,1,1,0,0,1-.33-.25l-.1-.09c-.26-.21-.52-.42-.79-.61a1.14,1.14,0,0,1-.3-.31,1.19,1.19,0,0,0-.37-.38,1,1,0,0,1-.22-.21l-.46-.56a.89.89,0,0,0-.16-.14,2.71,2.71,0,0,1-.42-.45l-.54-.63a.76.76,0,0,0-.16-.13.87.87,0,0,1-.33-.4,1,1,0,0,0-.22-.38l-.25-.22a2.12,2.12,0,0,1-.28-.25,5.87,5.87,0,0,0-.71-.66,1.64,1.64,0,0,0-.24-.14l-.23-.16-.27-.22-.21-.17c-.14-.11-.27-.24-.41-.34a1.13,1.13,0,0,0-.26-.14.7.7,0,0,1-.31-.23,1,1,0,0,0-.45-.32l-1-.34-.17-.08-.55-.27a.88.88,0,0,1-.17-.1,1.41,1.41,0,0,0-.39-.21c-.18-.07-.35-.16-.52-.24l-.3-.14-.3-.15a1.33,1.33,0,0,0-.29-.1,2.6,2.6,0,0,1-.76-.22.41.41,0,0,0-.17,0,1.49,1.49,0,0,1-.56-.12.52.52,0,0,0-.17,0l-.69-.05h-.07a1.35,1.35,0,0,1-.7-.12c-.12,0-.24-.06-.36-.1l-.38-.12-.63-.18h0c-.29-.15-.58-.29-.86-.45a.93.93,0,0,1-.25-.24,3.29,3.29,0,0,0-.47-.51,1.42,1.42,0,0,1-.37-.48l-.12-.25a2.77,2.77,0,0,0-.38-.63.67.67,0,0,1-.16-.52.46.46,0,0,1,.43-.4.62.62,0,0,1,.52.22.23.23,0,0,0,.14.09.26.26,0,0,1,.12.09.41.41,0,0,0,.19.11,1.29,1.29,0,0,1,.32.16,2,2,0,0,0,.55.31h0a.64.64,0,0,0,.45.13,1.41,1.41,0,0,1,.47.1,1.33,1.33,0,0,0,.41.07l.56,0h.24a7.18,7.18,0,0,0,1-.1l.3,0a2.34,2.34,0,0,0,.72-.17,3.93,3.93,0,0,1,.44-.14l.35-.11.55-.16.54-.2.2-.07a2.25,2.25,0,0,0,.5-.19l.71-.32a1.17,1.17,0,0,0,.38-.24.9.9,0,0,1,.43-.22,1.91,1.91,0,0,0,.74-.38,2,2,0,0,1,.48-.31,1.23,1.23,0,0,0,.41-.31,1,1,0,0,1,.49-.3,1.22,1.22,0,0,0,.42-.25l.24-.16a2.14,2.14,0,0,0,.5-.39,1.42,1.42,0,0,1,.31-.25,2.71,2.71,0,0,0,.55-.46,4.23,4.23,0,0,1,.33-.29l.16-.12a.72.72,0,0,0,.29-.4.43.43,0,0,1,.24-.26l.28-.15a1.79,1.79,0,0,1,.37-.14,1.22,1.22,0,0,0,.58-.28l.43-.39.33-.27a1.56,1.56,0,0,0,.41-.42.59.59,0,0,1,.18-.19c.18-.11.37-.2.55-.31a2,2,0,0,0,.35-.27,4.58,4.58,0,0,1,.59-.51,2.07,2.07,0,0,1,.3-.17l.46-.21a2.49,2.49,0,0,0,.39-.23,2.65,2.65,0,0,1,.73-.36,5.25,5.25,0,0,0,.51-.2,1.22,1.22,0,0,1,.55-.14.47.47,0,0,0,.25-.08l.25-.13a12.6,12.6,0,0,1,1.34-.47c.12,0,.24-.05.36-.08l.81-.18c.38-.09.76-.21,1.15-.29a6.71,6.71,0,0,1,1.12-.18l.52,0a1,1,0,0,0,.36,0,1.31,1.31,0,0,1,.46,0l.43,0a4.07,4.07,0,0,1,.67.11l.55.09.47.08.38.06.68.13.29,0a2.86,2.86,0,0,1,.9.27l.86.43.69.38.11.05a9.73,9.73,0,0,1,1.21.57,3.64,3.64,0,0,0,.45.21,3.6,3.6,0,0,1,.93.54,2.78,2.78,0,0,0,.51.32A4.32,4.32,0,0,1,222,95l.39.28.85.62.4.27.1.06a6.31,6.31,0,0,1,.89.81,2.19,2.19,0,0,0,.62.54,2.25,2.25,0,0,1,.2.14l.44.31.09.06c.18.17.36.34.53.53a16.92,16.92,0,0,0,1.33,1.37c.25.22.49.46.74.69.09.08.19.14.28.21a1,1,0,0,1,.15.13l.26.34a4.16,4.16,0,0,1,.31.44,4.28,4.28,0,0,0,.58.73,1.31,1.31,0,0,1,.26.38,1.25,1.25,0,0,0,.19.26,1.9,1.9,0,0,1,.17.22,3.77,3.77,0,0,0,.53.77,1.27,1.27,0,0,1,.15.25l.13.23.14.24a3.43,3.43,0,0,0,.24.37,1.2,1.2,0,0,1,.25.48,2.85,2.85,0,0,0,.34.76,1,1,0,0,1,.15.35.35.35,0,0,0,.05.14,2.27,2.27,0,0,1,.26.6,6.86,6.86,0,0,0,.32.76,2.13,2.13,0,0,1,.12.44,3,3,0,0,0,.15.41c0,.08.07.15.09.24s.15.42.21.63a2,2,0,0,1,.13.8.72.72,0,0,0,.08.4c.07.13.12.28.18.42a.56.56,0,0,1,0,.3.89.89,0,0,0,0,.46.29.29,0,0,1,0,.15,4.24,4.24,0,0,0,0,.71C234.41,113.36,234.42,113.44,234.42,113.53ZM202.07,97.74a.35.35,0,0,0,.28.12,1.36,1.36,0,0,1,.48.11,1,1,0,0,1,.19.11.73.73,0,0,0,.32.13.6.6,0,0,1,.22.06,1,1,0,0,0,.46.13c.22,0,.44,0,.65,0s.67,0,1,0l.84,0a.47.47,0,0,0,.16,0l.63-.2a.55.55,0,0,1,.18,0,2.2,2.2,0,0,0,.55-.1l.25,0h.23c.14,0,.28,0,.43,0l1,0a2.67,2.67,0,0,0,.77,0,2.25,2.25,0,0,1,.86,0,3.84,3.84,0,0,0,.58.11h.41l.48.05.89,0a.56.56,0,0,1,.18,0,1.51,1.51,0,0,0,.49.09l.55,0c.13,0,.26,0,.39,0l1.17.22a2.34,2.34,0,0,1,.48.15,1,1,0,0,0,.41.1,1.77,1.77,0,0,1,.7.16,1.26,1.26,0,0,0,.36.08,1,1,0,0,1,.38.12,3.09,3.09,0,0,0,.39.2,4.77,4.77,0,0,1,.7.34,2.47,2.47,0,0,0,.4.18,3.57,3.57,0,0,1,.58.28c.24.14.48.27.72.4a1,1,0,0,1,.24.16,3.16,3.16,0,0,0,.8.66l.19.13a2.22,2.22,0,0,1,.69.68,2.81,2.81,0,0,0,.34.41,1.54,1.54,0,0,1,.39.55,1.49,1.49,0,0,0,.3.52,4.78,4.78,0,0,1,.48.63.89.89,0,0,1,.15.44.73.73,0,0,0,.22.51,1.2,1.2,0,0,1,.28.45c0,.09.07.18.11.27a1.22,1.22,0,0,0,.25.41,1.08,1.08,0,0,1,.23.42,4,4,0,0,1,.15.77,3.3,3.3,0,0,0,.26,1,1.36,1.36,0,0,1,.13.56,1.16,1.16,0,0,0,.13.59.58.58,0,0,1,.06.19,1.29,1.29,0,0,0,.17.45.68.68,0,0,1,.12.39,2,2,0,0,0,.1.79.81.81,0,0,1,0,.2,1.25,1.25,0,0,0,.15.49,1.09,1.09,0,0,1,.13.36.52.52,0,0,0,.17.28,1.38,1.38,0,0,1,.41.55.77.77,0,0,1,.4.13,2.85,2.85,0,0,1,.3.26.63.63,0,0,0,.44.24.47.47,0,0,1,.16.05,2.18,2.18,0,0,1,.34.16.78.78,0,0,0,.39.11.81.81,0,0,0,.62-.2.5.5,0,0,1,.18-.11,1,1,0,0,0,.4-.25.4.4,0,0,0,.14-.42c0-.14-.06-.29-.1-.43a1.8,1.8,0,0,1-.08-.65,1.19,1.19,0,0,0-.12-.66,3.09,3.09,0,0,1-.22-.67.6.6,0,0,0-.16-.32.45.45,0,0,1-.12-.29,2,2,0,0,0-.07-.38,3.14,3.14,0,0,1-.13-.59.82.82,0,0,0-.19-.47,1.1,1.1,0,0,1-.14-.28c0-.07,0-.15-.08-.23a1.06,1.06,0,0,1-.07-.36,1.8,1.8,0,0,0-.05-.31c0-.16-.1-.31-.12-.46a3.55,3.55,0,0,0-.43-1.26,2.64,2.64,0,0,1-.28-.69c0-.16-.07-.32-.1-.48a.21.21,0,0,0-.16-.17.65.65,0,0,1-.25-.15,2.47,2.47,0,0,1-.28-.36.93.93,0,0,0-.28-.32.48.48,0,0,1-.13-.11,5.14,5.14,0,0,0-.72-.69c-.17-.14-.32-.31-.47-.47l-.49-.48a1.44,1.44,0,0,0-.34-.23.91.91,0,0,1-.26-.18c-.11-.12-.21-.27-.31-.4l-.08-.09c-.2-.22-.41-.43-.59-.66a1.69,1.69,0,0,0-.57-.5,1.92,1.92,0,0,1-.55-.47,4.55,4.55,0,0,0-1.12-1l-.22-.15-.4-.32a5,5,0,0,0-1-.59,2.25,2.25,0,0,1-.67-.52,1.25,1.25,0,0,0-.55-.37,4.08,4.08,0,0,1-.41-.19,2.91,2.91,0,0,0-.28-.13,1.32,1.32,0,0,1-.52-.33,2,2,0,0,0-.84-.54,1.79,1.79,0,0,1-.32-.16c-.08,0-.15-.11-.24-.15s-.4-.2-.59-.3a4.52,4.52,0,0,0-.65-.27,2.89,2.89,0,0,1-.63-.29,2.77,2.77,0,0,0-.29-.14.28.28,0,0,0-.25,0,.82.82,0,0,1-.47.05l-.23,0a.37.37,0,0,1-.28-.12.82.82,0,0,0-.51-.24,2,2,0,0,1-.32-.07,1.53,1.53,0,0,0-.52-.1,4.09,4.09,0,0,0-.86,0h-.08c-.29,0-.58-.1-.87-.1s-.37,0-.55,0a2.4,2.4,0,0,0-.71.21,2.41,2.41,0,0,1-.64.17,1.18,1.18,0,0,0-.48.15,1.49,1.49,0,0,1-.46.16,1.49,1.49,0,0,0-.33.13l-.4.21a2.06,2.06,0,0,0-.24.13,5.59,5.59,0,0,1-.94.53l-1.23.52a4.13,4.13,0,0,0-.88.44l-.25.2a.76.76,0,0,1-.21.11,1.76,1.76,0,0,0-.47.24c-.2.14-.4.27-.6.39A.86.86,0,0,0,202.07,97.74Zm-4.71,2.81.26.18a1,1,0,0,0,.37.21.71.71,0,0,1,.33.2.66.66,0,0,0,.43.2,2.11,2.11,0,0,1,.82.28,1.38,1.38,0,0,0,.47.18,1.31,1.31,0,0,1,.43.16,2.53,2.53,0,0,0,.37.16,3.6,3.6,0,0,1,.63.27.79.79,0,0,0,.31.1l.25.05.75.24.32.08.63.12a3.15,3.15,0,0,0,.54.07c.3,0,.6,0,.89,0h.23l1-.16a5.34,5.34,0,0,1,.73-.09.44.44,0,0,0,.16,0,3.63,3.63,0,0,1,.89-.17c.29,0,.59,0,.89-.12h.16l.93,0,1,0a4.13,4.13,0,0,1,.84.1,4.28,4.28,0,0,0,.92.15,1.33,1.33,0,0,1,.45.11,1,1,0,0,0,.26.07l.68.05a1,1,0,0,1,.43.13,4.1,4.1,0,0,0,.78.35,1.11,1.11,0,0,1,.48.32,1.83,1.83,0,0,0,.44.38,1.62,1.62,0,0,1,.39.37,1.71,1.71,0,0,0,.27.27c.27.19.54.36.81.54a1.56,1.56,0,0,1,.55.62,3.28,3.28,0,0,0,.37.62.93.93,0,0,1,.12.21c.06.14.12.28.17.42a1.12,1.12,0,0,1,.08.31c0,.21,0,.43,0,.64a1.41,1.41,0,0,0,0,.19.15.15,0,0,0,.1.12l.75.31a3.19,3.19,0,0,0,.45.16,5.06,5.06,0,0,1,1.23.46,1.67,1.67,0,0,0,.67.2.78.78,0,0,1,.6.31,2.75,2.75,0,0,0,.28.34,2.85,2.85,0,0,0,.52.37c.21.12.41.26.62.4l.07.06a1.06,1.06,0,0,0,0-.51l-.26-1a.73.73,0,0,1,0-.11c0-.23,0-.46-.07-.69a1.28,1.28,0,0,0-.16-.56.54.54,0,0,1,0-.14l-.08-.34a1,1,0,0,1,0-.17,1,1,0,0,0-.13-.4,3.6,3.6,0,0,1-.18-.36,1.83,1.83,0,0,0-.41-.66,3.19,3.19,0,0,1-.41-.52c-.14-.21-.3-.39-.46-.59s-.18-.22-.26-.34a.87.87,0,0,0-.2-.22,2.11,2.11,0,0,1-.26-.25l-.41-.47-.14-.15a1.31,1.31,0,0,0-.46-.36l-.27-.15-.41-.23a3.07,3.07,0,0,1-.51-.29.88.88,0,0,0-.28-.14,2.19,2.19,0,0,1-.61-.28,1.78,1.78,0,0,0-.9-.31.4.4,0,0,1-.26-.12,1.24,1.24,0,0,0-.67-.31c-.17,0-.33-.06-.5-.1L214.9,101a7.43,7.43,0,0,0-1.89-.37,4.38,4.38,0,0,1-.54-.08,1.07,1.07,0,0,0-.55,0h-.12a4.8,4.8,0,0,1-.93-.12,1,1,0,0,0-.54,0c-.18,0-.37.06-.55.1a.9.9,0,0,0-.24.07.62.62,0,0,1-.39.07,1,1,0,0,0-.48,0,.93.93,0,0,1-.4,0,.85.85,0,0,0-.37,0l-.75.24-.22,0a1.41,1.41,0,0,0-.54.13.53.53,0,0,1-.21.05h-.51a5.13,5.13,0,0,0-.71,0,3.12,3.12,0,0,1-.53,0c-.38,0-.77,0-1.15-.05s-.51,0-.76-.07l-.1,0L202,101l-.4-.1c-.12,0-.24-.1-.36-.13a1.1,1.1,0,0,1-.48-.25.7.7,0,0,0-.3-.15l-.38-.12-.26-.11a1.42,1.42,0,0,1-.4-.22c-.1-.07-.2-.13-.3-.19a.34.34,0,0,0-.37,0,5.92,5.92,0,0,0-.57.35,4.23,4.23,0,0,1-.56.34Zm-7.39,3.5v0l.41.06.46.08c.23,0,.45.09.68.11l1.7.13a.58.58,0,0,1,.28.08l.33.18.39.17.15.06.44.16a2.49,2.49,0,0,0,.39.12.71.71,0,0,1,.4.12l0,0a3,3,0,0,1,.52.32,4.1,4.1,0,0,0,.37.25c.19.1.39.18.58.26a1.45,1.45,0,0,1,.54.34.21.21,0,0,0,.13.07,8,8,0,0,1,.81,0,1.66,1.66,0,0,0,1.07-.3,1,1,0,0,1,.41-.16,3.74,3.74,0,0,1,1.13,0,1.33,1.33,0,0,0,.38,0,2.83,2.83,0,0,1,.92,0,5.19,5.19,0,0,0,.59.08l.33,0,.42.09c.33.09.65.19,1,.26a2.32,2.32,0,0,1,.78.33,9.63,9.63,0,0,0,1,.58c.31.15.64.26,1,.4s.44.17.66.25l.21.08.55.19.39.14a2.41,2.41,0,0,0,.81.13l.51,0,.28,0a2.64,2.64,0,0,1,.86,0,.25.25,0,0,0,.25-.06,1.4,1.4,0,0,1,.51-.31,1.37,1.37,0,0,0,.34-.2,1.33,1.33,0,0,1,.53-.25.38.38,0,0,0,.14-.07l.21-.19a1.25,1.25,0,0,1,.83-.29c.21,0,.43,0,.64,0a.31.31,0,0,1,.14,0,.1.1,0,0,0,.12,0,.25.25,0,0,1,.19,0l.27,0c.11,0,.14,0,.13-.15a1.31,1.31,0,0,0-.15-.41,1.26,1.26,0,0,0-.58-.55l-.11,0-.1,0c-.14,0-.29-.1-.43-.13a.58.58,0,0,1-.23-.09,1.1,1.1,0,0,0-.41-.18,1.13,1.13,0,0,1-.23-.08,4.78,4.78,0,0,1-.48-.25,1.74,1.74,0,0,0-.65-.23,3.27,3.27,0,0,1-.7-.18,1.82,1.82,0,0,0-.42-.09l-.39,0a2.16,2.16,0,0,0-.62,0,4.51,4.51,0,0,1-.45,0h-1a1.49,1.49,0,0,0-.49,0,4.12,4.12,0,0,1-1,.14,3.92,3.92,0,0,0-.79.11,3.22,3.22,0,0,1-.42.09l-.5.06a5.73,5.73,0,0,1-.74.07,4.58,4.58,0,0,1-.94-.09h-.08l-.77.08a3.33,3.33,0,0,1-1,0l-.6-.11a.81.81,0,0,1-.3-.11,1.5,1.5,0,0,0-.66-.3l-.06,0a2.29,2.29,0,0,0-.62-.15l-.66-.16-.36-.11a1.16,1.16,0,0,1-.39-.17,2,2,0,0,0-.31-.18,5,5,0,0,1-.93-.53,1.23,1.23,0,0,0-.26-.14l-.64-.27a1.75,1.75,0,0,1-.54-.33.76.76,0,0,0-.35-.18,1.61,1.61,0,0,1-.39-.13,4.55,4.55,0,0,1-.42-.28l-.09-.07a1.73,1.73,0,0,0-.44.24,2.22,2.22,0,0,1-.82.44,2,2,0,0,0-.56.24,1.93,1.93,0,0,1-.58.27.37.37,0,0,0-.15.08.59.59,0,0,1-.43.14h-.13l-.35.07-.35.07a4.53,4.53,0,0,0-.68.17A3.13,3.13,0,0,1,190,104.05Zm19.54,7.06,0,0-.13,0a9.48,9.48,0,0,1-1-.25c-.28-.08-.56-.14-.84-.22s-.59-.19-.9-.26a2.06,2.06,0,0,1-.72-.31,1.68,1.68,0,0,0-.65-.29,1.89,1.89,0,0,1-.47-.15l-.21-.09-.83-.33a.49.49,0,0,0-.18,0,4.17,4.17,0,0,1-.91-.1c-.57-.12-.36-.14-.92,0a1.54,1.54,0,0,1-.62.07,2.64,2.64,0,0,0-.33,0,.63.63,0,0,0,.27.26,1.21,1.21,0,0,1,.38.33,1.21,1.21,0,0,0,.18.2,5,5,0,0,1,.52.55,1.81,1.81,0,0,0,.28.26,2.14,2.14,0,0,1,.65.72l0,.05c.2.18.39.37.6.55a1,1,0,0,0,.53.24,2.12,2.12,0,0,1,.36.08l.45.16a4.73,4.73,0,0,0,.93.19,1.77,1.77,0,0,0,.61-.06l.47-.11a.77.77,0,0,0,.24-.08,3.44,3.44,0,0,1,.74-.37,2.18,2.18,0,0,0,.39-.2,3.72,3.72,0,0,0,.42-.29,1.35,1.35,0,0,1,.47-.3A.42.42,0,0,0,209.5,111.11Z"/><path class="cls-4" d="M202.07,97.74a.86.86,0,0,1,.39-.4c.21-.12.41-.26.6-.39a1.76,1.76,0,0,1,.47-.24.76.76,0,0,0,.21-.11l.25-.2a4.13,4.13,0,0,1,.88-.44l1.23-.52a5.59,5.59,0,0,0,.94-.53,2.06,2.06,0,0,1,.24-.13l.4-.21a1.49,1.49,0,0,1,.33-.13,1.49,1.49,0,0,0,.46-.16,1.18,1.18,0,0,1,.48-.15,2.41,2.41,0,0,0,.64-.17,2.4,2.4,0,0,1,.71-.21c.18,0,.36,0,.55,0s.58.1.87.1h.08a4.09,4.09,0,0,1,.86,0,1.53,1.53,0,0,1,.52.1,2,2,0,0,0,.32.07.82.82,0,0,1,.51.24.37.37,0,0,0,.28.12l.23,0a.82.82,0,0,0,.47-.05.28.28,0,0,1,.25,0,2.77,2.77,0,0,1,.29.14,2.89,2.89,0,0,0,.63.29,4.52,4.52,0,0,1,.65.27c.2.1.39.21.59.3s.16.1.24.15a1.79,1.79,0,0,0,.32.16,2,2,0,0,1,.84.54,1.32,1.32,0,0,0,.52.33,2.91,2.91,0,0,1,.28.13,4.08,4.08,0,0,0,.41.19,1.25,1.25,0,0,1,.55.37,2.25,2.25,0,0,0,.67.52,5,5,0,0,1,1,.59l.4.32.22.15a4.55,4.55,0,0,1,1.12,1,1.92,1.92,0,0,0,.55.47,1.69,1.69,0,0,1,.57.5c.18.23.39.44.59.66l.08.09c.1.13.2.28.31.4a.91.91,0,0,0,.26.18,1.44,1.44,0,0,1,.34.23l.49.48c.15.16.3.33.47.47a5.14,5.14,0,0,1,.72.69.48.48,0,0,0,.13.11.93.93,0,0,1,.28.32,2.47,2.47,0,0,0,.28.36.65.65,0,0,0,.25.15.21.21,0,0,1,.16.17c0,.16.06.32.1.48a2.64,2.64,0,0,0,.28.69,3.55,3.55,0,0,1,.43,1.26c0,.16.08.31.12.46a1.8,1.8,0,0,1,.05.31,1.06,1.06,0,0,0,.07.36c0,.07,0,.15.08.23a1.1,1.1,0,0,0,.14.28.82.82,0,0,1,.19.47,3.14,3.14,0,0,0,.13.59,2,2,0,0,1,.07.38.45.45,0,0,0,.12.29.6.6,0,0,1,.16.32,3.09,3.09,0,0,0,.22.67,1.19,1.19,0,0,1,.12.66,1.8,1.8,0,0,0,.08.65c0,.14.07.29.1.43a.4.4,0,0,1-.14.42,1,1,0,0,1-.4.25.5.5,0,0,0-.18.11.81.81,0,0,1-.62.2.78.78,0,0,1-.39-.11,2.18,2.18,0,0,0-.34-.16.47.47,0,0,0-.16-.05.63.63,0,0,1-.44-.24,2.85,2.85,0,0,0-.3-.26.77.77,0,0,0-.4-.13,1.38,1.38,0,0,0-.41-.55.52.52,0,0,1-.17-.28,1.09,1.09,0,0,0-.13-.36,1.25,1.25,0,0,1-.15-.49.81.81,0,0,0,0-.2,2,2,0,0,1-.1-.79.68.68,0,0,0-.12-.39,1.29,1.29,0,0,1-.17-.45.58.58,0,0,0-.06-.19,1.16,1.16,0,0,1-.13-.59,1.36,1.36,0,0,0-.13-.56,3.3,3.3,0,0,1-.26-1,4,4,0,0,0-.15-.77,1.08,1.08,0,0,0-.23-.42,1.22,1.22,0,0,1-.25-.41c0-.09-.08-.18-.11-.27a1.2,1.2,0,0,0-.28-.45.73.73,0,0,1-.22-.51.89.89,0,0,0-.15-.44,4.78,4.78,0,0,0-.48-.63,1.49,1.49,0,0,1-.3-.52,1.54,1.54,0,0,0-.39-.55,2.81,2.81,0,0,1-.34-.41,2.22,2.22,0,0,0-.69-.68l-.19-.13a3.16,3.16,0,0,1-.8-.66,1,1,0,0,0-.24-.16c-.24-.14-.49-.26-.72-.4a3.57,3.57,0,0,0-.58-.28,2.47,2.47,0,0,1-.4-.18,4.77,4.77,0,0,0-.7-.34,3.09,3.09,0,0,1-.39-.2,1,1,0,0,0-.38-.12,1.26,1.26,0,0,1-.36-.08,1.77,1.77,0,0,0-.7-.16,1,1,0,0,1-.41-.1,2.34,2.34,0,0,0-.48-.15l-1.17-.22c-.13,0-.26,0-.39,0l-.55,0a1.51,1.51,0,0,1-.49-.09.56.56,0,0,0-.18,0l-.89,0-.48-.05h-.41a3.84,3.84,0,0,1-.58-.11,2.25,2.25,0,0,0-.86,0,2.67,2.67,0,0,1-.77,0l-1,0c-.14,0-.28,0-.43,0h-.23l-.25,0a2.2,2.2,0,0,1-.55.1.55.55,0,0,0-.18,0l-.63.2a.47.47,0,0,1-.16,0l-.84,0c-.34,0-.67,0-1,0s-.44,0-.65,0a1,1,0,0,1-.46-.13.6.6,0,0,0-.22-.06.73.73,0,0,1-.32-.13,1,1,0,0,0-.19-.11,1.36,1.36,0,0,0-.48-.11A.35.35,0,0,1,202.07,97.74Z"/><path class="cls-4" d="M197.35,100.55l.25-.13a4.23,4.23,0,0,0,.56-.34,5.92,5.92,0,0,1,.57-.35.34.34,0,0,1,.37,0c.1.06.21.12.3.19a1.42,1.42,0,0,0,.4.22l.26.11.38.12a.7.7,0,0,1,.3.15,1.1,1.1,0,0,0,.48.25c.12,0,.24.09.36.13l.4.1.45.1.1,0c.25,0,.51.06.76.07s.77,0,1.15.05a3.12,3.12,0,0,0,.53,0,5.13,5.13,0,0,1,.71,0h.51a.53.53,0,0,0,.21-.05,1.41,1.41,0,0,1,.54-.13l.22,0,.75-.24a.85.85,0,0,1,.37,0,.93.93,0,0,0,.4,0,1,1,0,0,1,.48,0,.62.62,0,0,0,.39-.07.9.9,0,0,1,.24-.07c.18,0,.37-.05.55-.1a1,1,0,0,1,.54,0,4.8,4.8,0,0,0,.93.12h.12a1.07,1.07,0,0,1,.55,0,4.38,4.38,0,0,0,.54.08,7.43,7.43,0,0,1,1.89.37l1.19.36c.16,0,.33.07.5.1a1.24,1.24,0,0,1,.67.31.4.4,0,0,0,.26.12,1.78,1.78,0,0,1,.9.31,2.19,2.19,0,0,0,.61.28.88.88,0,0,1,.28.14,3.07,3.07,0,0,0,.51.29l.41.23.27.15a1.31,1.31,0,0,1,.46.36l.14.15.41.47a2.11,2.11,0,0,0,.26.25.87.87,0,0,1,.2.22c.08.12.17.23.26.34s.32.38.46.59a3.19,3.19,0,0,0,.41.52,1.83,1.83,0,0,1,.41.66,3.6,3.6,0,0,0,.18.36,1,1,0,0,1,.13.4,1,1,0,0,0,0,.17l.08.34a.54.54,0,0,0,0,.14,1.28,1.28,0,0,1,.16.56c0,.23,0,.46.07.69a.73.73,0,0,0,0,.11l.26,1a1.06,1.06,0,0,1,0,.51l-.07-.06c-.2-.13-.4-.28-.62-.4a2.85,2.85,0,0,1-.52-.37A2.75,2.75,0,0,1,223,110a.78.78,0,0,0-.6-.31,1.67,1.67,0,0,1-.67-.2,5.06,5.06,0,0,0-1.23-.46,3.19,3.19,0,0,1-.45-.16l-.75-.31a.15.15,0,0,1-.1-.12,1.41,1.41,0,0,1,0-.19c0-.21,0-.43,0-.64a1.12,1.12,0,0,0-.08-.31c-.05-.14-.11-.28-.17-.42a.93.93,0,0,0-.12-.21,3.28,3.28,0,0,1-.37-.62,1.56,1.56,0,0,0-.55-.62c-.27-.18-.55-.35-.81-.54a1.71,1.71,0,0,1-.27-.27,1.62,1.62,0,0,0-.39-.37,1.83,1.83,0,0,1-.44-.38,1.11,1.11,0,0,0-.48-.32,4.1,4.1,0,0,1-.78-.35,1,1,0,0,0-.43-.13l-.68-.05a1,1,0,0,1-.26-.07,1.33,1.33,0,0,0-.45-.11,4.28,4.28,0,0,1-.92-.15,4.13,4.13,0,0,0-.84-.1l-1,0-.93,0h-.16c-.29.07-.59.08-.89.12a3.63,3.63,0,0,0-.89.17.44.44,0,0,1-.16,0,5.34,5.34,0,0,0-.73.09l-1,.16h-.23c-.3,0-.59,0-.89,0a3.15,3.15,0,0,1-.54-.07l-.63-.12-.32-.08-.75-.24-.25-.05a.79.79,0,0,1-.31-.1,3.6,3.6,0,0,0-.63-.27,2.53,2.53,0,0,1-.37-.16,1.31,1.31,0,0,0-.43-.16,1.38,1.38,0,0,1-.47-.18,2.11,2.11,0,0,0-.82-.28.66.66,0,0,1-.43-.2.71.71,0,0,0-.33-.2,1,1,0,0,1-.37-.21Z"/><path class="cls-4" d="M190,104.05a3.13,3.13,0,0,0,.36-.11,4.53,4.53,0,0,1,.68-.17l.35-.07.35-.07h.13a.59.59,0,0,0,.43-.14.37.37,0,0,1,.15-.08,1.93,1.93,0,0,0,.58-.27,2,2,0,0,1,.56-.24,2.22,2.22,0,0,0,.82-.44,1.73,1.73,0,0,1,.44-.24l.09.07a4.55,4.55,0,0,0,.42.28,1.61,1.61,0,0,0,.39.13.76.76,0,0,1,.35.18,1.75,1.75,0,0,0,.54.33l.64.27a1.23,1.23,0,0,1,.26.14,5,5,0,0,0,.93.53,2,2,0,0,1,.31.18,1.16,1.16,0,0,0,.39.17l.36.11.66.16a2.29,2.29,0,0,1,.62.15l.06,0a1.5,1.5,0,0,1,.66.3.81.81,0,0,0,.3.11l.6.11a3.33,3.33,0,0,0,1,0l.77-.08h.08a4.58,4.58,0,0,0,.94.09,5.73,5.73,0,0,0,.74-.07l.5-.06a3.22,3.22,0,0,0,.42-.09,3.92,3.92,0,0,1,.79-.11,4.12,4.12,0,0,0,1-.14,1.49,1.49,0,0,1,.49,0h1a4.51,4.51,0,0,0,.45,0,2.16,2.16,0,0,1,.62,0l.39,0a1.82,1.82,0,0,1,.42.09,3.27,3.27,0,0,0,.7.18,1.74,1.74,0,0,1,.65.23,4.78,4.78,0,0,0,.48.25,1.13,1.13,0,0,0,.23.08,1.1,1.1,0,0,1,.41.18.58.58,0,0,0,.23.09c.15,0,.29.09.43.13l.1,0,.11,0a1.26,1.26,0,0,1,.58.55,1.31,1.31,0,0,1,.15.41c0,.11,0,.15-.13.15l-.27,0a.25.25,0,0,0-.19,0,.1.1,0,0,1-.12,0,.31.31,0,0,0-.14,0c-.21,0-.43,0-.64,0a1.25,1.25,0,0,0-.83.29l-.21.19a.38.38,0,0,1-.14.07,1.33,1.33,0,0,0-.53.25,1.37,1.37,0,0,1-.34.2,1.4,1.4,0,0,0-.51.31.25.25,0,0,1-.25.06,2.64,2.64,0,0,0-.86,0l-.28,0-.51,0a2.41,2.41,0,0,1-.81-.13l-.39-.14-.55-.19-.21-.08c-.22-.08-.45-.16-.66-.25s-.65-.25-1-.4a9.63,9.63,0,0,1-1-.58,2.32,2.32,0,0,0-.78-.33c-.33-.07-.65-.18-1-.26l-.42-.09-.33,0a5.19,5.19,0,0,1-.59-.08,2.83,2.83,0,0,0-.92,0,1.33,1.33,0,0,1-.38,0,3.74,3.74,0,0,0-1.13,0,1,1,0,0,0-.41.16,1.66,1.66,0,0,1-1.07.3,8,8,0,0,0-.81,0,.21.21,0,0,1-.13-.07,1.45,1.45,0,0,0-.54-.34c-.2-.08-.39-.16-.58-.26a4.1,4.1,0,0,1-.37-.25,3,3,0,0,0-.52-.32l0,0a.71.71,0,0,0-.4-.12,2.49,2.49,0,0,1-.39-.12l-.44-.16-.15-.06-.39-.17-.33-.18a.58.58,0,0,0-.28-.08l-1.7-.13c-.23,0-.46-.07-.68-.11l-.46-.08-.41-.06Z"/><path class="cls-4" d="M209.5,111.11a.42.42,0,0,1-.24.21,1.35,1.35,0,0,0-.47.3,3.72,3.72,0,0,1-.42.29,2.18,2.18,0,0,1-.39.2,3.44,3.44,0,0,0-.74.37.77.77,0,0,1-.24.08l-.47.11a1.77,1.77,0,0,1-.61.06,4.73,4.73,0,0,1-.93-.19l-.45-.16a2.12,2.12,0,0,0-.36-.08,1,1,0,0,1-.53-.24c-.21-.18-.4-.37-.6-.55l0-.05a2.14,2.14,0,0,0-.65-.72,1.81,1.81,0,0,1-.28-.26,5,5,0,0,0-.52-.55,1.21,1.21,0,0,1-.18-.2,1.21,1.21,0,0,0-.38-.33.63.63,0,0,1-.27-.26,2.64,2.64,0,0,1,.33,0,1.54,1.54,0,0,0,.62-.07c.56-.17.35-.14.92,0a4.17,4.17,0,0,0,.91.1.49.49,0,0,1,.18,0l.83.33.21.09a1.89,1.89,0,0,0,.47.15,1.68,1.68,0,0,1,.65.29,2.06,2.06,0,0,0,.72.31c.3.07.6.16.9.26s.56.14.84.22a9.48,9.48,0,0,0,1,.25l.13,0Z"/></g></g></svg>