<?xml version="1.0" encoding="UTF-8" standalone="no"?>
<svg width="260px" height="260px" viewBox="0 0 260 260" version="1.1" xmlns="http://www.w3.org/2000/svg" xmlns:xlink="http://www.w3.org/1999/xlink">
    <!-- Generator: Sketch 40.1 (33804) - http://www.bohemiancoding.com/sketch -->
    <title>favicon</title>
    <desc>Created with Sketch.</desc>
    <defs></defs>
    <g id="Page-1" stroke="none" stroke-width="1" fill="none" fill-rule="evenodd">
        <g id="favicon" fill="#EF4123">
            <path d="M208.973072,251.604727 C203.921591,250.726023 199.011881,249.169286 194.376997,246.976703 C179.543587,236.296648 164.710178,225.497926 150.588772,213.868533 C132.432679,198.916456 122.701963,197.729784 104.308535,211.732522 C89.7124601,222.887246 75.9470561,235.465977 61.4696486,246.146032 C57.3484957,248.502998 52.968163,250.374594 48.4162483,251.723394 C47.8683311,247.508661 47.8683311,243.240729 48.4162483,239.025995 C52.2136011,227.752604 56.6042903,216.716548 60.2829758,205.561824 C63.9616613,194.4071 67.8776814,186.812394 70.4883615,177.200345 C74.2796814,166.349769 70.0399888,154.320874 60.2829758,148.24553 C47.3877986,139.622375 34.5321771,130.920108 21.7161114,122.138729 C13.5280694,116.561367 3.79735281,112.52668 0,99.8292817 C3.74158635,97.9477458 7.7401685,96.6282136 11.8667275,95.9132616 L66.9283432,95.9132616 C90.6617983,95.9132616 96.9511639,90.0985651 103.833866,67.195781 C109.055226,49.6330242 115.107257,32.3076021 120.921953,14.9821799 C121.915208,12.6832802 123.148263,10.4956022 124.600639,8.45547975 C131.246006,6.55680335 133.500685,10.9474925 135.043359,15.1008472 C139.671383,28.0355802 143.943405,41.0889804 148.452761,54.1423807 C150.826107,61.1041942 153.278564,68.0264519 155.810132,74.9091539 C159.70785,87.7532946 171.832014,96.3086525 185.239617,95.675927 C204.463715,95.675927 223.687814,94.4892543 242.911912,94.370587 C248.674326,94.8662842 254.388301,95.8186133 260,97.2186016 C256.677316,102.321294 255.490644,106.237315 252.879963,107.898656 C239.928517,118.048645 226.018179,126.911517 211.346417,134.361459 C193.469116,142.739463 184.280465,162.823947 189.630306,181.828369 C194.970333,199.391126 201.497033,216.59788 206.837061,234.04197 C208.08285,239.818886 208.79783,245.697609 208.973072,251.604727 L208.973072,251.604727 Z" id="Shape"></path>
        </g>
    </g>
</svg>