<?xml version="1.0" encoding="UTF-8"?>
<svg width="31px" height="30px" viewBox="0 0 31 30" version="1.1" xmlns="http://www.w3.org/2000/svg" xmlns:xlink="http://www.w3.org/1999/xlink">
    <!-- Generator: Sketch 40.3 (33839) - http://www.bohemiancoding.com/sketch -->
    <title>instagram-icon</title>
    <desc>Created with Sketch.</desc>
    <defs></defs>
    <g id="Page-1" stroke="none" stroke-width="1" fill="none" fill-rule="evenodd">
        <g id="social" transform="translate(-17.000000, -52.000000)" fill="#000000">
            <g id="instagram-icon" transform="translate(17.000000, 52.000000)">
                <path d="M26.5,12.7 L23.9,12.7 C24.1,13.4 24.2,14.2 24.2,15 C24.2,20.1 20.1,24.2 15,24.2 C9.9,24.2 5.8,20.1 5.8,15 C5.8,14.2 5.9,13.4 6.1,12.7 L3.5,12.7 L3.5,25.4 C3.5,26 4,26.6 4.7,26.6 L25.5,26.6 C26.1,26.6 26.7,26.1 26.7,25.4 L26.7,12.7 L26.5,12.7 Z M26.5,4.6 C26.5,4 26,3.4 25.3,3.4 L21.8,3.4 C21.2,3.4 20.6,3.9 20.6,4.6 L20.6,8.1 C20.6,8.7 21.1,9.3 21.8,9.3 L25.3,9.3 C25.9,9.3 26.5,8.8 26.5,8.1 L26.5,4.6 L26.5,4.6 Z M15,9.2 C11.8,9.2 9.2,11.8 9.2,15 C9.2,18.2 11.8,20.8 15,20.8 C18.2,20.8 20.8,18.2 20.8,15 C20.8,11.8 18.2,9.2 15,9.2 L15,9.2 Z M26.5,30 L3.5,30 C1.6,30 -3.55271368e-15,28.4 -3.55271368e-15,26.5 L-3.55271368e-15,3.5 C-3.55271368e-15,1.6 1.5,0 3.5,0 L26.6,0 C28.5,0 30.1,1.5 30.1,3.5 L30.1,26.6 C30,28.4 28.5,30 26.5,30 L26.5,30 Z" id="Shape"></path>
            </g>
        </g>
    </g>
</svg>