<svg xmlns="http://www.w3.org/2000/svg" viewBox="0 0 128.13 138.61"><defs><style>.cls-1{fill:#ef4123;}.cls-2{fill:#ffc20e;}</style></defs><title>logo-40</title><g id="Layer_2" data-name="Layer 2"><g id="Layer_1-2" data-name="Layer 1"><path class="cls-1" d="M127.84,126.89c-.72.87-1.22-.07-2.34,0s-1.1.39-2.22.51-1.13.08-2.25.2-1.13.08-2.25.2-1.14,0-2.26.08-1.13.09-2.25.2-1.1.31-2.23.42-1.13.05-2.25.17-1.12.14-2.25.25-1.15-.15-2.28,0-1.1.4-2.22.52-1.16-.19-2.28-.08-1.09.41-2.22.53l-2.25.22-2.25.21c-1.12.11-1.12.13-2.25.25s-1.12.19-2.24.3-1.16-.28-2.29-.16-1.08.52-2.21.64-1.14-.08-2.27,0-1.14,0-2.26.13-1.14,0-2.26.11-1.12.21-2.24.33-1.11.28-2.23.39l-2.25.23c-1.13.11-1.13.06-2.26.17s-1.11.24-2.24.35-1.14-.08-2.27,0-1.1.4-2.22.51-1.15-.19-2.28-.08-1.1.37-2.22.48-1.13,0-2.26.15-1.13.06-2.26.18-1.11.3-2.23.41-1.17-.35-2.3-.24-1.12.17-2.25.28-1.13.08-2.26.2-1.1.33-2.23.45l-2.25.21c-1.13.11-1.14,0-2.26.12L35.5,136c-1.13.11-1.09.46-2.22.57s-1.14-.06-2.27.06-1.12.15-2.25.26-1.11.25-2.24.36l-2.25.22c-1.13.11-1.14,0-2.27.08s-1.14,0-2.27.11-1.15-.09-2.28,0-1.1.45-2.23.56-1.27.71-2.16,0,0-1-.14-2.1-.13-1.11-.24-2.22-.2-1.1-.31-2.21-.38-1.08-.49-2.19,0-1.12-.07-2.23.15-1.13,0-2.24-.19-1.1-.3-2.21-.52-1.07-.63-2.18.28-1.15.16-2.26-.29-1.09-.4-2.2-.14-1.11-.25-2.22-.29-1.09-.41-2.2.34-1.15.23-2.26-.37-1.08-.48-2.19,0-1.12-.14-2.23.07-1.13,0-2.24-.36-1.08-.48-2.2,0-1.12-.16-2.23-.21-1.1-.32-2.21-.1-1.11-.21-2.22-.15-1.11-.27-2.21S8,90.72,7.93,89.61s.2-1.14.09-2.25-.3-1.09-.42-2.2-.17-1.1-.28-2.21-.18-1.1-.3-2.21.12-1.13,0-2.24-.28-1.09-.39-2.21.12-1.13,0-2.24l-.22-2.22c-.11-1.11-.22-1.1-.33-2.21s0-1.13-.08-2.24-.25-1.1-.36-2.21S5.23,64.08,5.12,63s.36-1.16.25-2.27S5.1,59.6,5,58.49s-.17-1.1-.29-2.21-.09-1.11-.2-2.22,0-1.12-.1-2.23-.27-1.1-.38-2.21S4.08,48.5,4,47.39s-.15-1.11-.26-2.22S3.3,44.09,3.18,43,3,41.87,2.92,40.76s.1-1.13,0-2.24-.06-1.12-.17-2.23-.18-1.11-.29-2.22,0-1.12-.1-2.24-.4-1.08-.51-2.2.18-1.14.07-2.25-.29-1.09-.4-2.2,0-1.12-.14-2.23S1,21.87.84,20.75s.37-1.16.26-2.27-.34-1.09-.45-2.2-.21-1.1-.33-2.22-.68-1.23,0-2.1,1-.16,2.08-.28l2.25-.23c1.12-.11,1.12-.18,2.24-.29S8,11,9.17,10.87s1.12-.15,2.25-.27,1.15.14,2.27,0,1.11-.28,2.23-.39,1.13-.07,2.25-.19,1.14,0,2.26-.08l2.25-.24c1.13-.11,1.09-.45,2.22-.57s1.16.21,2.28.09,1.09-.47,2.21-.59l2.25-.22c1.12-.11,1.13-.07,2.25-.18s1.14,0,2.26-.11,1.13-.08,2.25-.19,1.14,0,2.26-.12,1.09-.42,2.22-.53l2.25-.21C46.27,7,46.28,7,47.4,6.91s1.16.25,2.29.13,1.08-.57,2.2-.69,1.14.08,2.27,0,1.13-.07,2.26-.18l2.25-.21c1.13-.11,1.11-.28,2.23-.39l2.25-.21c1.13-.11,1.14.06,2.27-.06s1.14.06,2.27-.05L69.94,5c1.12-.11,1.09-.49,2.21-.61l2.25-.23c1.13-.11,1.15.08,2.27,0s1.14,0,2.26-.09,1.12-.21,2.24-.33,1.13-.06,2.26-.18l2.25-.23c1.13-.11,1.1-.36,2.23-.48s1.12-.2,2.24-.32,1.14,0,2.26-.12,1.15.12,2.28,0,1.12-.16,2.25-.27l2.25-.25c1.13-.11,1.1-.32,2.23-.43s1.12-.15,2.25-.27,1.17.32,2.3.2,1.11-.25,2.24-.37,1.1-.38,2.23-.49,1.16.22,2.29.1S114.07-.45,115,.26s0,1.09.13,2.2.06,1.11.17,2.22.23,1.1.34,2.21.11,1.11.22,2.22,0,1.12.15,2.22.12,1.11.24,2.22.09,1.11.2,2.22.43,1.08.54,2.19,0,1.12.12,2.23,0,1.13.07,2.24-.06,1.13,0,2.24.58,1.06.69,2.17,0,1.12.13,2.23.2,1.1.31,2.21-.14,1.13,0,2.24.19,1.1.3,2.21.24,1.1.35,2.21.07,1.12.18,2.23.16,1.11.27,2.22,0,1.12.12,2.23.2,1.1.31,2.21,0,1.12.08,2.23.07,1.11.18,2.23.33,1.09.44,2.2-.08,1.13,0,2.24.16,1.11.27,2.22.16,1.11.27,2.22.08,1.11.2,2.23,0,1.12.11,2.23,0,1.12.12,2.23.53,1.07.64,2.18,0,1.12.13,2.23-.05,1.13.06,2.24.33,1.09.44,2.2,0,1.12.1,2.23.23,1.1.35,2.21-.21,1.14-.1,2.25,0,1.12.13,2.23.14,1.11.26,2.22.27,1.09.38,2.21.36,1.09.47,2.19-.2,1.14-.09,2.25.08,1.11.19,2.23.43,1.08.54,2.19.17,1.11.29,2.22.06,1.12.17,2.23,0,1.13.06,2.24,0,1.12.13,2.23,0,1.13.07,2.24.08,1.11.2,2.23.61,1.06.72,2.17-.31,1.15-.2,2.27.06,1.12.18,2.23.48,1.08.59,2.19-.18,1.14-.07,2.26-.16,1.21.2,2.28S128.56,126,127.84,126.89Z"/><path class="cls-2" d="M98.66,113.77c-.11-.36-.11-.81-.58-.78s-.4.53-.49.84c-.83,0-1.65,0-2.45-.12A2,2,0,0,0,94,114a1,1,0,0,1-1.05.07,1.27,1.27,0,0,0-1.24.08,6,6,0,0,1-1,.33c-.12,0-.28,0-.39.05a3,3,0,0,1-2,0,3.57,3.57,0,0,0-2.23.16,2.26,2.26,0,0,1-1.15.14c-.69-.07-1.38-.06-2.07-.11-.35,0-.69-.12-1-.14a3.32,3.32,0,0,1-2.27-1,.66.66,0,0,0-.2-.16,4.71,4.71,0,0,1-2-2,6.58,6.58,0,0,1-1.15-1.73,3.06,3.06,0,0,1-.14-.5,4,4,0,0,0-.48-1.87,1.34,1.34,0,0,1-.1-.69,1.45,1.45,0,0,0-.51-1.28,1,1,0,0,1-.39-1.1,20.53,20.53,0,0,0,.27-2.13,8.61,8.61,0,0,0-.09-1.22,1.54,1.54,0,0,1,0-.63,2.1,2.1,0,0,0-.16-1.82A5.45,5.45,0,0,1,74,96.86a3.51,3.51,0,0,1,.11-2.44c-.1-.75-.18-1.51-.3-2.26-.07-.47-.2-.93-.32-1.39a1.81,1.81,0,0,0-.23-.73,2.73,2.73,0,0,1-.39-2.47c.05-.3.14-.59.22-.89A2.32,2.32,0,0,0,73,85.27a1.1,1.1,0,0,1,0-.82,1.83,1.83,0,0,0,0-1.33c-.19-.53-.27-1.09-.42-1.63s-.26-.87-.41-1.3-.39-1,.14-1.42a.62.62,0,0,0,.15-.48A6.62,6.62,0,0,0,72.09,76a5.24,5.24,0,0,1-.19-1,2.35,2.35,0,0,0-.31-.83,1.92,1.92,0,0,1-.36-1.48c.09-.62.22-1.24.28-1.87a4.36,4.36,0,0,0-.06-1.28,1.46,1.46,0,0,1,0-.88,1.78,1.78,0,0,0,0-1.27c-.19-.55-.28-1.13-.43-1.7a9.94,9.94,0,0,0-.34-1.12,1.12,1.12,0,0,1,0-1,1.93,1.93,0,0,0,.19-1.26,5.84,5.84,0,0,0-.45-2.16,1.19,1.19,0,0,1-.09-.51,2.25,2.25,0,0,0-.5-1.45A1.54,1.54,0,0,1,69.64,57c.07-.52.16-1,.24-1.55a3,3,0,0,0,.1-.64,7.79,7.79,0,0,1,0-2.56c.07-.28-.2-.65-.29-1a18.3,18.3,0,0,0-.8-2.95,1,1,0,0,1,.19-1,1.38,1.38,0,0,0,.2-1,4.81,4.81,0,0,0-.4-1.84,3.08,3.08,0,0,1-.12-.64,2.15,2.15,0,0,0-.29-.78,2.3,2.3,0,0,1-.41-1.86c.07-.6.16-1.21.28-1.8A3.27,3.27,0,0,0,68.28,38a1.56,1.56,0,0,1,0-.75,2.27,2.27,0,0,0,0-1.4c-.3-1-.55-2-.79-3.08a1,1,0,0,1,.15-.61,2.3,2.3,0,0,0,.24-1.39c-.09-.77-.06-1.55-.2-2.32a3,3,0,0,1,.4-1.89,3.78,3.78,0,0,0,.53-2,1.73,1.73,0,0,1,.78-1.37,7.74,7.74,0,0,1,2.59-1.48,1.21,1.21,0,0,1,.54.07c.12,0,.23.07.41.13,0-.66.46-.77,1-.86.83-.16,1.65-.38,2.47-.58a.54.54,0,0,0,.13,0,5.46,5.46,0,0,1,3-.26,5,5,0,0,0,2.76-.61,1,1,0,0,1,.79-.2,4.74,4.74,0,0,0,1.94-.05c.3,0,.61,0,.91-.07s.81-.09,1.22-.11a2.73,2.73,0,0,1,.84,0,3.18,3.18,0,0,0,1.79-.07.5.5,0,0,1,.12,0c1.38,0,2.72-.47,4.1-.51.19,0,.38.06.58.07.65,0,1.3.11,1.94.09a6.2,6.2,0,0,1,1.68.05,4.74,4.74,0,0,0,1,0,2,2,0,0,1,1.54.57,1.15,1.15,0,0,0,.8.35A1.61,1.61,0,0,1,103.13,21a22.13,22.13,0,0,0,1.54,3.37,3.29,3.29,0,0,1,.33,1.44,6.91,6.91,0,0,0,.63,3,.71.71,0,0,1,0,.74,2.25,2.25,0,0,0-.12,1.65c0,.41.09.81.13,1.22,0,.13,0,.26,0,.39.07.67.14,1.33.2,2a1.14,1.14,0,0,0,.42.85,1.21,1.21,0,0,1,.39,1.52,3.45,3.45,0,0,0,0,2.54,4.62,4.62,0,0,1,.18,2.12,4.34,4.34,0,0,0,.54,3c.08.13.12.28.2.41a.56.56,0,0,1-.14.76,1,1,0,0,0-.27,1.12,9.84,9.84,0,0,1,.08,1.16c.07.8.14,1.59.25,2.39a1.51,1.51,0,0,0,.34.75,1.42,1.42,0,0,1,.39,1.37,5.69,5.69,0,0,0,.14,3.2,3.76,3.76,0,0,1,.06,1.48,5.9,5.9,0,0,0,.29,2.37,4.91,4.91,0,0,0,.19.62.66.66,0,0,1,0,.68,2.08,2.08,0,0,0-.13,1.64c.06.36.08.73.1,1.09a3.25,3.25,0,0,0,0,.46c.16.72.18,1.46.27,2.19a1.34,1.34,0,0,0,.35.68,1.68,1.68,0,0,1,.37,2,2,2,0,0,0-.1,1.58,14.84,14.84,0,0,1,.39,1.51c0,.1.08.24,0,.32-.36.62,0,1.28-.11,1.92a2.22,2.22,0,0,0,.32,1.44,1.14,1.14,0,0,1,0,1.33c-.17.25-.07.71-.06,1.07s.08.9.13,1.35.12.86.18,1.29a1.79,1.79,0,0,1,.07.51,1.47,1.47,0,0,0,.41,1.22,2,2,0,0,1,.34,1.4,6.31,6.31,0,0,0,.12,3.06,4.27,4.27,0,0,1,.07,2,3.59,3.59,0,0,0,.28,2.1,1.62,1.62,0,0,1,0,1.67,1.63,1.63,0,0,0,0,1.34,1.2,1.2,0,0,1-.08,1.23.62.62,0,0,0,0,.59,1.64,1.64,0,0,1,.33,1.28,1.79,1.79,0,0,0,.48,1.44,1.19,1.19,0,0,1,.3,1.09,3.61,3.61,0,0,1-.12.64,3.17,3.17,0,0,0,0,2.21,5.17,5.17,0,0,1,0,1.79c0,.47-.17.94-.22,1.41a2.25,2.25,0,0,1-.51,1.31,1.16,1.16,0,0,0-.33.68,2,2,0,0,1-.82,1.56c-.8.74-1.63,1.44-2.46,2.15a1.11,1.11,0,0,1-1.08.32.51.51,0,0,0-.6.27c-.09.14-.21.32-.34.36a4.85,4.85,0,0,1-2.72.32,4,4,0,0,0-1.66.18c-.79.15-1.56.35-2.35.51C99.4,113.65,99,113.7,98.66,113.77ZM95.43,94.83c0-.31,0-.54.06-.77a3.22,3.22,0,0,0,0-1.35A8.18,8.18,0,0,1,95,90.28,6.78,6.78,0,0,0,94.78,88c-.11-.4-.17-.81-.27-1.2a4.76,4.76,0,0,1,0-2.7,2.06,2.06,0,0,0,.12-.76c-.09-1.06-.16-2.13-.33-3.18A7.81,7.81,0,0,1,94,77.6c0-.08,0-.16-.06-.25-.07-.47-.12-.94-.19-1.42s-.1-.64-.14-1a4,4,0,0,1-.05-.95,1,1,0,0,0-.27-.95.54.54,0,0,1-.22-.63A1.79,1.79,0,0,0,93,71.17a4.45,4.45,0,0,1,0-2.88,1.58,1.58,0,0,0,.1-.64c-.1-1.11-.21-2.21-.33-3.31,0-.19-.11-.38-.13-.57-.07-.54-.12-1.07-.17-1.61,0-.19,0-.39,0-.58a15.63,15.63,0,0,1-.44-2.69,7.72,7.72,0,0,0-.32-2.33c-.12-.41-.18-.85-.28-1.27a5,5,0,0,1,0-2.64,3.08,3.08,0,0,0,.12-1,18.32,18.32,0,0,1-.29-2.9.68.68,0,0,0,0-.26,5.36,5.36,0,0,1-.27-2.38,1.16,1.16,0,0,0,0-.32c-.08-.56-.17-1.12-.25-1.67,0-.21-.09-.43-.11-.64a3.52,3.52,0,0,1-.05-.89,1.33,1.33,0,0,0-.26-1.16.71.71,0,0,1-.16-.53,2.76,2.76,0,0,0-.19-1.34,4.81,4.81,0,0,1,0-2.76,2.1,2.1,0,0,0,.08-.9c-.1-.84-.26-1.67-.37-2.51A1.38,1.38,0,0,0,88.17,32c-.66-.12-1.33-.22-2-.27a.92.92,0,0,0-.7.22,3.05,3.05,0,0,0-.93,2.42c.18,1.07.36,2.14.53,3.21,0,.26,0,.52.07.78a4.85,4.85,0,0,0,.08.63,2.91,2.91,0,0,1,0,1.67,1.93,1.93,0,0,0,0,1.41,2.72,2.72,0,0,1,.17,1.4,5.22,5.22,0,0,0,.53,3,1.09,1.09,0,0,1,0,1.17,1.32,1.32,0,0,0-.09,1.19,4.5,4.5,0,0,1,.36,1.78,2,2,0,0,0,.08.45c.16.83.31,1.66.46,2.49,0,.17,0,.35,0,.52a4.73,4.73,0,0,0,.08.63,2.91,2.91,0,0,1,0,1.67,1.93,1.93,0,0,0,0,1.41,2.71,2.71,0,0,1,.17,1.4,5.28,5.28,0,0,0,.53,3l.05.12a1.23,1.23,0,0,1,0,1.18,1.26,1.26,0,0,0-.17.86,12.72,12.72,0,0,1,.49,2.42c.13.84.31,1.66.46,2.49,0,.17,0,.35,0,.52a4.8,4.8,0,0,0,.07.63,2.92,2.92,0,0,1,0,1.67,1.93,1.93,0,0,0,0,1.41,3.36,3.36,0,0,1,.18,1.4,5,5,0,0,0,.15,2.12c.13.3.22.62.37.91a1.21,1.21,0,0,1,0,1.18,1.4,1.4,0,0,0-.15.93,15.14,15.14,0,0,1,.5,2.48c.12.84.31,1.66.45,2.49,0,.17,0,.35,0,.52a4.78,4.78,0,0,0,.07.63,2.92,2.92,0,0,1,0,1.67,1.93,1.93,0,0,0,0,1.41,2.74,2.74,0,0,1,.17,1.4,5.24,5.24,0,0,0,.53,3,1.08,1.08,0,0,1,0,1.17,1.32,1.32,0,0,0-.09,1.19,24.65,24.65,0,0,1,.68,3.31,6.09,6.09,0,0,0,.83,2.18,1.15,1.15,0,0,0,1.74.38,2.15,2.15,0,0,1,.66-.24,1.14,1.14,0,0,0,1.09-1.09,3,3,0,0,1,.32-.91,1.88,1.88,0,0,0,.26-1.25c-.08-.58-.09-1.17-.2-1.75a1.2,1.2,0,0,1,.33-1.29c.28-.25.1-.57-.29-.62C95.84,94.84,95.69,94.84,95.43,94.83Zm-19,4.82c0-.31-.22-.43-.55-.39a.54.54,0,0,0-.5.63.51.51,0,0,0,.58.41A.53.53,0,0,0,76.4,99.64Zm12.1,10.53a.53.53,0,0,0,.43-.57c0-.24-.25-.36-.55-.32s-.45.2-.43.46A.5.5,0,0,0,88.5,110.17Zm1.39-11.91a.42.42,0,0,0-.43-.46.43.43,0,0,0-.43.46.57.57,0,0,0,.49.52A.46.46,0,0,0,89.89,98.25Zm12.86,10a2.36,2.36,0,0,0-.6-.35.38.38,0,0,0-.4.47.37.37,0,0,0,.46.34C102.38,108.69,102.51,108.49,102.75,108.27Zm-16.34-.53c0-.34-.23-.47-.48-.44a.31.31,0,0,0-.29.41c0,.25.21.41.45.33S86.34,107.82,86.41,107.74Zm-9,1.05c-.27-.18-.41-.34-.59-.37s-.35.13-.34.36.16.42.41.37S77.19,109,77.44,108.79ZM72.81,47.56a2.57,2.57,0,0,0,.32-.57c0-.19-.23-.41-.43-.37a.32.32,0,0,0-.27.43A2.33,2.33,0,0,0,72.81,47.56ZM77,83.26a2,2,0,0,0-.53-.31c-.07,0-.24.17-.25.28a.28.28,0,0,0,.36.33C76.68,83.54,76.78,83.42,77,83.26Zm26.54-32.5c-.22-.12-.33-.24-.45-.25s-.35.12-.3.32.21.27.29.26S103.32,50.92,103.54,50.76ZM105.75,69a2.55,2.55,0,0,0-.55-.33c-.05,0-.25.23-.23.28a.61.61,0,0,0,.33.3C105.38,69.24,105.52,69.1,105.75,69ZM73.23,51.22c-.12.2-.25.32-.24.42s.16.19.26.29c.09-.1.24-.19.25-.3S73.37,51.42,73.23,51.22ZM77.38,88c-.16-.14-.27-.29-.34-.27a.54.54,0,0,0-.29.26s.14.23.22.23S77.19,88.12,77.38,88Zm9,23.92c-.11.17-.22.28-.24.4s.19.23.24.21a.47.47,0,0,0,.25-.28C86.6,112.19,86.46,112.09,86.33,111.93ZM76,53.41c-.18-.12-.28-.24-.39-.24s-.2.16-.21.26.1.29.28.25S75.89,53.54,76,53.41Zm32.55,51.73c-.08.14-.19.27-.17.3a1.5,1.5,0,0,0,.31.25c0-.09.15-.19.13-.25S108.72,105.26,108.6,105.14ZM103.22,71.8c.1.1.19.21.3.31s.15-.09.15-.15C103.69,71.72,103.54,71.65,103.22,71.8Zm-20.31-42c-.13-.06-.21-.13-.29-.13s-.14.15-.12.17a.42.42,0,0,0,.22.16S82.82,29.95,82.91,29.85ZM97.55,83.59a1.06,1.06,0,0,0-.31-.14s-.13.13-.12.17.12.14.18.21ZM75.72,49.07c.05-.1.12-.17.1-.21a.28.28,0,0,0-.17-.13s-.13.1-.12.12S75.62,49,75.72,49.07Z"/><path class="cls-2" d="M64.37,78.56a1.24,1.24,0,0,0,.25,1.17,1.43,1.43,0,0,1,.2.68c.07.56.08,1.13.16,1.68,0,.29.24.57.26.86a17,17,0,0,1,.16,3.9,3.25,3.25,0,0,0,.18,1c.07.36.16.71.24,1.07s.09.65.18,1a1.36,1.36,0,0,1-1.17,1.79,11.88,11.88,0,0,1-1.37,0c-.28,0-.56,0-.84,0a8.54,8.54,0,0,1-1.29-.1,1.26,1.26,0,0,0-1.68.9,2.8,2.8,0,0,0-.18.76c0,.6-.08,1.21-.07,1.82a1.39,1.39,0,0,0,.18.68,5.33,5.33,0,0,1,.56,1.92.5.5,0,0,0,0,.13,2.51,2.51,0,0,1,.07,2.31.45.45,0,0,0,0,.38c.43.6.16,1.27.25,1.91.15,1.07.27,2.15.46,3.21.1.57.34,1.12.44,1.69a2.27,2.27,0,0,1-.11,1,5.08,5.08,0,0,0-.28,2.5,2.2,2.2,0,0,0,.21.75,5.54,5.54,0,0,1,.53,1.8,5.14,5.14,0,0,0,.26.87,1.18,1.18,0,0,1,0,1.07,1.41,1.41,0,0,0,0,1.2c.21.6,0,.91-.65.77a1.56,1.56,0,0,0-1.25.18.37.37,0,0,1-.11.06,6.54,6.54,0,0,1-2.49.36,6.34,6.34,0,0,0-3.39.24,6.56,6.56,0,0,1-1,.19c-.28-.22-.15-.7-.58-.62s-.21.42-.3.65l-.06.09a2.58,2.58,0,0,1-2,.12,2.29,2.29,0,0,0-1,0,3.27,3.27,0,0,1-.77,0,2.9,2.9,0,0,0-1.65.15c-.73.26-1.14,0-1.22-.76,0-.34-.07-.69-.11-1.08a3.29,3.29,0,0,1,.34-.11c.23,0,.41-.13.39-.42a.43.43,0,0,0-.39-.44l-.39,0c0-.09,0-.17,0-.21a1.68,1.68,0,0,0-.07-1.68L45,113.5a2.63,2.63,0,0,1-.3-2c.07-.25.12-.51.17-.76a1.31,1.31,0,0,0-.12-.95,1.76,1.76,0,0,1-.17-1.2,3.74,3.74,0,0,0,0-1.87s0-.08,0-.12a8.92,8.92,0,0,0-.3-2.58,1.24,1.24,0,0,1,.11-.81c.22-.42.21-.45-.19-.74a.48.48,0,0,1-.25-.54c0-.06.06-.13,0-.19a5.76,5.76,0,0,1,0-2.24,1.89,1.89,0,0,0-.28-1.12,4,4,0,0,1-.42-3.07,1.66,1.66,0,0,0-.57-1.58.77.77,0,0,0-.45-.24c-.69,0-1.38-.09-2.08-.08a1.48,1.48,0,0,0-1.09.52,1.07,1.07,0,0,1-.81.35,9.74,9.74,0,0,0-1,.07,2.14,2.14,0,0,1-1.45-.21,1.16,1.16,0,0,0-1.19.07c-.23.13-.44.28-.67.41a2.11,2.11,0,0,1-1.18.29c-.65,0-1.3,0-2,0a3.88,3.88,0,0,1-.9-.08,1.94,1.94,0,0,0-1.21.08,1.36,1.36,0,0,1-1,.06.52.52,0,0,0-.32,0c-.92.31-1.85-.05-2.77.07a3,3,0,0,0-1.4.48,3.15,3.15,0,0,1-1.73.5,1.08,1.08,0,0,1-1.06-1.15q.21-1.38.45-2.76c.06-.34.19-.67.25-1a7,7,0,0,0,.18-1.28,5.19,5.19,0,0,1,.34-2,1.59,1.59,0,0,0,0-1,1.26,1.26,0,0,1,0-.62c.23-.7.49-1.4.75-2.08a2.67,2.67,0,0,0,0-2.1,2.54,2.54,0,0,1,.11-1.66A14.75,14.75,0,0,0,22.93,78l.19-.17c.39-.36.41-.53,0-.81a.68.68,0,0,1-.29-.9c.08-.25.21-.48.3-.72s.26-.78.39-1.17a2.7,2.7,0,0,1,.2-.69,3.41,3.41,0,0,0,.18-2.47,2.2,2.2,0,0,1,.38-2c.4-.4.19-.91.1-1.37a3.75,3.75,0,0,1,.16-2.17c.16-.41.28-.82.44-1.23a3.32,3.32,0,0,0,.21-1.72A8.7,8.7,0,0,1,25,60.48a10.5,10.5,0,0,1,.36-3,5.48,5.48,0,0,0,.41-2.36,3.71,3.71,0,0,1,.11-.77,6.5,6.5,0,0,0,.16-1.09,5.29,5.29,0,0,1,.56-2.39,1.89,1.89,0,0,0,0-1.57,2,2,0,0,1,.23-2.19.78.78,0,0,0,.1-.48c0-.39-.06-.78-.06-1.17A3.21,3.21,0,0,1,27.14,44a2,2,0,0,0,.12-.89A1.67,1.67,0,0,1,28,41.41c.39-.22.2-.57.19-.93a3.2,3.2,0,0,0,.31-.27c.17-.18.22-.41,0-.56s-.2-.42-.15-.68c.08-.51.11-1,.16-1.55a4,4,0,0,1,.14-1.09A6.23,6.23,0,0,0,29,33.77c0-.35,0-.69.06-1s0-.95.09-1.42.09-.72.16-1.08.16-.67.22-1c.1-.57.2-1.15.29-1.73a2.42,2.42,0,0,0,.07-.77,2.12,2.12,0,0,1,.3-1.37c.26-.52.48-.68,1-.53a6.26,6.26,0,0,0,2.2,0,3.64,3.64,0,0,0,1.66-.52,1.06,1.06,0,0,1,.73-.13,5.2,5.2,0,0,0,1.81-.06,4,4,0,0,1,.71-.08,4.73,4.73,0,0,0,1.61-.12,1.57,1.57,0,0,1,.77,0,3.29,3.29,0,0,0,1.66,0,15.3,15.3,0,0,1,1.86-.23,2.46,2.46,0,0,0,.63-.15,4.9,4.9,0,0,1,2.43-.25,5.58,5.58,0,0,0,3.53-.58,1.12,1.12,0,0,1,1.69.84c.06.56.12,1.13.17,1.69a15,15,0,0,0,.66,3.12,1.77,1.77,0,0,1,0,.76c-.1.67-.25,1.32-.36,2a2.63,2.63,0,0,0,.24,1.72,6.61,6.61,0,0,1,.5,1.61,9.27,9.27,0,0,0,.27,1,1.35,1.35,0,0,1,0,1.19,1.27,1.27,0,0,0,0,1.25,1.49,1.49,0,0,1,.13.56c0,.45.05.91.06,1.36a14.91,14.91,0,0,0,.76,4.35,1.9,1.9,0,0,1-.06,1,6.53,6.53,0,0,0-.28,2.7,2.25,2.25,0,0,0,.2.75,5.63,5.63,0,0,1,.54,1.86,4.33,4.33,0,0,0,.27.87,1.14,1.14,0,0,1,0,1,1.39,1.39,0,0,0,0,1.37,1.19,1.19,0,0,1,.11.63,13.12,13.12,0,0,0,.35,3.61c.14.72.37,1.43.51,2.15a2.07,2.07,0,0,1-.1.83,6.33,6.33,0,0,0-.28,2.64,2.36,2.36,0,0,0,.22.81,5.62,5.62,0,0,1,.53,1.8,5.09,5.09,0,0,0,.26.87,1.19,1.19,0,0,1,0,1.07,1.37,1.37,0,0,0,0,1.37.86.86,0,0,1,.1.5,8.48,8.48,0,0,0,.08,2,17.36,17.36,0,0,0,.72,3.64,2.36,2.36,0,0,1,0,1c0,.34-.19.67-.23,1a.78.78,0,0,0,.58,1,5.06,5.06,0,0,0,3.25.21A15.62,15.62,0,0,1,64,78.48,1.24,1.24,0,0,1,64.37,78.56Zm-25-19.12c-.26.44-.46.85-.73,1.21A1.56,1.56,0,0,0,38.3,62a9.16,9.16,0,0,1,.11,1.55,1.25,1.25,0,0,1-.26,1,1.84,1.84,0,0,0-.43,1.27q.06,1.24.16,2.47a2,2,0,0,1-.38,1.54,1.18,1.18,0,0,0-.2,1.22,2.47,2.47,0,0,1-.05,1.85,1.71,1.71,0,0,0,0,1.45.93.93,0,0,1-.55,1.25c-.08,0-.19,0-.24.1s-.19.27-.16.38.19.2.32.24a1.67,1.67,0,0,0,.47,0,4,4,0,0,1-.23,1.61c-.18.73-.39,1.46-.55,2.19-.1.44.07.61.52.69a4.23,4.23,0,0,1,.66.23,5.11,5.11,0,0,0,.72.26,4.16,4.16,0,0,0,2.22-.38,1.92,1.92,0,0,0,1.17-2.67,1.91,1.91,0,0,1-.12-1.14,5.2,5.2,0,0,0,.05-1.16c0-.43-.13-.85-.19-1.28-.1-.79-.18-1.58-.3-2.36a1.07,1.07,0,0,1,.12-.86c.26-.37.18-.53-.18-.82-.11-.09-.28-.21-.28-.32a4.41,4.41,0,0,1,0-1.62,2.05,2.05,0,0,0-.18-1.83,3.5,3.5,0,0,1-.47-2.8c0-.08,0-.17,0-.26a2.21,2.21,0,0,0-.17-1.45,1.65,1.65,0,0,1-.07-.76c0-.21.11-.43.12-.64A1.45,1.45,0,0,0,39.38,59.44ZM30.74,78.92c-.14-.69-.59-.9-1.13-.53a.89.89,0,0,0-.36,1,.65.65,0,0,0,1.13.29A2.87,2.87,0,0,0,30.74,78.92ZM40.53,45a.52.52,0,0,0-.52.54.51.51,0,0,0,.57.49.51.51,0,1,0,0-1ZM53.82,64.55a.47.47,0,0,0-.4.56c0,.29.19.46.44.44a.53.53,0,0,0,.46-.6A.47.47,0,0,0,53.82,64.55Zm-9.07-3.22a.54.54,0,0,0-.51-.49.42.42,0,0,0-.4.47.51.51,0,0,0,.5.49A.43.43,0,0,0,44.75,61.33Zm.3-15.59c.36,0,.52-.18.48-.46a.38.38,0,0,0-.44-.37.59.59,0,0,0-.57.51C44.52,45.64,44.73,45.76,45.05,45.74Zm5.38,50.09a1.22,1.22,0,0,0,.24-.43c0-.27-.19-.42-.47-.39a.38.38,0,0,0-.37.44C49.84,95.71,50,95.88,50.43,95.83ZM28.64,86.25a1.3,1.3,0,0,0,.22-.46c0-.3-.21-.45-.52-.41a.32.32,0,0,0-.31.39A.53.53,0,0,0,28.64,86.25ZM36,87.43a.4.4,0,0,0-.46-.34.5.5,0,0,0-.34.56.34.34,0,0,0,.43.29A.41.41,0,0,0,36,87.43ZM27.33,77.07c0,.3.27.52.48.45a.41.41,0,0,0,.3-.51c0-.26-.17-.4-.43-.37A.35.35,0,0,0,27.33,77.07ZM31.78,26.3a.38.38,0,0,0,.35-.45.46.46,0,0,0-.54-.35.37.37,0,0,0-.32.42A.45.45,0,0,0,31.78,26.3ZM42.29,42.56a1.27,1.27,0,0,0-.24.38c0,.18.24.43.42.37a.56.56,0,0,0,.31-.34C42.83,42.74,42.62,42.55,42.29,42.56Zm-19.74,46c-.24-.14-.41-.31-.5-.28s-.25.24-.37.37c.14.11.27.3.42.3S22.33,88.8,22.55,88.6Zm24,11.39c-.22-.15-.36-.32-.52-.33s-.28.19-.31.32.23.46.41.39S46.35,100.17,46.53,100Zm12.74,14.92c-.07-.05-.2-.21-.34-.22s-.34.13-.34.37.12.36.36.34S59.3,115.28,59.28,114.92ZM48.6,77a1.88,1.88,0,0,0-.49-.33c-.06,0-.24.17-.27.29a.34.34,0,0,0,.39.39C48.34,77.26,48.43,77.12,48.6,77Zm6.06,34c-.23-.12-.38-.26-.53-.26s-.26.19-.22.38.18.38.4.32S54.49,111.14,54.65,110.93ZM23,81.36a.75.75,0,0,0-.15.28c0,.22.1.39.34.33a.42.42,0,0,0,.27-.28C23.51,81.48,23.38,81.33,23,81.36Zm10.64,9.32c.1-.29.2-.44.17-.57a.41.41,0,0,0-.3-.24.25.25,0,0,0-.27.35C33.32,90.35,33.48,90.45,33.68,90.68ZM24,70.28c.15.28.37.37.63.19a.39.39,0,0,0,0-.37C24.39,69.92,24.16,70,24,70.28Zm4.11-18.8c-.29-.13-.43-.24-.56-.23s-.18.19-.27.29c.1.09.21.24.31.24S27.85,51.65,28.12,51.48ZM60.64,82.69c-.16-.11-.32-.26-.34-.24a1,1,0,0,0-.29.37s.2.24.24.22A2.16,2.16,0,0,0,60.64,82.69ZM35.58,41c-.09.22-.19.36-.17.46s.18.19.28.28c.08-.11.22-.23.22-.34S35.74,41.21,35.58,41ZM22.12,92.94c-.07.22-.17.36-.13.45s.21.15.32.22c.06-.11.19-.24.17-.34S22.3,93.09,22.12,92.94ZM42.61,63.53c-.1.14-.22.23-.21.32s.16.22.22.21a.37.37,0,0,0,.23-.23C42.87,63.76,42.73,63.66,42.61,63.53Zm-.71-4.3c-.18-.05-.3-.12-.39-.1s-.12.15-.17.23c.09.06.2.19.28.18S41.77,59.38,41.9,59.23ZM37.4,85.11c.16.06.27.13.37.12s.1-.15.15-.23-.19-.14-.29-.15S37.51,85,37.4,85.11Zm.66-41.69c-.09.14-.22.25-.2.32s.15.17.23.25c.08-.09.21-.17.22-.26S38.18,43.56,38.06,43.42Zm8-14.35c-.1-.12-.15-.24-.22-.25s-.17.07-.25.11.1.21.18.26S45.92,29.14,46.06,29.08Z"/></g></g></svg>