<svg xmlns="http://www.w3.org/2000/svg" viewBox="0 0 128.41 138.71"><defs><style>.cls-1{fill:#ef4123;}.cls-2{fill:#ffc20e;}</style></defs><title>logo-50</title><g id="Layer_2" data-name="Layer 2"><g id="Layer_1-2" data-name="Layer 1"><path class="cls-1" d="M128,126.8c-.72.87-1.16.06-2.29.18s-1.11.21-2.24.32l-2.25.22c-1.13.11-1.12.16-2.25.27l-2.25.23c-1.12.11-1.16-.2-2.28-.09s-1.1.31-2.23.42-1.12.17-2.24.28-1.12.19-2.24.3-1.15-.12-2.27,0-1.11.28-2.23.4-1.15-.12-2.27,0l-2.25.23c-1.12.11-1.11.22-2.24.33s-1.14,0-2.26.08-1.11.25-2.24.36-1.09.43-2.22.55-1.17-.36-2.3-.25-1.11.27-2.23.39-1.12.18-2.24.29-1.13.09-2.25.21-1.14,0-2.27.1-1.11.27-2.23.38-1.14-.05-2.27.06-1.12.15-2.25.27-1.1.41-2.22.52-1.12.15-2.25.27-1.15-.1-2.27,0-1.13.06-2.26.17-1.12.18-2.24.29-1.14,0-2.26.1-1.1.4-2.22.51-1.16-.18-2.28-.07-1.11.29-2.23.41-1.13,0-2.26.14-1.1.41-2.22.52-1.18-.37-2.3-.25-1.1.34-2.23.45-1.12.22-2.24.33-1.16-.19-2.28-.08-1.11.24-2.24.36l-2.25.23c-1.13.11-1.12.18-2.25.29s-1.12.18-2.25.3-1.12.15-2.25.27-1.15-.14-2.28,0-1.11.28-2.24.39-1.13.07-2.26.19-1.14,0-2.27.09l-2.26.24c-1.13.11-1.45,1.25-2.34.53s.15-1.25,0-2.36-.47-1.07-.58-2.18-.11-1.11-.22-2.22-.07-1.11-.18-2.22,0-1.12-.11-2.23-.08-1.11-.19-2.22,0-1.12-.11-2.23-.42-1.08-.53-2.19-.09-1.11-.21-2.22-.08-1.11-.19-2.22.25-1.15.14-2.26-.57-1.06-.68-2.17.08-1.13,0-2.24-.07-1.11-.18-2.22-.1-1.11-.21-2.22-.27-1.09-.39-2.2-.1-1.11-.21-2.22.06-1.13-.05-2.24.06-1.13-.05-2.24S9,95.07,8.91,94s-.49-1.07-.6-2.18l-.23-2.22c-.11-1.11.08-1.13,0-2.24s0-1.12-.09-2.23-.21-1.1-.32-2.21-.06-1.12-.17-2.23-.11-1.11-.23-2.22-.36-1.09-.47-2.2-.2-1.1-.31-2.21,0-1.12-.12-2.23.13-1.13,0-2.25-.16-1.11-.27-2.22S6,66.22,5.84,65.11s-.32-1.09-.43-2.2-.15-1.11-.26-2.22.32-1.15.21-2.26S5.1,57.33,5,56.22,4.62,55.14,4.5,54s.22-1.14.11-2.26-.26-1.1-.37-2.21,0-1.12-.14-2.23S4,46.23,3.93,45.12,3.7,44,3.59,42.91s-.11-1.11-.22-2.22,0-1.12-.15-2.23S3.09,37.34,3,36.23s-.09-1.11-.2-2.23-.43-1.08-.54-2.19,0-1.12-.12-2.23,0-1.13-.07-2.24.06-1.13,0-2.24S1.42,24,1.3,22.93s0-1.12-.13-2.24S1,19.59.87,18.47s.14-1.14,0-2.25S.7,15.11.59,14s-1-1.47-.32-2.33,1.23-.13,2.36-.24,1.12-.16,2.24-.27S6,11.15,7.13,11s1.12-.2,2.24-.31,1.14,0,2.26-.08,1.13-.07,2.25-.19,1.1-.33,2.23-.44,1.14.08,2.27,0,1.12-.16,2.24-.27,1.12-.16,2.24-.28,1.13-.08,2.25-.2,1.14,0,2.26-.12,1.14,0,2.26-.12,1.08-.53,2.21-.64,1.13,0,2.26-.13,1.14.05,2.27-.06,1.1-.33,2.23-.44,1.14,0,2.26-.11,1.11-.24,2.24-.35,1.16.21,2.28.1,1.13,0,2.26-.13S48.77,7.07,49.9,7s1.11-.27,2.23-.38,1.1-.36,2.23-.47,1.16.2,2.28.08,1.13-.08,2.25-.2,1.09-.43,2.22-.54,1.12-.18,2.24-.29S64.49,5.1,65.61,5s1.14,0,2.26-.07,1.13,0,2.26-.13,1.14,0,2.26-.08,1.13-.08,2.25-.2,1.08-.61,2.2-.73,1.17.31,2.29.2,1.13-.07,2.26-.18,1.09-.48,2.22-.6,1.16.18,2.28.07S87,3.21,88.15,3.1s1.1-.36,2.23-.47,1.12-.21,2.24-.32l2.25-.23C96,2,96,2.19,97.15,2.07s1.14,0,2.27-.1,1.12-.16,2.25-.28,1.09-.45,2.22-.56,1.16.25,2.29.14,1.09-.52,2.22-.63,1.15.13,2.28,0,1.15.12,2.28,0,1.29-1.11,2.17-.4.1,1,.21,2.15,0,1.12.08,2.23.09,1.11.21,2.22.25,1.09.37,2.2.28,1.09.39,2.2.28,1.09.39,2.2.07,1.11.18,2.22.15,1.11.26,2.21-.34,1.16-.23,2.27.47,1.07.58,2.19.12,1.11.23,2.22-.17,1.14-.06,2.25,0,1.12.13,2.23.21,1.1.32,2.21,0,1.12.12,2.23.57,1.06.68,2.17-.26,1.15-.15,2.26.35,1.09.46,2.2.17,1.1.28,2.21.21,1.1.32,2.21,0,1.12.16,2.23-.16,1.14,0,2.25.42,1.08.53,2.19,0,1.13.06,2.24-.11,1.13,0,2.24.19,1.1.3,2.21.2,1.1.31,2.21.18,1.1.29,2.22-.18,1.14-.07,2.25.39,1.08.5,2.19.18,1.1.29,2.21.2,1.1.31,2.21,0,1.12.1,2.23-.12,1.13,0,2.24.21,1.1.32,2.21,0,1.12.14,2.23.38,1.08.49,2.19-.14,1.13,0,2.24,0,1.12.14,2.23.42,1.08.53,2.19.13,1.11.24,2.22-.14,1.14,0,2.25.24,1.1.35,2.21.22,1.1.34,2.21,0,1.13.08,2.24.22,1.1.33,2.21-.14,1.14,0,2.25.49,1.07.6,2.19.12,1.11.23,2.22.07,1.12.18,2.23.09,1.11.21,2.22.23,1.1.34,2.21.06,1.12.17,2.23-.34,1.16-.22,2.27.43,1.08.54,2.19a6.63,6.63,0,0,0,.38,2.17C128.34,125.62,128.72,125.94,128,126.8Z"/><path class="cls-2" d="M72.16,108.34c-.11-.44-.24-.88-.32-1.32a7.42,7.42,0,0,1-.29-2.93,1.64,1.64,0,0,0-.57-1.81.83.83,0,0,1-.24-.57A11.57,11.57,0,0,1,70.57,99a2.43,2.43,0,0,0-.19-.95.69.69,0,0,1,.24-.75.67.67,0,0,0,.18-1c-.15-.34-.33-.66-.46-1a1.88,1.88,0,0,1-.15-.76A21,21,0,0,0,70,90.12a5.92,5.92,0,0,1,0-1.43,2.18,2.18,0,0,0-.64-2.14,1.15,1.15,0,0,1-.27-.69c-.06-.47-.07-.95-.1-1.43A2,2,0,0,1,69,84a4.08,4.08,0,0,0-.29-1.91.58.58,0,0,1,.29-.82c.32-.15.33-.43.26-.73a2.66,2.66,0,0,0-.2-.55,6.06,6.06,0,0,1-.45-2.61c0-.72-.05-1.43-.13-2.14a8.72,8.72,0,0,1-.05-2.47,2,2,0,0,0-.61-2,1,1,0,0,1-.26-.57c-.11-.6-.21-1.19-.27-1.8s-.11-1.43-.12-2.14a.69.69,0,0,1,.27-.48.69.69,0,0,0,.24-.87,1.6,1.6,0,0,0-.16-.43,4.22,4.22,0,0,1-.5-2.76,6.05,6.05,0,0,0-.28-2.51,4,4,0,0,1,0-1.74,9.53,9.53,0,0,0,.07-1.17,1.46,1.46,0,0,0-.57-1.19.76.76,0,0,1-.27-.48c-.07-.91-.09-1.82-.18-2.72a8.61,8.61,0,0,0-.31-1.39.57.57,0,0,1,.22-.68c.44-.35.47-.45.25-1a5.58,5.58,0,0,1-.53-2.47,14,14,0,0,0-.2-3,6.75,6.75,0,0,1,0-2.08,2,2,0,0,0-.63-2.08.89.89,0,0,1-.22-.58c-.06-.82-.07-1.65-.14-2.47A8.44,8.44,0,0,0,64,35.06a.57.57,0,0,1,.26-.67.65.65,0,0,0,.29-.94,8.91,8.91,0,0,0-.48-1.07,2.14,2.14,0,0,1-.22-1.45c.19-1,.35-2.06.52-3.09a2.07,2.07,0,0,0,0-.58.86.86,0,0,1,.19-.66,1.15,1.15,0,0,0,.26-.64,2.88,2.88,0,0,1,.84-1.78,1.92,1.92,0,0,0,.4-.72,1.32,1.32,0,0,1,1-1,4,4,0,0,0,.78-.42,3.62,3.62,0,0,1,1.21-.41,13.21,13.21,0,0,0,3-.86A3.2,3.2,0,0,1,73,20.6l1.42-.15,1.35-.15a3.71,3.71,0,0,0,.84-.06,2.54,2.54,0,0,1,1.48,0,2.1,2.1,0,0,0,1.15,0,5.43,5.43,0,0,1,2.05-.27,1.47,1.47,0,0,0,.63-.14,5.2,5.2,0,0,1,2.5-.22A5.67,5.67,0,0,0,87.78,19a1.11,1.11,0,0,1,.94-.12,2.54,2.54,0,0,0,1.6,0,2.42,2.42,0,0,1,.77-.05,2.86,2.86,0,0,1,.51.1,14.87,14.87,0,0,1,2.42.31,1.2,1.2,0,0,0,.64-.07,3.24,3.24,0,0,1,3.55,1.15,2.05,2.05,0,0,0,1.3.91.87.87,0,0,1,.67.65c.16.42.35.84.53,1.25a1,1,0,0,1,.14.36c0,1.1.63,2,.85,3.05a8.54,8.54,0,0,1,.25,1.34,3.45,3.45,0,0,0,.37,1.57,1.59,1.59,0,0,1,.06,1.56,1.84,1.84,0,0,0,0,1.46,7,7,0,0,1,.25,2.44,2.44,2.44,0,0,0,.17.87,2,2,0,0,1,.25,1.18.53.53,0,0,0,0,.26,9.21,9.21,0,0,1,.1,3,7.45,7.45,0,0,0,.29,1.85,5.46,5.46,0,0,1,.31,1.91,3.23,3.23,0,0,0,.14,1,3.13,3.13,0,0,1,0,1.86,1.8,1.8,0,0,0,0,1.09,7.42,7.42,0,0,1,.28,2.82,1.82,1.82,0,0,0,.2.74,1.86,1.86,0,0,1,.24,1.12.65.65,0,0,0,0,.32,6.56,6.56,0,0,1,.09,2.78,5,5,0,0,0,.27,2.05.86.86,0,0,1,0,.12c.2,1.33.42,2.66.6,4a1.39,1.39,0,0,1-.12.57,2.23,2.23,0,0,0,0,1.47,6.63,6.63,0,0,1,.24,2.44,2.08,2.08,0,0,0,.15.81,2.12,2.12,0,0,1,.27,1.24.53.53,0,0,0,0,.26,6.56,6.56,0,0,1,.1,2.78,5,5,0,0,0,.29,2.11,2,2,0,0,1,.1.31c.18,1.22.37,2.45.53,3.67a1.49,1.49,0,0,1-.12.63,2,2,0,0,0,0,1.35,6.58,6.58,0,0,1,.27,2.69,1.76,1.76,0,0,0,.19.74,1.93,1.93,0,0,1,.25,1.18.53.53,0,0,0,0,.26,9.08,9.08,0,0,1,.1,3,10.33,10.33,0,0,0,.26,1.79c0,.13.1.24.12.37.18,1.22.37,2.45.53,3.67a1.53,1.53,0,0,1-.11.63,2.29,2.29,0,0,0,0,1.53,6.7,6.7,0,0,1,.23,2.38,3.62,3.62,0,0,0,.13.82c.06.27.18.53.23.81a10.38,10.38,0,0,1,.23,1.54,5.41,5.41,0,0,1-.14,1.42,5.88,5.88,0,0,0,.12,2.78,2.43,2.43,0,0,1-.45,2.14,7.14,7.14,0,0,1-.5.61,1.59,1.59,0,0,0-.41,1.44c.1.58,0,.64-.52.86a3.26,3.26,0,0,0-1.7,1.35,1.55,1.55,0,0,1-1.61.85,6.93,6.93,0,0,0-1.65.3c-.55.1-1.11.17-1.67.25a7.42,7.42,0,0,0-.84.11,6.2,6.2,0,0,1-2.12.25,2.71,2.71,0,0,0-.92.26c-.31.1-.61.21-.92.29a7.27,7.27,0,0,1-.83.17,3.3,3.3,0,0,1-.77.06,4.48,4.48,0,0,0-1.61,0,11.07,11.07,0,0,1-1.42.09c-.82.1-1.63.25-2.45.37a1.08,1.08,0,0,0-.31.09,1.7,1.7,0,0,1-1.69,0l-.06,0c-.95,0-1.9,0-2.84.07a5.39,5.39,0,0,1-1.62,0,2.71,2.71,0,0,0-1.46.14,11.55,11.55,0,0,1-1.91.35.47.47,0,0,1-.59-.38c0-.42-.31-.5-.63-.51a7.49,7.49,0,0,1-2.52-.62,2.77,2.77,0,0,1-1.92-2,1.33,1.33,0,0,0-.44-.7,3.39,3.39,0,0,1-1-2.38,2,2,0,0,1,0-.33Zm17.53-6.28c.31-.05.61-.08.9-.16s.56-.24.85-.31a1.23,1.23,0,0,0,1.11-1.37,4.54,4.54,0,0,1,0-.84,2.45,2.45,0,0,0-.17-1.4,1.44,1.44,0,0,1-.07-.81,1.63,1.63,0,0,0-.26-1.48,1.23,1.23,0,0,1-.13-1.1,7.79,7.79,0,0,0,.14-2.91c-.06-.32-.38-.59-.43-.91s.16-.7.08-1a5,5,0,0,1-.08-2,1.27,1.27,0,0,0-.09-.58,6.74,6.74,0,0,1-.41-2.23c0-.21-.07-.43-.09-.65a2.53,2.53,0,0,1,0-.71,1.94,1.94,0,0,0-.18-1.2,1.46,1.46,0,0,1-.15-.87,1.93,1.93,0,0,0-.32-1.73,1,1,0,0,1-.14-.6c.08-.77.23-1.54.28-2.32a1.78,1.78,0,0,0-.4-1.59c-.09-.08-.07-.32-.06-.48.1-1.12-.18-2.23-.1-3.35,0,0,0-.08,0-.12a6.18,6.18,0,0,1-.37-2,6.5,6.5,0,0,0-.09-.71,3,3,0,0,1,0-.78,1.61,1.61,0,0,0-.19-1.13,1.1,1.1,0,0,1-.16-.94,1.72,1.72,0,0,0-.29-1.66.85.85,0,0,1-.17-.67A23.31,23.31,0,0,0,89,61a1.6,1.6,0,0,0-.43-1.51.52.52,0,0,1-.07-.41,14.32,14.32,0,0,0-.1-3.4c0-.75-.39-1.5-.39-2.3,0-.19-.07-.39-.08-.58a3.12,3.12,0,0,1,0-.78,1.61,1.61,0,0,0-.19-1.13,1.1,1.1,0,0,1-.16-.94,1.72,1.72,0,0,0-.29-1.66.85.85,0,0,1-.17-.67c.13-.79.25-1.58.3-2.38A1.71,1.71,0,0,0,87,43.82c-.1-.1-.08-.35-.07-.53.05-1.14-.13-2.27-.15-3.4a.8.8,0,0,0-.06-.25,5,5,0,0,1-.31-1.79,7.21,7.21,0,0,0-.1-.78,1.89,1.89,0,0,1,0-.65,1.72,1.72,0,0,0-.23-1.32,1.4,1.4,0,0,1-.18-.93A1.21,1.21,0,0,0,85.45,33a3.73,3.73,0,0,1-.53-.66,1.44,1.44,0,0,0-1.82-.6c-.27.09-.52.22-.79.3a1.23,1.23,0,0,0-1,1.29,18.14,18.14,0,0,0,.09,1.95,4.71,4.71,0,0,1,0,2,1.74,1.74,0,0,0,.17,1.51,1.94,1.94,0,0,1,.17,1.57,3.1,3.1,0,0,0-.1.64c0,.72,0,1.43,0,2.15a6.27,6.27,0,0,0,.57,3.23,2.27,2.27,0,0,1,.14.57c.11.51.23,1,.33,1.53a7.77,7.77,0,0,1,.17,1.09A8.39,8.39,0,0,0,83,51.18,3.24,3.24,0,0,1,83,53a1.8,1.8,0,0,0,.16,1.58,1.94,1.94,0,0,1,.16,1.57,3.51,3.51,0,0,0-.09.7q0,1.07,0,2.14a6.16,6.16,0,0,0,.62,3.41,1.16,1.16,0,0,1,.1.38c.09.42.19.85.27,1.27s.16,1,.24,1.54.09.85.16,1.28a4.19,4.19,0,0,1,0,1.94,1.82,1.82,0,0,0,.19,1.57,1.52,1.52,0,0,1,.18,1.25,3.62,3.62,0,0,0-.09,1.55,2,2,0,0,1,0,.39,8.39,8.39,0,0,0,.58,4.52,1.71,1.71,0,0,1,.11.44c.1.47.21.93.3,1.4s.16.85.2,1.28a9.06,9.06,0,0,0,.15,1.41,3.33,3.33,0,0,1,0,1.87,1.87,1.87,0,0,0,.19,1.63,1.47,1.47,0,0,1,.18,1.25A11.6,11.6,0,0,0,86.41,90c-.05.77.1,1.56.11,2.34a2.61,2.61,0,0,0,.4,1.36,2.11,2.11,0,0,1,.21.61q.15.63.27,1.27c.09.47.17.94.22,1.41a5.54,5.54,0,0,0,0,.84,7.47,7.47,0,0,1,.23,2.71,1.3,1.3,0,0,0,.94,1.4l.5.19c-.08.32-.37.65,0,.9a.5.5,0,0,0,.47,0C90.17,102.72,89.74,102.41,89.69,102.06ZM76.19,32.87c-.09-.21-.13-.33-.19-.44-.2-.38-.45-.51-.7-.38a.66.66,0,0,0-.23.85c0,.12.1.27.2.32s.43.21.57.14S76.09,33,76.19,32.87Zm24,41.1a.43.43,0,0,0,.49.38.57.57,0,0,0,.44-.56.47.47,0,0,0-.49-.41A.51.51,0,0,0,100.15,74Zm2-32.41c0-.26-.17-.34-.53-.3s-.53.24-.48.48a.52.52,0,0,0,.56.34A.47.47,0,0,0,102.17,41.56Zm2.13,43.87c0-.37-.18-.58-.43-.57a.41.41,0,0,0-.42.4c0,.23.22.5.44.45A1.4,1.4,0,0,0,104.3,85.43ZM89.45,52.18c0-.34-.2-.47-.43-.44a.4.4,0,0,0-.34.47.44.44,0,0,0,.49.41A.35.35,0,0,0,89.45,52.18ZM92.9,67.64a1.19,1.19,0,0,0-.25.37c-.05.2.23.44.46.43s.34-.17.36-.38S93.24,67.63,92.9,67.64Zm-11.18-.85a.33.33,0,0,0-.44-.28.5.5,0,0,0-.32.32c0,.25.17.39.42.39S81.74,67.1,81.72,66.79Zm.71,9.53a1.33,1.33,0,0,0,.19-.43c0-.23-.2-.36-.45-.33a.31.31,0,0,0-.3.41C81.91,76.23,82.07,76.34,82.42,76.33ZM72.53,21.5a2.33,2.33,0,0,0-.61-.22c-.06,0-.18.2-.19.32a.25.25,0,0,0,.33.28C72.2,21.84,72.3,21.69,72.53,21.5ZM98.87,81c-.18-.12-.31-.26-.42-.25s-.19.19-.29.29c.12.1.24.24.37.27S98.73,81.1,98.87,81ZM67.43,43c-.18-.08-.32-.19-.39-.16s-.15.2-.23.31c.1.06.22.19.28.17S67.29,43.11,67.43,43ZM90.72,19.88c-.22-.08-.35-.17-.45-.14s-.19.18-.28.27c.09.07.18.2.27.2S90.44,20.08,90.72,19.88Zm-17.33,86.6c.14.09.24.21.32.19s.16-.15.24-.23a1.07,1.07,0,0,0-.3-.24S73.51,106.35,73.39,106.48ZM95.24,91.06c.07-.16.15-.26.13-.33s-.15-.1-.23-.15-.12.14-.11.2S95.13,90.92,95.24,91.06ZM72.84,72.24c-.24-.15-.33-.24-.36-.22a.82.82,0,0,0-.19.21c.07.06.14.17.21.17S72.69,72.31,72.84,72.24Zm6.32-28.11c-.08-.1-.12-.19-.18-.21a.2.2,0,0,0-.17.1.21.21,0,0,0,.09.18S79,44.16,79.16,44.13Z"/><path class="cls-2" d="M28.27,116c-.61-.18-.77-.33-.69-.83a1.15,1.15,0,0,0-.35-1.07,1.88,1.88,0,0,1-.54-1.61,1.61,1.61,0,0,0-.06-.44c-.05-.3-.11-.6-.17-.9a15,15,0,0,0-.31-1.65,3.38,3.38,0,0,1-.07-1.48,2.74,2.74,0,0,0-.19-1.53,3.5,3.5,0,0,1-.21-1.45,5.82,5.82,0,0,0-.27-2.36,7.14,7.14,0,0,1-.39-2.44,1.79,1.79,0,0,1,.2-.68,1.4,1.4,0,0,0,0-1c-.26-.78-.48-1.57-.68-2.37a1.57,1.57,0,0,1,.06-.77,2.25,2.25,0,0,0,0-1.52c-.31-.8-.1-1.13.74-1.26l2.43-.34a2.47,2.47,0,0,0,.51-.1,2,2,0,0,1,1.76,0,.91.91,0,0,0,.73-.09,1.56,1.56,0,0,1,1.43,0,5.16,5.16,0,0,0,1.27.27A1.6,1.6,0,0,0,34.76,92a.88.88,0,0,1,1-.16,1.27,1.27,0,0,0,.87,0A3.56,3.56,0,0,1,38,91.59a11.35,11.35,0,0,0,1.93-.25c.53-.1.86,0,.87.47A24.34,24.34,0,0,1,41,95a2.37,2.37,0,0,0,.13,1.34,2.79,2.79,0,0,0,.29.51.86.86,0,0,1,.13,1,1.05,1.05,0,0,0,.1,1.22.71.71,0,0,1,.11.79,1.41,1.41,0,0,0-.11.57c0,1,.09,2.08.19,3.12a3.6,3.6,0,0,0,.34,1c.12.28.31.53.45.79a1.75,1.75,0,0,0,2.12,1,11.87,11.87,0,0,0,1.53-.56,1.08,1.08,0,0,0,.66-1.1c0-.63,0-1.26,0-1.88a2.74,2.74,0,0,0-.25-.87.93.93,0,0,1,0-.82,3.62,3.62,0,0,0,0-2.85,5.31,5.31,0,0,1-.37-2.49,1.2,1.2,0,0,0,0-.39C46,94,46.27,92.58,46,91.24c-.06-.32-.21-.62-.27-.94s-.09-.85-.12-1.28c0-.13.08-.28,0-.38-.41-.83-.12-1.82-.58-2.63a.7.7,0,0,1,0-.68,3.59,3.59,0,0,0,0-2.85,6.32,6.32,0,0,1-.4-2.62,7.74,7.74,0,0,0-.14-1.36,2.08,2.08,0,0,1-.05-.44,8.59,8.59,0,0,0-.5-3.91,1,1,0,0,0-.83-.72c-.54-.08-1.06-.22-1.6-.33a1.27,1.27,0,0,0-.45-.06,9.64,9.64,0,0,1-2.4-.12,2.17,2.17,0,0,0-.52,0c-1,.16-1.93.32-2.88.52a4.9,4.9,0,0,0-1,.46l-.2-.2c-.33-.36-.46-.37-.74,0a.57.57,0,0,1-.6.25c-.78,0-1.56-.06-2.34,0a2.54,2.54,0,0,0-1.55.59,1.78,1.78,0,0,1-1.83.33,5.63,5.63,0,0,0-2.18-.26,11.19,11.19,0,0,1-1.88-.14.68.68,0,0,1-.57-.7c0-.48,0-1-.07-1.43a13.47,13.47,0,0,0-.3-1.66,5.28,5.28,0,0,1,0-2.44A2.72,2.72,0,0,0,22,66.82a6.74,6.74,0,0,1-.42-3.51,1.16,1.16,0,0,0-.07-.63,4,4,0,0,1-.18-2.17,1.58,1.58,0,0,0-.2-1,2,2,0,0,1-.21-.79c0-.78,0-1.56,0-2.34a2.53,2.53,0,0,0-.21-.81,5.29,5.29,0,0,1-.2-3.13,2,2,0,0,0,0-1.21A6.64,6.64,0,0,1,20,47.89a3.14,3.14,0,0,0-.14-1.21,3.48,3.48,0,0,1-.13-2.11.91.91,0,0,0,0-.64,5.5,5.5,0,0,1-.38-2.49,6.57,6.57,0,0,0-.33-2.1,5.17,5.17,0,0,1-.16-1.21c-.06-.52-.09-1-.19-1.56,0-.2-.09-.36.08-.53s.15-.52.08-.8a12,12,0,0,1-.34-1.39,8.67,8.67,0,0,1-.05-1.55,2.92,2.92,0,0,0-.15-1.41,3.07,3.07,0,0,1-.12-1.73A2.91,2.91,0,0,0,18,27.72a3.76,3.76,0,0,1-.21-.88.55.55,0,0,1,.44-.63c.48-.12,1-.24,1.46-.32a6.82,6.82,0,0,1,1.75,0,5.45,5.45,0,0,0,3.41-.56,1.26,1.26,0,0,1,.8-.16,10.52,10.52,0,0,0,1.23,0c.67,0,1.34-.07,2-.11A1.6,1.6,0,0,0,29.3,25a2,2,0,0,1,1.41,0,3.08,3.08,0,0,0,1.6-.13c.55-.08,1.11-.12,1.67-.19a2.49,2.49,0,0,0,.63-.13,5.24,5.24,0,0,1,2.56-.25,5.34,5.34,0,0,0,3.41-.57.89.89,0,0,1,.74-.15,4.75,4.75,0,0,0,1.81,0c.41,0,.82,0,1.23-.07a1.86,1.86,0,0,0,.52,0,2.92,2.92,0,0,1,1.86,0c.48.14.89-.13,1.34-.18l1.61-.19a2.82,2.82,0,0,0,.69-.13,4.35,4.35,0,0,1,2.56-.22,2.54,2.54,0,0,0,1.54,0,1.44,1.44,0,0,1,.45-.05.89.89,0,0,1,.92,1.32,1.4,1.4,0,0,0-.09,1.19,1.4,1.4,0,0,1,0,.51,6.11,6.11,0,0,0,.53,3.11,2.27,2.27,0,0,1,.13.43c.11.37.21.75.35,1.1s.15.49-.06.66c-.73.59-.51,1.32-.3,2,.1.33.26.65.37,1s.05.68-.39.8a3,3,0,0,1-1,.09,3.41,3.41,0,0,0-1.91.29,1,1,0,0,1-.82.08,2.2,2.2,0,0,0-1.41.07,4.1,4.1,0,0,1-2,.25,1.45,1.45,0,0,0-.46,0l-2.3.42q-1,.18-2.06.32c-.12,0-.31,0-.37-.06-.33-.39-.67-.22-1.07-.12a7.13,7.13,0,0,1-1.29.1h-.06c-1.22.14-2.45.29-3.67.41a4.26,4.26,0,0,1-1,0,1.45,1.45,0,0,0-1.25.4,1.19,1.19,0,0,0-.39.94c0,.8.06,1.61.1,2.41a7.27,7.27,0,0,0,.38,2,2.66,2.66,0,0,1,.09,1,3,3,0,0,0,.1,1.41,1.88,1.88,0,0,1,.07.58,3.61,3.61,0,0,0,.08.84,3.4,3.4,0,0,1,.05,1.85,1.88,1.88,0,0,0,.39,1.59,1,1,0,0,1,.14,1.09,1,1,0,0,0,.13,1.15.7.7,0,0,1,.1.79,1.49,1.49,0,0,0-.05,1.2,1.78,1.78,0,0,1,.07.58c0,.76,0,1.52.11,2.28a5.09,5.09,0,0,0,.24,1.08,3.87,3.87,0,0,1,.19,1.47c-.08,1,.38,1.42,1.4,1.36.8-.05,1.6,0,2.41-.06.32,0,.65-.05,1-.09a6.47,6.47,0,0,1,1.16-.16,4.66,4.66,0,0,0,1.4-.22,3.72,3.72,0,0,1,2.24,0,1.49,1.49,0,0,0,1.26-.15,2.39,2.39,0,0,1,1.38-.22,6,6,0,0,0,1.68-.17,1.52,1.52,0,0,1,1.19.1,1.37,1.37,0,0,0,1.18.15.56.56,0,0,1,.76.31,1.19,1.19,0,0,0,1.12.66,3.43,3.43,0,0,1,2.16,1.08,2,2,0,0,1,.53.94,7.82,7.82,0,0,0,1,2.34A3,3,0,0,1,60,66.9a1.87,1.87,0,0,0,.26.78c.1.22.26.4.37.61a.84.84,0,0,1,0,1,.88.88,0,0,0-.05,1,1.12,1.12,0,0,1,0,1.12,1,1,0,0,0-.11.5c.07.95.15,1.9.23,2.84a.3.3,0,0,0,0,.06c.29.9.56,1.81.88,2.7.12.33.15.58-.13.81a1.18,1.18,0,0,0-.29,1.43,6.91,6.91,0,0,1,.55,3,.77.77,0,0,0,.17.55,2.41,2.41,0,0,1,.39,2.3,1,1,0,0,0,0,.39,1.61,1.61,0,0,1-.14,1.2.83.83,0,0,0-.08.44c.07.93.14,1.85.23,2.78a2.65,2.65,0,0,0,.18.76,4.77,4.77,0,0,1,.46,1.42c0,.18.17.35.24.53a6.89,6.89,0,0,1,.26.86c.07.33,0,.61-.4.66-.28,0-.34.28-.33.49a3.4,3.4,0,0,0,.16.89,10.13,10.13,0,0,1,.72,2.76,3.87,3.87,0,0,0,.29,1,1.06,1.06,0,0,1-.08,1.06.81.81,0,0,0,0,.92,1.18,1.18,0,0,1,0,1.06,2.38,2.38,0,0,0-.11.82c0,.36,0,.73,0,1.09a6.29,6.29,0,0,0,.37,2.62,1.59,1.59,0,0,1,0,1.33,3.38,3.38,0,0,0-.25.94c-.1.88-.1,1.78-.24,2.66a11.22,11.22,0,0,1-.62,2.18,1.43,1.43,0,0,1-.71.62,15.65,15.65,0,0,0-2.8,1.77,5.4,5.4,0,0,1-2,.77c-.18.05-.43-.13-.69-.22l-.23.57c-.09,0-.16,0-.21,0a2.69,2.69,0,0,0-2,0,4.77,4.77,0,0,0-2.48.29,1.23,1.23,0,0,1-.64-.06,1.68,1.68,0,0,0-1.19.15,8,8,0,0,1-1.1.35,3.77,3.77,0,0,1-.57.12,3.13,3.13,0,0,1-1,.08A6.19,6.19,0,0,0,44,119a7.05,7.05,0,0,1-1.47.27,4.73,4.73,0,0,0-1.58.34,1,1,0,0,1-.75,0,1.92,1.92,0,0,0-1.28-.08c-.13,0-.27.12-.38.08-1.13-.33-2.29.19-3.41-.14a1.74,1.74,0,0,0-1.49.18.94.94,0,0,1-1.28-.26A2,2,0,0,0,31,118.6a2.38,2.38,0,0,1-1.72-1.06,6,6,0,0,0-.71-.77.85.85,0,0,1-.29-.76c.29,0,.45-.11.29-.43C28.3,115.58,28.25,115.75,28.27,116Zm13.86-2.09c0,.29.16.5.39.5a.64.64,0,0,0,.55-.62.41.41,0,0,0-.44-.44A.49.49,0,0,0,42.13,113.88Zm8.55-14.06a.43.43,0,0,0-.5-.38.38.38,0,0,0-.4.46.43.43,0,0,0,.51.44A.46.46,0,0,0,50.68,99.82Zm1.41-7a.47.47,0,0,0-.5-.45.4.4,0,0,0-.32.48.38.38,0,0,0,.45.35C51.95,93.15,52.12,93,52.09,92.79Zm.56-62.16c0-.35-.19-.45-.42-.41a.37.37,0,0,0-.35.45c0,.23.19.38.4.3S52.56,30.71,52.65,30.63ZM27.34,111.45c.15.36.43.33.7.21a.45.45,0,0,0,.16-.37c0-.08-.16-.2-.27-.22A.5.5,0,0,0,27.34,111.45Zm20.95-8.89a1.13,1.13,0,0,0,.24-.43c0-.09-.19-.28-.33-.31s-.42.27-.4.5S48,102.59,48.29,102.55ZM60.68,87.64c.15-.24.3-.38.3-.53s-.22-.25-.35-.26a.3.3,0,0,0-.33.37C60.34,87.35,60.5,87.45,60.68,87.64ZM24.11,70.78c.16-.23.32-.37.3-.48s-.2-.24-.33-.27-.26.18-.26.27S24,70.54,24.11,70.78ZM39.66,111.9c-.14.23-.27.35-.28.48s.18.22.29.24.37-.06.33-.27S39.83,112.11,39.66,111.9Zm-5.16-8.26c-.12-.11-.23-.26-.29-.25s-.2.16-.3.26c.1.09.19.22.31.25S34.39,103.75,34.5,103.64Zm-6.1-59.09c-.18-.09-.3-.19-.38-.17a.34.34,0,0,0-.21.24c0,.08.16.23.22.22S28.24,44.69,28.41,44.55ZM54,90.2c-.13-.12-.25-.27-.3-.25s-.19.17-.28.27c.09.07.17.2.26.2S53.89,90.3,54,90.2Zm-19.45,18c.12.07.21.15.28.14s.14-.11.22-.17c-.08-.07-.16-.18-.25-.2S34.69,108.11,34.58,108.22ZM22.45,52.29l-.19-.2c0,.05-.13.11-.14.16s.07.12.12.18Z"/></g></g></svg>