<svg xmlns="http://www.w3.org/2000/svg" viewBox="0 0 525.98 375.33"><defs><style>.cls-1{fill:#ef4123;}.cls-2{fill:#00344d;}.cls-3{fill:#ffc20e;}</style></defs><title>logo-simple-1000</title><g id="Layer_2" data-name="Layer 2"><g id="Layer_1-2" data-name="Layer 1"><path class="cls-1" d="M362.68,169.4a7,7,0,0,0,.08-4.56,7.72,7.72,0,0,1,0-1.81,18.73,18.73,0,0,0-.06-3.22,33.55,33.55,0,0,1-.29-6.93,61.57,61.57,0,0,1,.48-8.55,5.24,5.24,0,0,0-.19-2.07,6.14,6.14,0,0,1,.15-3.65,6.39,6.39,0,0,0,.08-4.1,18.24,18.24,0,0,1-.44-5.53c0-1,.08-2,0-3a2.23,2.23,0,0,0-1.87-2.32,21.2,21.2,0,0,0-3.46-.35,2,2,0,0,0-2,1.56,16.85,16.85,0,0,0-.65,6.19,11.13,11.13,0,0,1,.13,1.62,43.4,43.4,0,0,0,.62,10.14.78.78,0,0,1,0,.23c-.32,1.89-.51,3.81-1,5.65a5.23,5.23,0,0,0-.1,2.7,11.12,11.12,0,0,1,.32,2.27c.11,4.48-.27,9,.17,13.46a7.58,7.58,0,0,1,0,.93c0,1.76-.36,2.12-2.13,2.41a4.93,4.93,0,0,1-1.15.1c-2.61-.2-5.25.12-7.86-.41-1.12-.23-2.32,0-3.47-.15a27.31,27.31,0,0,0-6.47.1,38,38,0,0,1-5.55,0c-.13,0-.25-.17-.46-.33,0-.47.08-1,.13-1.53.16-1.69.35-3.38.46-5.07a32.18,32.18,0,0,0,.08-3.71,22.32,22.32,0,0,0-.46-4.12,8.31,8.31,0,0,1-.1-4.12,15.83,15.83,0,0,0,.3-6.45,1.91,1.91,0,0,1,0-.69,14.75,14.75,0,0,0-.23-5.53,5.85,5.85,0,0,1-.09-1.16c.16-2.61.28-5.24.57-7.84a4,4,0,0,0-.42-2.67,5.93,5.93,0,0,1-.66-4,25.6,25.6,0,0,0,.1-5.54,11.82,11.82,0,0,1,.16-3.45,38.3,38.3,0,0,0,.8-8.53c0-1.39,0-2.78,0-4.16a9,9,0,0,0-.39-2.27,6.83,6.83,0,0,1-.08-3.89,16.39,16.39,0,0,0,.36-6.22,10.7,10.7,0,0,1,0-1.84,16.16,16.16,0,0,0-.27-5.75,7.66,7.66,0,0,1,.06-2.28c.06-2.16.18-4.32.15-6.48a8.84,8.84,0,0,0-.6-2.47,8,8,0,0,1-.29-3.2,25.78,25.78,0,0,0,.08-6.46,7,7,0,0,1,.18-2.52,34.42,34.42,0,0,0,.83-8.53c0-1.23,0-2.47,0-3.7a8.45,8.45,0,0,0-.46-3,6.38,6.38,0,0,1-.08-3.67c.48-2,1.12-4,.86-6.16a2.93,2.93,0,0,1,.19-1.14c.42-1.4.84-2.81,1.32-4.2A5,5,0,0,1,331.7,25c.93-.69,1.82-1.43,2.72-2.17a5.57,5.57,0,0,1,3.8-1.46,9.51,9.51,0,0,0,4.31-.71,5.05,5.05,0,0,1,3.2-.11,10.45,10.45,0,0,0,3.92,0,18.38,18.38,0,0,1,5.09-.11,15.82,15.82,0,0,0,3.7,0,27.55,27.55,0,0,1,6.46.18c2.9.34,5.79.93,8.77.49,1.16-.17,2.41.44,3.63.55s2.28-.42,3.44,0c3.5,1.3,6.31,3.27,7.18,7.18.22,1,.52,1.94.74,2.92a21.57,21.57,0,0,1,.58,6c-.1,1.61.15,3.24.21,4.86a23.4,23.4,0,0,0,.31,5.07,4.48,4.48,0,0,1-.29,3,4.17,4.17,0,0,0,.16,4,2.89,2.89,0,0,1,.19,2.23,9.31,9.31,0,0,0-.21,4.82,2.17,2.17,0,0,1,0,1.14,5.45,5.45,0,0,0,.24,3.63,3.28,3.28,0,0,1,0,2.49,5.21,5.21,0,0,0,0,3.63,6.73,6.73,0,0,1,.17,3c-.24,1.91-.27,3.85-.39,5.78a16.89,16.89,0,0,1-.18,2.31,24,24,0,0,0-.23,6.23c.07,1.16,0,2.32.05,3.48,0,1.78.11,3.55.18,5.33a22.8,22.8,0,0,0,.37,5.51,3.8,3.8,0,0,1-.36,2.71,4,4,0,0,0,.06,3.79,4,4,0,0,1,.24,2.92,8,8,0,0,0-.12,4.35,2.52,2.52,0,0,1-.09,1.36,4.77,4.77,0,0,0,.2,3.18,3.81,3.81,0,0,1,0,2.94,4.09,4.09,0,0,0,0,2.95,7.26,7.26,0,0,1,.25,3.42c-.26,1.91-.27,3.85-.39,5.78a9.75,9.75,0,0,1-.12,1.85,22.14,22.14,0,0,0-.24,7.14c0,.23.06.46.06.69,0,3.25.05,6.49.1,9.74a12.28,12.28,0,0,0,.21,2.29,6.06,6.06,0,0,1-.22,3.86,4.26,4.26,0,0,0,.12,3.81,3.91,3.91,0,0,1,.35,1.1,1.66,1.66,0,0,1-1.63,2.05c-.54,0-1.08,0-1.62,0a9.77,9.77,0,0,0-2.08.05,18.88,18.88,0,0,1-5.53.06,39,39,0,0,0-4.87-.08,89.36,89.36,0,0,1-10.2-.27A5.72,5.72,0,0,1,362.68,169.4ZM359,100c.44.06.67.11.9.12,1.6.07,2.1-.3,2.31-1.89a14.22,14.22,0,0,0,.19-3,21.35,21.35,0,0,1,.31-6,7.44,7.44,0,0,0,0-3.91,4.13,4.13,0,0,1,0-2.93,6.18,6.18,0,0,0,.08-4.1,15.58,15.58,0,0,1-.45-5.3,36.33,36.33,0,0,0-.32-7.86,8.93,8.93,0,0,1,0-1.85,14.1,14.1,0,0,0,.1-1.85A11.13,11.13,0,0,1,363,56.2a4.33,4.33,0,0,0,0-3.38,3.15,3.15,0,0,1-.31-1.78c.64-2.48-.35-4.74-.86-7.05a2.31,2.31,0,0,0-2-1.73c-2.08-.47-5.36,1-5.29,4.09,0,2.09-.17,4.18,0,6.26.19,2.62-.13,5.27.48,7.86a7.45,7.45,0,0,1,.08,3.44,4.37,4.37,0,0,0,0,1.84,7.46,7.46,0,0,1-.2,3.9,12.93,12.93,0,0,0-.46,4.36q.08,3.36.18,6.73c0,.39,0,.77.07,1.16.2,2.53.72,5,0,7.59a4.86,4.86,0,0,0,0,2.08,19.66,19.66,0,0,1-.13,5.32c0,.46-.13.92-.14,1.38a1.58,1.58,0,0,0,1.41,1.82,7.06,7.06,0,0,0,1.61.07C358,100.13,358.62,100,359,100Zm15.53-72.74a3.08,3.08,0,0,0-1.45-2.12,1.13,1.13,0,0,0-1.55.56,2.3,2.3,0,0,0,1.59,3.07C373.92,28.92,374.57,28.4,374.56,27.26ZM350.23,154.49c-.38.41-.68.62-.81.9s.21.73.59.75.76-.2.74-.62S350.48,155,350.23,154.49Z"/><path class="cls-1" d="M254.3,110.83c-1.15-1.89-1.13-1.89-.76-4.24.33-2.06.64-4.13.9-6.2a6.66,6.66,0,0,0-.11-1.84c-.1-.61-.32-1.2-.45-1.8-.48-2.27-1-4.51-.31-6.86a4.22,4.22,0,0,0-.33-2.95,7.27,7.27,0,0,1-.33-4.08,61.9,61.9,0,0,0,.3-6.48c0-1.55,0-3.1,0-4.65a13.58,13.58,0,0,1,.6-4.81,3.73,3.73,0,0,0-.39-3.74,2.19,2.19,0,0,1-.25-2,10.06,10.06,0,0,0,0-5.28,9.12,9.12,0,0,1,.06-3.9c.5-2.66.89-5.34,1.3-8a4.73,4.73,0,0,0,0-1.16,5.32,5.32,0,0,1,.42-2.93,1.73,1.73,0,0,0-.71-2.41,1.93,1.93,0,0,1-.88-2.58,6.08,6.08,0,0,0-.22-4.53,5.39,5.39,0,0,1-.23-3.41,8.8,8.8,0,0,0,.23-1.83c0-2.63,0-5.26.09-7.89,0-1.7.23-3.39.29-5.09s.4-3.7-.28-5.52a3.86,3.86,0,0,1-.07-1.6c.08-1,.24-2,.36-3s.56-1.4,1.35-1.19c3.09.84,6.16-.3,9.24,0a5.56,5.56,0,0,0,1.35-.29,3.6,3.6,0,0,1,1.37-.18c1.9.45,3.83.18,5.74.31,1.61.11,3.23-.12,4.85-.16,1.78-.05,3.56-.15,5.34-.07a13.93,13.93,0,0,0,3.68-.25,5.37,5.37,0,0,1,2.52,0A15.76,15.76,0,0,0,294,.51a17.62,17.62,0,0,1,5.53.27,9.18,9.18,0,0,0,2.77,0,6.9,6.9,0,0,1,4.83,1.33,49.91,49.91,0,0,1,4.62,4.49,4.75,4.75,0,0,1,.84,1.89c.62,2.07,1.25,4.15,1.74,6.25.33,1.42.39,2.91.61,4.36a11,11,0,0,0,.49,2.26,14.47,14.47,0,0,1,.72,5.49,28.46,28.46,0,0,1-.69,5.28,28.86,28.86,0,0,0-.32,9,3.48,3.48,0,0,1,0,.56l-1.38,1c.24,1.23,1.21.41,1.85.87a1.67,1.67,0,0,1,.24.69c-.16,2.46-.36,4.92-.53,7.38-.27,3.7-.24,7.41-.73,11.1a4.72,4.72,0,0,0,.65,2.9,2.66,2.66,0,0,1,.16,2.64,4.49,4.49,0,0,0-.29,3,19,19,0,0,1,.24,3.46,16.17,16.17,0,0,0,.44,3.44,17.19,17.19,0,0,1,.3,6.42c-.34,2.61-.84,5.18-1.37,7.76a2.78,2.78,0,0,0-.11.92c.29,2,.52,4,1,5.94a10.07,10.07,0,0,1,.22,2.74c-.18,3.7-.68,7.38-.74,11.1a21.91,21.91,0,0,1-1.13,7.75,1.09,1.09,0,0,0,.45,1.42c1,.61,1,1.43.68,2.41a18.07,18.07,0,0,0-.37,6.91,23.36,23.36,0,0,1,.14,3,3.44,3.44,0,0,1-.44,1.76,6.89,6.89,0,0,0-1,2.8,12.5,12.5,0,0,1-4.31,7.74,6.61,6.61,0,0,0-.85.79,5.59,5.59,0,0,1-5.05,1.78,12,12,0,0,0-3.2.29c-2.5.44-5,1-7.58.54a.68.68,0,0,0-.23,0c-2.32.43-4.62-.2-6.93-.18-1.16,0-2.32-.15-3.47-.18-.85,0-1.69,0-2.54,0a2.63,2.63,0,0,0-.46.09c-2.08.44-4.19-.06-6.25.19a30.71,30.71,0,0,1-6,.06,28.85,28.85,0,0,0-6,.15c-2,.28-3.84-.26-5.76-.38a1.62,1.62,0,0,1-1.52-1.75,7.41,7.41,0,0,0-.25-1.36c-.06-.3-.17-.6-.2-.9-.13-1.22.81-2.35.22-3.64s0-2.42.1-3.64c.16-1.92.08-3.86.1-5.8,0-2.55,0-5.09.28-7.65a25,25,0,0,0-.23-5.31,11.34,11.34,0,0,1,0-3.22,9,9,0,0,0,.07-3,2.44,2.44,0,0,1,.79-2.48C254.23,111.16,254.25,111,254.3,110.83Zm35.58-54.4c-1.46-2.29-1.47-2.29-1.25-5.06,0-.46.13-.92.18-1.38a68,68,0,0,0-.07-12.73c-.09-1.15,0-2.31,0-3.46a15.1,15.1,0,0,0-.05-2.53,8.8,8.8,0,0,1,0-2.75,5.73,5.73,0,0,0-1.63-4.66,2.68,2.68,0,0,0-1.41-.72,28.43,28.43,0,0,0-3.22-.41c-1.25-.1-2,.44-2.06,1.65-.08,2.84-.91,5.68,0,8.52a4.15,4.15,0,0,1,.06,1.16c.06,3.09.28,6.19.13,9.27s.5,6.34-.34,9.47a4,4,0,0,0,0,.92c0,.69,0,1.37-.05,2.06s-.07,1.08-.11,1.62c-.17,2.61.59,5.23,0,7.84a1.24,1.24,0,0,0,.08.68,10.23,10.23,0,0,1,.31,6.58,10.29,10.29,0,0,0-.06,2.31c0,1.78-.09,3.55-.14,5.33,0,.84,0,1.69-.07,2.53a22.11,22.11,0,0,0-.09,5.32,19.37,19.37,0,0,1,.3,2.76q.13,4.4.18,8.81c0,1.85-.17,3.72,0,5.56s-.77,3.82-.21,5.76c-.67,1.73-.32,3.53-.26,5.28.09,2.7.35,5.39.57,8.09.06.77.22,1.53.34,2.29a1.09,1.09,0,0,0,.89,1,7.28,7.28,0,0,0,4.55-.3,2.55,2.55,0,0,0,1.66-2.06c.26-1.83.55-3.66.8-5.5a3.67,3.67,0,0,0,0-1.39c-.89-3.36.35-6.78-.27-10.15a1.38,1.38,0,0,1,0-.46,35.81,35.81,0,0,0,.32-7.87c-.1-2.09-.12-4.18-.14-6.27a42.53,42.53,0,0,0-.29-6.91,2.2,2.2,0,0,1,0-.92,8.08,8.08,0,0,0-.1-3.67,8.47,8.47,0,0,1,0-1.62q0-2.09.08-4.17a12.38,12.38,0,0,1,.12-2.08,10.2,10.2,0,0,0,0-3.91,11,11,0,0,1,.15-5.29,7.43,7.43,0,0,0,.09-3.45C288.35,58.69,288.37,58.69,289.88,56.43ZM281.63,133a2.46,2.46,0,0,0-1.19-2.29.9.9,0,0,0-1.28.55,2.41,2.41,0,0,0,.62,2.32c.32.34.79.62,1.21.32A2.86,2.86,0,0,0,281.63,133Zm29.41-3.1a1.69,1.69,0,0,0,1.38-1.62,1,1,0,0,0-.87-.92,1.56,1.56,0,0,0-1.5,1.47A1.07,1.07,0,0,0,311,129.87ZM267.24,3.58a1,1,0,0,0-1.07,1.18.86.86,0,0,0,.79.92,1.18,1.18,0,0,0,1.09-1.23A.78.78,0,0,0,267.24,3.58Zm1.63,118.6c-.08-.73-.66-1.25-1.1-1.12a.8.8,0,0,0-.6.85c0,.59.52,1.2.92,1S268.68,122.39,268.87,122.18Zm2.42-60a.83.83,0,0,0-.85.84.93.93,0,0,0,.75,1,.91.91,0,0,0,1-1A.86.86,0,0,0,271.29,62.15ZM294.53,59a1.69,1.69,0,0,0-.08.54c0,.08.21.13.33.19a2.85,2.85,0,0,0,.18-.54S294.74,59.08,294.53,59Z"/><path class="cls-2" d="M187.29,169.18a9.58,9.58,0,0,0-.32-1.48,1,1,0,0,0-.64-.55,1,1,0,0,0-.79.36,5.66,5.66,0,0,0-.67,1.21,2,2,0,0,1-2.21,1.33c-3-.63-6.19-.08-9.21-.87a10,10,0,0,0-3.87-.61,1,1,0,0,1-.45-.08c-3.37-1.24-6-3.19-6.74-7-.29-1.44-.7-2.85-1-4.28a4.82,4.82,0,0,1-.18-1.6,32.36,32.36,0,0,0-.26-6.72,28.88,28.88,0,0,1,.08-4.62,37.16,37.16,0,0,0-.14-9,13.61,13.61,0,0,1,0-4.84c.13-.68.12-1.38.18-2.07q.15-1.73.32-3.46c0-.15.08-.3.1-.45a40.38,40.38,0,0,0-.44-7.81,6.74,6.74,0,0,1-.17-3.88,17,17,0,0,0,.46-3,13.27,13.27,0,0,0-.21-3.21,11.22,11.22,0,0,1-.11-4.83,2.91,2.91,0,0,0,.07-1.38c-.79-2.68.27-5.4-.25-8.07a42.49,42.49,0,0,0,.24-4.83,34.68,34.68,0,0,0-.23-8.56,12.69,12.69,0,0,1,0-4.62c.12-.68.17-1.38.24-2.07q.2-2,.38-3.92a4.15,4.15,0,0,0,.09-1.38c-.59-2.19.37-4.5-.58-6.65a5.31,5.31,0,0,1-.25-3.19c.16-.91.25-1.84.46-2.75a8.38,8.38,0,0,0-.22-5.24,5.83,5.83,0,0,1-.11-2.75,49.51,49.51,0,0,0,.2-8.08,16.09,16.09,0,0,1,.52-6.21,14.38,14.38,0,0,0,.5-2.49,7.05,7.05,0,0,1,2.21-4.48,32.37,32.37,0,0,0,2.26-2.34,4.55,4.55,0,0,1,2.79-1.51,28.51,28.51,0,0,0,4.74-1.06,6.21,6.21,0,0,1,2.75,0,10,10,0,0,0,3.22-.09,14.75,14.75,0,0,1,3-.21c1.93,0,3.86.16,5.79.23a7.16,7.16,0,0,0,1.62-.06,17.39,17.39,0,0,1,6,.13,10.63,10.63,0,0,0,1.84.16,9,9,0,0,1,4.11.44,2.48,2.48,0,0,0,.92.1,3.53,3.53,0,0,0,.69,0c1.2-.2,2.27.52,3.4.54s2.14-.58,3.17-.47a8.41,8.41,0,0,1,6.59,3.77,13.07,13.07,0,0,0,.75,1.17,7.09,7.09,0,0,1,1.24,3,26.44,26.44,0,0,1,1,8.25,4.45,4.45,0,0,0,.09,1.16,32.73,32.73,0,0,1,.26,7.17,8.67,8.67,0,0,0,.24,2.52,3.69,3.69,0,0,1-.12,2.7,4.59,4.59,0,0,0,0,4.25,3,3,0,0,1,.11,2.26c-.15.52-.18,1.07-.3,1.6a13.69,13.69,0,0,0,.22,7.12,5.55,5.55,0,0,1,.14,3.18,6.43,6.43,0,0,0,.13,4.09c.59,1.57.06,3.22,0,4.83,0,.92-.24,1.84-.25,2.76a19.79,19.79,0,0,1-.43,4.61,9.32,9.32,0,0,0,0,4.15,10.9,10.9,0,0,1,.12,3.69,8.65,8.65,0,0,0,0,1.62c.09,1.77.28,3.55.28,5.32a14.08,14.08,0,0,0,.36,4.36,3.69,3.69,0,0,1-.38,2.48,4.63,4.63,0,0,0,0,3.82,3.68,3.68,0,0,1,.15,2.72,13.56,13.56,0,0,0-.41,2,13.73,13.73,0,0,0,.46,6.88,4.35,4.35,0,0,1,0,3.16,3.62,3.62,0,0,0-.18,2.72c.91,2.12.44,4.26.2,6.4a25.13,25.13,0,0,0-.25,2.54,29.13,29.13,0,0,1-.4,4.84,16,16,0,0,0,0,3.46,13.44,13.44,0,0,1,.23,1.6c-.19,2.24.13,4.47,0,6.7a34.42,34.42,0,0,1-.61,3.88c-.1.61-.22,1.21-.31,1.82-.05.38,0,.78-.07,1.16-.4,2.07-1,4-2.7,5.49a12.3,12.3,0,0,1-6.6,3.09,96.82,96.82,0,0,1-9.71.44c-1.23,0-2.46-.13-3.7-.22-1.61-.12-3.22-.45-4.83.07a3.75,3.75,0,0,1-1.37,0C189.59,169.4,188.61,169.3,187.29,169.18Zm8.3-115.39c-.17-1.5-.35-2.64-.42-3.79-.17-2.86-1-5.62-1.05-8.5-.06-1.88-3-3.24-4.7-2.39a2,2,0,0,0-.7.59,8.68,8.68,0,0,0-2,4.86c-.06,2.24-.07,4.47-.09,6.71a5.06,5.06,0,0,0,.08.92,13,13,0,0,1,0,4.14,17.1,17.1,0,0,0,.08,4.39,8.36,8.36,0,0,1,0,3.43,3.19,3.19,0,0,0,.08,1.6,8.51,8.51,0,0,1-.15,4.35,9.56,9.56,0,0,0-.45,3.42c.44,3.39.24,6.79.45,10.18a14.33,14.33,0,0,0,.33,2.29,3.87,3.87,0,0,1-.35,3.13,3,3,0,0,0-.26,2.45,7.89,7.89,0,0,1,.27,2.75,23.5,23.5,0,0,0,0,4.17c.11,2-.24,4,.08,6a1.33,1.33,0,0,1,0,.46,14.52,14.52,0,0,0,.1,5.08,4.7,4.7,0,0,1,0,1.37,18.82,18.82,0,0,0,.08,6.46,3,3,0,0,1,.06,1.38,15,15,0,0,0-.22,4.15c-.05,1.31-.2,2.62-.34,3.92a14.46,14.46,0,0,0,0,5.53,5.24,5.24,0,0,1,.08,2.53c-.52,2.13.08,4.17.36,6.21a8.15,8.15,0,0,1-.18,4.07c-.76,2.15.29,4,2.46,4.74a6.21,6.21,0,0,0,1.56.42,2.81,2.81,0,0,0,3.11-1.56c.86-2.21,1.93-4.4,1.33-6.93a6.47,6.47,0,0,1,.2-4.11,4.24,4.24,0,0,0-.06-2.74,20.5,20.5,0,0,1-.09-9,13.31,13.31,0,0,0-.48-6.63,9.84,9.84,0,0,1-.08-5.69c.57-2.15,1.26-4.33.43-6.6a3.81,3.81,0,0,1-.06-.92c-.11-1.15-.2-2.31-.34-3.46-.25-2.07-.68-4.11-.11-6.21a6.2,6.2,0,0,0,0-2.54,12.69,12.69,0,0,1,.53-5.5,4,4,0,0,0,.05-2.28,9.54,9.54,0,0,1-.14-3.92,7,7,0,0,0,.12-1.61,7.84,7.84,0,0,1,.19-3,2.08,2.08,0,0,0-.23-1.78,3.25,3.25,0,0,1-.47-2.23,21.23,21.23,0,0,1,.48-3,13.11,13.11,0,0,0-.52-7.75,8.63,8.63,0,0,1-.07-5.23C195.1,56.67,195.33,55.05,195.59,53.79ZM174.07,81a1.45,1.45,0,0,0-1.29-1.6,1,1,0,0,0-1,1A1.49,1.49,0,0,0,173,82,1,1,0,0,0,174.07,81Zm36.66,46c.37-.39.82-.65.93-1a1.33,1.33,0,0,0-1.67-1.56.76.76,0,0,0-.37.24,1.18,1.18,0,0,0,0,1.49A5,5,0,0,0,210.74,127.08Zm-47.68-40.5c-.17.15-.53.34-.66.63a.89.89,0,0,0,.78,1.13.83.83,0,0,0,1-.67A1.13,1.13,0,0,0,163.05,86.58Zm46.59,17.56c-.26-.21-.47-.47-.55-.43a2.7,2.7,0,0,0-.58.51l.55.55Z"/><path class="cls-1" d="M418.89,169.57c0-.36,0-.73.09-1.09a4.71,4.71,0,0,0-.16-2.74,3.83,3.83,0,0,1,0-2.94,4.18,4.18,0,0,0,0-2.5,15.91,15.91,0,0,1-.31-7.12,6.3,6.3,0,0,0-.16-2.51,4.88,4.88,0,0,1-.13-2.29,17.56,17.56,0,0,0,.23-6.9,5.6,5.6,0,0,1,.23-2.73,7.15,7.15,0,0,0,.15-4.34,14.51,14.51,0,0,1-.33-4.14,32,32,0,0,0-.17-5.79,25.81,25.81,0,0,1-.17-4.86,2.74,2.74,0,0,0-1.62-2.81,8.33,8.33,0,0,1-1.23-.65,6.52,6.52,0,0,1-1.7-1.53,31.59,31.59,0,0,0-3.28-3.9A20.35,20.35,0,0,1,407,106c-.75-1.65-1.36-3.26-.79-5.13a1.16,1.16,0,0,0-.86-1.64c-2.1-.7-2.77-2.51-3-4.31s-.14-3.69-1.12-5.35a24.45,24.45,0,0,1,0-3.68c.26-1.76,0-3.56.54-5.29.1-.32-.15-.74-.19-1.12-.2-1.53-.4-3.06-.56-4.6a2,2,0,0,1,1.26-2.22c1.23-.6,1.47-1.47.55-2.34-1.38-1.3-1.2-2.93-1.3-4.52a12.69,12.69,0,0,1,.16-1.61c.11-1.6.6-3.23-.24-4.79,0-2-.72-4-.17-6a4.61,4.61,0,0,0,0-2.07,6.12,6.12,0,0,1,0-3A2.82,2.82,0,0,0,401.2,47a10.21,10.21,0,0,1-.12-4.15,6.5,6.5,0,0,0,0-1.61,12.48,12.48,0,0,1,.17-4.14,7.65,7.65,0,0,0-.12-3,12.21,12.21,0,0,1,0-5.07,11,11,0,0,0,.12-3.92,34.42,34.42,0,0,1-.21-3.7,1,1,0,0,1,1.19-1.06,28.32,28.32,0,0,0,5.56-.08,5.72,5.72,0,0,1,.93,0,58.3,58.3,0,0,0,8.56,0,58.76,58.76,0,0,1,7.14.68c.9.1,1.8.27,2.71.41a3.63,3.63,0,0,1,.09,2.58,7.5,7.5,0,0,0,.67,5.62,2.57,2.57,0,0,1,.12,2.23,7.32,7.32,0,0,0-.25,4.11,6,6,0,0,1,0,1.84,10.28,10.28,0,0,0,.58,4.79c.94,2.37.32,4.74-.14,7.09a2,2,0,0,1-.7.9,2.23,2.23,0,0,0-.6,2.56,12.5,12.5,0,0,1,.4,5.5,4.83,4.83,0,0,0,.39,2.48,5.76,5.76,0,0,1,.31,4.51,3.23,3.23,0,0,0,0,1.81,6.47,6.47,0,0,1,0,2.74,25.51,25.51,0,0,0-.39,4.14,39.1,39.1,0,0,1-.46,5.3c-.28,2.19-.35,4.32.83,6.31a2.21,2.21,0,0,1,.18,2,5.71,5.71,0,0,0,.66,5.11,4.81,4.81,0,0,1,1,2.56,2,2,0,0,0,.92,1.54,1.33,1.33,0,0,0,2.24-.58c.51-1.13,1-2.26,1.53-3.37a6.12,6.12,0,0,0,.62-4.27,5,5,0,0,1,.08-2.73,7.13,7.13,0,0,0,.16-4.11,3.77,3.77,0,0,1,.35-2.91,6.58,6.58,0,0,0,.54-5.16,3.69,3.69,0,0,1-.26-1.13c.12-3.71-.52-7.41.09-11.12a7.29,7.29,0,0,0,.09-2.53,21.43,21.43,0,0,1-.25-4.15c0-1.78-.09-3.56-.06-5.34a9.05,9.05,0,0,1,.34-2.51c.61-2,.19-4,.3-6a2.47,2.47,0,0,0-.6-1.47,4.11,4.11,0,0,1-.71-2.85c0-1.7,0-3.4,0-5.1a3.51,3.51,0,0,1,0-.46,22,22,0,0,0,.09-6.67c-.23-1.4.8-2.61,1.41-3.85a.9.9,0,0,1,.56-.36,2.84,2.84,0,0,1,.92,0c4,.42,8-.19,12-.08a20.33,20.33,0,0,0,5.54-.24,4.51,4.51,0,0,1,1.85,0,12.9,12.9,0,0,0,3.92.29,1.13,1.13,0,0,1,1.35,1.24,12.27,12.27,0,0,1-.16,3.69,16.87,16.87,0,0,0-.27,6.21c0,.54,0,1.07.05,1.61a21.36,21.36,0,0,0,.17,2.76,8.43,8.43,0,0,1-.24,4.79,4.74,4.74,0,0,0-.11,3,11.92,11.92,0,0,1,.47,5,6.53,6.53,0,0,0,.1,1.38,22.79,22.79,0,0,1,.05,2.29,18.89,18.89,0,0,0,.07,5.32,3,3,0,0,1,0,.92c-.19,2.16-.4,4.31-.59,6.46a6.72,6.72,0,0,0,0,1.39,87.91,87.91,0,0,1,.38,13.67,4.61,4.61,0,0,1-.12,1.38,12.34,12.34,0,0,0-.4,5.94,4.51,4.51,0,0,1,0,1.62,11,11,0,0,0-.15,4.6,4.36,4.36,0,0,1-.35,2c-.83,2.41-1.77,4.78-2.56,7.2a14.32,14.32,0,0,1-1.9,3.7c-.79,1.15-1.62,2.27-2.42,3.41a4.84,4.84,0,0,1-2.27,1.92,5.81,5.81,0,0,0-2.79,2.35c-.22.32-.48.61-.69.94a4.77,4.77,0,0,1-2.61,2.18,2,2,0,0,0-1.4,2.37,14.75,14.75,0,0,0,.66,2.7,3.51,3.51,0,0,1,0,2.71,4.84,4.84,0,0,0,0,4,3.93,3.93,0,0,1-.18,3.58,3.92,3.92,0,0,0-.28,2.91,12.74,12.74,0,0,1,0,5.07,8.47,8.47,0,0,0-.32,2.52c.37,2.76.22,5.54.41,8.31.13,1.85,0,3.71.08,5.56a13.37,13.37,0,0,0,.17,2.76,4.79,4.79,0,0,1-.17,3,5.7,5.7,0,0,0,0,4.07c.82,2.48.17,3.2-2.48,3.14-1,0-2,.15-3,.17q-2.08,0-4.16,0c-1.62,0-3.25-.27-4.86-.18a105,105,0,0,1-11.36-.26A2.71,2.71,0,0,1,418.89,169.57Zm27.18-85.85a1,1,0,0,0,1.07-.9,1,1,0,0,0-1-1,1.06,1.06,0,0,0-1.18,1.05A1,1,0,0,0,446.07,83.71Zm-36.24-.32a1,1,0,0,0-1-1,1,1,0,0,0-.91,1.11,1,1,0,0,0,1.05,1A1,1,0,0,0,409.83,83.39ZM417,73a.82.82,0,0,0-.67,1,.8.8,0,0,0,.78.69.88.88,0,0,0,.82-.9A.86.86,0,0,0,417,73Z"/><path class="cls-2" d="M120.31,137.56c0-1.23,0-2,0-2.78a6.45,6.45,0,0,0,0-1.39c-.63-2.86-.06-5.68.22-8.52a26.58,26.58,0,0,0,.09-4.17c-.21-3.7-.45-7.4-.78-11.09a6.29,6.29,0,0,0-6.44-5.51c-.85,0-1.7.06-2.55,0a1.16,1.16,0,0,1-1.18-.94,7.39,7.39,0,0,1-.33-3.2,9.16,9.16,0,0,0,.12-2.54c-.19-2.85-.45-5.69-.66-8.54a4.51,4.51,0,0,1,.12-1.15c.25-1.32.68-1.71,2-1.8a9.31,9.31,0,0,1,1.16,0,8.9,8.9,0,0,0,6.73-2.61,2.67,2.67,0,0,0,.87-1.06c.46-1.79,1.16-3.63.78-5.44a16.13,16.13,0,0,1-.05-5.53,35.74,35.74,0,0,0,.35-6.24c-.08-1.78,0-3.56,0-5.34a5.42,5.42,0,0,0,0-1.16,18.1,18.1,0,0,1,0-6.69,11.4,11.4,0,0,0-.41-5.27,15.92,15.92,0,0,1-.49-3.19,5.51,5.51,0,0,0-1.93-3.83c-1.35-1.14-4.25-.75-5,1.06A10.7,10.7,0,0,0,112,43.3c-.26,2.15-.36,4.31-.5,6.47a3.57,3.57,0,0,0,.08,1.15c.66,2.44.28,4.93.36,7.39a3.76,3.76,0,0,1-.11.92c-.15.69-.66,1.18-1.31,1a12.94,12.94,0,0,0-4.6.13,7.9,7.9,0,0,1-2.73-.29,5.15,5.15,0,0,0-2.51-.23,34,34,0,0,1-8.06.63c-1.24,0-2.48,0-3.71-.1S87.16,60,86.9,58.83a20,20,0,0,1-.51-3.9,21.42,21.42,0,0,0-.74-5.27,4.14,4.14,0,0,1-.13-2.26c.7-2,.44-4,.45-6A16.08,16.08,0,0,1,86.16,38a8.7,8.7,0,0,0-.07-2.29,6,6,0,0,1-.1-1.6c.7-3,1.22-6.07,2.59-8.89a4.59,4.59,0,0,1,2.55-2.56c1.31-.46,2.64-.86,4-1.27a4.4,4.4,0,0,0,.68-.15c2.34-1.2,4.84-.84,7.3-.75a25.75,25.75,0,0,0,3.23-.14c2.75-.24,5.52-.78,8.27.06a3.37,3.37,0,0,0,2.71-.21,4.83,4.83,0,0,1,4-.3,9.24,9.24,0,0,0,2.52.08c1.31,0,2.63-.09,3.93,0,1.46.11,2.9.39,4.36.6a4.34,4.34,0,0,0,1.14.12,8.16,8.16,0,0,1,5.08,1.26c.61.33,1.18.75,1.8,1.07,2.42,1.24,3.53,3.38,4.11,5.88.43,1.88.83,3.78,1.15,5.68.21,1.22.27,2.46.39,3.69a19.73,19.73,0,0,0,.17,2.08,24.7,24.7,0,0,1,.4,5.31,17,17,0,0,1-.66,5,6.56,6.56,0,0,0-.28,2.05c0,1.93.13,3.87.18,5.8,0,.54-.05,1.07-.06,1.61a12,12,0,0,0,0,2.08,25.68,25.68,0,0,1,0,6.24c-.2,2.62-.2,5.25-.31,7.87-.06,1.54-.12,3.09-.27,4.62-.26,2.54-.67,5.06-.87,7.6A4.59,4.59,0,0,1,142,92.19c-.51.35-1,.68-1.56,1a11.8,11.8,0,0,0-1.19.72c-1.16.94-1.11,2,.13,2.79a15,15,0,0,0,1.41.81,4.63,4.63,0,0,1,2.64,3,5.6,5.6,0,0,0,1,1.78,4.76,4.76,0,0,1,.7,4.82,3.52,3.52,0,0,0-.05,2.48,6.28,6.28,0,0,1,.37,2c0,1.85.33,3.7,0,5.56a4.27,4.27,0,0,0,.23,1.82,6.91,6.91,0,0,1,.19,3.19c-.27,1.75-.26,3.54-.44,5.31-.25,2.55-.12,5.1-.19,7.65-.05,1.85-.34,3.7-.34,5.55s.22,3.55.37,5.32.35,3.69.52,5.54c.07.77,0,1.56.16,2.31a4.17,4.17,0,0,1-.59,3.32,1.94,1.94,0,0,0-.24,1.78,3.27,3.27,0,0,1-.52,2.63,14.83,14.83,0,0,1-7,6.8,4.13,4.13,0,0,1-3.12.46,5.35,5.35,0,0,0-2.94.21c-2.4.54-4.79,1.24-7.31.75a4.28,4.28,0,0,0-1.59,0,8.11,8.11,0,0,1-3.68-.06,15,15,0,0,0-4.6-.27c-2.78.12-5.57,0-8.35,0-1.16,0-2.31,0-3.46.09a7.4,7.4,0,0,1-1.61.18c-3.39-.65-7-.78-9.94-2.79a8.05,8.05,0,0,1-3.6-4.9,67.91,67.91,0,0,1-1.32-9.4,4.57,4.57,0,0,1,.05-1.38,6.82,6.82,0,0,0-.07-3.22,2.67,2.67,0,0,1-.12-.92c.18-2,.32-4,.62-6a4.6,4.6,0,0,0-.13-2.49,5.84,5.84,0,0,1-.27-3.42,7.27,7.27,0,0,0,0-1.84c0-.54-.12-1.08-.14-1.61-.09-1.72.47-2.44,2.22-2.48,1.93-.05,3.85-.34,5.77-.5a9.06,9.06,0,0,1,1.61,0c1.54.15,3.07.36,4.61.49a8.1,8.1,0,0,0,2.08,0,22.6,22.6,0,0,1,8.29.29c.15,0,.31.05.45.09.72.2,1.08.67.87,1.38a10.8,10.8,0,0,0-.38,3.43,20.29,20.29,0,0,0,.49,4.14,10.58,10.58,0,0,1,.22,1.83c.1,2.09.2,4.17.23,6.26,0,1.68.63,2.84,2.36,3.24a8.4,8.4,0,0,1,.86.34,1.9,1.9,0,0,0,2.29-.6c1.05-1.27,2-2.59,1.79-4.39a5.38,5.38,0,0,1,.15-1.85A18.37,18.37,0,0,0,120.31,137.56Zm-18.67-1.92a3.41,3.41,0,0,0-.34-1,9.64,9.64,0,0,0-1.41-1.47,1.81,1.81,0,0,0-2.15-.15,2.17,2.17,0,0,0-1.12,2.1,1,1,0,0,0,.8,1,20.66,20.66,0,0,0,3.16.22C100.93,136.34,101.27,135.9,101.64,135.63Zm4.43-93.14a1.77,1.77,0,0,0-1.86-1.63,2.18,2.18,0,0,0-1.66,2.39,1.42,1.42,0,0,0,1.55,1.34A2,2,0,0,0,106.07,42.49Zm31.54,71.6a3.07,3.07,0,0,0-.91.42,2.17,2.17,0,0,0,0,2.54.75.75,0,0,0,.6.2,1.93,1.93,0,0,0,1.37-1.88.68.68,0,0,0-.13-.43C138.28,114.64,137.94,114.38,137.61,114.09ZM98,148.2a1.09,1.09,0,0,0,.87,1.3.9.9,0,1,0,.07-1.81A2.8,2.8,0,0,0,98,148.2Zm7.61,4.45c0-.62-.51-1.1-.89-1a1.1,1.1,0,0,0-.59.6.75.75,0,0,0,.77.87C105.18,153.09,105.42,152.78,105.59,152.65Zm36.11-38.83c.24-.45.5-.75.52-1s-.32-.5-.55-.58c-.4-.13-.87.47-.69.9C141.08,113.32,141.36,113.48,141.71,113.82Zm.9,32.95c-.13-.14-.32-.47-.6-.6s-.86.23-.89.71a.7.7,0,0,0,.57.81C142.15,147.8,142.56,147.46,142.61,146.76ZM133.78,24.51c-.19.23-.37.35-.43.53s.3.6.54.46a.65.65,0,0,0,.28-.49C134.17,24.86,134,24.72,133.78,24.51Z"/><path class="cls-1" d="M498.92,82.12c.28.56.43.91.63,1.23a2.32,2.32,0,0,0,3,1.15,3.78,3.78,0,0,1,2.72-.07,3.64,3.64,0,0,0,1.38.12c1.78,0,3.56,0,5.33-.15a4.68,4.68,0,0,1,3.81,1.36,50,50,0,0,0,4.44,3.72,9.09,9.09,0,0,1,3.39,6.36,7.45,7.45,0,0,0,.19,1.38A48.75,48.75,0,0,1,525,105a28.49,28.49,0,0,1-.27,7.86,8,8,0,0,0-.09,2.54c.52,3,.23,6,.51,9a8.38,8.38,0,0,1-.21,2.54,25,25,0,0,0-.27,7.16,89.18,89.18,0,0,1,.42,9.26c0,1.08-.17,2.15-.28,3.23a5.86,5.86,0,0,0-.16,1.14c.25,2.26-.36,4.43-.56,6.65a4.48,4.48,0,0,1-.28,1.35,7.72,7.72,0,0,0-.71,2.91,2.27,2.27,0,0,1-.16.91c-.76,1.58-1.56,3.15-2.33,4.69-2.1-.27-2.1-.27-2.63,1.74a4.66,4.66,0,0,1-4.55,3.63c-2.32-.08-4.61.53-6.94.12a6.66,6.66,0,0,0-2.3.11,19.27,19.27,0,0,1-5.32.21,5.48,5.48,0,0,0-1.85,0,18.18,18.18,0,0,1-5.53.09c-2.63-.12-5.26-.17-7.89-.05a62.27,62.27,0,0,1-8.55-.62c-1-2.07-1.55-4.11-.81-6.32a2.81,2.81,0,0,0,.15-.91c0-2.54,0-5.1-.25-7.61-.19-1.87.08-3.7-.09-5.55a1.36,1.36,0,0,1,1.28-1.42,8.84,8.84,0,0,1,3.68-.15,4.38,4.38,0,0,0,1.38.12,17.84,17.84,0,0,1,5.48.8,3.75,3.75,0,0,0,2.26,0,6.41,6.41,0,0,1,1.82-.25c1.7-.06,3.4-.07,5.1-.1a2.07,2.07,0,0,0,2.28-2.32c0-1.23.16-2.46.24-3.7a11.27,11.27,0,0,0,0-1.39c-.17-2.78-.36-5.55-.53-8.33a10.54,10.54,0,0,1,0-2.09,9.48,9.48,0,0,0-.51-5,4.7,4.7,0,0,1,0-3.41,7.7,7.7,0,0,0,.21-4.78,8.38,8.38,0,0,1,.11-4.37c.27-1,.56-2.09.87-3.13a2.84,2.84,0,0,0,0-1.82,1.82,1.82,0,0,0-1.86-1.44c-1.93,0-3.87,0-5.79.22a5.94,5.94,0,0,1-2.27-.12,17.17,17.17,0,0,0-5.24-.91,3.52,3.52,0,0,1-2.17-.73c-.82-.59-1.65-1.16-2.43-1.79a3.12,3.12,0,0,1-1-1.22c-.62-1.83-1.67-3.5-1.94-5.45a19.55,19.55,0,0,0-.45-2c-.3-1.19-.3-1.19.59-2.43a4.84,4.84,0,0,1-1-5.48,12,12,0,0,0,.36-6.37,19.48,19.48,0,0,1-.72-6.63,18.84,18.84,0,0,0-.52-4.36,24.14,24.14,0,0,1,0-6.92c.13-1.38.44-2.75.56-4.14a5.88,5.88,0,0,0-.24-2,3.35,3.35,0,0,1,.22-2.89,2.53,2.53,0,0,0,.23-1.31c0-1-.09-2-.14-3a7.49,7.49,0,0,0-.1-1.85,9.84,9.84,0,0,1-.18-4.37c.37-2.75.31-5.56,1.2-8.24.68-2.05,1.22-4.15,1.83-6.22a8.19,8.19,0,0,1,4.54-5.29,14,14,0,0,1,7.14-1.65,3.62,3.62,0,0,0,1.58-.3,8.12,8.12,0,0,1,3.88-.39c1.46.12,2.93.25,4.4.26,1.31,0,2.61-.2,3.92-.23,2.16,0,4.33,0,6.5,0a13.5,13.5,0,0,0,2.52-.27,6,6,0,0,1,3,0,10.06,10.06,0,0,0,4.14.28,4.42,4.42,0,0,1,1.61,0c1.82.47,2.3,1.19,2.38,3.12a26.84,26.84,0,0,0,.32,3,12.37,12.37,0,0,1-.09,4.82,9.67,9.67,0,0,0-.09,3.44,7.55,7.55,0,0,1-.33,4.31,6,6,0,0,0-.16,2.27c0,1.07-.42,1.56-1.37,1.28a16.09,16.09,0,0,0-3.88-.14c-3.17-.15-6.32.49-9.5-.08a10.67,10.67,0,0,0-5.22.83,2.22,2.22,0,0,0-1.44,2,12.82,12.82,0,0,0,0,1.85c0,1,.15,2,.1,3a49.56,49.56,0,0,0,0,7.64,9.51,9.51,0,0,1-.32,3,5.66,5.66,0,0,0,.12,3.41,9,9,0,0,1,.23,6.14,6.13,6.13,0,0,0-.08,2.75,14.89,14.89,0,0,1,.05,5.31,2,2,0,0,0-.05.69A2.73,2.73,0,0,1,498.92,82.12Zm-14.74-10.6c-.19-.12-.47-.4-.77-.44a.79.79,0,0,0-.88.81.81.81,0,0,0,.91.78C483.9,72.62,484.23,72.19,484.18,71.52Z"/><path class="cls-3" d="M83.25,95.63a3.63,3.63,0,0,1-1.18,1.83c-.57.66-1.14,1.33-1.74,2a6.08,6.08,0,0,0-1.56,2.83c-.44,1.9-1.75,3.34-2.77,4.93q-2,3.13-4,6.27a1.13,1.13,0,0,0-.16.4c-.48,2.88-2.55,4.86-4,7.17a7.61,7.61,0,0,0-.86,1.51c-.73,2.06-1.38,4.14-2.1,6.21-.4,1.17-.8,2.35-1.32,3.47-1.19,2.58-2.47,5.12-3.66,7.7a3.6,3.6,0,0,0-.34,1.68,5.78,5.78,0,0,1-.82,3.34,8.91,8.91,0,0,0-1.35,4.34,3,3,0,0,1-.69,1.55,7.24,7.24,0,0,0-1.23,3,34,34,0,0,1-.84,3.39,7,7,0,0,0-.31,3.86A7.12,7.12,0,0,1,54,165c-.06.18-.24.32-.49.63a6.17,6.17,0,0,1-.49-.7c-.1-.19-.08-.44-.19-.63a5.38,5.38,0,0,1-.33-5c0-2.4.5-4.79,0-7.2a4.94,4.94,0,0,1-.13-1.95,9.77,9.77,0,0,0-.16-3.91,13,13,0,0,1-.37-3.68c.1-.87-.4-1.34-1.35-1.34-1.38,0-2.76.11-4.14.16a14.51,14.51,0,0,1-3.26,0,26.71,26.71,0,0,0-5.67-.22c-2,0-3.93.29-5.87-.34a3.38,3.38,0,0,0-1.5.13c-.65.11-1.28.32-1.93.41a1.47,1.47,0,0,1-1.81-1.42,15,15,0,0,1,0-2.41,29.26,29.26,0,0,0-.22-7.2,3.87,3.87,0,0,1-.06-1.09,28.05,28.05,0,0,1,.54-3.89,12,12,0,0,0-.47-6.25,11.37,11.37,0,0,1-.13-5.18c.2-1.07.47-2.14.65-3.21a5.41,5.41,0,0,0,.06-1.52c-.32-2.75-.69-5.49-1-8.23a11.65,11.65,0,0,1,0-1.95A26.38,26.38,0,0,0,26,95.09a13.3,13.3,0,0,1,.45-4.76,5.34,5.34,0,0,0,.08-2.57,10.88,10.88,0,0,1-.17-3,38.62,38.62,0,0,0-.18-7.43,14.57,14.57,0,0,1,.57-5.39,5.41,5.41,0,0,0-.06-3.61,24.64,24.64,0,0,1-.9-3.15,5.24,5.24,0,0,1,.89-5c.19-.22.35-.47.52-.71a1.8,1.8,0,0,0,.11-2,8.74,8.74,0,0,1-.73-6,11.45,11.45,0,0,1,4.76-.75c1.53.11,3.06.16,4.59.22a7.09,7.09,0,0,1,1.31,0,10.28,10.28,0,0,0,4.74-.29,22.67,22.67,0,0,1,3.9-.21,7.89,7.89,0,0,0,1.74-.1,4.16,4.16,0,0,1,3,.18A1.36,1.36,0,0,0,52.29,50a2.52,2.52,0,0,0,.51-2.81A6.32,6.32,0,0,1,52.41,44a11.51,11.51,0,0,0-.35-4.55,8,8,0,0,1,.08-4.31,15.23,15.23,0,0,0,.42-5c0-1.24,0-2.48-.05-3.72a1.34,1.34,0,0,1,.11-.64.66.66,0,0,1,.46-.34.61.61,0,0,1,.46.36,9.62,9.62,0,0,1,.24,1.93,3.8,3.8,0,0,0,1,3,1.83,1.83,0,0,1,.42,1.64c-.34,2.55.73,4.86,1.21,7.28A3.79,3.79,0,0,0,56.83,41a18.45,18.45,0,0,1,2,6.42,7.05,7.05,0,0,0,.45,1.69,14.88,14.88,0,0,1,1.09,3.77,2.69,2.69,0,0,0,.33,1c1.31,1.92,1.58,4.22,2.33,6.34a7.39,7.39,0,0,0,1.37,2.7,5.19,5.19,0,0,1,1.31,3.18,4.7,4.7,0,0,0,.33,1.48,43.39,43.39,0,0,0,3.5,6.79c1.39,2,2.52,4.27,3.84,6.37C75,83.2,76.6,85.61,78.2,88c.36.55.8,1.05,1.1,1.63A20.05,20.05,0,0,0,83,95.07,1.74,1.74,0,0,1,83.25,95.63ZM64.41,114.74a4.85,4.85,0,0,0-1.07.7c-.29.33-.08,1,.37,1.35a2.75,2.75,0,0,0,2,.77,1.14,1.14,0,0,0,.6-2.15C65.71,115.14,65.08,115,64.41,114.74Zm5.75-24.48a.82.82,0,0,0-.78-.85,1,1,0,1,0,0,2A1,1,0,0,0,70.16,90.26Zm-5.49-1.18c-.15.22-.5.51-.56.85a.93.93,0,0,0,1.06,1,1,1,0,0,0,.82-.85A1.16,1.16,0,0,0,64.67,89.08Zm-13-8.57a2.61,2.61,0,0,0-.25.47s.27.21.31.18a2.17,2.17,0,0,0,.35-.41Z"/><path class="cls-2" d="M390.62,302.31c-.16.43-.26.81-.42,1.15a2.5,2.5,0,0,0-.11,2,6.52,6.52,0,0,1,.19,4.1,4.7,4.7,0,0,0,0,2.29c.44,1.86.07,3.69-.05,5.53-.05.76-.09,1.53-.08,2.3a26.32,26.32,0,0,1-.36,5.78,14.11,14.11,0,0,0-.1,4.85c.15,1.07.1,2.16.15,3.24.06,1.31.14,2.62.22,3.93a4.33,4.33,0,0,1,.07,1.15,11.15,11.15,0,0,0,.19,4.83,5.36,5.36,0,0,1-.24,3,5.14,5.14,0,0,0,.24,4.48,2.74,2.74,0,0,1,.17,2.46,4.33,4.33,0,0,0,.07,4,1.65,1.65,0,0,1-.15,1.77,2.87,2.87,0,0,0-.17,2.87,4.68,4.68,0,0,1,.18,3.18,6,6,0,0,0,0,3.67c.49,1.5-.06,2.92-.27,4.34a2,2,0,0,1-2.28,1.55,7.56,7.56,0,0,1-1.6-.29,11.09,11.09,0,0,0-6.19,0,8.71,8.71,0,0,1-3.65.05,29.84,29.84,0,0,0-4.62-.13c-2.4,0-4.8,0-7.2,0a1.36,1.36,0,0,1-1.5-1.64,36.34,36.34,0,0,0-.12-5.56c0-1.54.27-3.1.11-4.62s-.57-2.86-.62-4.34a13.41,13.41,0,0,1,.56-5,9.53,9.53,0,0,0,.29-4.82,68.89,68.89,0,0,1-.48-8.8c-.1-2.31,0-4.63,0-7a22.79,22.79,0,0,1,.32-3.92,9,9,0,0,0-.07-3.22,6.86,6.86,0,0,1,.12-3.43,6.37,6.37,0,0,0,.12-3.65,10.46,10.46,0,0,1-.2-2.31q-.1-2.08-.17-4.17a6.57,6.57,0,0,1,.31-3,3.6,3.6,0,0,0-.09-2.93,13.05,13.05,0,0,1-.4-8.19,14.19,14.19,0,0,0,.3-7.09,2.13,2.13,0,0,1-.09-.46c-.09-4-.26-8-.22-12.06a25,25,0,0,1,.46-6,5,5,0,0,0,0-2.3,8.64,8.64,0,0,1,.22-4.8,4.34,4.34,0,0,0,.08-2.27,13.62,13.62,0,0,1,.22-7.32,1.81,1.81,0,0,0-.21-1.78,7,7,0,0,1-1.05-2.55,5.49,5.49,0,0,0-2-2.74,2,2,0,0,0-2.87.38,2.57,2.57,0,0,0-.41.56c-1.4,3.12-2.66,6.27-2,9.82a12.06,12.06,0,0,1,.22,2.29,30.57,30.57,0,0,0,.59,8.53,3.42,3.42,0,0,1-.35,2.47,4,4,0,0,0-.29,2.93,7.88,7.88,0,0,1,.11,3.23,13.91,13.91,0,0,0,0,2.08c0,1.31,0,2.62,0,3.94q0,.69.05,1.39a6.7,6.7,0,0,1,.12,1.15,28.32,28.32,0,0,0,.13,6.93,24.36,24.36,0,0,1-.25,4.14,8.58,8.58,0,0,0,.15,2.08,7.22,7.22,0,0,1,0,3.44,4.24,4.24,0,0,0,.12,1.82,7.59,7.59,0,0,1-.12,3.67,13.59,13.59,0,0,0-.28,6.88,6.61,6.61,0,0,1,0,1.62,31.57,31.57,0,0,0,.56,8.31,3.38,3.38,0,0,1-.32,2.47,3.87,3.87,0,0,0-.27,3.14c.51,1.61,0,3.23-.07,4.84a19.39,19.39,0,0,0,.06,2.76,32.69,32.69,0,0,1,.13,5.54,25.52,25.52,0,0,0,.11,4.86,5.28,5.28,0,0,1,.09,1.37,19.22,19.22,0,0,0,.13,6.69,1.08,1.08,0,0,1,0,.46c-.51,1.84-.08,3.67,0,5.5a6.75,6.75,0,0,1-.35,2,13.69,13.69,0,0,0-.22,6.43c.26,1.31-.17,1.85-1.51,2a2.79,2.79,0,0,1-.92,0c-2.51-.52-4.9.14-7.28.77a4.72,4.72,0,0,1-2.28.13c-1.29-.27-2.59-.47-3.88-.7-2.24-.39-4.47,0-6.71.09a13.11,13.11,0,0,1-2.52-.12c-1.23-.2-1.61-.61-1.72-1.83a17.93,17.93,0,0,1,0-3.24A7.21,7.21,0,0,0,328,366a7.89,7.89,0,0,1-.19-5,10.25,10.25,0,0,0,.13-3.68,14.61,14.61,0,0,1,.63-6.87,6.87,6.87,0,0,0,.08-4.55,5.79,5.79,0,0,1-.15-3.21,7.05,7.05,0,0,0-.21-4.11,7.74,7.74,0,0,1-.13-4.11,12.65,12.65,0,0,0,.3-5.51,3.54,3.54,0,0,1,0-1.16,20.6,20.6,0,0,0,.05-5.75,23.67,23.67,0,0,1-.13-3.93c0-2-.5-4,0-6a5,5,0,0,0-.4-2.48,8.16,8.16,0,0,1-.15-4.78,9.55,9.55,0,0,0,.15-3.45,15.49,15.49,0,0,1,.55-6.88,7.58,7.58,0,0,0,.09-5,5.2,5.2,0,0,1-.09-3,7.14,7.14,0,0,0-.26-4.34,6.25,6.25,0,0,1-.18-3.65,14.16,14.16,0,0,0,.38-6,2.38,2.38,0,0,1,0-.7,24.68,24.68,0,0,0,.08-6.44,21.76,21.76,0,0,1-.12-3,25.52,25.52,0,0,1,0-5.54,6.9,6.9,0,0,0-.43-3.65,6.68,6.68,0,0,1-.11-4.54,7.07,7.07,0,0,0,0-3.68,13.37,13.37,0,0,1-.06-4.61,24,24,0,0,0-.29-9.45c-.17-.67-.42-1.32-.64-2s-.61-1.59-.8-2.41c-.3-1.3.09-1.75,1.36-1.75h.23a38,38,0,0,0,6,.22c2,0,4-.38,6-.39.92,0,1.84-.05,2.76,0a49.46,49.46,0,0,0,7.17.31,8.19,8.19,0,0,1,1.16,0,2.4,2.4,0,0,1,2.49,2c.24,1.05.55,2.09.87,3.13a1.46,1.46,0,0,0,2.49.86,3.83,3.83,0,0,0,1.27-1.59,5.73,5.73,0,0,1,3.43-3.25,9.05,9.05,0,0,1,5.14-1.08,5.08,5.08,0,0,0,2.26-.4,4.73,4.73,0,0,1,3.18,0,6.64,6.64,0,0,0,3.88.32,4.16,4.16,0,0,1,1.6.07c1.14.17,2.28.4,3.42.6a9.23,9.23,0,0,1,.92.15,16.38,16.38,0,0,1,4.92,4.11c.39.75.81,1.49,1.17,2.25a6.45,6.45,0,0,1,1,3.29,3.74,3.74,0,0,0,.9,2.58,2.91,2.91,0,0,1,.47,3.24,3.49,3.49,0,0,0,.19,3.34,1.77,1.77,0,0,1-.07,2,2.85,2.85,0,0,0-.15,2.87,4.9,4.9,0,0,1,.19,3.41,5.6,5.6,0,0,0,.07,3.43,4.49,4.49,0,0,1,.1,2.28,18.15,18.15,0,0,0-.3,2.53c-.21,3.93-.42,7.87-.55,11.8-.06,1.93,0,3.86.09,5.8a7.24,7.24,0,0,0,.08,1.39,7.9,7.9,0,0,1-.05,4.13,3.56,3.56,0,0,0,.27,2.49,4.44,4.44,0,0,1,0,3.4,5.07,5.07,0,0,0,.27,4.68,2.4,2.4,0,0,1,.18,2c-.07.22-.14.44-.23.66A4.7,4.7,0,0,0,390.62,302.31ZM331.33,230.8a1.4,1.4,0,0,0-1.57,1.34,1.21,1.21,0,0,0,1.07,1.29,1.61,1.61,0,0,0,1.72-1.49A1.17,1.17,0,0,0,331.33,230.8ZM344,258.86a1.37,1.37,0,0,0,1.43-1.41,1.13,1.13,0,0,0-1.19-1.1,1.29,1.29,0,0,0-1.41,1.4A1.09,1.09,0,0,0,344,258.86Zm38.48,54.49a1,1,0,0,0-1.06.93,1.09,1.09,0,0,0,2.17.27A1.17,1.17,0,0,0,382.49,313.35Zm-7.94,9.94a3.14,3.14,0,0,0-.74.3,1.19,1.19,0,0,0-.12,1.46,1,1,0,0,0,1.1.6c.14,0,.35-.11.37-.2a2.59,2.59,0,0,0,.21-1.25C375.27,323.83,374.83,323.58,374.55,323.29Zm-36.71-80.65a1,1,0,0,0-1-1,1,1,0,0,0-1,1,1.07,1.07,0,0,0,1,1A1,1,0,0,0,337.83,242.64Zm6.57,8.7c-.08-.13-.18-.44-.39-.56a.75.75,0,0,0-1,.59.91.91,0,0,0,.36.71C343.75,252.33,344.25,252,344.4,251.35Zm41.38-19.26.48-.51c-.16-.15-.29-.37-.47-.42s-.66.28-.53.51S385.57,231.93,385.78,232.09Z"/><path class="cls-2" d="M316.52,251.85a24.75,24.75,0,0,1-.22,3.23c-.53,2.69-.23,5.4-.34,8.1a1.93,1.93,0,0,0,0,.69c1,2.79.23,5.68.5,8.51a13.09,13.09,0,0,0,.23,6.16,5.35,5.35,0,0,1-.43,2.47c-.79,2.67-1.08,5.32.3,7.87a3.28,3.28,0,0,1-.1,3.89,2,2,0,0,0-.38,1.76A5.27,5.27,0,0,1,316,297a7.55,7.55,0,0,0,.14,3.68,22.13,22.13,0,0,1,.48,8.75,53.51,53.51,0,0,0-.56,9.71c.23,3.32.22,6.64.35,10a31.93,31.93,0,0,0,.29,6,3.28,3.28,0,0,1-.48,2c-.78,1.51-.72,3.16-.87,4.76a3.63,3.63,0,0,0,.43,1.78,4.72,4.72,0,0,1,.07,4.45,4.21,4.21,0,0,0-.4,1.56c-.2,2.46-.38,4.93-.51,7.4a5.64,5.64,0,0,1-1,3.48,4.21,4.21,0,0,0-.72,1.92,10.71,10.71,0,0,1-3.2,6c-.93.92-1.94,1.77-2.9,2.67a4.87,4.87,0,0,1-3.76,1.52,6.08,6.08,0,0,0-2.92.6,11.77,11.77,0,0,1-2.23.6,21.37,21.37,0,0,1-2.5.45,24.88,24.88,0,0,1-3.23.13,14,14,0,0,0-3.23,0,4.51,4.51,0,0,1-1.38-.1c-.31,0-.63-.25-.9-.18-1.71.43-3.37-.27-5.06-.2s-3.4.25-5.09.24-3.23-.25-4.85-.3c-3.75-.12-6.74-2.08-9.76-4a3.6,3.6,0,0,1-.95-1.26,12.52,12.52,0,0,0-1.51-2.58c-1.36-1.35-2-3.1-3.06-4.63a1.65,1.65,0,0,1-.32-.61c-.27-1.9-1-3.7-1.1-5.63a8.17,8.17,0,0,0-.16-1.83,37.43,37.43,0,0,1-.76-5.5,1.47,1.47,0,0,1-.06-.46c.47-2,0-4-.14-6a2.85,2.85,0,0,1,0-.7,16.35,16.35,0,0,0-.3-6.43,5.61,5.61,0,0,1,.17-2.06c.23-1.45.55-2.89.74-4.35.16-1.22.19-2.46.26-3.69,0-.77.08-1.54.08-2.32a12.52,12.52,0,0,0-.12-2.31,6.63,6.63,0,0,1-.15-2.75.8.8,0,0,0,0-.46c-1-2.17-.25-4.61-1.11-6.83a5.31,5.31,0,0,1,.21-3.87,5.73,5.73,0,0,0,.27-3.38,12.8,12.8,0,0,1-.2-4.82,22.94,22.94,0,0,0,0-3.94c0-.31,0-.62,0-.93a38.15,38.15,0,0,0,0-8.07,2.15,2.15,0,0,1,.06-.92A8.18,8.18,0,0,0,254,279a6.1,6.1,0,0,1,0-2.75,34.68,34.68,0,0,0,1-9.19,4.81,4.81,0,0,1,.11-1.38,4.53,4.53,0,0,0-.28-3,10.68,10.68,0,0,1-.54-5.93,7.49,7.49,0,0,0-.33-3.42,3.43,3.43,0,0,1,0-2.71,9.67,9.67,0,0,0,.68-3.39,17.2,17.2,0,0,1,1-4.51c.6-1.67,1-3.41,1.44-5.13a15.63,15.63,0,0,0,.56-2.25c.22-1.87,1.39-3,2.77-4.11,1.22-.95,2.41-1.93,3.62-2.89a6.41,6.41,0,0,1,1.47-1.12c2.67-1,5.34-2.07,8.27-2.08a2.39,2.39,0,0,1,.92.09,2.79,2.79,0,0,0,2.83-.39,6.27,6.27,0,0,1,3.61-.59c.77,0,1.53.24,2.3.3a8.31,8.31,0,0,0,2.29,0,9.9,9.9,0,0,1,4.81,0,8.52,8.52,0,0,0,3.21.23,18.72,18.72,0,0,1,4.85.2c1.6.22,3.2.49,4.79.78a3.3,3.3,0,0,1,1.3.48c3.11,2.21,6.06,4.56,7.35,8.38a8.91,8.91,0,0,0,.67,1.47,17.2,17.2,0,0,1,1.8,5.24,18.69,18.69,0,0,0,1,3.57,10.2,10.2,0,0,1,.88,5.2,13.44,13.44,0,0,0,0,1.62Zm-35,93.87.39,4.52c0,.15,0,.31,0,.46.37,2,3,3.53,4.61,2.54a4.23,4.23,0,0,0,2.41-3.7,19.56,19.56,0,0,1,.16-2.31c.25-2.22.82-4.41.35-6.67a2.88,2.88,0,0,1,.09-1.15,7.82,7.82,0,0,0-.17-3.67,6.32,6.32,0,0,1-.12-2.73c.38-2.28.61-4.59.84-6.9a7.71,7.71,0,0,0-.18-1.83c-.16-1.07-.44-2.13-.49-3.2-.08-1.77-.07-3.56,0-5.33,0-1.23.2-2.46.31-3.68a15.39,15.39,0,0,0-.13-5.3,4.73,4.73,0,0,1,.11-3,4.47,4.47,0,0,0,0-3.19,5.79,5.79,0,0,1-.07-3.63,4,4,0,0,0,0-2.28,8.62,8.62,0,0,1-.4-5,7.73,7.73,0,0,0,0-1.16c.09-1.85.21-3.7.26-5.55a11.35,11.35,0,0,0-.12-2.75,12.05,12.05,0,0,1-.11-4.36c.22-1.53.37-3.07.53-4.6a15.67,15.67,0,0,0-.21-4.62,11.12,11.12,0,0,1-.26-1.83c0-1.85-.05-3.71,0-5.56a24,24,0,0,1,.29-3.22,11.83,11.83,0,0,0-1.32-8.06,3,3,0,0,0-1.62-1.58,21.75,21.75,0,0,0-2.46-.66,1.81,1.81,0,0,0-2.28,1.1,14.62,14.62,0,0,0-1.34,4.42,5.67,5.67,0,0,0,.18,3.42,9.6,9.6,0,0,1,.41,4.11c-.09,1.93,0,3.86-.05,5.79,0,1.54-.05,3.08-.06,4.63a23.62,23.62,0,0,0,.08,3.46,11.4,11.4,0,0,1,0,3.68,8.85,8.85,0,0,0,.17,4.81,4.89,4.89,0,0,1,.19,1.37c.07,1,.14,2,.17,3a12.52,12.52,0,0,1-.09,1.38c0,.61-.14,1.23-.15,1.84-.07,3.09-.09,6.18-.21,9.27a27.61,27.61,0,0,1-.49,4.6c-.5,2.38,0,4.78-.25,7.15a2.66,2.66,0,0,0,.3,1.11,9.53,9.53,0,0,1,.42,3.89c-.07,2.16,0,4.32,0,6.48,0,1.31-.06,2.62-.07,3.93a26.27,26.27,0,0,0,.06,3.69,11.47,11.47,0,0,1,0,3.69,9.16,9.16,0,0,0,.09,4.59,9,9,0,0,1,.18,1.61,23.78,23.78,0,0,1,.38,3,26.2,26.2,0,0,1-.37,3A8.13,8.13,0,0,0,281.55,345.73Zm-6.39-71.81a16.1,16.1,0,0,0-2.44.82,1.89,1.89,0,0,0-1,2.12.94.94,0,0,0,1.36.77,7.81,7.81,0,0,1,3.38-1.31.89.89,0,0,0,.74-1,2,2,0,0,0-.73-1.07A3.84,3.84,0,0,0,275.16,273.92Zm4.12-43.64c-.62-.23-1.17-.5-1.76-.65a1.07,1.07,0,0,0-1.19.51,1.19,1.19,0,0,0-.09,1.31,2.17,2.17,0,0,0,2.56,1.05,14.44,14.44,0,0,0,2.58-1.48,1.26,1.26,0,0,0,.25-1c-.06-.41-.67-.6-1.15-.39A12.87,12.87,0,0,0,279.27,230.28Zm22.73,0a13.69,13.69,0,0,0-.38-1.56.93.93,0,0,0-1.35-.44,2.66,2.66,0,0,0-.58,3.83,1.11,1.11,0,0,0,1.88-.29A10.91,10.91,0,0,0,302,230.3ZM270.62,239c.26-.16.75-.3.83-.56a17.23,17.23,0,0,0,.67-2.87,1,1,0,0,0-1.23-1,2.39,2.39,0,0,0-1,4.13C270,238.83,270.3,238.85,270.62,239Zm38.28,29.3a3.83,3.83,0,0,0,.19.68,1.21,1.21,0,0,0,1.94.23,2.56,2.56,0,0,0,.2-2.79,1,1,0,0,0-1.58-.16A2.52,2.52,0,0,0,308.9,268.26ZM262,276.71c-.09.85.29,1.53.91,1.65a1.39,1.39,0,0,0,1.52-1.11,2.41,2.41,0,0,0,.1-.45,1.46,1.46,0,0,0-1-1.65c-.64-.17-1.27.3-1.5,1.11C262.1,276.4,262.08,276.56,262,276.71Zm5.87-1.52a6.32,6.32,0,0,0-.79.24,1.36,1.36,0,0,0-.85,1.67c.25.58,1.05.74,1.82.33a1.16,1.16,0,0,0,.53-.42c.15-.33.36-.79.23-1S268.21,275.41,267.92,275.19Zm-2,89.1a1.58,1.58,0,0,0-1.06-1.74,1.34,1.34,0,0,0-1,.2c-.42.3-.39.91-.06,1.44s1,1,1.49.73A2.46,2.46,0,0,0,266,364.29ZM277.2,245.08a1.15,1.15,0,0,0-2.27.21,1,1,0,0,0,1.09.9A1.16,1.16,0,0,0,277.2,245.08Zm9.92-19.9a1.22,1.22,0,0,0-1,1.48,1,1,0,0,0,.85.91,1.25,1.25,0,0,0,1.18-1.38A1,1,0,0,0,287.12,225.17Zm-11.86,62.34c-.18-.15-.43-.49-.73-.56-.5-.11-.92.42-.94,1.07,0,.4.08.8.55.88S275.22,288.42,275.26,287.51Zm14.79,76.4a.83.83,0,0,0-.94-.73.94.94,0,0,0-.62,1.05.67.67,0,0,0,.8.58A.81.81,0,0,0,290.06,363.92Zm17.2-58.18c-.3.34-.57.52-.66.76a.64.64,0,0,0,.64.76c.24-.05.64-.37.61-.5A3.64,3.64,0,0,0,307.25,305.73Zm-32.83-50.24a2.65,2.65,0,0,0-.23-.44,7.45,7.45,0,0,0-.72.28c.07.11.14.33.2.33A4.66,4.66,0,0,0,274.42,255.49Z"/><path class="cls-1" d="M102.53,269.76l1.37-1c-.08-.23-.09-.54-.23-.62a2.4,2.4,0,0,1-1.28-2.91,6,6,0,0,0,0-2.31,41.16,41.16,0,0,1-.34-6.49,15.63,15.63,0,0,0-.33-2.28,10.48,10.48,0,0,1-.37-1.81c0-1.39.29-2.79.18-4.16a13.23,13.23,0,0,1,0-3.91,13.78,13.78,0,0,0,.2-2.31,6.05,6.05,0,0,1,1.49-4.27,2,2,0,0,0,.49-1.71,20.87,20.87,0,0,1-.11-2.76,6.13,6.13,0,0,1,3.87-5.83c1.33-.59,2.71-1.06,4.15-1.61.31.48.56.94.88,1.36a.93.93,0,0,0,1.23.33,1.39,1.39,0,0,0,.51-.92,6.85,6.85,0,0,0-.11-1.46,9.36,9.36,0,0,1,5.7-.44,9.94,9.94,0,0,0,3.67.23,34.8,34.8,0,0,1,8.3,0,2.34,2.34,0,0,0,.92,0,4,4,0,0,1,3.78.81c.22,0,.32,0,.37,0a8,8,0,0,1,5.76-1.18,1.24,1.24,0,0,0,.46,0,3.74,3.74,0,0,1,4,1.21,12.41,12.41,0,0,1,6.42.37c2.18.58,3.64,2.25,5.44,3.38a2.56,2.56,0,0,1,1,2.29,5.56,5.56,0,0,0,.91,3.05,4.32,4.32,0,0,1,.52,2.92,7.21,7.21,0,0,0,.25,3.44,5.34,5.34,0,0,1,.08,2.52,11.55,11.55,0,0,0,.14,4.84,9.7,9.7,0,0,1,0,4.6,30.12,30.12,0,0,0-.59,7.82c0,2.17.49,4.3.42,6.46-.07,2.4-.19,4.8-.21,7.19a13.43,13.43,0,0,0,.26,3.22,12.43,12.43,0,0,1,0,4.83,19.32,19.32,0,0,0-.25,3.22c0,2.16.19,4.32.27,6.49,0,.46-.14.92-.15,1.37,0,1.15,0,2.31,0,3.46a23.34,23.34,0,0,1,0,2.53,16.93,16.93,0,0,0,.19,5.77,7.87,7.87,0,0,1-.06,3.91,28.35,28.35,0,0,0-.57,7.81c0,2.09.45,4.15.4,6.23-.06,2.48-.18,5-.21,7.43a12.12,12.12,0,0,0,.22,3,12,12,0,0,1,.05,5.06,8.31,8.31,0,0,0-.21,2.07c.16,2.16-.18,4.33.29,6.49a5.62,5.62,0,0,1-.12,2.07,12.24,12.24,0,0,0,0,4.16,5.56,5.56,0,0,1,.05,2.06,19.86,19.86,0,0,0-.31,5.32,10.31,10.31,0,0,1-2.74,7.88,16.7,16.7,0,0,1-1.21,1.4,8.41,8.41,0,0,1-1.89,1.29c-1.12.52-2.29.92-3.46,1.33a10.71,10.71,0,0,1-1.58.36c-1.9.35-3.8.71-5.7,1a6.35,6.35,0,0,1-1.62.12c-2.15-.19-4.3-.44-6.46-.65a10.46,10.46,0,0,0-2.3-.15c-3.55.45-7.11.2-10.66.35-.85,0-1.71,0-2.55.06-2.09.15-4.13-.41-6.18-.61a51.12,51.12,0,0,1-7.18-1.76,3.47,3.47,0,0,1-2.16-1.6c-.84-1.29-1.85-2.48-2.74-3.74a5.14,5.14,0,0,1-1.12-4.13,4,4,0,0,0-.12-1.61,16.19,16.19,0,0,1-.17-5.08,2.91,2.91,0,0,1,.8-2.09,1.22,1.22,0,0,0,.37-1c-.61-1.44,0-3.11-.93-4.5a2,2,0,0,1,0-1.33,18.32,18.32,0,0,0,.18-7.57,10.59,10.59,0,0,1,.07-4.82,10.18,10.18,0,0,0,.16-2.29c0-1.16.05-2.32.07-3.48,0-.69,0-1.39,0-2.08a10.7,10.7,0,0,1-.08-1.16c.37-4-.23-8-.19-12a7.93,7.93,0,0,0-.39-3,3.79,3.79,0,0,1-.3-1.36c0-1.46.26-2.94.14-4.39a16.16,16.16,0,0,1-.06-4.14c.33-1.9.47-3.83.63-5.75a10.24,10.24,0,0,0-.25-1.59,6.45,6.45,0,0,1-.06-2.28,17.79,17.79,0,0,0,.26-7.59,11.42,11.42,0,0,1,.28-5.71,3.46,3.46,0,0,0,.1-1.82C102,273.58,102.54,271.68,102.53,269.76Zm33.85,82.38a3,3,0,0,1-.76-3.68,13,13,0,0,0,.48-5.73c-.06-1,0-2,0-3,0-2.39,0-4.78,0-7.17,0-2.16-.34-4.32-.27-6.48.11-3.47.56-6.93.2-10.41a5.57,5.57,0,0,1,0-.93,17.36,17.36,0,0,0-.61-6.44,5.64,5.64,0,0,1-.12-2.51c.32-2.37.53-4.76.8-7.14a5.31,5.31,0,0,0-.27-3,5,5,0,0,1-.12-3.6c.53-2.17,1-4.36.32-6.62a6.77,6.77,0,0,1,0-2.07,14.23,14.23,0,0,0,.09-2.08c-.41-3.31.17-6.66-.46-10a3.38,3.38,0,0,1,0-.93c.18-2,.41-4,.56-6a31.07,31.07,0,0,0,.18-5.06,27.27,27.27,0,0,1-.27-3,11.46,11.46,0,0,0-.51-3.89,6.75,6.75,0,0,1-.32-3.2,15.55,15.55,0,0,0,.09-3,1.78,1.78,0,0,0-1.19-1.83,16.11,16.11,0,0,0-3.42-.54,2.59,2.59,0,0,0-2.59,1.65c-1.08,2.52-1.95,5.06-1.09,7.87a6.28,6.28,0,0,1,.27,2.51,20.44,20.44,0,0,0,.15,6.67,50.66,50.66,0,0,1,.6,5.05,3.29,3.29,0,0,1-.07,1.15,23.89,23.89,0,0,0-.38,5.31c-.06,1.46-.26,2.92-.34,4.39a7.66,7.66,0,0,0,.06,2.53,7.1,7.1,0,0,1-.07,3.65,11.78,11.78,0,0,0-.35,3.2c.17,2.46.52,4.92.76,7.38a8.15,8.15,0,0,1,0,2.07,28.3,28.3,0,0,0-.44,5.31,9.1,9.1,0,0,1-.25,2.07,9.46,9.46,0,0,0,.1,5,3.39,3.39,0,0,1,0,2.5,2.17,2.17,0,0,0,0,1.79,5.25,5.25,0,0,1,.38,2.73,18.07,18.07,0,0,0,.35,5.76,6.79,6.79,0,0,1,.1,2.52,29.37,29.37,0,0,0-.33,4.85c-.06,1.54-.18,3.09-.36,4.62a6.35,6.35,0,0,0,.1,3,4.71,4.71,0,0,1,0,2.72,13,13,0,0,0-.39,3.9c.29,2.91.33,5.84,1.26,8.69a4,4,0,0,0,3,2.92,3.69,3.69,0,0,0,4.43-2C135.82,353.33,136,352.84,136.39,352.15ZM111.51,233.48c-.07-.15-.1-.44-.26-.56a1.78,1.78,0,0,0-1.74-.27,1.73,1.73,0,0,0-1.21,1.28,1.3,1.3,0,0,0,.77,1.3A1.89,1.89,0,0,0,111.51,233.48Zm15.54-7a10,10,0,0,0-1.22.31,1.05,1.05,0,0,0-.7,1.06,1.09,1.09,0,0,0,1.08,1,3.9,3.9,0,0,0,1.3-.34c.51-.23.82-1,.53-1.33A3.56,3.56,0,0,0,127.05,226.48Zm-14.28,22.1a2.43,2.43,0,0,0-.56-.74,1.06,1.06,0,0,0-.86,0,1.48,1.48,0,0,0-.91,1.68,1,1,0,0,0,1.05.69A1.66,1.66,0,0,0,112.77,248.58Zm7.06,17.15a1.24,1.24,0,0,0,1.34-1.22,1,1,0,0,0-.87-1.12,1.2,1.2,0,0,0-1.44,1.07A1.08,1.08,0,0,0,119.83,265.73ZM158.69,239c-.22-.15-.53-.51-.89-.58-.51-.1-.94.5-.82,1.06a.81.81,0,0,0,.75.71C158.27,240.21,158.74,239.73,158.69,239Zm-4.55,42.82c-.38-.37-.59-.72-.89-.83a.67.67,0,0,0-.9.49.71.71,0,0,0,.71.94C153.38,282.36,153.66,282.08,154.14,281.8Z"/><path class="cls-2" d="M463,336.75c-.54,0-.92,0-1.3,0-1.17.06-1.65.77-1.25,1.86a2.09,2.09,0,0,0,1.62,1.49l1.4.27c.1,2,.26,3.92-.84,5.72,1.08,1.53,1.15,3.34,1.42,5.08a7.23,7.23,0,0,1,0,2.54c-.78,3.72-.79,7.52-1.37,11.25-.54,3.47-2.16,6.08-5.66,7.24a6.44,6.44,0,0,0-1.49.62,8,8,0,0,1-4.44,1.08c-1.07,0-2.14.28-3.21.32-2.14.1-4.26.65-6.44,0a10.17,10.17,0,0,0-5.28.28,7.87,7.87,0,0,1-3.42.07,23.63,23.63,0,0,0-4.16-.21c-2.71,0-5.41,0-8.12.05a2.37,2.37,0,0,1-.69-.05,25.84,25.84,0,0,0-6.17-.81,24.37,24.37,0,0,1-4.94-1.19,4.82,4.82,0,0,1-2.56-1.91c-.78-1.06-1.49-2.17-2.26-3.23a5,5,0,0,1-.89-3.51,5.32,5.32,0,0,0-.08-2.05,30.92,30.92,0,0,1-1-9,26.49,26.49,0,0,1,.31-5.08,9.54,9.54,0,0,0-.29-4.82,3.34,3.34,0,0,1,.15-2.9,3.93,3.93,0,0,0,.19-2.95,9.06,9.06,0,0,1-.09-4.14,4.72,4.72,0,0,0-.27-2.5,6.42,6.42,0,0,1-.42-2.48c.19-1.78.21-3.55.24-5.32,0-2.86.16-5.71.24-8.57a9,9,0,0,1,.1-2.06,6.06,6.06,0,0,1,.92-1.51,7,7,0,0,1-.65-3.86c0-1.23-.16-2.46-.26-3.69,0-.46-.16-.92-.17-1.38,0-2.24-.16-4.49-.06-6.72a44.08,44.08,0,0,1,.71-5.51,2.76,2.76,0,0,0-.25-2,3.5,3.5,0,0,1-.19-3.54,3.44,3.44,0,0,0,0-2.93,5.28,5.28,0,0,1-.07-3.85,3.28,3.28,0,0,0-.11-2.49,6.59,6.59,0,0,1-.45-3.19c.11-2.39.23-4.78.35-7.17a19.84,19.84,0,0,1,.19-2.31,4.87,4.87,0,0,0-.21-2.74,4.05,4.05,0,0,1-.19-2.27c.24-1.45.34-2.92.55-4.37a18.19,18.19,0,0,0-.12-6.47,11,11,0,0,1,.32-4.13,15.81,15.81,0,0,0,.37-2.28,10,10,0,0,1,1.2-4.67c.43-.82.74-1.7,1.11-2.55a10.17,10.17,0,0,1,3.55-4.49,5.43,5.43,0,0,1,3-1.13,10.93,10.93,0,0,0,2-.42c1.35-.3,2.7-.64,4.06-.91a26.43,26.43,0,0,1,6.22-.53,3.52,3.52,0,0,0,1.13-.21,4.7,4.7,0,0,1,3,0,6.54,6.54,0,0,0,3.89.09,3.56,3.56,0,0,1,1.6-.14,32.83,32.83,0,0,0,7.63.28,3,3,0,0,1,2.48.91,6.06,6.06,0,0,0,2.41,1.31,3.54,3.54,0,0,0,3.1-.57c.58-.37,1.11-.82,1.64-1.21a2.7,2.7,0,0,1,.74.2c1.44,1,1.45,1,2.79-.26a2.09,2.09,0,0,1,1.89-.63,20.2,20.2,0,0,0,5.29.43,3.39,3.39,0,0,1,1.35.28,1.38,1.38,0,0,1,1,1.42c0,.46-.17.92-.18,1.38-.06,3.47-.41,7,.32,10.41a6.79,6.79,0,0,1,.08,2.08c-.3,2.92-.65,5.83-1,8.74,0,.14-.15.27-.3.53a4.34,4.34,0,0,1-1.22-.19,19.35,19.35,0,0,0-5.11-1.48c-1.37-.21-2.74-.47-4.09-.75a11,11,0,0,0-4.82.34,5.94,5.94,0,0,1-2.53.07,44.75,44.75,0,0,0-10.84-.44c-.77,0-1.55.06-2.32.14-1.89.2-2.59.86-2.92,2.71a5.37,5.37,0,0,0-.07,1.16c.12,2.7-.37,5.41.07,8.11a3.32,3.32,0,0,1-.23,1.35c-.13.44-.37.85-.5,1.29-.55,1.89-.88,3.77.25,5.59a11.88,11.88,0,0,1,.53,1.29,2.45,2.45,0,0,1,0,2.23,5.1,5.1,0,0,0-.38,4,2.43,2.43,0,0,1,0,1.35,7,7,0,0,0,.13,4.33,12.55,12.55,0,0,1,.51,3.65,70.75,70.75,0,0,1-.66,9,23.14,23.14,0,0,0,.25,8.3,5.73,5.73,0,0,1,.13,3,6.7,6.7,0,0,0-.11,1.62c0,2.09-.09,4.18,0,6.27a13.18,13.18,0,0,1-.65,5.86,6.09,6.09,0,0,0,.46,5.79,5.76,5.76,0,0,1,.55,1.28,2,2,0,0,1-.1,1.8,4.46,4.46,0,0,0-.44,4.21,2.79,2.79,0,0,1-.1,1.35,8.54,8.54,0,0,0,.15,4.35,23.55,23.55,0,0,1,.44,7.84c-.06,1.39-.22,2.77-.37,4.16a2.45,2.45,0,0,0,1.49,2.62,8.18,8.18,0,0,0,5.21.6c.87-.12,1.27-.65,1.3-1.66.06-2,0-4,.06-6,0-1.47,0-2.94,0-4.41a11.2,11.2,0,0,1,.43-2.74,3,3,0,0,0-.53-3,3,3,0,0,1-.32-3.86c1-1.69,1.25-3.27.12-5a2.26,2.26,0,0,1-.16-1.34c.1-1.15.27-2.3.43-3.44a8.13,8.13,0,0,1,.26-1.36,7.23,7.23,0,0,0,.24-4.55,2.3,2.3,0,0,1,.39-2,1.65,1.65,0,0,0-.06-2.14,3.13,3.13,0,0,1-.62-2.84,2,2,0,0,0,0-.92c-.59-2.21-.33-4.47-.28-6.7a7.39,7.39,0,0,0-.53-2.93c-.53-1.37-1-2.76-1.41-4.17-.35-1.22,0-1.82,1.3-1.84,1.69,0,3.39.18,5.09.24a35.34,35.34,0,0,0,4.16,0,19.24,19.24,0,0,1,5.3.11,9.89,9.89,0,0,0,2.3-.06c.77,0,1.54-.15,2.3-.12,1.77.05,3.54.19,5.32.25.53,0,1.07-.17,1.6-.19a1.31,1.31,0,0,1,1.41,1.82,3.41,3.41,0,0,0,.16,3.09,2.9,2.9,0,0,1,.1,1.56,55.92,55.92,0,0,0-.52,9.93c0,.77.18,1.53.29,2.3a8.93,8.93,0,0,1,.17,1.15c0,2.47,0,4.95-.06,7.41a7.52,7.52,0,0,0,.54,3.85,1.85,1.85,0,0,1-.07,2,4.39,4.39,0,0,0-.54,2.45c0,1-.18,2-.22,3a5.85,5.85,0,0,0,.11,1.82A5.76,5.76,0,0,1,463,336.75ZM409.75,238.9a1.53,1.53,0,0,0-1.36-1.59,1.21,1.21,0,0,0-1.4,1.18,1.62,1.62,0,0,0,1.35,1.63A1.31,1.31,0,0,0,409.75,238.9Zm34.4,91a1.21,1.21,0,0,0,1.19-1.36,1.24,1.24,0,0,0-1.35-1,1.27,1.27,0,0,0-1.21,1.14A1.2,1.2,0,0,0,444.15,329.95ZM455,308.21A1.13,1.13,0,0,0,453.9,307a1.07,1.07,0,0,0-1.19,1.09,1.25,1.25,0,0,0,1.32,1.28A1.07,1.07,0,0,0,455,308.21Zm-6.81-.55a1.19,1.19,0,0,0,1.29-1.24,1,1,0,0,0-.79-1,1.27,1.27,0,0,0-1.42,1.13A1,1,0,0,0,448.15,307.66Zm-7.61-8.3a.81.81,0,0,0-.81-.87,1.28,1.28,0,0,0-1.33,1.24.85.85,0,0,0,.84.85A1.19,1.19,0,0,0,440.54,299.36Zm15.57,41.7a1.26,1.26,0,0,0-1-1.31.69.69,0,0,0-.56.25,1.12,1.12,0,0,0,.33,1.57A.79.79,0,0,0,456.11,341.06Zm-46.58-82.72a.89.89,0,1,0-1.77.07.83.83,0,0,0,.79.9A.93.93,0,0,0,409.53,258.34Zm40,58.17c.54.31.88.66,1.25.69s.65-.36.62-.8-.56-.91-1-.75S449.91,316.11,449.5,316.51Zm-34,46.67c-.34-.28-.57-.61-.75-.59a.81.81,0,0,0-.55.56c0,.19.32.53.53.56S415.2,363.45,415.55,363.19ZM453,336.36a3,3,0,0,0-.29.94c0,.15.38.41.44.37.21-.13.48-.36.49-.56S453.35,336.73,453,336.36Z"/><path class="cls-1" d="M51.19,308.87c-.15-.57-.25-.85-.29-1.14-.15-1-.29-2-.42-3a12,12,0,0,1-.33-2.74c.32-3.16.12-6.32.25-9.47.06-1.57.26-1.89,1.77-2.24.9-.21,1.82-.34,2.74-.49a10.12,10.12,0,0,0,4.1-1.51,3.34,3.34,0,0,0,1.6-2.16c0-.23.1-.46.12-.69a1.78,1.78,0,0,1,1.5-1.8,2.94,2.94,0,0,0,.82-.51,3.3,3.3,0,0,0-.33-.89,7.85,7.85,0,0,1-1.27-6.63,10.18,10.18,0,0,0-.1-4.57,12.34,12.34,0,0,1-.2-3.22,28,28,0,0,0-.24-5.09,10.71,10.71,0,0,1,0-3,34.19,34.19,0,0,0-.74-12.88,5.36,5.36,0,0,0-2-3,2,2,0,0,0-2.89.18,6.76,6.76,0,0,0-1,1.53c-.35.69-.6,1.43-.93,2.12a3.05,3.05,0,0,0-.22,2.25,5.48,5.48,0,0,1-.06,3.2,3.05,3.05,0,0,0-.17,1.37c.49,2.85-.08,5.7-.06,8.54,0,1.3-.46,1.81-1.67,1.64-5.17-.7-10.37,0-15.54-.5-1.54-.13-3.09-.19-4.63-.18-1,0-2,.18-3,.28a3.42,3.42,0,0,1-.44-.86c-.58-3.45-1-6.91,0-10.36.56-1.91.22-3.85.18-5.78a3.3,3.3,0,0,0-.77-1.63,2.85,2.85,0,0,1-.44-2.63,17.61,17.61,0,0,0,.71-2.92,3.82,3.82,0,0,1,1.54-2.92,17.15,17.15,0,0,1-.69-1.58,4.08,4.08,0,0,1,.2-3.38c.45-.8.92-1.61,1.43-2.38s1.05-1.34,1.52-2a5.56,5.56,0,0,1,2.27-1.93,3.08,3.08,0,0,1,3.67.24c1,.77,1.42.68,2.09-.34a2.1,2.1,0,0,1,2.48-1.18,4.82,4.82,0,0,0,1.38-.07,50.52,50.52,0,0,1,10.87.13c.9.14,1.81.23,2.9.36a13.39,13.39,0,0,0-.66,1.6,2.4,2.4,0,0,0,0,1.13,1.1,1.1,0,0,0,1.7.54,2,2,0,0,0,.14-3c-.13-.16-.24-.33-.39-.53a2.19,2.19,0,0,1,1.92-.73c1.69.13,3.4.25,5.07.52a15.89,15.89,0,0,0,4.38.27,5.71,5.71,0,0,1,2.29.22,12.57,12.57,0,0,0,3.88.56,24.38,24.38,0,0,1,2.55.18,5,5,0,0,1,4.15,2.58c.68,1.21,1.56,2.31,2.27,3.5a25.38,25.38,0,0,1,2.67,6.66,16,16,0,0,1,.34,7.35,11.28,11.28,0,0,0-.17,3.69,10.64,10.64,0,0,1,0,1.61q-.09,2.78-.21,5.56a9.8,9.8,0,0,1-.14,1.38,22.44,22.44,0,0,0,0,7.85,8.64,8.64,0,0,1,0,2.76,12.29,12.29,0,0,0-.16,2.77c.16,2.08.41,4.15.68,6.22a3.71,3.71,0,0,1-.33,2.47,2.91,2.91,0,0,0-.4,2.23,7.28,7.28,0,0,1-.24,3.89,6.89,6.89,0,0,0-.2,2.51,7.16,7.16,0,0,1-1.29,5,14.75,14.75,0,0,1-3.08,3.44,7.72,7.72,0,0,0-1.34,1.28,1.39,1.39,0,0,0,.32,2.34c.85.54,1.74,1,2.62,1.49a5,5,0,0,1,2.86,4.44,48.23,48.23,0,0,1,.09,7.15,59.09,59.09,0,0,0,.42,8.08,13,13,0,0,1,.07,2.52,16.92,16.92,0,0,0,0,5.53c.27,1.44.37,2.91.56,4.37a3.06,3.06,0,0,1-.42,2,3.74,3.74,0,0,0-.37,2.7,1.9,1.9,0,0,1,.12.68c-.55,2.45.14,4.92-.07,7.38a7.63,7.63,0,0,0,.18,2.76,27.89,27.89,0,0,1,.66,5.75,5.44,5.44,0,0,1-.2,2.07,9.73,9.73,0,0,0-.37,3.9,5.77,5.77,0,0,1-.55,2.93,18.11,18.11,0,0,1-3.88,5.46,7.91,7.91,0,0,1-4.24,2.28c-4,.65-7.85,1.79-11.93,1.62a3.68,3.68,0,0,0-1.15.1,11.5,11.5,0,0,1-6.41-.18,12.43,12.43,0,0,0-4.82-.21,28.81,28.81,0,0,1-8.56,0,10.77,10.77,0,0,0-3.22,0,5.34,5.34,0,0,1-3-.25,6.2,6.2,0,0,0-2.72-.46A5,5,0,0,1,32,370.88a4.82,4.82,0,0,0-.75-.88c-2.21-1.86-2.74-4.4-2.92-7.08,0-.62,0-1.24,0-1.86a4.1,4.1,0,0,0-.81-2.84,3.74,3.74,0,0,1-.7-3.07c.23-1.69.43-3.38.77-5a4.34,4.34,0,0,0-.12-2.5,9.59,9.59,0,0,1-.54-3.88,7.47,7.47,0,0,0,0-1.39,33.52,33.52,0,0,1,.19-7.18,1.31,1.31,0,0,1,1.51-1.39c1.3,0,2.61.15,3.91.21A11.25,11.25,0,0,0,34,334c2.46-.24,4.91-.61,7.38-.73s5.09,0,7.63,0a12.44,12.44,0,0,1,1.59.3,1.91,1.91,0,0,1,1.87,1.95,17.3,17.3,0,0,1,.12,4.61,7.74,7.74,0,0,0,.3,3,5.57,5.57,0,0,1-.2,3.41c-1.11,2.95.46,5.07,2.19,7.11a2.37,2.37,0,0,0,3,.57,4.12,4.12,0,0,0,2.91-3.29c.11-.68.4-1.34.52-2a10.35,10.35,0,0,0,.12-1.83c0-2.47-.18-5,0-7.41a17.39,17.39,0,0,0-.22-5.07,6.49,6.49,0,0,1,.11-3.65,4.71,4.71,0,0,0,.06-2.73A12.71,12.71,0,0,1,61,322a4.09,4.09,0,0,0-.07-1.14c-.07-1.47,0-2.95-.24-4.4a24.36,24.36,0,0,0-1.1-5c-.89-2.41-4.3-3.83-6.8-3.05Zm18-79.51a3.8,3.8,0,0,0-2-2.81c-.21-.05-.7.19-.73.36a6.07,6.07,0,0,1-1.09,2.47,1.26,1.26,0,0,0,.5,1.77,2,2,0,0,0,2.17.05A2.12,2.12,0,0,0,69.24,229.36Zm10.07-.56a.86.86,0,0,0-1.09-.76c-.85.33-1.7.69-2.52,1.1a1.6,1.6,0,0,0-.73,1.77.9.9,0,0,0,1.39.67c.94-.65,1.83-1.37,2.7-2.11C79.25,229.3,79.27,228.92,79.31,228.8ZM49.9,352.09a1.35,1.35,0,0,0,1.36-1.28,1.53,1.53,0,0,0-1.52-1.43,1.19,1.19,0,0,0-1.32,1A1.57,1.57,0,0,0,49.9,352.09Zm19.18-89.41A1.91,1.91,0,0,0,71,261.21a1.12,1.12,0,0,0-.47-.91,1.7,1.7,0,0,0-2.16.71,1.37,1.37,0,0,0,0,1.07C68.49,262.38,68.89,262.55,69.07,262.69Zm1.22,15.76a1.09,1.09,0,0,0-.78-1.22,1.28,1.28,0,0,0-1.63.84,1,1,0,0,0,.78,1.2A1.25,1.25,0,0,0,70.29,278.45ZM38.51,237.51c-.25-.15-.59-.52-1-.53a1.37,1.37,0,0,0-1.38,1.49,1,1,0,0,0,1,.77A1.43,1.43,0,0,0,38.51,237.51Zm43.13,29.11c-.17.2-.6.48-.65.82a1.17,1.17,0,0,0,1.24,1.29.86.86,0,0,0,.88-.82C83.14,267.16,82.64,266.65,81.65,266.62ZM35.12,228.7c0-.56-.58-1.08-1.06-.94a1,1,0,0,0-.73,1,.93.93,0,0,0,.8.94A1,1,0,0,0,35.12,228.7Zm32.61,62.68c-.38-.35-.6-.69-.9-.78s-.71.21-.83.59.35,1,.75.91S67.31,291.7,67.73,291.38Zm-14-56.18a5.67,5.67,0,0,0-1-1c-.27-.16-.74.24-.78.58s.28,1,.72,1S53.24,235.46,53.69,235.2Zm11.47,137.4c.19-.18.52-.36.66-.65s-.27-1-.69-.94a.69.69,0,0,0-.71.71C64.4,372.13,64.58,372.43,65.16,372.59ZM63.58,246.46c-.42-.32-.67-.64-1-.71a.71.71,0,0,0-.8.85.64.64,0,0,0,.81.6C62.92,247.12,63.16,246.79,63.58,246.46ZM44,253.57c-.39-.4-.59-.73-.88-.87a.64.64,0,0,0-.83.54.66.66,0,0,0,.59.82C43.18,254.08,43.49,253.81,44,253.57Zm38.86,73.15c0,.57.53,1,1,.88a.92.92,0,0,0,.55-.56.68.68,0,0,0-.78-.82C83.29,326.27,83,326.58,82.86,326.73ZM39.72,255.28c-.36-.22-.59-.47-.71-.42a1.19,1.19,0,0,0-.55.54c0,.06.28.44.38.42S39.28,255.57,39.72,255.28Zm31.69-7.86-.17-.35c-.06,0-.16.07-.17.12a1.65,1.65,0,0,0,0,.36Z"/><path class="cls-2" d="M473.88,364.51a3.26,3.26,0,0,1,.59-.24c.65-.09,1.29-.25,1.24-1.07s-.64-.77-1.19-.87-.86-.56-.92-1.16a36.13,36.13,0,0,1,.41-6.94,2.11,2.11,0,0,1,2-2c1.67-.24,3.33-.84,5-.17,2.88-.16,5.68.65,8.55.69,1.7,0,3.41-.09,5.11-.08a2.62,2.62,0,0,0,2.74-2c.14-.44.32-.87.5-1.3a2.78,2.78,0,0,0,0-2.47,6.54,6.54,0,0,1-.44-5,6,6,0,0,0-.35-3.42,6.69,6.69,0,0,1-.09-4.1c.17-.59.17-1.22.29-1.83a3,3,0,0,1,.37-1.33c1-1.19,1.12-2.29,0-3.49a1.33,1.33,0,0,1-.14-.9c.24-2.72-.4-5.39-.36-8.1a8.06,8.06,0,0,1,.24-2.51c.55-1.56-.28-2.87-.58-4.27-.07-.33-.64-.67-1-.78a22.4,22.4,0,0,0-2.74-.46c-.46-.06-.94,0-1.39-.07-2.74-.48-5.53-.63-8.27-1a7.88,7.88,0,0,1-5.16-3.31c-.84-1.11-1.62-2.27-2.37-3.44a8.54,8.54,0,0,1-1.36-5.52,15.24,15.24,0,0,0-.37-5,3.15,3.15,0,0,1-.12-1.58,7.92,7.92,0,0,0-.25-4.35,11.25,11.25,0,0,1-.27-3.22,70.65,70.65,0,0,0-.13-11.8,5.33,5.33,0,0,1,0-1.16c.19-2,.46-4,.59-6a32.41,32.41,0,0,0-.06-3.93,36,36,0,0,1,0-3.69,16.84,16.84,0,0,0-.47-3.67,20.77,20.77,0,0,1,.16-7.83,12.48,12.48,0,0,0,.24-1.37,7.59,7.59,0,0,1,2-4.82,1.74,1.74,0,0,0,.35-2.32,3,3,0,0,1-.06-2.87,15.62,15.62,0,0,1,3.32-5.26c.57-.63,1.2-1.21,1.8-1.81a4.35,4.35,0,0,1,3.77-1.39,8.08,8.08,0,0,0,3.9-.29,2,2,0,0,1,.68-.11l7.65.16a3.87,3.87,0,0,0,.92.07,19.29,19.29,0,0,1,5.52,0,27.56,27.56,0,0,0,4.84-.44,15.55,15.55,0,0,1,4.61.06,16.15,16.15,0,0,0,4.84.27,8.44,8.44,0,0,1,2.09,0,1.78,1.78,0,0,1,1.85,2,18.41,18.41,0,0,1-.23,2.53,7.44,7.44,0,0,0-.21,1.36c.18,2.31.43,4.61.63,6.92.07.77.12,1.54.13,2.32a13.15,13.15,0,0,0,.4,3.91,2.37,2.37,0,0,1-.47,2.6,5.1,5.1,0,0,1-1.39.79,1.74,1.74,0,0,1-.9.19c-2-.28-4,.09-6,0a10.73,10.73,0,0,1-1.79-.47,6.1,6.1,0,0,0-2-.36,63.08,63.08,0,0,0-8,1.12c-1,.27-1.3.59-1.13,1.68a8.84,8.84,0,0,1-.37,4.12,5.58,5.58,0,0,0,0,3.21,8.59,8.59,0,0,1,.1,3.91,16.48,16.48,0,0,0-.14,2.77,14.88,14.88,0,0,1,.05,2.55c-.64,3.39.09,6.79-.23,10.18a5.93,5.93,0,0,0,.13,1.85,15.84,15.84,0,0,1,.06,6.89,5.69,5.69,0,0,0,.18,2.5,1.87,1.87,0,0,0,2.11,1.43c.54,0,1.09,0,1.63,0,3.92-.3,7.69.55,11.44,1.52a9.38,9.38,0,0,1,5.1,3.46,5.3,5.3,0,0,1,.7,1.19c.81,1.92,1.58,3.86,2.39,5.79a3.94,3.94,0,0,1,.37,2.7,4.36,4.36,0,0,0,.34,2.72,4.64,4.64,0,0,1,.1,2.95,9,9,0,0,0-.37,2.51c0,3.32.21,6.63.47,9.95.22,2.83.59,5.71-.1,8.55a7,7,0,0,0,0,3,14.81,14.81,0,0,1,.24,2.54c.07,3.7.16,7.41.12,11.11,0,1.77-.34,3.53-.48,5.3-.09,1.08-.15,2.16-.16,3.24a13.44,13.44,0,0,1-.37,4.6,3.8,3.8,0,0,0-.15,1.38,10.67,10.67,0,0,1-1.26,4.4c-1.08,2.63-3.36,4.2-5.05,6.28a3.55,3.55,0,0,1-1.14.78,1.87,1.87,0,0,1-2.16-.16c-1.71-1.24-2-1.13-2.72.83-.08.22-.16.43-.26.64s-.1.11-.17.18c-.72.4-1.5.1-2.26.1-1.54,0-3.09,0-4.63,0a12.9,12.9,0,0,1-2.31-.06,5.3,5.3,0,0,0-2.51,0,2.05,2.05,0,0,1-1.15,0,10.58,10.58,0,0,0-6,.13,8.21,8.21,0,0,1-3.42,0,26.86,26.86,0,0,0-4.39-.16c-2.79,0-5.57.09-8.36.09-1.33,0-1.94-.56-1.87-1.81a24.68,24.68,0,0,0-.47-6.46A9.28,9.28,0,0,1,473.88,364.51Zm11.94-115.9a4.28,4.28,0,0,0-.59.09c-.61.17-1.16.43-1.31,1.12a1.41,1.41,0,0,0,.6,1.4c.46.4,1,.76,1.43,1.14a1.46,1.46,0,0,0,1.71.15,1.83,1.83,0,0,0,.79-2A2.62,2.62,0,0,0,485.82,248.61Zm26.71,113.62.14-.07-.15-.05Z"/><path class="cls-2" d="M242.26,319.72c.17.35.21.59.31.61,1.31.31,1.62,1.26,1.63,2.44,0,1.39.07,2.79.09,4.18a5.85,5.85,0,0,1-.07,1.62c-.77,2.77-.23,5.54-.09,8.31.08,1.69.33,3.38.49,5.07a5.33,5.33,0,0,1,0,.92c-.19,2.31-.42,4.62-.56,6.94a14.86,14.86,0,0,1-.47,3.43,7.45,7.45,0,0,0-.12,2.06c0,.77.12,1.55,0,2.32a36.83,36.83,0,0,0-.57,5.52,2,2,0,0,1-.21.9,17,17,0,0,1-3.39,5.47c-.78.75-1.56,1.51-2.3,2.3a3.75,3.75,0,0,1-3.29,1.38,2.88,2.88,0,0,0-2.37.69,3.52,3.52,0,0,1-2.83.73c-1.62-.12-3.24-.23-4.85-.42a5.46,5.46,0,0,0-2.74.22,4.52,4.52,0,0,1-3.18.09,12.24,12.24,0,0,0-6.87.11,7,7,0,0,1-2.73,0,30.88,30.88,0,0,0-4.38-.24c-2.86,0-5.72.08-8.59.09a1.6,1.6,0,0,1-1.8-1.68,4.24,4.24,0,0,1,0-1.16,13.87,13.87,0,0,0-.52-5.73,10.12,10.12,0,0,1-.22-4.13c.17-1,0-2,.09-3,.12-1.62.29-3.23.45-4.85a1.72,1.72,0,0,1,1.65-1.67,25.09,25.09,0,0,1,5.29-.29c2.53.3,5.06.59,7.6.83a42.54,42.54,0,0,0,6-.11,2.92,2.92,0,0,0,2.82-2.33,6.29,6.29,0,0,0,.25-3.42,20.84,20.84,0,0,1-.41-5.53,10.32,10.32,0,0,0-.45-3.89,3.35,3.35,0,0,1-.12-1.8,30,30,0,0,0,.63-6.68c0-1.23.25-2.47.24-3.7a30.9,30.9,0,0,0-.33-5.29,22.93,22.93,0,0,1-.31-4.38c0-1,0-2,0-3a1.44,1.44,0,0,0-1.24-1.47,18.73,18.73,0,0,0-3.21-.48,19,19,0,0,1-4.13-.57,6,6,0,0,0-1.61-.2,3.63,3.63,0,0,1-2.77-.95,1.88,1.88,0,0,0-1.72-.5c-2,.38-3.13-.77-3.91-2.24a14.91,14.91,0,0,0-2.29-3.18,6.62,6.62,0,0,1-1.65-5.57,13.72,13.72,0,0,0-.23-5.73,3.4,3.4,0,0,1,1-4c.82-.66.62-1.25-.36-1.7l-1.08-.51c0-2.36,0-4.67,0-7-.05-2.46.17-4.94-.44-7.38a2.21,2.21,0,0,1-.06-1.14c.49-1.49.37-3.07.7-4.57a12.82,12.82,0,0,0,.22-3.69c-.16-2.31-.14-4.65-.49-6.93a38.7,38.7,0,0,1-.4-6.93,19.17,19.17,0,0,1,.66-2.67c.14-.89-.09-1.84,0-2.74a5.11,5.11,0,0,1,.71-1.95,8.92,8.92,0,0,0,1.2-4.43,6.09,6.09,0,0,1,1.19-3.68,1.15,1.15,0,0,0,.22-.41c.51-2.19,2.18-3.57,3.73-4.92a5.58,5.58,0,0,1,4.63-1.73,4.54,4.54,0,0,0,1.62-.05c3.29-.67,6.61-.4,9.92-.28a3.69,3.69,0,0,0,.92-.05,7.39,7.39,0,0,1,4.11.14,4.91,4.91,0,0,0,2.06.05c1.61-.18,3.21-.47,4.82-.66a8.52,8.52,0,0,1,2.09,0,52.38,52.38,0,0,0,8.31.49c1.72,0,2.37.71,2.48,2.41,0,.61-.1,1.23-.12,1.84,0,1.31-.1,2.62-.06,3.93q.13,3.48.38,6.95c.1,1.31.28,2.61.51,3.9.36,2.07-.27,3.1-2.34,3.45a25.86,25.86,0,0,1-3.92.37,4.91,4.91,0,0,1-2-.5,8.85,8.85,0,0,0-5.9-.46c-.52.13-1.07.11-1.61.19-1.6.23-3.21.44-4.81.73-1,.18-1.41.71-1.2,1.64a7.54,7.54,0,0,1-.29,4.1,4,4,0,0,0-.09,2.28,14.11,14.11,0,0,1,.24,4.82c-.23,2.69-.16,5.41-.24,8.12,0,1.77-.22,3.55-.16,5.32.07,2.08.26,4.16.51,6.23a10,10,0,0,1-.15,3.68,9.87,9.87,0,0,0-.31,2.74,2,2,0,0,0,1.88,2,12.8,12.8,0,0,0,2.78.08,17,17,0,0,1,4.39.28,39.53,39.53,0,0,1,6.15,1.16,11.29,11.29,0,0,1,5,3.25,4.93,4.93,0,0,1,.79,1.14c.85,1.91,1.68,3.83,2.47,5.76a8.22,8.22,0,0,1,.59,2.94,28.76,28.76,0,0,0,.37,3.45,17.08,17.08,0,0,1-.09,5.55,12.56,12.56,0,0,0-.05,4.61C243.95,318.37,244.15,319.59,242.26,319.72ZM223,371.18a1.35,1.35,0,0,0,1.27,1.37,1.83,1.83,0,0,0,1.82-1.46,1.32,1.32,0,0,0-1.16-1.47A1.76,1.76,0,0,0,223,371.18ZM204.9,274.81a1.45,1.45,0,0,0-1.47-1.41,1.61,1.61,0,0,0-1.48,1.69,1.43,1.43,0,0,0,1.48,1.14A1.45,1.45,0,0,0,204.9,274.81ZM225.14,305a1.1,1.1,0,0,0,1-1.07,2,2,0,0,0-1.19-1.82,1.15,1.15,0,0,0-1,.21,1.55,1.55,0,0,0-.1,1.92A1.39,1.39,0,0,0,225.14,305ZM205.08,230c-.12.08-.45.17-.59.39a2,2,0,0,0,.62,2.59.88.88,0,0,0,1.05-.06,1.4,1.4,0,0,0,.48-1.62A1.58,1.58,0,0,0,205.08,230Zm-8.52,10.4a1.49,1.49,0,0,0-1.44,1.47,1.11,1.11,0,0,0,1.05,1.23,1.37,1.37,0,0,0,1.45-1.42A1.3,1.3,0,0,0,196.56,240.37Zm29.69,122.35a.92.92,0,0,0-1,.94,1.09,1.09,0,0,0,1.13,1.16.8.8,0,0,0,.88-.82A1.07,1.07,0,0,0,226.25,362.72ZM196.78,256.66c.2-.22.6-.47.74-.83a1,1,0,0,0-.63-1.27.93.93,0,0,0-1.11.86A1.11,1.11,0,0,0,196.78,256.66Zm27.82,38a1,1,0,0,0-1-1c-.46,0-.79.36-.77.9s.39,1.05.94,1A.84.84,0,0,0,224.6,294.63ZM234.15,356a.85.85,0,0,0-.8-.94,1,1,0,0,0-.94.84.85.85,0,0,0,.82.91A.82.82,0,0,0,234.15,356Zm-7.92-117.22c-.15.16-.47.37-.58.66a.79.79,0,0,0,.71,1,.78.78,0,0,0,.79-.66C227.24,239.28,226.89,238.84,226.23,238.79Z"/><path class="cls-2" d="M522,206.16a22.67,22.67,0,0,1-3.27-2.18,25.37,25.37,0,0,0-2.1-1.44,2.41,2.41,0,0,0-2.82.19c-1.3,1-2.61,1.93-3.95,2.85a7,7,0,0,1-1.42.52,10,10,0,0,1,.16-1.33c.46-1.63.93-3.27,1.45-4.88a2.25,2.25,0,0,0-.91-2.83c-1.34-.92-2.66-1.87-4-2.82-.37-.27-.76-.58-.37-1.26.36,0,.81-.1,1.25-.1,1.39,0,2.78,0,4.17,0a2.73,2.73,0,0,0,3-2.08q.61-2,1.25-4a12.42,12.42,0,0,1,.49-1.3c.05-.11.24-.17.37-.26.57.05.67.53.8,1,.38,1.26.71,2.53,1.1,3.78a11.33,11.33,0,0,0,.69,1.71,1.28,1.28,0,0,0,1.29.82c1.35-.19,2.68.43,4.07,0a5.09,5.09,0,0,1,2.26.22.65.65,0,0,1,.26,1.11c-.71.59-1.46,1.14-2.2,1.69s-1.6,1.22-2.43,1.78a1.73,1.73,0,0,0-.76,2c.35,1.34.81,2.65,1.18,4A4.57,4.57,0,0,1,522,206.16Z"/><path class="cls-1" d="M424.4,193.09a8,8,0,0,1-2.81,2.64c-.77.52-1.56,1-2.31,1.55a2,2,0,0,0-.81,2.25c.27,1,.63,2.07.93,3.1a8.65,8.65,0,0,1,.7,3.27,2.36,2.36,0,0,1-.85-.06,11.47,11.47,0,0,1-3.95-2.77,3.41,3.41,0,0,0-.5-.49c-1-.86-1.64-.93-2.69-.13-1.29,1-2.53,2-3.79,3-.47.38-.89.89-1.77.65a7.14,7.14,0,0,1,.14-1.5c.43-1.4,1-2.77,1.4-4.17.58-1.88.41-2.39-1.14-3.57-1.11-.84-2.26-1.63-3.36-2.47a12,12,0,0,1-1.07-1.06,3.73,3.73,0,0,1,.92-.42c1.92-.19,3.84-.36,5.76-.52a2.2,2.2,0,0,0,2-1.62c.47-1.39.89-2.79,1.36-4.18.16-.47.42-.92.76-1.64a8.59,8.59,0,0,1,.67,1.19c.49,1.46,1,2.93,1.39,4.42a2.23,2.23,0,0,0,2.23,1.94c1.62.07,3.23.24,4.84.37Z"/><path class="cls-2" d="M379.28,185.27c.31.66.55,1.05.69,1.48.48,1.39,1,2.77,1.38,4.18a2.44,2.44,0,0,0,2.52,2c1.55,0,3.09,0,4.64,0,.51,0,1,.1,1.43.14a.81.81,0,0,1-.38,1.12c-1.12.83-2.27,1.61-3.37,2.46-1.65,1.27-1.85,2-1.25,4,.45,1.48.88,3,1.28,4.45a4.38,4.38,0,0,1-.09,1.22,9.25,9.25,0,0,1-2.6-1.74c-.88-.62-1.73-1.28-2.62-1.89a2.57,2.57,0,0,0-3.22.09c-1.32.95-2.67,1.85-4,2.75a6.44,6.44,0,0,1-.94.41,3.41,3.41,0,0,1-.09-1c.45-1.72.87-3.44,1.43-5.12a2.11,2.11,0,0,0-.75-2.65c-1.3-1-2.64-1.9-4-2.84a1.35,1.35,0,0,1-.71-1.13,2.3,2.3,0,0,1,.65-.27c1.85-.09,3.7-.17,5.55-.23,1.43-.05,1.62-.24,2-1.65.52-1.7,1.11-3.37,1.69-5.05C378.67,185.83,378.89,185.7,379.28,185.27Z"/><path class="cls-1" d="M352.28,206.3a37,37,0,0,1-4.35-2.82,5.54,5.54,0,0,0-2.86-1.41,4.19,4.19,0,0,1-1.25-.65c-.75,2.31-2.71,3.41-4.58,4.58-.19.12-.54,0-1-.09.53-1.61,1-3.06,1.49-4.52.1-.29.23-.57.33-.86.62-1.84.46-2.43-1.06-3.58-1.23-.93-2.5-1.81-3.74-2.72a3.86,3.86,0,0,1-.51-.47c-.17-.18,0-.73.24-.77a11.78,11.78,0,0,1,1.6-.14c1.24,0,2.47.09,3.71.06,1.9,0,2.37-.4,3-2.26.45-1.31.84-2.65,1.28-4a3.32,3.32,0,0,1,.53-1,.61.61,0,0,1,.6,0,2.05,2.05,0,0,1,.42.8c.47,1.47.89,3,1.4,4.41.58,1.68,1.15,1.9,3,1.75s3.39-.07,5.08-.06c.18,0,.5.23.52.37a1,1,0,0,1-.23.79c-.94.8-1.93,1.54-2.91,2.29-.49.38-1,.71-1.5,1.09a2.36,2.36,0,0,0-.94,2.85q.69,2.09,1.32,4.2C352,204.68,352.06,205.2,352.28,206.3Z"/><path class="cls-2" d="M300.8,193c2.07-.06,4-.73,6.05-.29,1.18.25,1.81-.27,2.26-1.52.53-1.45.94-2.95,1.44-4.41.16-.48.18-1.11,1-1.26a11.81,11.81,0,0,1,.65,1.34c.43,1.24.8,2.5,1.22,3.74.71,2.07,1.34,2.53,3.41,2.2,1.72-.28,3.33.23,4.93.26a.9.9,0,0,1-.38,1.29c-1,.73-2,1.43-3,2.15-2.22,1.57-2.48,2.3-1.66,4.91.46,1.47,1,2.92,1.46,4.3a.67.67,0,0,1-1.08.18c-1.24-.92-2.43-1.91-3.7-2.79-1.87-1.29-2.8-1.24-4.6.16-1,.81-2,1.69-3.07,2.48a6.12,6.12,0,0,1-1.39.53,6.53,6.53,0,0,1,.12-1.1c.57-1.76,1.15-3.53,1.76-5.28a2.12,2.12,0,0,0-.84-2.64c-1.24-.92-2.5-1.82-3.74-2.75C301.26,194.19,300.71,194,300.8,193Z"/><path class="cls-1" d="M66.7,206.31a8.55,8.55,0,0,1,.14-1.54c.45-1.48,1-2.93,1.44-4.41.54-1.78.38-2.28-1.07-3.38-1.23-.93-2.52-1.79-3.76-2.72a11.82,11.82,0,0,1-1.11-1.12,6.33,6.33,0,0,1,1.44-.39c1,0,2,.13,3,.17a11.3,11.3,0,0,0,1.39-.06c1.77-.15,3.08-.86,3.52-2.76a4.12,4.12,0,0,1,1.46-2.49c.19-.77-.91-1.73.58-2.23a6.54,6.54,0,0,1,.49,1c.5,1.62,1,3.26,1.47,4.88a1.88,1.88,0,0,0,2.42,1.56,8.91,8.91,0,0,1,3-.17c1,.18,2,.3,3.15.47-.18.38-.23.79-.47,1-1.36,1-2.73,2-4.15,3a2.29,2.29,0,0,0-1.24,2.5,6.64,6.64,0,0,1,0,1.38,1.17,1.17,0,0,0,.41,1,5.16,5.16,0,0,1,1.45,4c0,.06-.09.12-.24.32a5.87,5.87,0,0,1-1.34-.56,35.21,35.21,0,0,1-3.07-2.47,2.86,2.86,0,0,0-4.15-.09c-1.14.93-2.35,1.77-3.54,2.62A10.16,10.16,0,0,1,66.7,206.31Z"/><path class="cls-1" d="M220.47,193a9.32,9.32,0,0,1-1,1.18c-1.15.92-2.33,1.79-3.48,2.71-1.74,1.39-1.93,2-1,3.92a17.56,17.56,0,0,1,1.24,4.45.69.69,0,0,1-.25.58.73.73,0,0,1-.64,0,15.91,15.91,0,0,1-1.33-.92c-1-.72-2-1.46-3-2.17a2.57,2.57,0,0,0-3.05-.09c-1.23.79-2.42,1.66-3.62,2.5-.38.26-.74.55-1.12.79-.23.14-.7-.17-.67-.42a5.39,5.39,0,0,1,.19-.9q.73-2.32,1.48-4.64a2.38,2.38,0,0,0-1-3c-1.34-.91-2.63-1.89-3.95-2.83-.32-.23-.56-.5-.54-.74a.76.76,0,0,1,.88-.52q2.21,0,4.41,0a2.94,2.94,0,0,0,3.16-2.18c.47-1.46,1.24-2.83,1.31-4.42a.69.69,0,0,1,.17-.42c.15-.15.36-.35.53-.34a.79.79,0,0,1,.54.37,4.24,4.24,0,0,1,.31.87l1.29,4c.56,1.7,1,2.06,2.85,2.13,1.39,0,2.78,0,4.16,0C218.91,192.93,219.44,193,220.47,193Zm-9.21.63c-.13,0-.27-.16-.38-.13s-.2.27-.17.32.24.15.37.21Z"/><path class="cls-2" d="M236.48,205.94c.26-.93.44-1.66.66-2.37.37-1.18.8-2.34,1.14-3.53a2.49,2.49,0,0,0-1.08-3c-1.28-.86-2.52-1.79-3.75-2.72a10,10,0,0,1-1.05-1.13c.47-.16.74-.35,1-.32a25.58,25.58,0,0,0,5.76-.34,2.29,2.29,0,0,0,2.11-1.53c.47-1.29,1.27-2.45,1.31-3.92a4.84,4.84,0,0,1,.61-1.57c.79,0,.88.55,1,1,.5,1.62.95,3.26,1.43,4.89.32,1.08.76,1.47,1.83,1.32a12.23,12.23,0,0,1,3.45.14c1.06.15,2.14.14,3.39.2-.16.47-.18.89-.41,1.1a13.9,13.9,0,0,1-1.67,1.24,31.44,31.44,0,0,0-2.68,1.82,5.61,5.61,0,0,1-2.58,1.08,27.37,27.37,0,0,1,1.58,2.38,18.48,18.48,0,0,1,1,2.57,7,7,0,0,1,.75,2.53.79.79,0,0,1-1.14.13,23,23,0,0,1-3.52-2.6c-1.29-1.33-2.25-1.72-3.8-.56a4.45,4.45,0,0,1-1.58.37c-.26,1.43-1.66,2-2.77,2.76C237.32,206,237,205.89,236.48,205.94Z"/><path class="cls-2" d="M164.6,193.09a18,18,0,0,1,3.79-.19c.77,0,1.55,0,2.32,0a2.44,2.44,0,0,0,2.56-1.91c.43-1.48.92-3,1.42-4.41a7.58,7.58,0,0,1,.75-1.24,3.22,3.22,0,0,1,1,2.83c0,.3-.12.75,0,.87.91.74,1,1.9,1.53,2.81a2.1,2.1,0,0,0,2.42,1c1.34-.31,2.72.17,4.06-.34a5.63,5.63,0,0,1,2,.1c-.18.49-.21.93-.44,1.12-1.39,1.11-2.78,2.24-4.26,3.2a2.66,2.66,0,0,0-1.26,2.75c.12,1.59.95,2.92,1.49,4.36.22.57.44,1.14.62,1.72.08.26-.36.6-.62.51a1.64,1.64,0,0,1-.42-.18c-1.56-1.15-3.12-2.29-4.65-3.47a9,9,0,0,1-1.09-1.22,23,23,0,0,0-4.64,3.13,15.11,15.11,0,0,1-1.63,1.29c-.21.14-.54.1-1,.17a7,7,0,0,1,.14-1.25c.44-1.4.93-2.79,1.39-4.18.62-1.84.5-2.39-1-3.62-1-.82-2.12-1.55-3.18-2.32C165.45,194.27,164.79,194.1,164.6,193.09Zm7.91,7.21c-.06,0-.17.11-.16.15a2,2,0,0,0,.15.36,2,2,0,0,0,.17-.35S172.56,200.35,172.51,200.3Z"/><path class="cls-1" d="M148,206a5.5,5.5,0,0,1-1.08-.47c-1.06-.78-2.11-1.57-3.11-2.42a3.38,3.38,0,0,0-4.8,0,5.27,5.27,0,0,1-2.37,1.39c-.4.11-.72.52-1.08.79l-.92.67c.1-.68.12-1,.22-1.4.43-1.56.85-3.13,1.34-4.68a2.24,2.24,0,0,0-.83-2.67c-1.21-1-2.43-1.92-3.62-2.9-.46-.38-.86-.83-1.46-1.42.47-.17.77-.4,1-.33,1.81.66,3.65.06,5.47.21a2.35,2.35,0,0,0,2.54-1.91c.48-1.47.9-3,1.37-4.43.13-.42.34-.82.61-1.48a5.5,5.5,0,0,1,.87,1.17c.5,1.46.9,3,1.38,4.42.62,1.9,1.19,2.32,3.23,2.28,1.61,0,3.22-.41,4.83,0a4,4,0,0,1,.55.24c.16.66-.29.89-.66,1.15q-1.88,1.36-3.77,2.7a2.43,2.43,0,0,0-1.09,3c.35,1.06.14,2.22,1,3.21A3.23,3.23,0,0,1,148,206Z"/><path class="cls-2" d="M436,193c1.38,0,2.14-.08,2.9-.09,1.08,0,2.17,0,3.25,0a2.43,2.43,0,0,0,2.56-1.6c.55-1.36,1.12-2.71,1.67-4.07l.77-1.89c.41.42.77.63.87.93.5,1.38.94,2.78,1.38,4.18.66,2.09,1.07,2.43,3.33,2.43,1.16,0,2.31-.11,3.47-.2.7-.05,1.39-.15,1.9.48,0,.78-.61,1-1.09,1.39-1,.73-2,1.39-3,2.15-1.81,1.41-1.92,1.83-1.22,3.95.31,1,.63,1.91.93,2.87.14.44.25.89.37,1.34s.25.85-.22,1a1.32,1.32,0,0,1-1-.29c-.84-.68-1.61-1.44-2.42-2.16a8.47,8.47,0,0,0-1.07-.84,3.49,3.49,0,0,0-4.64.51c-.85.79-1.74,1.53-2.61,2.29-.36.31-.36.31-1.57.53a4.38,4.38,0,0,1,.09-1.11c.26-.73.64-1.41.9-2.14a17.3,17.3,0,0,0,.75-2.66,3.05,3.05,0,0,0-1.52-3.36c-1.18-.73-2.34-1.5-3.49-2.3A11.27,11.27,0,0,1,436,193Z"/><path class="cls-2" d="M96.89,192.93h2.8c1,0,2,0,3,0a2.5,2.5,0,0,0,2.67-2.07c.43-1.48.93-2.95,1.42-4.41a9.53,9.53,0,0,1,.61-1.17,4.54,4.54,0,0,1,.74,1c.53,1.53,1,3.1,1.5,4.63.59,1.7,1,2,2.91,2s3.54,0,5.32,0c.12,0,.24.14.5.3-.13.23-.21.53-.41.68-1,.8-2.11,1.56-3.17,2.34-.5.37-1,.72-1.48,1.11a2.13,2.13,0,0,0-.72,2.5c.44,1.32.91,2.63,1.34,3.95a2.61,2.61,0,0,1,.14,2.15,3.2,3.2,0,0,1-1-.28c-.76-.52-1.48-1.11-2.21-1.69-.24-.19-.43-.46-.68-.63-3.07-2.13-3.14-1.77-5.45,0-.61.47-1.16,1-1.76,1.5s-1.12,1.07-1.88,1.12c-.55-.28-.47-.69-.36-1,.31-1,.67-2.06,1-3.09.21-.66.41-1.33.58-2a2.46,2.46,0,0,0-1.08-2.83c-1.21-.83-2.44-1.63-3.64-2.47A1.3,1.3,0,0,1,96.89,192.93Z"/><path class="cls-1" d="M481.06,185.56c.77,0,.93.48,1.07.9.39,1.17.72,2.37,1.08,3.55.14.44.28.89.45,1.32.5,1.23.93,1.44,2.31,1.46,1.91,0,3.83.13,5.64.19a.75.75,0,0,1-.18,1.14c-1.17.89-2.37,1.74-3.51,2.66-1.71,1.36-1.79,1.72-1.22,3.75.36,1.26.69,2.53,1,3.81a8.76,8.76,0,0,1,.11,1.37,3.06,3.06,0,0,1-2.15-.91c-.86-.66-1.72-1.32-2.59-2a2.83,2.83,0,0,0-3.46-.11c-.91.58-1.75,1.26-2.61,1.92-.55.42-1.06.91-1.63,1.3-.29.19-.76.39-1,.28-.42-.19-.21-.63-.07-1,.59-1.51,1.15-3,1.71-4.55a5.7,5.7,0,0,0,.2-.66,2.54,2.54,0,0,0-1.13-3c-1.29-.85-2.52-1.79-3.76-2.72a4.69,4.69,0,0,1-.7-.86,6,6,0,0,1,4-.8,18,18,0,0,0,2.07.26A2.21,2.21,0,0,0,479,191.3c.49-1.47.93-2.95,1.43-4.41A12.68,12.68,0,0,1,481.06,185.56Zm2.25,10.94c-.29-.22-.48-.46-.62-.43a2.37,2.37,0,0,0-.68.41c.18.18.36.5.56.51S483,196.72,483.31,196.5Zm1.3-2.39a2.1,2.1,0,0,0-.53-.24c-.07,0-.18.17-.27.27a4.06,4.06,0,0,0,.49.36A3,3,0,0,0,484.6,194.11Z"/><path class="cls-1" d="M284.23,206.06a4.8,4.8,0,0,1-1.23-.39c-1.25-.9-2.5-1.81-3.69-2.79-1.53-1.26-2.35-1.36-3.9-.18-1.23.94-2.39,2-3.61,2.9a5.18,5.18,0,0,1-1.1.47,4.15,4.15,0,0,1,0-1.07c.32-.95.69-1.88,1-2.82s.64-1.58.86-2.39a2.07,2.07,0,0,0-.86-2.44q-1.63-1.09-3.25-2.2c-.69-.47-1.51-.81-1.83-1.88a3.59,3.59,0,0,1,1-.33c1.55,0,3.09,0,4.64,0,2,0,2.53-.49,3.11-2.42.44-1.48.95-2.94,1.44-4.4a3,3,0,0,1,.31-.55c.56-.16.75.21.88.56.39,1.09.75,2.19,1.13,3.29q.3.88.62,1.75a2.47,2.47,0,0,0,2.48,1.75c1.62,0,3.24-.1,4.86-.11a9.21,9.21,0,0,1,1.44.24c-.28.43-.38.76-.6.9a21.33,21.33,0,0,1-3.5,2.23,3.4,3.4,0,0,0-1.83,4c.45,1.48,1,2.93,1.45,4.4A8.17,8.17,0,0,1,284.23,206.06Z"/><path class="cls-2" d="M46.46,206.27a13,13,0,0,1-1.62-.8c-1.06-.77-2.09-1.59-3.13-2.39-1.49-1.14-2.38-1.2-4-.16-.9.59-1.73,1.3-2.62,1.91A3.8,3.8,0,0,1,33,206a3.44,3.44,0,0,1,0-.83c.42-1.56.84-3.12,1.3-4.67.54-1.82.39-2.39-1.18-3.56-1.36-1-2.75-2-4.1-3a.65.65,0,0,1-.16-.6.6.6,0,0,1,.53-.26,2.65,2.65,0,0,0,2.6,0c.41-.23,1.06,0,1.59,0a13.44,13.44,0,0,0,2-.22,2,2,0,0,0,1.58-1.51c.41-1.41.91-2.79,1.37-4.18.17-.5.36-1,.63-1.69.32.33.64.5.67.71.25,1.95,1.44,3.56,1.92,5.43a1.89,1.89,0,0,0,2,1.35c1.23,0,2.47,0,3.71,0A6.08,6.08,0,0,1,49,193c.29.09.49.5.78.83a17.79,17.79,0,0,1-3.28,2.7c-.46.29-.92.57-1.37.86a1.79,1.79,0,0,0-.78,2,10.54,10.54,0,0,0,.43,1.31c.46,1.31.93,2.62,1.38,3.93A12.91,12.91,0,0,1,46.46,206.27Zm-6.12-6c.12-.06.31-.1.33-.18s-.06-.27-.1-.41l-.46.28Zm-1.12-8.43c0-.11.14-.23.13-.33s-.16-.13-.25-.2c0,.11-.15.23-.13.33S39.13,191.77,39.22,191.83Z"/><path class="cls-1" d="M58.77,108.38a15.92,15.92,0,0,1-2-1c-1.31-.95-2.57-2-3.85-2.93-1.83-1.4-2.92-1.48-4.9-.19-1.11.72-2.13,1.59-3.22,2.35-.76.53-1.39,1.32-2.64,1.37a4.23,4.23,0,0,1,0-1c.51-1.92,1-3.84,1.6-5.74.67-2.24.47-2.93-1.45-4.38-1.67-1.25-3.38-2.46-5-3.71a.8.8,0,0,1-.19-.74.74.74,0,0,1,.66-.32,3.26,3.26,0,0,0,3.2,0c.5-.28,1.3,0,2,0a16.52,16.52,0,0,0,2.51-.27,2.46,2.46,0,0,0,1.94-1.86c.51-1.73,1.11-3.43,1.69-5.13.21-.61.45-1.21.77-2.08.39.41.79.62.82.87C50.95,86,52.4,88,53,90.26a2.33,2.33,0,0,0,2.41,1.66c1.52.06,3,0,4.56,0a7.47,7.47,0,0,1,2,.15c.36.11.6.61,1,1a21.87,21.87,0,0,1-4,3.32c-.56.36-1.13.7-1.69,1.06a2.2,2.2,0,0,0-1,2.48,13,13,0,0,0,.53,1.61c.56,1.61,1.15,3.22,1.69,4.83A15.87,15.87,0,0,1,58.77,108.38ZM51.24,101c.14-.07.38-.12.41-.22s-.07-.33-.12-.5l-.57.34ZM49.87,90.64c.06-.14.18-.28.16-.41s-.2-.17-.31-.25c-.06.14-.18.28-.16.41S49.76,90.56,49.87,90.64Z"/><path class="cls-1" d="M251.39,142.79c-1.16.83-1.87,0-3.6.19s-1.71.42-3.44.6-1.74.15-3.47.32-1.74.15-3.48.32-1.75,0-3.49.22-1.74.15-3.47.33-1.72.35-3.45.53-1.74.12-3.48.3-1.73.2-3.47.37-1.76-.06-3.5.11-1.71.43-3.45.61-1.77-.1-3.5.08-1.71.44-3.45.62l-3.47.34-3.47.34-3.47.37c-1.74.18-1.73.24-3.47.42s-1.77-.17-3.51,0-1.7.54-3.44.72-1.75,0-3.49.18-1.75.09-3.48.26-1.75.07-3.49.25-1.73.26-3.46.44-1.72.32-3.46.5l-3.47.35c-1.74.18-1.74.12-3.48.3s-1.73.29-3.46.46-1.75,0-3.49.18-1.71.43-3.45.61-1.76-.1-3.5.08-1.71.4-3.45.58-1.74.1-3.48.28-1.74.13-3.48.31-1.72.34-3.46.52-1.78-.24-3.51-.06-1.73.22-3.47.4-1.74.15-3.48.32-1.72.37-3.45.55l-3.48.34c-1.74.18-1.75.08-3.49.25l-3.48.36c-1.74.18-1.71.49-3.45.66s-1.76,0-3.49.2-1.74.21-3.48.38-1.72.3-3.46.47l-3.48.35c-1.74.18-1.75,0-3.5.22s-1.75.07-3.49.24-1.76,0-3.5.17-1.71.47-3.46.65-2,.73-3.32.14,0-.89-.08-1.88-.13-1-.23-2-.24-1-.34-2-.51-1-.61-1.94.14-1,0-2,.3-1,.2-2-.22-1-.32-2-.73-.93-.83-1.92.5-1.05.4-2-.38-1-.48-2-.15-1-.25-2-.38-1-.48-2,.6-1.06.5-2.05-.5-1-.6-1.94,0-1-.07-2,.17-1,.07-2-.49-1-.59-1.95,0-1-.1-2-.24-1-.34-2-.08-1-.18-2-.17-1-.27-2-.1-1-.2-2,.39-1,.29-2-.4-1-.5-2-.18-1-.28-2-.21-1-.31-2,.26-1,.16-2-.36-1-.46-2,.26-1,.16-2-.1-1-.2-2-.26-1-.36-2,.12-1,0-2-.31-1-.41-2-.59-.94-.69-1.94.63-1.07.53-2.06-.34-1-.44-2-.2-1-.3-2-.07-1-.17-2,.1-1,0-2-.34-1-.44-2,.16-1,.06-2-.16-1-.26-2-.56-.95-.66-1.94-.16-1-.26-2,.23-1,.13-2,0-1-.12-2-.2-1-.3-2,.09-1,0-2-.54-1-.64-1.94.35-1,.25-2-.38-1-.48-2,0-1-.07-2-.56-.95-.66-1.94.64-1.07.54-2.07-.45-1-.55-2-.26-1-.36-2-1-1.07.18-1.89,1.49-.21,3.22-.38l3.47-.35c1.74-.18,1.73-.23,3.47-.41s1.73-.24,3.47-.41,1.73-.21,3.47-.38,1.76.05,3.49-.12,1.72-.32,3.46-.5,1.74-.14,3.47-.31,1.75,0,3.48-.22L97.35,44c1.74-.18,1.71-.48,3.44-.65s1.77.11,3.5-.06,1.7-.5,3.44-.67l3.47-.34c1.74-.18,1.74-.13,3.48-.31s1.75-.07,3.48-.25,1.74-.14,3.48-.32,1.75-.08,3.48-.25,1.71-.45,3.44-.63l3.47-.33c1.74-.18,1.74-.15,3.48-.32s1.77.15,3.51,0,1.7-.59,3.43-.76,1.75,0,3.49-.18,1.74-.14,3.48-.31l3.48-.34c1.74-.18,1.72-.32,3.46-.5l3.48-.34c1.74-.18,1.75,0,3.49-.2s1.75,0,3.49-.2l3.47-.34c1.73-.18,1.7-.51,3.44-.69l3.48-.35c1.74-.18,1.75,0,3.49-.18s1.75-.05,3.48-.23,1.73-.27,3.46-.44,1.74-.13,3.48-.3l3.47-.35c1.74-.18,1.72-.4,3.46-.57s1.73-.26,3.47-.43,1.75-.08,3.49-.25,1.76,0,3.5-.14,1.74-.22,3.47-.39l3.48-.37c1.74-.18,1.72-.36,3.45-.53s1.74-.21,3.47-.39,1.78.21,3.52,0,1.73-.3,3.47-.48,1.72-.41,3.46-.59,1.77.12,3.52-.05,2.12-1.07,3.44-.49,0,1,.06,2,0,1,.12,2,.28,1,.38,2,.09,1,.19,2,0,1,.09,2,.12,1,.22,2,.06,1,.16,2,.59.94.69,1.93-.06,1,0,2-.13,1,0,2-.17,1-.07,2,.82.92.92,1.91-.05,1,.05,2,.23,1,.33,2-.28,1-.18,2,.22,1,.32,2,.3,1,.4,2,0,1,.13,2,.17,1,.27,2-.06,1,0,2,.23,1,.33,2-.13,1,0,2,0,1,.14,2,.44,1,.54,2-.2,1-.1,2,.17,1,.27,2,.18,1,.28,2,.06,1,.16,2-.07,1,0,2-.06,1,0,2,.74.93.84,1.92,0,1,.06,2-.15,1-.05,2,.43,1,.53,2-.09,1,0,2,.29,1,.39,2-.4,1-.3,2,0,1,.06,2,.15,1,.25,2,.34,1,.44,2,.48,1,.58,1.95-.38,1-.28,2,.05,1,.15,2,.59.94.69,1.94.2,1,.3,2,0,1,.11,2-.15,1,0,2,0,1,.05,2-.13,1,0,2,.06,1,.16,2,.87.92,1,1.91-.56,1.06-.46,2.06,0,1,.13,2,.67.94.77,1.93-.36,1-.25,2-.33,1.1.16,2S252.54,142,251.39,142.79Z"/><path class="cls-3" d="M101,140.5l-14,1.45L80,73.56l-5.25.54,3.61-11.71,14.44-1.5Z"/><path class="cls-3" d="M124,124.38l-10,26-12.41,1.29L108.45,126Z"/><path class="cls-3" d="M142.21,136.24c-12.17,1.26-13.74.1-14.91-11.12l-5.65-54.55c-1.16-11.22.13-12.68,12.31-13.94l4.77-.49c12.17-1.26,13.74-.1,14.91,11.12l5.65,54.54c1.16,11.22-.13,12.68-12.31,13.94Zm-2.35-65.75c-.32-3.1-.75-3.78-2.42-3.61s-2,.93-1.63,4l5.3,51.2c.32,3.1.75,3.78,2.42,3.61s2-.93,1.63-4Z"/><path class="cls-3" d="M180.52,132.27c-12.17,1.26-13.74.1-14.91-11.12L160,66.6c-1.16-11.22.13-12.68,12.31-13.94l4.77-.5c12.17-1.26,13.74-.1,14.91,11.12l5.65,54.55c1.16,11.22-.13,12.68-12.31,13.94Zm-2.35-65.75c-.32-3.1-.75-3.78-2.42-3.61s-2,.93-1.63,4l5.3,51.2c.32,3.1.75,3.78,2.42,3.61s2-.93,1.63-4Z"/><path class="cls-3" d="M218.84,128.3c-12.17,1.26-13.74.1-14.91-11.12l-5.65-54.55c-1.16-11.22.13-12.68,12.31-13.94l4.77-.49c12.17-1.26,13.74-.1,14.91,11.12l5.65,54.54c1.16,11.22-.13,12.68-12.31,13.94Zm-2.35-65.75c-.32-3.1-.75-3.78-2.42-3.61s-2,.93-1.63,4l5.3,51.2c.32,3.1.75,3.78,2.42,3.61s2-.93,1.63-4Z"/><path class="cls-2" d="M189.1,348.48c-1.16.83-1.87,0-3.6.19s-1.71.42-3.44.6-1.74.15-3.47.32-1.74.15-3.48.32-1.75,0-3.49.22-1.74.15-3.47.33-1.72.35-3.45.53-1.74.12-3.48.3-1.73.2-3.47.37-1.76-.06-3.5.11-1.71.43-3.45.61-1.77-.1-3.5.08-1.71.44-3.45.62l-3.47.34-3.47.34-3.47.37c-1.74.18-1.73.24-3.47.42s-1.77-.17-3.51,0-1.7.54-3.44.72-1.75,0-3.49.18-1.75.09-3.48.26-1.75.07-3.49.25-1.73.26-3.46.44-1.72.32-3.46.5l-3.47.35c-1.74.18-1.74.12-3.48.3s-1.73.29-3.46.46-1.75,0-3.49.18-1.71.43-3.45.61-1.76-.1-3.5.08-1.71.4-3.45.58-1.74.1-3.48.28-1.74.13-3.48.31-1.72.34-3.46.52-1.78-.24-3.51-.06-1.73.22-3.47.4-1.74.15-3.48.32-1.72.37-3.45.55l-3.48.34c-1.74.18-1.75.08-3.49.25l-3.48.36c-1.74.18-1.71.49-3.45.66s-1.76,0-3.49.2-1.74.21-3.48.38-1.72.3-3.46.47l-3.48.35c-1.74.18-1.75,0-3.5.22s-1.75.07-3.49.24-1.76,0-3.5.17-1.71.47-3.46.65-2,.73-3.32.14,0-.89-.08-1.88-.13-1-.23-2-.24-1-.34-2-.51-1-.61-1.94.14-1,0-2,.3-1,.2-2-.22-1-.32-2-.73-.93-.83-1.92.5-1.05.4-2-.38-1-.48-2-.15-1-.25-2-.38-1-.48-2,.6-1.06.5-2.05-.5-1-.6-1.94,0-1-.07-2,.17-1,.07-2-.49-1-.59-1.95,0-1-.1-2-.24-1-.34-2-.08-1-.18-2-.17-1-.27-2-.1-1-.2-2,.39-1,.29-2-.4-1-.5-2-.18-1-.28-2-.21-1-.31-2,.26-1,.16-2-.36-1-.46-2,.26-1,.16-2-.1-1-.2-2-.26-1-.36-2,.12-1,0-2-.31-1-.41-2-.59-.94-.69-1.94.63-1.07.53-2.06-.34-1-.44-2-.2-1-.3-2-.07-1-.17-2,.1-1,0-2-.34-1-.44-2,.16-1,.06-2-.16-1-.26-2S3,281.95,2.93,281s-.16-1-.26-2,.23-1,.13-2,0-1-.12-2-.2-1-.3-2,.09-1,0-2-.54-1-.64-1.94.35-1,.25-2-.38-1-.48-2,0-1-.07-2-.56-.95-.66-1.94.64-1.07.54-2.07-.45-1-.55-2-.26-1-.36-2-1-1.07.18-1.89,1.49-.21,3.22-.38l3.47-.35c1.74-.18,1.73-.23,3.47-.41s1.73-.24,3.47-.41,1.73-.21,3.47-.38,1.76.05,3.49-.12,1.72-.32,3.46-.5,1.74-.14,3.47-.31,1.75,0,3.48-.22l3.47-.36c1.74-.18,1.71-.48,3.44-.65s1.77.11,3.5-.06,1.7-.5,3.44-.67l3.47-.34c1.74-.18,1.74-.13,3.48-.31s1.75-.07,3.48-.25,1.74-.14,3.48-.32,1.75-.08,3.48-.25,1.71-.45,3.44-.63l3.47-.33c1.74-.18,1.74-.15,3.48-.32s1.77.15,3.51,0,1.7-.59,3.43-.76,1.75,0,3.49-.18,1.74-.14,3.48-.31l3.48-.34c1.74-.18,1.72-.32,3.46-.5l3.48-.34c1.74-.18,1.75,0,3.49-.2s1.75,0,3.49-.2l3.47-.34c1.73-.18,1.7-.51,3.44-.69l3.48-.35c1.74-.18,1.75,0,3.49-.18s1.75-.05,3.48-.23,1.73-.27,3.46-.44,1.74-.13,3.48-.3l3.47-.35c1.74-.18,1.72-.4,3.46-.57s1.73-.26,3.47-.43,1.75-.08,3.49-.25,1.76,0,3.5-.14,1.74-.22,3.47-.39l3.48-.37c1.74-.18,1.72-.36,3.45-.53s1.74-.21,3.47-.39,1.78.21,3.52,0,1.73-.3,3.47-.48,1.72-.41,3.46-.59,1.77.12,3.52-.05,2.12-1.07,3.44-.49,0,1,.06,2,0,1,.12,2,.28,1,.38,2,.09,1,.19,2,0,1,.09,2,.12,1,.22,2,.06,1,.16,2,.59.94.69,1.93-.06,1,0,2-.13,1,0,2-.17,1-.07,2,.82.92.92,1.91-.05,1,.05,2,.23,1,.33,2-.28,1-.18,2,.22,1,.32,2,.3,1,.4,2,0,1,.13,2,.17,1,.27,2-.06,1,0,2,.23,1,.33,2-.13,1,0,2,0,1,.14,2,.44,1,.54,2-.2,1-.1,2,.17,1,.27,2,.18,1,.28,2,.06,1,.16,2-.07,1,0,2-.06,1,0,2,.74.93.84,1.92,0,1,.06,2-.15,1-.05,2,.43,1,.53,2-.09,1,0,2,.29,1,.39,2-.4,1-.3,2,0,1,.06,2,.15,1,.25,2,.34,1,.44,2,.48,1,.58,1.95-.38,1-.28,2,.05,1,.15,2,.59.94.69,1.94.2,1,.3,2,0,1,.11,2-.15,1,0,2,0,1,.05,2-.13,1,0,2,.06,1,.16,2,.87.92,1,1.91-.56,1.06-.46,2.06,0,1,.13,2,.67.94.77,1.93-.36,1-.25,2-.33,1.1.16,2S190.25,347.65,189.1,348.48Z"/><path class="cls-3" d="M38.75,346.19l-14,1.45L17.7,279.25l-5.25.54,3.61-11.71,14.44-1.5Z"/><path class="cls-3" d="M61.67,330.06l-10,26-12.41,1.29,6.87-25.68Z"/><path class="cls-3" d="M79.91,341.93C67.74,343.19,66.17,342,65,330.8l-5.65-54.55c-1.16-11.22.13-12.68,12.31-13.94l4.77-.49c12.17-1.26,13.74-.1,14.91,11.12L97,327.49c1.16,11.22-.13,12.68-12.31,13.94Zm-2.35-65.75c-.32-3.1-.75-3.78-2.42-3.61s-2,.93-1.63,4l5.3,51.2c.32,3.1.75,3.78,2.42,3.61s2-.93,1.63-4Z"/><path class="cls-3" d="M118.23,338c-12.17,1.26-13.74.1-14.91-11.12l-5.65-54.54c-1.16-11.22.13-12.68,12.31-13.94l4.77-.5c12.17-1.26,13.74-.1,14.91,11.12l5.65,54.55c1.16,11.22-.13,12.68-12.31,13.94Zm-2.35-65.75c-.32-3.1-.75-3.78-2.42-3.61s-2,.93-1.63,4l5.3,51.2c.32,3.1.75,3.78,2.42,3.61s2-.93,1.63-4Z"/><path class="cls-3" d="M156.54,334c-12.17,1.26-13.74.1-14.91-11.12L136,268.32c-1.16-11.22.13-12.68,12.31-13.94l4.77-.49c12.17-1.26,13.74-.1,14.91,11.12l5.65,54.54c1.16,11.22-.13,12.68-12.31,13.94Zm-2.35-65.75c-.32-3.1-.75-3.78-2.42-3.61s-2,.93-1.63,4l5.3,51.2c.32,3.1.75,3.78,2.42,3.61s2-.93,1.63-4Z"/></g></g></svg>