<svg xmlns="http://www.w3.org/2000/svg" viewBox="0 0 128.15 138.67"><defs><style>.cls-1{fill:#ef4123;}.cls-2{fill:#ffc20e;}</style></defs><title>logo-60</title><g id="Layer_2" data-name="Layer 2"><g id="Layer_1-2" data-name="Layer 1"><path class="cls-1" d="M127.77,126.82c-.72.87-1.1.21-2.22.33s-1.15-.1-2.27,0-1.12.18-2.24.3-1.11.25-2.24.36-1.15-.14-2.28,0-1.1.39-2.22.51-1.11.24-2.23.36-1.13.06-2.25.17-1.15-.14-2.27,0-1.1.38-2.22.49-1.14-.06-2.27.05-1.1.33-2.23.45-1.15-.15-2.28,0-1.11.28-2.23.4-1.16-.25-2.29-.14-1.08.52-2.21.63-1.14-.06-2.27,0-1.1.33-2.23.45l-2.25.22-2.25.24c-1.13.11-1.16-.25-2.29-.14s-1.09.47-2.22.58-1.14,0-2.26.1-1.14,0-2.27.07-1.13,0-2.26.14-1.1.33-2.23.44-1.11.29-2.23.4-1.17-.29-2.29-.18-1.09.47-2.22.58-1.16-.2-2.28-.09-1.11.22-2.24.33-1.13,0-2.26.15-1.14,0-2.26.11-1.09.51-2.21.62-1.15-.19-2.28-.07-1.1.34-2.23.45-1.11.29-2.24.4-1.17-.35-2.3-.24-1.1.34-2.23.46-1.1.33-2.23.45-1.15-.07-2.27,0-1.15-.17-2.28-.05-1.12.2-2.24.32-1.1.34-2.23.45-1.11.27-2.23.39-1.14,0-2.27.1l-2.25.24-2.25.24c-1.13.11-1.15-.15-2.28,0l-2.26.23c-1.13.11-1.36,1.06-2.24.35s-.35-1.08-.46-2.19.21-1.14.1-2.25-.21-1.1-.32-2.21-.24-1.1-.35-2.2,0-1.12-.09-2.23-.21-1.1-.32-2.21-.18-1.1-.29-2.21.1-1.13,0-2.24-.19-1.1-.3-2.21.1-1.13,0-2.24-.36-1.09-.47-2.2,0-1.12-.15-2.23,0-1.12-.15-2.23,0-1.12-.15-2.23-.44-1.08-.56-2.18-.07-1.11-.18-2.22-.08-1.11-.19-2.22.11-1.13,0-2.24-.39-1.08-.5-2.19-.08-1.11-.19-2.22-.08-1.11-.19-2.22,0-1.12-.08-2.23S8,88.49,7.9,87.37s-.31-1.09-.42-2.2-.05-1.12-.16-2.23-.14-1.11-.25-2.22.15-1.14,0-2.25-.4-1.08-.51-2.19.2-1.14.08-2.25S6.27,73,6.16,71.85s-.1-1.11-.21-2.22-.1-1.11-.21-2.22-.13-1.11-.24-2.22-.19-1.1-.3-2.21.28-1.15.17-2.26-.52-1.07-.63-2.18.08-1.13,0-2.24,0-1.12-.12-2.23,0-1.12-.11-2.23-.21-1.1-.32-2.21-.27-1.09-.39-2.2L3.52,45.2c-.11-1.11-.05-1.12-.17-2.23s-.24-1.1-.35-2.21.08-1.13,0-2.24-.4-1.08-.51-2.19.19-1.14.08-2.26-.36-1.09-.48-2.2,0-1.12-.14-2.23-.06-1.12-.18-2.23-.3-1.09-.41-2.2.35-1.16.24-2.27-.17-1.11-.28-2.22-.08-1.12-.2-2.23S.77,17.4.66,16.28s-.1-1.12-.21-2.23S-.41,12.77.31,11.9s1-.08,2.16-.2,1.09-.46,2.21-.57,1.14.06,2.27-.05,1.12-.15,2.25-.26,1.11-.25,2.24-.36l2.25-.22c1.12-.11,1.14,0,2.26-.08s1.14,0,2.26-.11,1.15.1,2.27,0,1.09-.45,2.22-.56,1.15.15,2.28,0l2.25-.21,2.25-.24c1.12-.11,1.12-.2,2.24-.32s1.1-.38,2.22-.49,1.14,0,2.27-.07,1.15.15,2.28,0S39.58,8,40.71,7.9s1.08-.52,2.21-.63,1.16.27,2.29.16,1.11-.29,2.23-.41,1.12-.14,2.25-.26,1.11-.29,2.23-.41,1.17.34,2.3.22,1.1-.37,2.22-.49,1.13,0,2.26-.14S59.84,6,61,5.9s1.1-.37,2.23-.48,1.13,0,2.26-.16,1.11-.21,2.24-.32l2.25-.22c1.12-.11,1.12-.16,2.24-.27l2.25-.23c1.13-.11,1.16.2,2.28.09S77.82,4,78.95,3.9s1.12-.17,2.25-.28,1.12-.19,2.25-.3,1.15.12,2.27,0,1.11-.28,2.24-.4,1.15.12,2.28,0l2.25-.23c1.13-.11,1.12-.22,2.24-.33s1.14,0,2.27-.08S98.1,2,99.23,1.93s1.09-.43,2.22-.55,1.17.36,2.3.25,1.11-.27,2.24-.39,1.12-.18,2.25-.29,1.13-.09,2.26-.21,1.14,0,2.27-.1,1.34-1.1,2.23-.39-.07,1.11,0,2.22.15,1.11.26,2.21.41,1.08.52,2.19.15,1.1.26,2.21-.1,1.13,0,2.24.06,1.11.17,2.22.18,1.1.29,2.21,0,1.12.1,2.23.4,1.08.51,2.19-.18,1.14-.07,2.25.29,1.09.4,2.2,0,1.12.14,2.23.41,1.08.52,2.19-.37,1.16-.26,2.27.34,1.09.45,2.2.21,1.1.33,2.21-.19,1.14-.08,2.25.24,1.1.35,2.21l.22,2.22c.11,1.11.18,1.1.29,2.21s.18,1.1.29,2.21.15,1.11.26,2.22-.14,1.14,0,2.25.27,1.09.39,2.2.07,1.11.18,2.22,0,1.12.08,2.23.12,1.11.24,2.22.45,1.08.56,2.19-.21,1.14-.1,2.25.47,1.07.58,2.18.11,1.11.22,2.22.07,1.12.18,2.23,0,1.12.11,2.23.08,1.11.19,2.22,0,1.12.11,2.23.42,1.08.53,2.19.09,1.11.2,2.22.08,1.11.19,2.22-.25,1.15-.14,2.26.57,1.06.69,2.17-.08,1.13,0,2.24.07,1.11.18,2.23.1,1.11.21,2.22.27,1.09.39,2.2.1,1.11.21,2.22-.06,1.13.05,2.24-.06,1.13.05,2.24.1,1.11.21,2.22.49,1.07.6,2.19l.23,2.22c.11,1.11-.08,1.13,0,2.24s0,1.13.09,2.24.21,1.1.33,2.22.06,1.12.17,2.23.12,1.11.23,2.23a7.13,7.13,0,0,0,.47,2.18C128,125.69,128.48,126,127.77,126.82Z"/><path class="cls-2" d="M110.54,107.47c-.31-.26-.51-.67-.92-.39a.6.6,0,0,0-.2.5c.11.53.58.17.91.32a2,2,0,0,1-1.21,2,1.19,1.19,0,0,0-.79.95c-.18.81-.32.88-1.19.75a.63.63,0,0,0-.32,0,2.26,2.26,0,0,1-1.39.35c-.1,0-.26.2-.38.33a.88.88,0,0,1-.81.3,3.72,3.72,0,0,0-2.13.43,4.57,4.57,0,0,1-2.79.47,2.74,2.74,0,0,0-2.18.3c-.08-.19-.15-.31-.19-.45-.12-.41-.36-.58-.69-.5s-.39.28-.31.73l.06.33c-.39,0-.76.11-1.12.11a3.59,3.59,0,0,0-1.39.31,6.31,6.31,0,0,1-1.06.23c0-.24,0-.38,0-.52s-.07-.39-.32-.42a.36.36,0,0,0-.43.37c0,.13,0,.26,0,.47a7.1,7.1,0,0,1-.71-.13,2.9,2.9,0,0,0-2,0,2.66,2.66,0,0,1-1.28.14,3.19,3.19,0,0,0-1.08.15,6.34,6.34,0,0,1-3.58.24,7.35,7.35,0,0,0-1.4-.26,1.6,1.6,0,0,0-.68.15,2,2,0,0,1-2.09-.47.85.85,0,0,0-1.07-.36c-.27.11-.46,0-.63-.23s-.34-.4-.53-.58a1.66,1.66,0,0,0-1.09-.52c-.44,0-.51-.16-.62-.61s-.26-.82-.37-1.24a15.22,15.22,0,0,1-.5-2.15,4.7,4.7,0,0,0-.61-2.3,8.09,8.09,0,0,1-.75-1.51,1.23,1.23,0,0,1-.06-.74,1.5,1.5,0,0,0-.19-1.42,1.14,1.14,0,0,1-.17-.86,17.74,17.74,0,0,0,.12-2.66,11.32,11.32,0,0,0-.41-2.1,2.6,2.6,0,0,1,.1-1.9,1.89,1.89,0,0,0,.15-1.46,3.7,3.7,0,0,1-.07-1.22,2.14,2.14,0,0,0-.12-.94,17,17,0,0,0-1-2.47.94.94,0,0,1-.06-.75,3.57,3.57,0,0,0,0-1.93A4.48,4.48,0,0,1,70.92,84c0-.14-.05-.33-.07-.5a8,8,0,0,1-.15-1.42,2.05,2.05,0,0,0-.23-1.25,1.33,1.33,0,0,1,0-1.41,2.88,2.88,0,0,0,.29-1.77,7.86,7.86,0,0,1,0-1.17,1.58,1.58,0,0,0-.54-1.21.78.78,0,0,1-.2-.57,1.74,1.74,0,0,0-.28-1.12,1.32,1.32,0,0,1-.17-1.24,1.61,1.61,0,0,0-.13-1.39,2.07,2.07,0,0,1-.21-1.33c.07-.6.09-1.21.12-1.82a1.27,1.27,0,0,0-.05-.52,2.24,2.24,0,0,1-.15-1.46.61.61,0,0,0-.16-.47,1.12,1.12,0,0,1-.15-1.28c.11-.28.22-.57.31-.86a1.34,1.34,0,0,0,.07-.45c0-.82-.07-1.65-.11-2.47a.2.2,0,0,0,0-.06c-.34-.84-.69-1.68-1-2.53a1.46,1.46,0,0,1-.17-.86,4.5,4.5,0,0,0,0-2.13c-.07-.64-.13-1.29-.19-1.93,0-.37-.07-.73-.09-1.1s0-.87,0-1.3a2.6,2.6,0,0,0-.17-.88,1.55,1.55,0,0,1,0-1.44,3,3,0,0,0,.24-2,2.26,2.26,0,0,1,0-.65,2.77,2.77,0,0,0-.34-1.63,7.15,7.15,0,0,1-.35-.91,8.34,8.34,0,0,0-.4-1,1.17,1.17,0,0,1-.13-1,2,2,0,0,0-.19-1.76.55.55,0,0,1,0-.72.61.61,0,0,0,0-.92A.67.67,0,0,1,66,37a2.81,2.81,0,0,0-.08-1.79,4.37,4.37,0,0,1-.07-.84,7.94,7.94,0,0,0-.29-1.19.72.72,0,0,1,.09-.68,3,3,0,0,0,.43-2.06,8.06,8.06,0,0,1,0-1.49,2.93,2.93,0,0,0-.23-1.53.94.94,0,0,1,.26-1.23,2,2,0,0,0,.7-1.49,4,4,0,0,1,.67-1.82,1.84,1.84,0,0,1,1.32-.86,3.52,3.52,0,0,0,1-.35,5.06,5.06,0,0,1,1.85-.59,1.58,1.58,0,0,0,.51-.1,3.73,3.73,0,0,1,2-.32,7.88,7.88,0,0,0,1.18-.11,2.12,2.12,0,0,0,.11.55c.07.13.25.33.33.31s.4-.24.39-.34c-.1-.65.22-.78.78-1a3.39,3.39,0,0,1,1.69-.26,5.76,5.76,0,0,0,1.1-.1l1.36-.07h.06a5.72,5.72,0,0,1,2.64,0c.2.05.45-.13.69-.16.66-.09,1.33-.15,2-.23a2.23,2.23,0,0,0,.57-.13A4.8,4.8,0,0,1,89.68,19a5.61,5.61,0,0,0,3.37-.4,1,1,0,0,1,.93,0,1.5,1.5,0,0,0,1.27,0,1.68,1.68,0,0,1,1.56.16,2.48,2.48,0,0,0,1.62.37,1.16,1.16,0,0,1,.63.12,6.2,6.2,0,0,1,2.54,2.19,10.62,10.62,0,0,1,1,2.46,4.26,4.26,0,0,1,.24,1.66,1.48,1.48,0,0,0,.51,1.23,1.23,1.23,0,0,1,.39,1.3,1.19,1.19,0,0,0,.1.81,2.35,2.35,0,0,1,.14.82c0,.39,0,.78,0,1.17s0,.73-.07,1.09A6.15,6.15,0,0,0,104,34.4a8.17,8.17,0,0,1,.6,2.4,5.18,5.18,0,0,1-.07,1.55,1.25,1.25,0,0,0,.36,1.32.92.92,0,0,1,.29.56,7.72,7.72,0,0,1,0,1.79,1.16,1.16,0,0,0,.11.68,1.22,1.22,0,0,1,.11,1,1.78,1.78,0,0,0,0,.75,5.26,5.26,0,0,1,.15.88c0,.85-.08,1.69-.17,2.53a5.9,5.9,0,0,0,.34,2.76,2.89,2.89,0,0,1,.26,1.58.86.86,0,0,0,0,.33,4.08,4.08,0,0,1,.08,1.92c-.08.31.13.57.38.79s.37.48.17.91a2.4,2.4,0,0,0,.15,2.24,2.82,2.82,0,0,1,.35,1.09A28.66,28.66,0,0,1,107,63.8a6.15,6.15,0,0,0,.37,2.62,19,19,0,0,1,.49,2.8,1.5,1.5,0,0,1-.12.63,1.13,1.13,0,0,0,.32,1.25.6.6,0,0,1,.12.87.76.76,0,0,0,0,1,.25.25,0,0,1,.05.22c-.23.42,0,.75.19,1.09a.85.85,0,0,1,.1.87,1,1,0,0,0,0,.82,2.34,2.34,0,0,1,.16.88c0,.87-.08,1.73-.16,2.6a5.55,5.55,0,0,0,.33,2.63,2.78,2.78,0,0,1,.26,1.65.36.36,0,0,0,0,.13,5.77,5.77,0,0,1,.1,2.24.83.83,0,0,0,.36.8.6.6,0,0,1,.16.81,2.3,2.3,0,0,0,.14,2.12,4.53,4.53,0,0,1,.45,2.65,25.38,25.38,0,0,0-.16,4.15,13.33,13.33,0,0,0,.5,2,1.58,1.58,0,0,1,.07.5,3.16,3.16,0,0,0,.09,1.47,1.21,1.21,0,0,1,0,.7,1.78,1.78,0,0,0,.14,1.51.69.69,0,0,1,0,.68,2.57,2.57,0,0,0,.08,2.33.78.78,0,0,1,0,.81ZM82.33,34.79c.19.59.35,1.15.54,1.7a2.56,2.56,0,0,1,0,2,.79.79,0,0,0,.08.75.74.74,0,0,1,.1.74,1.81,1.81,0,0,0,.14,1.74A2.91,2.91,0,0,1,83.62,43c0,.82,0,1.63.05,2.45.08,1.69,0,3.39.26,5.08a7,7,0,0,0,.29,1.06c.12.39.3.77.4,1.17A1.6,1.6,0,0,1,84.5,54a1.31,1.31,0,0,0,0,1.25,1.31,1.31,0,0,1,.1.69,2.52,2.52,0,0,0,.28,1.51,2.9,2.9,0,0,1,.37,1.3,21.79,21.79,0,0,0,.06,2.52c.06,1.21.06,2.43.12,3.65,0,.39.19.77.18,1.15a3.29,3.29,0,0,0,.24,1.2c.12.37.28.73.38,1.11a1.55,1.55,0,0,1,0,1.21,1.17,1.17,0,0,0,.07,1.29.57.57,0,0,1,.05.61,1.74,1.74,0,0,0,.13,1.68,2.77,2.77,0,0,1,.4,1.35,20.13,20.13,0,0,0,.08,2.65c0,.48,0,1,0,1.43,0,.76,0,1.52.11,2.28A6.32,6.32,0,0,0,87.35,83a8.91,8.91,0,0,1,.38,1,1.76,1.76,0,0,1-.07,1.51,1.28,1.28,0,0,0,0,1.2,1.29,1.29,0,0,1,.11.69A2.52,2.52,0,0,0,88,88.93a3.14,3.14,0,0,1,.37,1.3c0,.82,0,1.63.05,2.45.06,1,0,2.09.07,3.12a9.75,9.75,0,0,0,.71,3.56,7.72,7.72,0,0,0,1.17,2.15,1.37,1.37,0,0,0,1.89.44,5.42,5.42,0,0,1,.85-.32,1.33,1.33,0,0,0,1.09-1.79,7.73,7.73,0,0,1-.13-1.41c0-.69,0-1.39,0-2.08a1.79,1.79,0,0,0-.17-.56,4.45,4.45,0,0,1-.17-3.12,1.56,1.56,0,0,0-.13-1.37,1.76,1.76,0,0,1-.25-.66c-.08-.75-.12-1.51-.19-2.26,0-.56-.13-1.11-.17-1.67a5.73,5.73,0,0,1,0-1.35,2.49,2.49,0,0,0-.23-1.7,1.91,1.91,0,0,1-.23-1.12,15.69,15.69,0,0,0,0-1.89,1.76,1.76,0,0,0-.16-.56,4.48,4.48,0,0,1-.18-3.18A1.5,1.5,0,0,0,92,75.58a1.78,1.78,0,0,1-.26-.66c-.09-.77-.12-1.55-.19-2.32,0-.54-.12-1.07-.17-1.61a4.56,4.56,0,0,1-.07-1.22,2.73,2.73,0,0,0-.23-1.83,2,2,0,0,1-.19-1.14,15.34,15.34,0,0,0,0-1.89,1.7,1.7,0,0,0-.15-.56,4.47,4.47,0,0,1-.17-3.24,1.46,1.46,0,0,0-.13-1.25,2.05,2.05,0,0,1-.28-.72c-.09-.75-.12-1.51-.19-2.26,0-.56-.13-1.11-.17-1.67a5.73,5.73,0,0,1,0-1.35,2.57,2.57,0,0,0-.23-1.71,1.88,1.88,0,0,1-.25-.8,7.44,7.44,0,0,0-.4-3.38.41.41,0,0,1,0-.13A5.17,5.17,0,0,1,89,45.19a1.16,1.16,0,0,0-.12-1.06,2,2,0,0,1-.31-.71c-.09-.77-.12-1.55-.19-2.32,0-.54-.13-1.07-.17-1.61a5.44,5.44,0,0,1,0-1.35A2.57,2.57,0,0,0,88,36.49a2.53,2.53,0,0,1-.26-.8c-.07-.6-.09-1.21-.11-1.81A2.9,2.9,0,0,0,86.72,32a1.63,1.63,0,0,0-2.07-.27,5.44,5.44,0,0,1-.91.33c-.52.17-1.06.33-1.26.91-.08.23,0,.53-.06.77s-.5.06-.75.23-.36.31-.27.58a.43.43,0,0,0,.57.29ZM77.66,23.21h0c0,.06,0,.13,0,.19a.63.63,0,0,0,.54.55c.23,0,.46-.25.55-.55a1.09,1.09,0,0,0-.19-1,.54.54,0,0,0-.42-.23.65.65,0,0,0-.43.31A2.56,2.56,0,0,0,77.66,23.21ZM92,37.74a.62.62,0,0,0-.73-.57.68.68,0,1,0,.18,1.34A.67.67,0,0,0,92,37.74Zm2,6.34a1.47,1.47,0,0,0-.25.41,1.18,1.18,0,0,0,.77,1,.5.5,0,0,0,.4-.1.53.53,0,0,0,.07-.47,5.47,5.47,0,0,0-.69-.75C94.23,44.14,94.12,44.14,94,44.09ZM80.64,66.63a4.12,4.12,0,0,0-.22-.42A.51.51,0,0,0,79.8,66c-.27.07-.27.33-.28.53a1,1,0,0,0,.15.48c.15.31.45.47.67.36S80.68,67,80.64,66.63Zm-.14-4.38a.54.54,0,0,0-.66-.52.65.65,0,0,0-.53.76A.59.59,0,0,0,80,63,.62.62,0,0,0,80.5,62.25ZM73.6,60.71a.75.75,0,0,0-.78-.64.56.56,0,0,0-.54.54.68.68,0,0,0,.74.65A.54.54,0,0,0,73.6,60.71Zm5.55-28.81a.57.57,0,0,0-.58.57.75.75,0,0,0,.75.5.57.57,0,0,0,.52-.63A.6.6,0,0,0,79.15,31.91Zm-7.79,19.6c0,.45.29.73.6.71s.42-.23.36-.63-.36-.7-.67-.63S71.33,51.25,71.36,51.51Zm33.19,47.14c-.05-.38-.3-.62-.57-.56s-.42.36-.37.73.26.57.53.53A.58.58,0,0,0,104.55,98.64ZM76.42,72.27a.61.61,0,0,0,.49-.65.54.54,0,0,0-.6-.47.57.57,0,0,0-.47.66A.5.5,0,0,0,76.42,72.27ZM90.07,111.5a.49.49,0,0,0-.59-.46.55.55,0,0,0-.44.62.5.5,0,0,0,.59.46A.58.58,0,0,0,90.07,111.5ZM78.46,27.16a.55.55,0,0,0-.38.61.62.62,0,0,0,.56.54.5.5,0,0,0,.42-.56C79,27.45,78.71,27.14,78.46,27.16Zm27,65.18a.6.6,0,0,0,.53-.57.5.5,0,0,0-.56-.42.49.49,0,0,0-.51.54A.5.5,0,0,0,105.43,92.34ZM91,104.33a.53.53,0,0,0-.55.58.44.44,0,0,0,.52.37.57.57,0,0,0,.5-.64C91.45,104.36,91.26,104.3,91,104.33Zm8-39.65a.5.5,0,0,0-.51-.49.63.63,0,0,0-.5.6.49.49,0,0,0,.56.42A.47.47,0,0,0,99,64.68ZM81.85,101c-.11-.06-.28-.22-.46-.23a.56.56,0,0,0-.53.62.39.39,0,0,0,.46.36A.67.67,0,0,0,81.85,101ZM71.13,42.7c.05-.09.19-.23.2-.38a.7.7,0,0,0-.69-.63c-.22,0-.29.18-.29.35A.74.74,0,0,0,71.13,42.7ZM85.81,95.65a.57.57,0,0,0-.52.63.38.38,0,0,0,.46.34.56.56,0,0,0,.52-.63A.37.37,0,0,0,85.81,95.65ZM69.37,49.89a.51.51,0,0,0,.49-.5c0-.24-.23-.36-.54-.31s-.42.2-.39.48A.34.34,0,0,0,69.37,49.89Zm5,45a1.52,1.52,0,0,0-.44-.3c-.23-.07-.46.2-.44.44a.43.43,0,0,0,.42.42C74.17,95.53,74.42,95.26,74.42,94.93ZM98.17,96.7a1.14,1.14,0,0,0-.4-.21c-.24,0-.54.29-.49.5a.51.51,0,0,0,.33.32C97.87,97.36,98.18,97.06,98.17,96.7ZM88.73,36.35a.39.39,0,0,0,.39-.43.36.36,0,0,0-.41-.39.41.41,0,0,0-.44.38C88.23,36.13,88.48,36.36,88.73,36.35Zm-14.9,53.9c-.26-.17-.41-.34-.59-.36s-.37.18-.38.42.25.48.47.4S73.6,90.46,73.83,90.25Zm11.42,22c0-.38-.23-.54-.49-.5a.4.4,0,0,0-.36.39.43.43,0,0,0,.47.42C85.1,112.56,85.25,112.43,85.24,112.28ZM74.64,99.17c-.32.11-.43.27-.39.52s.18.4.44.35a.35.35,0,0,0,.31-.47C74.94,99.41,74.75,99.29,74.64,99.17ZM105,78.26a.45.45,0,0,0-.5-.39.35.35,0,0,0-.31.42c0,.27.2.36.45.34S105,78.51,105,78.26ZM72.07,30.52c-.23,0-.44.25-.34.44a.63.63,0,0,0,.4.32c.24,0,.38-.16.38-.41A.35.35,0,0,0,72.07,30.52Zm33.55,57a1,1,0,0,0,.2-.34c0-.21-.26-.41-.5-.37a.29.29,0,0,0-.26.37C105.1,87.39,105.27,87.49,105.62,87.48ZM75.34,103.92c-.1-.07-.25-.25-.42-.27s-.34.15-.34.38a.35.35,0,0,0,.42.37C75.23,104.39,75.35,104.28,75.34,103.92Zm17-36c-.07-.36-.24-.42-.46-.38s-.4.31-.3.49.29.28.38.24S92.26,68,92.35,68ZM78.29,64.89c0-.08.19-.22.2-.37s-.21-.33-.45-.3a.34.34,0,0,0-.34.38C77.72,64.89,77.93,64.94,78.29,64.89Zm-.52-25.28c-.17-.17-.25-.3-.36-.35s-.5.23-.46.42.21.28.27.26A2.65,2.65,0,0,0,77.77,39.61ZM73.54,65.67c.17-.25.34-.39.35-.53s-.17-.33-.4-.31-.35.13-.3.33S73.37,65.42,73.54,65.67ZM92.22,42.59c-.27-.15-.42-.3-.57-.31s-.32.18-.28.41.16.34.35.28S92,42.78,92.22,42.59Zm-18,10.5a2.39,2.39,0,0,0-.27.57c0,.23.13.35.36.33s.37-.17.3-.39S74.41,53.32,74.22,53.09Zm26.34,4.67a.89.89,0,0,0-.34-.18c-.24,0-.35.15-.33.38s.18.27.37.25S100.59,58.09,100.55,57.75ZM82.42,85.59a2,2,0,0,0,.19-.54.3.3,0,0,0-.41-.27.38.38,0,0,0-.2.32C82.06,85.25,82.21,85.36,82.42,85.59ZM80.77,20.9c-.25-.11-.39-.22-.53-.22S80,20.85,80,21s.17.32.35.25S80.56,21.1,80.77,20.9ZM70,33.38c0-.34-.19-.39-.38-.37s-.36.13-.28.33a.52.52,0,0,0,.37.27C69.78,33.62,69.9,33.43,70,33.38Zm1.85,34.54a2.55,2.55,0,0,0-.54-.31s-.23.23-.2.31a.5.5,0,0,0,.3.33C71.47,68.27,71.6,68.09,71.81,67.92Zm30.49,8.17c-.26-.11-.41-.22-.54-.21a.4.4,0,0,0-.23.31c0,.22.19.29.37.24S102.09,76.26,102.3,76.09ZM101,87.61c-.2-.12-.33-.25-.47-.26s-.26.22-.24.26a.64.64,0,0,0,.32.32C100.68,88,100.81,87.77,101,87.61Zm2.19-48.49c-.19-.12-.31-.25-.42-.24a.39.39,0,0,0-.28.24.23.23,0,0,0,.31.28C102.91,39.38,103,39.26,103.19,39.12ZM75.87,46.17a1.78,1.78,0,0,0-.19.53c0,.08.23.23.26.21a.72.72,0,0,0,.28-.35C76.23,46.48,76.05,46.36,75.87,46.17Zm-1.69,3.17c.1-.2.22-.35.19-.44s-.21-.17-.32-.25c-.08.11-.23.23-.23.34S74,49.18,74.18,49.34Zm.43-16.05c.1-.16.25-.31.22-.36a.49.49,0,0,0-.32-.22c-.06,0-.23.19-.21.26S74.48,33.16,74.61,33.29Zm4.72,70.34c-.08.16-.18.28-.16.35s.17.14.26.21c.07-.09.19-.19.18-.28S79.47,103.76,79.34,103.63ZM68.88,44.57c-.1.15-.23.25-.22.34s.15.16.23.25c.08-.09.21-.17.22-.26S69,44.71,68.88,44.57Zm25.81,46c-.15-.08-.27-.19-.35-.17a.34.34,0,0,0-.19.27c0,.07.17.19.25.18S94.57,90.69,94.69,90.56ZM80.25,25.28c.17.07.29.17.36.14a.37.37,0,0,0,.14-.29s-.17-.15-.23-.13S80.37,25.15,80.25,25.28ZM76,25.52c-.08.12-.18.21-.17.28s.12.15.18.23a1,1,0,0,0,.22-.26S76.08,25.63,76,25.52Zm2.77,23.32c.05-.16.12-.26.1-.33s-.13-.12-.2-.18-.14.17-.14.25S78.61,48.71,78.74,48.84ZM104,48.62v-.18c-.08,0-.17-.08-.23-.06s-.14.12-.21.19.15.14.24.16S104,48.66,104,48.62ZM84,77.81c-.11-.08-.18-.16-.23-.15s-.12.09-.18.14.11.14.17.15S83.85,77.88,84,77.81ZM105.46,62c-.11,0-.19-.11-.24-.1s-.11.1-.16.16.13.15.18.14S105.35,62.1,105.46,62ZM90.87,33.49c-.1-.07-.17-.15-.23-.14a.15.15,0,0,0,0,.31C90.73,33.65,90.79,33.56,90.87,33.49ZM71.25,47.32c.07-.1.15-.17.15-.23s-.1-.16-.15-.15a.22.22,0,0,0-.16.15C71.09,47.14,71.18,47.21,71.25,47.32Zm5.16,29.36c.05-.15.11-.24.09-.29s-.12-.08-.18-.09-.09.1-.08.15S76.32,76.56,76.42,76.68Z"/><path class="cls-2" d="M20.27,68.76l.68.14c.39.07.68,0,.79-.28s-.06-.54-.26-.74a.62.62,0,0,0-.83-.11,5.1,5.1,0,0,0-.53.5.62.62,0,0,1-.45-.64,10.41,10.41,0,0,1,0-1.43,3.26,3.26,0,0,0,0-1.92,1.44,1.44,0,0,1,1-.1c.22.06.48.11.55-.15a.77.77,0,0,0-.13-.58,1.11,1.11,0,0,0-1-.43,2.25,2.25,0,0,1-.31,0l-.52-3.3c.37-.17.87.05,1.07-.39a1.3,1.3,0,0,0,.09-.69c-.09-.56-.41-.66-1.3-.45a6,6,0,0,1,0-3l.45-.08a.45.45,0,0,0,.43-.48.56.56,0,0,0-.5-.52,4.3,4.3,0,0,0-.65.06,1.61,1.61,0,0,1-.08-.51,1.54,1.54,0,0,0-.38-1.27A1.6,1.6,0,0,1,18,51.08c.1-.62.16-1.25.28-1.87a1.38,1.38,0,0,0-.11-1,1,1,0,0,1-.11-.81A2,2,0,0,0,18,46a3.87,3.87,0,0,1-.27-1.79c0-.27-.14-.55-.14-.83a7.64,7.64,0,0,0-.32-2,2,2,0,0,1,.14-1.08,2.15,2.15,0,0,0,0-1.46,17.68,17.68,0,0,1-.39-1.8,7.32,7.32,0,0,0,.75-.23.54.54,0,1,0-.41-1,2,2,0,0,0-.39.24l-.45.34a2.52,2.52,0,0,1-.1-.73c.17-.87.37-1.74.59-2.6a1.66,1.66,0,0,1,.34-.54,1.09,1.09,0,0,0,.1-1.48.68.68,0,0,1,0-.84,2.8,2.8,0,0,0,.31-.58,5.45,5.45,0,0,1,1.82-2.09,3.85,3.85,0,0,1,.59-.41c.15-.09.33-.22.47-.18a.72.72,0,0,0,.78-.34.6.6,0,0,1,.27-.18l2.19-.62a6.3,6.3,0,0,0,.93-.27,2.21,2.21,0,0,1,1.4-.2A5.65,5.65,0,0,0,29.4,25a5,5,0,0,1,2.25-.4,14.87,14.87,0,0,0,1.49-.16,8.44,8.44,0,0,0,2-.16,1,1,0,0,1,.51,0,3.45,3.45,0,0,0,1.85,0,15.69,15.69,0,0,1,1.73-.21,2.78,2.78,0,0,0,.69-.16,4.2,4.2,0,0,1,2.37-.2,7,7,0,0,0,3.66-.3.9.9,0,0,1,.81,0,1.92,1.92,0,0,0,1.39.19,2.45,2.45,0,0,1,1.71.49.85.85,0,0,1,.15.12c.42.38.85.66,1.32.14.28.11.26.27.23.45-.09.57.06.84.6.95a1.23,1.23,0,0,1,1,.89,2.61,2.61,0,0,0,.55.87.93.93,0,0,1,.3.94,3.9,3.9,0,0,0,.07,1.87,17.31,17.31,0,0,1,.21,1.9l-.6.18c0,.14,0,.33.05.41.35.38.49-.12.77-.22a1.13,1.13,0,0,1,.48,1c.11.84.21,1.68.35,2.51a5.31,5.31,0,0,1,.25,1.07,15.4,15.4,0,0,1,0,2.79,1.68,1.68,0,0,0,.22,1.19A1.85,1.85,0,0,1,56,42.35a1.12,1.12,0,0,0,.13.63,1.74,1.74,0,0,1-.06,1.63,2.46,2.46,0,0,0-.21.81,1.16,1.16,0,0,0,.28.84c.37.47.31.69-.26.93a8.15,8.15,0,0,1-1.12.32c-.55.14-1.1.24-1.64.4a1.64,1.64,0,0,1-1.15,0,.8.8,0,0,0-.85.15c-.46.36-.47.35-.82-.11a.6.6,0,0,0-.85-.2,1.2,1.2,0,0,0-.36.27.73.73,0,0,1-.85.31h-.06c-1.12.29-2.35,0-3.4.67a5.19,5.19,0,0,1-2.68-.13,1.21,1.21,0,0,1-.68-1.47,2.52,2.52,0,0,0,0-1.41,1.74,1.74,0,0,1-.08-.77,2.25,2.25,0,0,0-.24-1.45.5.5,0,0,1,0-.42,1.28,1.28,0,0,0,.1-.79c-.09-1.28-.55-2.48-.73-3.74a2.58,2.58,0,0,0-1.15-2c-.22-.13-.34-.43-.53-.63s-.28-.32-.42-.32a.55.55,0,0,0-.42.32c-.09.52-.39.49-.81.46a3.44,3.44,0,0,0-2.32.72,1.74,1.74,0,0,0-.77,1.69,3.34,3.34,0,0,1-.13,1.22,5.2,5.2,0,0,0-.05,1.88c.08.84.22,1.68.37,2.51a1.92,1.92,0,0,0,.35.76,1.18,1.18,0,0,1,.11,1.28,7.82,7.82,0,0,0-.3.93,1.74,1.74,0,0,0-.07.45c0,.64.19.79.82.62a1.07,1.07,0,0,1,.24,0,2.2,2.2,0,0,1,.05,1.5c0,.13-.26.22-.36.3a2.62,2.62,0,0,1,0,.77,2.08,2.08,0,0,0,.06,1.47,2.59,2.59,0,0,1,.24,1.39,1.41,1.41,0,0,0,.08.7,1.8,1.8,0,0,1,0,1.22,6,6,0,0,0,0,2.53c.09.68.24,1.36.37,2a1.53,1.53,0,0,0,.18.55,1.8,1.8,0,0,1,.23,1.31c0,.21,0,.43-.07.63,0,0-.07.08-.1.1-.24.12-.64.16-.55.52a2.07,2.07,0,0,0,.51.86c.18.19.47.07.56-.19a4,4,0,0,0,.11-.6.53.53,0,0,1,.35.6,6.88,6.88,0,0,0,0,.72c0,.61.28.83.89.73s1.27-.27,1.91-.4l1.27-.27A3.58,3.58,0,0,0,42,65a1.5,1.5,0,0,1,1.32,0,8.25,8.25,0,0,0,2.63.39A2.53,2.53,0,0,0,47.39,65a2.25,2.25,0,0,1,1.39-.26,2.26,2.26,0,0,0,.78,0,1.58,1.58,0,0,1,1.24.22,2,2,0,0,0,1.93.19,1.86,1.86,0,0,1,.89,0c.26,0,.5.16.75.2a1.32,1.32,0,0,1,1.15.87,4.54,4.54,0,0,0,1.17,1.29.72.72,0,0,0,.49.09.5.5,0,0,1,.56.36c.28.73.53,1.47.81,2.2a1.91,1.91,0,0,1,.08,1.21,2,2,0,0,0,.14,1.27c.17.44.22.94.41,1.36a2.74,2.74,0,0,1-.06,2.61,1.06,1.06,0,0,0,.17,1.16.75.75,0,0,1,.08,1A1.07,1.07,0,0,0,59.45,80a1.52,1.52,0,0,1,.33,1,9.58,9.58,0,0,0,.52,2.94.66.66,0,0,1,0,.19c0,1,.06,2,0,2.92a2.22,2.22,0,0,0,.18,1.32,1.89,1.89,0,0,1,.28,1.24,1.45,1.45,0,0,0,.18.75,1.46,1.46,0,0,1,0,1.26c-.09.2-.18.4-.25.6a1.27,1.27,0,0,0,.17,1.35.65.65,0,0,1,.06.84,1.11,1.11,0,0,0,.1,1.39,1.45,1.45,0,0,1,.32,1,9.73,9.73,0,0,0,.51,2.88A1.15,1.15,0,0,1,62,100c0,.93,0,1.86,0,2.79a2.55,2.55,0,0,0,.18,1.39,1.1,1.1,0,0,1,.13.3c.13.7.27,1.4.35,2.11a1.42,1.42,0,0,1-.17.8,3.79,3.79,0,0,0-.49,2.25,7.73,7.73,0,0,1-.16,1.55,4.84,4.84,0,0,1-.21,1.27,13.8,13.8,0,0,1-1,1.82.8.8,0,0,1-.49.28,1.86,1.86,0,0,0-1.42,1.22,1.58,1.58,0,0,1-1.53,1.11,8.81,8.81,0,0,0-2.28.73,8.14,8.14,0,0,1-2.89.66.78.78,0,0,1-.5-.2c-.23-.25-.41-.33-.61,0s-.39.23-.63.27l-3.22.5a1,1,0,0,0-.31.1,1.53,1.53,0,0,1-1.5,0,.81.81,0,0,0-.38-.07L42.1,119a.33.33,0,0,0-.22.1c-.27.35-.62.28-1,.17a1.77,1.77,0,0,0-1.56.18,3.46,3.46,0,0,1-.85.33c-.65.17-.76.11-1.07-.52-.06.06-.15.11-.17.17-.19.58-.23.63-.81.43a4.39,4.39,0,0,0-2.06-.18,1,1,0,0,0-.32.06,3.49,3.49,0,0,1-2.46.1,10.26,10.26,0,0,0-1.16-.15,1.32,1.32,0,0,1-1.15-.63,1,1,0,0,0-.83-.54,1.7,1.7,0,0,1-.76-.32,14,14,0,0,1-1.41-1.25,1.88,1.88,0,0,1-.35-.74,1.61,1.61,0,0,1,0-.58,1.06,1.06,0,0,0-.79-1.23,3.64,3.64,0,0,0,.44-.1c.36-.14.55-.41.49-.67a.81.81,0,0,0-.85-.56,3.09,3.09,0,0,0-.42.14,3.05,3.05,0,0,1-.07-.44,1.23,1.23,0,0,1,.07-.32,1.78,1.78,0,0,0-.36-1.92,4.79,4.79,0,0,0,.44-.24,2.1,2.1,0,0,0,.5-.4.64.64,0,0,0,.09-.73c-.15-.27-.4-.22-.63-.19l-.45,0a.93.93,0,0,1-.13-.26c-.12-1-.19-2-.37-3a4.91,4.91,0,0,1,.06-2.81,1.69,1.69,0,0,0-.1-.89c-.07-.32-.22-.62-.3-.93s0-.52.42-.52a1.55,1.55,0,0,0,.51,0,.89.89,0,0,0,.44-.34c.16-.27,0-.66-.41-.93s-.62-.26-.88,0-.31.34-.48.53c-.39-.38-.31-.82-.34-1.21a5.53,5.53,0,0,1,.07-.84c0-.43.08-.86.08-1.29s.07-.46.41-.4a1.57,1.57,0,0,0,.39,0,.46.46,0,0,0,.48-.44.48.48,0,0,0-.53-.46,2.32,2.32,0,0,0-.51.08c-.14,0-.28.08-.43.13-.21-.24-.06-.44,0-.62a2,2,0,0,0,0-1.46c-.15-.51-.25-1-.37-1.54.38-.26,1-.18.86-.81s-.56-.37-1-.46c0-1.13-.43-2.26-.1-3.45a2.48,2.48,0,0,1,.28,0,.57.57,0,0,0,.69-.22.81.81,0,0,0-.2-.89,2.11,2.11,0,0,0-.56-.29,2.81,2.81,0,0,0-.47-.1c0-.26-.06-.49-.07-.73a1.33,1.33,0,0,0-.34-.9,1.6,1.6,0,0,1-.38-1.34c.07-.6.2-1.2.28-1.8a1.7,1.7,0,0,0,0-.89,2.46,2.46,0,0,1-.18-1.19.82.82,0,0,1,.36-.82c.34-.22.25-.63-.13-.81C21,76.8,21,76.8,21,76.2a8.37,8.37,0,0,0-.12-1,19,19,0,0,0-.38-2.36,2,2,0,0,1,.17-1,2.27,2.27,0,0,0,0-1.47C20.48,69.89,20.4,69.36,20.27,68.76Zm20.22,36.58.87.67c.07.05.16.14.22.13.71-.13,1.41.11,2.11,0a3.13,3.13,0,0,0,1.07-.45c.4-.21.43-.48.14-.83s-.29-.73.19-.9c.67-.24.76-.7.68-1.29-.17-1.25-.33-2.5-.52-3.75a4.47,4.47,0,0,0-.33-1.12,5.8,5.8,0,0,1-.51-2.9,4,4,0,0,0-.21-2.3c-.14-.26,0-.42.21-.54a.65.65,0,0,0,.32-.66,1.64,1.64,0,0,0-.29-.65,2.06,2.06,0,0,1-.32-1.37,10.44,10.44,0,0,0,.1-1.88c-.14-1.45-.35-2.89-.56-4.33a3.24,3.24,0,0,0-.3-1.06,6.19,6.19,0,0,1-.57-2.58,1.28,1.28,0,0,0-1-1.31,21.43,21.43,0,0,0-2.58-.22.36.36,0,0,0-.12,0,2.24,2.24,0,0,0-1.24,1.63c0,.12.11.25.18.39l.78-.37c0,.63-.12,1.14-.12,1.65s-.1.94-.57,1.06a6.3,6.3,0,0,0,.09,1.31,6.31,6.31,0,0,1,.36,2.42.14.14,0,0,0,0,.06c.14.36.35.72,0,1.09,0,0,0,.15.05.24a1,1,0,0,1,.05.44,3.9,3.9,0,0,0,0,1.94,1.17,1.17,0,0,1,0,.64A1.26,1.26,0,0,0,38.94,92a2.27,2.27,0,0,1,.38,2.38,2.26,2.26,0,0,0-.16,1c0,.39.24.51.63.42s.63,0,.56.43A8.72,8.72,0,0,1,40,98a3,3,0,0,0,0,2.22,3,3,0,0,1,.15.94c0,1,.07,2,.1,2.93a1.24,1.24,0,0,0,0,.19ZM28.64,79.77c.52-.05.79-.24.87-.59a.74.74,0,0,0-.45-.84c-.51-.29-.9-.32-1.15-.08a.47.47,0,0,0-.08.1,1,1,0,0,0,.07,1A.64.64,0,0,0,28.64,79.77ZM33.7,32.35a.7.7,0,0,0-.94-.6A1.15,1.15,0,0,0,32.1,33a.65.65,0,0,0,.32.37C32.88,33.51,33.74,32.83,33.7,32.35ZM25.59,83.87a.92.92,0,0,0-.91-.67.77.77,0,0,0-.61.8.83.83,0,0,0,.83.74A.84.84,0,0,0,25.59,83.87ZM22,66.17c.09.5.32.72.67.61a1,1,0,0,0,.61-.85.85.85,0,0,0-.51-.83.45.45,0,0,0-.66.31A5.82,5.82,0,0,0,22,66.17ZM20.55,33.59a.85.85,0,0,0-.79-.64c-.3,0-.73.64-.71,1a.66.66,0,0,0,.71.52A1,1,0,0,0,20.55,33.59Zm7.68,60.68a5.31,5.31,0,0,0-.73.36.41.41,0,0,0-.1.62,1.08,1.08,0,0,0,1,.23.78.78,0,0,0,.49-.77C28.91,94.35,28.76,94.22,28.22,94.28Zm-2-12a1.21,1.21,0,0,0,1-.75.67.67,0,0,0-.11-.53.71.71,0,0,0-.57-.17,1.43,1.43,0,0,0-.64.41.59.59,0,0,0-.06.78A1.18,1.18,0,0,0,26.23,82.25ZM29.54,108a.69.69,0,0,0-.65.75c0,.39.38.6.88.53s.73-.36.67-.71A.8.8,0,0,0,29.54,108Zm-.94,8c-.05-.43-.4-.82-.71-.8a.76.76,0,0,0-.63.84.71.71,0,0,0,.86.58A.5.5,0,0,0,28.61,116Zm-1.52-13.79a.7.7,0,0,0-.77-.69.6.6,0,0,0-.59.63.93.93,0,0,0,.94.8C27,102.93,27.13,102.66,27.09,102.22ZM25.87,67.7a3.56,3.56,0,0,0-.2-.47.5.5,0,0,0-.6-.28.58.58,0,0,0-.43.59,1,1,0,0,0,.58.86.38.38,0,0,0,.57-.24A2.48,2.48,0,0,0,25.87,67.7Zm-.33,30a.59.59,0,0,0,.64.58.67.67,0,0,0,.65-.74.62.62,0,0,0-.73-.56A.58.58,0,0,0,25.53,97.66Zm4,6.45a.45.45,0,0,0-.53-.44.79.79,0,0,0-.74.76.66.66,0,0,0,.6.51A.82.82,0,0,0,29.51,104.11ZM21.46,36a.5.5,0,0,0,.62.5.63.63,0,0,0,.53-.76c-.06-.4-.33-.66-.63-.6A.77.77,0,0,0,21.46,36ZM24,49.41c0-.34-.26-.56-.53-.53a.74.74,0,0,0-.6.81.51.51,0,0,0,.55.5C23.83,50.16,24,49.88,24,49.41Zm26.92,52.15a.74.74,0,0,0,.73.69.59.59,0,0,0,.45-.64.68.68,0,0,0-.71-.62A.46.46,0,0,0,50.91,101.56ZM29.74,83.09a.51.51,0,0,0-.59-.52.58.58,0,0,0-.6.68.62.62,0,0,0,.69.54A.57.57,0,0,0,29.74,83.09Zm6.52,17.23c-.47.26-.8.58-.84.89a.89.89,0,0,0,.15.52c0,.07.29.13.33.09a3.47,3.47,0,0,0,.51-.72A.54.54,0,0,0,36.26,100.32ZM53.12,90.8c.34,0,.6-.28.56-.52a.86.86,0,0,0-.87-.55c-.36,0-.57.25-.54.53A.72.72,0,0,0,53.12,90.8ZM19.26,29.71a.57.57,0,0,0,.57-.58.65.65,0,0,0-.65-.59.61.61,0,0,0-.54.68A.53.53,0,0,0,19.26,29.71Zm1.22,8.75a.61.61,0,0,0-.57-.51.63.63,0,0,0-.54.69.61.61,0,0,0,.64.59A.77.77,0,0,0,20.47,38.46ZM22.72,70.4c.38.41.75.54,1.09.36a.55.55,0,0,0,.27-.38.53.53,0,0,0-.26-.39C23.45,69.78,23,69.94,22.72,70.4ZM18.18,40.34a.49.49,0,0,0-.46.51.72.72,0,0,0,.73.6.45.45,0,0,0,.43-.47A.77.77,0,0,0,18.18,40.34ZM21.06,52a.57.57,0,0,0,.58.57.55.55,0,0,0,.44-.61.66.66,0,0,0-.61-.57C21.19,51.43,21,51.68,21.06,52Zm29.46-6a.58.58,0,0,0-.41.7.47.47,0,0,0,.55.42.52.52,0,0,0,.47-.65A.59.59,0,0,0,50.52,46.05ZM20.29,42.49a.59.59,0,0,0-.51.64.48.48,0,0,0,.57.4.49.49,0,0,0,.49-.62A.45.45,0,0,0,20.29,42.49ZM27.17,65.8a.6.6,0,0,0,.51-.58.51.51,0,0,0-.6-.45.49.49,0,0,0-.46.59A.51.51,0,0,0,27.17,65.8Zm17,0c0-.34-.22-.5-.5-.45a.6.6,0,0,0-.53.57.48.48,0,0,0,.61.42A.43.43,0,0,0,44.18,65.83Zm9.62,13.24a.57.57,0,0,0,.59-.63c0-.28-.19-.36-.45-.34s-.72.32-.68.64S53.5,79.1,53.81,79.07Zm-28.2,9a.46.46,0,0,0-.54-.35.64.64,0,0,0-.53.64.5.5,0,0,0,.51.4A.71.71,0,0,0,25.6,88.11Zm4.61,9.5a.58.58,0,0,0,.49-.59.55.55,0,0,0-.57-.44.46.46,0,0,0-.45.58A.47.47,0,0,0,30.22,97.62ZM21.6,30.94a.49.49,0,0,0-.38.53.59.59,0,0,0,.73.47.38.38,0,0,0,.35-.46A.64.64,0,0,0,21.6,30.94ZM28.14,90.5a.75.75,0,0,0-.15-.22.72.72,0,0,0-1,.41.4.4,0,0,0,.08.29.46.46,0,0,0,.58.11C27.9,91,28.14,90.86,28.14,90.5ZM31,30.24a.53.53,0,0,0-.54-.51.46.46,0,0,0-.42.54.53.53,0,0,0,.59.52C30.94,30.76,31,30.6,31,30.24Zm10.08,39a.59.59,0,0,0,.5-.64.37.37,0,0,0-.44-.35.61.61,0,0,0-.48.65A.34.34,0,0,0,41.08,69.27ZM57,106.07a.43.43,0,0,0-.52-.36.54.54,0,0,0-.48.58.45.45,0,0,0,.52.37A.57.57,0,0,0,57,106.07ZM25.25,26.87c.35,0,.61-.31.56-.58s-.27-.3-.49-.28-.63.27-.6.53S24.94,26.91,25.25,26.87Zm14.6,48.05a.51.51,0,0,0-.46.58.43.43,0,0,0,.51.37.51.51,0,0,0,.46-.58A.43.43,0,0,0,39.85,74.92ZM25.75,93.57a.41.41,0,0,0,.37-.5.55.55,0,0,0-.51-.49.44.44,0,0,0-.4.49A.52.52,0,0,0,25.75,93.57Zm4.11-.65c.31,0,.46-.19.43-.44s-.26-.4-.58-.37-.46.14-.47.42S29.52,93,29.86,92.93Zm16.24,21.45a.48.48,0,0,0,.38-.58.43.43,0,0,0-.48-.41.48.48,0,0,0-.38.58A.43.43,0,0,0,46.11,114.37ZM26.49,34.9a.47.47,0,0,0-.37.53.48.48,0,0,0,.48.5.5.5,0,0,0,.39-.52A.55.55,0,0,0,26.49,34.9Zm4,36.93a.47.47,0,1,0-.93.17.47.47,0,0,0,.93-.17Zm2.55-23.09a.52.52,0,0,0-.51-.52.4.4,0,0,0-.38.49c0,.27.27.47.5.37A1.45,1.45,0,0,0,33.07,48.74ZM25,105c-.06-.4-.32-.65-.54-.58a.41.41,0,0,0-.31.49c0,.27.31.54.51.44S24.93,105.07,25,105ZM55.16,87.28c-.06-.06-.19-.25-.36-.3s-.43.25-.4.54.23.52.44.45S55.21,87.7,55.16,87.28ZM25,42.24c-.05-.37-.28-.57-.5-.54a.4.4,0,0,0-.32.47c0,.25.29.46.51.37S24.91,42.31,25,42.24Zm6.09,13.82a1.18,1.18,0,0,0,.19-.41c0-.2-.31-.44-.51-.4s-.36.14-.34.39A.56.56,0,0,0,31.07,56.07ZM44.63,33.42a1.33,1.33,0,0,0-.48-.18c-.25,0-.38.26-.34.53s.22.29.43.25A.48.48,0,0,0,44.63,33.42ZM34.82,67c0-.37-.23-.57-.48-.55a.35.35,0,0,0-.34.39.37.37,0,0,0,.46.4A1.13,1.13,0,0,0,34.82,67Zm8.62-26c.36,0,.58-.27.48-.45a.71.71,0,0,0-.42-.32c-.21,0-.46.23-.39.41S43.36,40.86,43.44,40.94Zm-13.13,10a.37.37,0,0,0-.35.46.36.36,0,0,0,.44.35.37.37,0,0,0,.35-.45A.37.37,0,0,0,30.3,50.91Zm-5.76-13c-.27-.16-.44-.32-.62-.34a.33.33,0,0,0-.34.39c0,.24.29.48.5.39S24.34,38.1,24.55,37.89Zm28.16,1.69a1.09,1.09,0,0,0-.37-.22c-.21,0-.4.21-.38.42a.4.4,0,0,0,.44.37C52.66,40.13,52.75,40,52.71,39.59Zm-26.64-9.1c-.32,0-.47.26-.43.48a.31.31,0,0,0,.41.28c.21,0,.39-.17.34-.38S26.16,30.58,26.07,30.48Zm2.12-2.74c-.14.25-.28.39-.3.55s.12.35.36.33.44-.21.36-.41S28.4,28,28.19,27.74ZM52.81,85.38c-.25-.17-.41-.34-.58-.37s-.34.15-.31.39.14.45.41.38S52.59,85.56,52.81,85.38Zm-24-11a2.25,2.25,0,0,0-.57-.29c-.2,0-.45.28-.35.42a.63.63,0,0,0,.44.26C28.46,74.73,28.58,74.53,28.8,74.34ZM24,33a1,1,0,0,0-.13.38.4.4,0,0,0,.45.37c.2,0,.3-.16.28-.36A.48.48,0,0,0,24,33ZM49.39,74.55a2.28,2.28,0,0,0-.65-.28c-.22,0-.34.16-.28.4a.34.34,0,0,0,.49.26C49.09,74.9,49.18,74.75,49.39,74.55ZM32.53,65c-.24-.17-.37-.33-.52-.35s-.33.15-.3.38.16.37.38.31S32.33,65.12,32.53,65ZM59.85,87.28c-.27-.15-.42-.3-.58-.31a.29.29,0,0,0-.31.38.49.49,0,0,0,.36.28C59.47,87.62,59.61,87.45,59.85,87.28ZM50.23,41.78c-.06.1-.2.24-.22.39a.3.3,0,0,0,.37.34c.21,0,.37-.13.34-.38S50.57,41.78,50.23,41.78Zm3.87,57.47A1.18,1.18,0,0,0,53.7,99a.3.3,0,0,0-.36.35.33.33,0,0,0,.39.33C54,99.7,54.1,99.61,54.09,99.26Zm-1.77,7.36c0-.33-.17-.49-.4-.43a.52.52,0,0,0-.33.31.27.27,0,0,0,.33.36A1.25,1.25,0,0,0,52.33,106.62Zm1.34-11.8c-.26-.15-.39-.3-.55-.31a.29.29,0,0,0-.33.37.32.32,0,0,0,.42.29C53.34,95.12,53.44,95,53.67,94.81Zm-19.47,9.09c-.26-.14-.41-.28-.57-.28s-.24.24-.24.37a.29.29,0,0,0,.39.3C33.91,104.26,34,104.1,34.19,103.91Zm-1.46,11.56c-.24-.16-.37-.32-.5-.31a.52.52,0,0,0-.36.27c-.08.17.15.39.35.34A2.35,2.35,0,0,0,32.74,115.47Zm12.81-6.24c-.3,0-.47.28-.38.48a.43.43,0,0,0,.31.22.38.38,0,0,0,.31-.47C45.75,109.35,45.61,109.28,45.55,109.23Zm-13.16,1.44a1.93,1.93,0,0,0-.53-.21c-.21,0-.28.17-.26.36s.14.35.33.29S32.17,110.88,32.39,110.66ZM21.62,55.9c-.16.28-.31.42-.3.57s.2.26.33.28a.25.25,0,0,0,.28-.33A2.46,2.46,0,0,0,21.62,55.9Zm13.6,41.25a2.15,2.15,0,0,0,.21-.62c0-.08-.19-.21-.31-.22a.27.27,0,0,0-.29.38C34.87,96.83,35,96.92,35.22,97.15Zm-8,14.54c.14-.23.27-.36.27-.49s-.2-.25-.29-.24a.4.4,0,0,0-.26.29C27,111.35,27.11,111.47,27.26,111.69ZM22.48,81.81c-.21-.14-.33-.28-.46-.29s-.23.18-.25.3a.25.25,0,0,0,.31.3C22.19,82.1,22.29,82,22.48,81.81ZM49.37,99.49c-.14.17-.27.24-.28.34a.32.32,0,0,0,.35.37c.09,0,.28-.2.26-.26A1.74,1.74,0,0,0,49.37,99.49ZM29.78,88.09c-.21-.12-.33-.26-.44-.25s-.19.18-.28.28c.1.08.2.23.31.23S29.59,88.22,29.78,88.09Zm1.07,29.64c-.18-.11-.3-.24-.41-.24a.24.24,0,0,0-.21.36.4.4,0,0,0,.31.21C30.63,118,30.71,117.88,30.85,117.73Zm24.39-76c-.2-.12-.33-.25-.43-.23s-.19.18-.28.28c.1.09.2.24.3.24S55,41.86,55.23,41.72Zm.41,50.35c-.17-.07-.31-.18-.38-.15s-.17.19-.25.3c.11.07.23.21.32.19S55.51,92.22,55.64,92.07Zm-9.47,1.47c.1-.15.23-.24.22-.33s-.16-.22-.23-.21a.35.35,0,0,0-.23.24C45.92,93.31,46.06,93.4,46.17,93.54Zm12.58,5.3a.32.32,0,0,0-.54,0,.28.28,0,0,0,0,.26C58.47,99.15,58.68,99.14,58.75,98.84ZM27.86,69.63c-.08.17-.2.3-.17.37a.41.41,0,0,0,.3.16s.16-.17.14-.24S28,69.75,27.86,69.63Zm4.82,24.87c-.16-.1-.28-.22-.35-.2a.41.41,0,0,0-.19.29s.16.17.23.16S32.54,94.61,32.68,94.49ZM24.06,79.36c.18.07.31.17.39.14s.14-.18.15-.29-.17-.15-.24-.13S24.19,79.24,24.06,79.36Zm28.08,1.21L52,80.7c0,.1-.1.21-.08.31s.15.1.23.14a.88.88,0,0,0,.14-.3C52.26,80.76,52.18,80.67,52.14,80.57Zm-19-27.45L33,53c-.1,0-.21-.12-.31-.11s-.1.15-.15.24.19.15.3.16S33,53.17,33.11,53.13Zm14.42-8.55c.15.36.29.44.47.31s0-.19,0-.29Zm-24.14.26c-.16-.08-.27-.18-.36-.17a.31.31,0,0,0-.18.25.32.32,0,0,0,.25.2C23.2,45.11,23.27,45,23.39,44.84Zm.88,9.2c-.15-.09-.26-.2-.3-.18s-.16.17-.24.26c.08.06.17.17.23.15S24.14,54.15,24.27,54ZM36.45,85a1.82,1.82,0,0,0-.35-.19S36,85,36,85a1.28,1.28,0,0,0,.21.25Zm13.31,19.41c.05-.14.13-.24.1-.32s-.14-.13-.21-.2a.85.85,0,0,0-.16.3C49.49,104.27,49.64,104.33,49.76,104.43ZM25.91,46.74c-.19-.05-.31-.13-.39-.1s-.15.16-.22.25.15.16.23.17S25.67,47,25.91,46.74Zm4.61,55a1.29,1.29,0,0,0-.11.31.25.25,0,0,0,.19.07.22.22,0,0,0,.11-.18C30.7,101.89,30.61,101.84,30.51,101.75ZM26.43,56c-.15-.05-.23-.11-.31-.1s-.13.14-.11.18.14.17.2.17S26.33,56.14,26.43,56Zm-5.87-8.44,0,.1.33-.07c0-.05-.06-.15-.07-.14A2.38,2.38,0,0,0,20.56,47.58Zm2-7.17v.17l.32,0s0-.07,0-.11Zm4.11,66.4c-.08-.07-.13-.14-.17-.14a.72.72,0,0,0-.21.09c0,.06.08.15.14.16S26.62,106.86,26.72,106.8Zm.37-21.07-.15.25a.67.67,0,0,0,.21.09s.11-.09.1-.12S27.17,85.84,27.09,85.74Z"/></g></g></svg>