<?xml version="1.0" encoding="UTF-8" standalone="no"?>
<svg width="32px" height="32px" viewBox="0 0 32 32" version="1.1" xmlns="http://www.w3.org/2000/svg" xmlns:xlink="http://www.w3.org/1999/xlink">
    <!-- Generator: Sketch 40.2 (33826) - http://www.bohemiancoding.com/sketch -->
    <title>spotify-icon</title>
    <desc>Created with Sketch.</desc>
    <defs></defs>
    <g id="Page-1" stroke="none" stroke-width="1" fill="none" fill-rule="evenodd">
        <g id="social" transform="translate(-16.000000, -51.000000)" fill="#000000">
            <g id="spotify-icon" transform="translate(16.000000, 51.000000)">
                <path d="M16,0 C7.2,0 0,7.2 0,16 C0,24.8 7.2,32 16,32 C24.8,32 32,24.8 32,16 C32,7.2 24.8,0 16,0 M23.3,23.1 C23,23.6 22.4,23.7 21.9,23.4 C18.1,21.1 13.4,20.6 7.8,21.9 C7.3,22 6.7,21.7 6.6,21.2 C6.5,20.7 6.8,20.1 7.4,20 C13.5,18.6 18.7,19.2 22.9,21.8 C23.5,22 23.6,22.6 23.3,23.1 M25.3,18.7 C24.9,19.3 24.2,19.5 23.6,19.1 C19.3,16.5 12.7,15.7 7.7,17.2 C7,17.4 6.3,17 6.1,16.4 C5.9,15.7 6.3,15 6.9,14.8 C12.7,13 19.9,13.9 24.9,16.9 C25.5,17.4 25.7,18.1 25.3,18.7 M25.5,14.2 C20.3,11.1 11.8,10.9 6.9,12.3 C6.1,12.5 5.3,12.1 5,11.3 C4.8,10.5 5.2,9.7 6,9.4 C11.7,7.7 21,8 27,11.5 C27.7,11.9 27.9,12.8 27.5,13.6 C27.1,14.4 26.2,14.6 25.5,14.2" id="Shape"></path>
            </g>
        </g>
    </g>
</svg>