<svg xmlns="http://www.w3.org/2000/svg" viewBox="0 0 21.01 20.88"><defs><style>.cls-1{fill:#00344d;}</style></defs><title>Asset 3</title><g id="Layer_2" data-name="Layer 2"><g id="Layer_1-2" data-name="Layer 1"><path class="cls-1" d="M17.65,20.88a13,13,0,0,1-1.62-.8c-1.06-.77-2.09-1.59-3.13-2.39-1.49-1.14-2.38-1.2-4-.16-.9.59-1.73,1.3-2.62,1.91a3.8,3.8,0,0,1-2.15,1.12,3.44,3.44,0,0,1,0-.83c.42-1.56.84-3.12,1.3-4.67.54-1.82.39-2.39-1.18-3.56-1.36-1-2.75-2-4.1-3A.65.65,0,0,1,0,7.88a.6.6,0,0,1,.53-.26,2.65,2.65,0,0,0,2.6,0c.41-.23,1.06,0,1.59,0a13.44,13.44,0,0,0,2-.22A2,2,0,0,0,8.37,5.87c.41-1.41.91-2.79,1.37-4.18.17-.5.36-1,.63-1.69.32.33.64.5.67.71.25,1.95,1.44,3.56,1.92,5.43a1.89,1.89,0,0,0,2,1.35c1.23,0,2.47,0,3.71,0a6.08,6.08,0,0,1,1.6.12c.29.09.49.5.78.83a17.79,17.79,0,0,1-3.28,2.7c-.46.29-.92.57-1.37.86a1.79,1.79,0,0,0-.78,2A10.54,10.54,0,0,0,16,15.38c.46,1.31.93,2.62,1.38,3.93A12.91,12.91,0,0,1,17.65,20.88Zm-6.12-6c.12-.06.31-.1.33-.18s-.06-.27-.1-.41l-.46.28ZM10.41,6.44c0-.11.14-.23.13-.33s-.16-.13-.25-.2c0,.11-.15.23-.13.33S10.32,6.38,10.41,6.44Z"/></g></g></svg>