<svg xmlns="http://www.w3.org/2000/svg" viewBox="0 0 21.9 20.93"><defs><style>.cls-1{fill:#ef4123;}</style></defs><title>star-red</title><g id="Layer_2" data-name="Layer 2"><g id="Layer_1-2" data-name="Layer 1"><path class="cls-1" d="M4.37,20.93a8.55,8.55,0,0,1,.14-1.54C5,17.91,5.5,16.46,5.94,15c.54-1.78.38-2.28-1.07-3.38C3.64,10.66,2.35,9.8,1.11,8.88A11.82,11.82,0,0,1,0,7.76a6.33,6.33,0,0,1,1.44-.39c1,0,2,.13,3,.17a11.3,11.3,0,0,0,1.39-.06c1.77-.15,3.08-.86,3.52-2.76a4.12,4.12,0,0,1,1.46-2.49C11,1.46,9.91.49,11.39,0a6.54,6.54,0,0,1,.49,1c.5,1.62,1,3.26,1.47,4.88a1.88,1.88,0,0,0,2.42,1.56,8.91,8.91,0,0,1,3-.17c1,.18,2,.3,3.15.47-.18.38-.23.79-.47,1-1.36,1-2.73,2-4.15,3A2.29,2.29,0,0,0,16,14.15a6.64,6.64,0,0,1,0,1.38,1.17,1.17,0,0,0,.41,1,5.16,5.16,0,0,1,1.45,4c0,.06-.09.12-.24.32a5.87,5.87,0,0,1-1.34-.56,35.21,35.21,0,0,1-3.07-2.47,2.86,2.86,0,0,0-4.15-.09C8,18.62,6.8,19.46,5.6,20.32A10.16,10.16,0,0,1,4.37,20.93Z"/></g></g></svg>