<?xml version="1.0" encoding="UTF-8" standalone="no"?>
<svg version="1.1" xmlns="http://www.w3.org/2000/svg" xmlns:xlink="http://www.w3.org/1999/xlink">
  <symbol id="twitter-icon" viewBox="0 0 32 26">
    <path d="M32,3.1 C30.8,3.6 29.6,4 28.2,4.1 C29.6,3.3 30.6,2 31.1,0.5 C29.8,1.3 28.4,1.8 26.9,2.1 C25.7,0.8 24,0 22.2,0 C18.6,0 15.6,2.9 15.6,6.6 C15.6,7.1 15.7,7.6 15.8,8.1 C10.3,7.8 5.5,5.2 2.3,1.2 C1.7,2.2 1.4,3.3 1.4,4.5 C1.4,6.8 2.6,8.8 4.3,10 C3.2,10 2.2,9.7 1.3,9.2 L1.3,9.3 C1.3,12.5 3.6,15.1 6.6,15.7 C6,15.8 5.5,15.9 4.9,15.9 C4.5,15.9 4.1,15.9 3.7,15.8 C4.5,18.4 7,20.3 9.8,20.4 C7.6,22.2 4.7,23.2 1.6,23.2 C1.1,23.2 0.5,23.2 0,23.1 C2.9,25 6.4,26 10.1,26 C22.2,26 28.8,16 28.8,7.3 L28.8,6.5 C30,5.5 31.1,4.4 32,3.1 L32,3.1 Z" id="Shape"></path>
  </symbol>
  <symbol id="facebook-icon" viewBox="0 0 16 30">
    <path d="M10.1,31 L10.1,17.3 L14.7,17.3 L15.4,12 L10.1,12 L10.1,8.6 C10.1,7.1 10.5,6 12.7,6 L15.5,6 L15.5,1.2 C15,1.1 13.3,1 11.4,1 C7.3,1 4.5,3.5 4.5,8 L4.5,12 L0,12 L0,17.3 L4.6,17.3 L4.6,31 L10.1,31 L10.1,31 Z" id="Shape"></path>
  </symbol>
  <symbol id="spotify-icon" viewBox="0 0 32 32">
    <path d="M16,0 C7.2,0 0,7.2 0,16 C0,24.8 7.2,32 16,32 C24.8,32 32,24.8 32,16 C32,7.2 24.8,0 16,0 M23.3,23.1 C23,23.6 22.4,23.7 21.9,23.4 C18.1,21.1 13.4,20.6 7.8,21.9 C7.3,22 6.7,21.7 6.6,21.2 C6.5,20.7 6.8,20.1 7.4,20 C13.5,18.6 18.7,19.2 22.9,21.8 C23.5,22 23.6,22.6 23.3,23.1 M25.3,18.7 C24.9,19.3 24.2,19.5 23.6,19.1 C19.3,16.5 12.7,15.7 7.7,17.2 C7,17.4 6.3,17 6.1,16.4 C5.9,15.7 6.3,15 6.9,14.8 C12.7,13 19.9,13.9 24.9,16.9 C25.5,17.4 25.7,18.1 25.3,18.7 M25.5,14.2 C20.3,11.1 11.8,10.9 6.9,12.3 C6.1,12.5 5.3,12.1 5,11.3 C4.8,10.5 5.2,9.7 6,9.4 C11.7,7.7 21,8 27,11.5 C27.7,11.9 27.9,12.8 27.5,13.6 C27.1,14.4 26.2,14.6 25.5,14.2" id="Shape"></path>
  </symbol>
</svg>

