<?xml version="1.0" encoding="UTF-8"?>
<svg width="30px" height="22px" viewBox="0 0 30 22" version="1.1" xmlns="http://www.w3.org/2000/svg" xmlns:xlink="http://www.w3.org/1999/xlink">
    <!-- Generator: Sketch 40.3 (33839) - http://www.bohemiancoding.com/sketch -->
    <title>youtube-icon</title>
    <desc>Created with Sketch.</desc>
    <defs></defs>
    <g id="Page-1" stroke="none" stroke-width="1" fill="none" fill-rule="evenodd">
        <g id="social" transform="translate(-17.000000, -56.000000)" fill="#000000">
            <g id="youtube-icon" transform="translate(17.000000, 56.000000)">
                <path d="M29.7,5 C29.7,5 29.4,2.9 28.5,2 C27.4,0.8 26.1,0.8 25.5,0.7 C21.3,0.4 15,0.4 15,0.4 L15,0.4 C15,0.4 8.7,0.4 4.5,0.7 C3.9,0.8 2.6,0.8 1.5,2 C0.6,2.9 0.3,5 0.3,5 C0.3,5 0,7.4 0,9.9 L0,12.2 C0,14.6 0.3,17.1 0.3,17.1 C0.3,17.1 0.6,19.2 1.5,20.1 C2.6,21.3 4.1,21.3 4.8,21.4 C7.2,21.6 15,21.7 15,21.7 C15,21.7 21.3,21.7 25.5,21.4 C26.1,21.3 27.4,21.3 28.5,20.1 C29.4,19.2 29.7,17.1 29.7,17.1 C29.7,17.1 30,14.7 30,12.2 L30,9.9 C30,7.4 29.7,5 29.7,5 L29.7,5 Z M11.9,14.9 L11.9,6.5 L20,10.7 L11.9,14.9 L11.9,14.9 Z" id="Shape"></path>
            </g>
        </g>
    </g>
</svg>